<svg width="32" height="32" viewBox="0 0 32 32" fill="none" xmlns="http://www.w3.org/2000/svg">
<rect x="4.05914" y="3.99988" width="24" height="24" rx="12" fill="#DAE7F1"/>
<g clip-path="url(#clip0_7967_40137)">
<path d="M17.8655 15.3202L19.0403 13.3267L22.207 18.2589L22.2085 19.2055L22.1982 12.692C22.1907 12.5328 22.1061 12.3871 21.9713 12.3012L16.27 9.02179C16.1367 8.95621 15.9675 8.95697 15.8344 9.02386C15.8164 9.03282 15.7995 9.04264 15.7834 9.05335L15.7635 9.06584L10.2296 12.2727L10.2082 12.2824C10.1805 12.2951 10.1526 12.3113 10.1264 12.33C10.0215 12.4052 9.95183 12.5165 9.92929 12.6413C9.9259 12.6603 9.92339 12.6795 9.92224 12.699L9.93094 18.0068L12.8805 13.435C13.2519 12.8288 14.061 12.6336 14.8121 12.6442L15.6937 12.6674L10.4994 20.9975L11.1117 21.35L16.3681 12.6759L18.6915 12.6675L13.4486 21.5604L15.6335 22.8171L15.8945 22.9672C16.0049 23.0121 16.1351 23.0144 16.2465 22.9741L22.0278 19.6238L20.9225 20.2643L17.8655 15.3202ZM18.3137 21.7761L16.107 18.3127L17.4541 16.0269L20.3521 20.5948L18.3137 21.7761Z" fill="#2D374B"/>
<path d="M16.1073 18.3137L18.3139 21.7771L20.3525 20.5958L17.4543 16.0278L16.1073 18.3137Z" fill="#28A0F0"/>
<path d="M22.2085 19.2062L22.207 18.2596L19.0403 13.3274L17.8655 15.3209L20.9225 20.265L22.0278 19.6245C22.1362 19.5364 22.2018 19.4072 22.2087 19.2678L22.2085 19.2062Z" fill="#28A0F0"/>
<path d="M8.93945 20.099L10.5003 20.9985L15.6945 12.6684L14.8129 12.6452C14.0618 12.6346 13.2527 12.8298 12.8814 13.436L9.93177 18.0078L8.93945 19.5325V20.099V20.099Z" fill="white"/>
<path d="M18.6911 12.6685L16.3678 12.6769L11.1114 21.3509L12.9487 22.4088L13.4483 21.5614L18.6911 12.6685Z" fill="white"/>
<path d="M23.1877 12.6559C23.1683 12.17 22.9052 11.7252 22.4931 11.4663L16.7172 8.14465C16.3095 7.9394 15.8003 7.93914 15.392 8.14452C15.3437 8.16887 9.77498 11.3985 9.77498 11.3985C9.69791 11.4355 9.62367 11.4795 9.55385 11.5295C9.18598 11.7931 8.96175 12.2028 8.93872 12.6529V19.5319L9.93104 18.0072L9.92237 12.6994C9.92352 12.68 9.92596 12.6609 9.92942 12.6421C9.95186 12.5172 10.0216 12.4058 10.1266 12.3305C10.1528 12.3117 15.8166 9.03327 15.8346 9.02428C15.9677 8.95742 16.1369 8.95663 16.2702 9.0222L21.9714 12.3016C22.1063 12.3875 22.1908 12.5331 22.1983 12.6923V19.2674C22.1915 19.4068 22.1363 19.536 22.0279 19.6241L20.9226 20.2646L20.3523 20.5951L18.3138 21.7765L16.2466 22.9745C16.1353 23.0147 16.0051 23.0125 15.8946 22.9676L13.4488 21.5608L12.9491 22.4082L15.1472 23.6737C15.2198 23.7151 15.2846 23.7517 15.3377 23.7815C15.42 23.8277 15.4761 23.8585 15.4959 23.8682C15.6521 23.944 15.8769 23.9882 16.0795 23.9882C16.2652 23.9882 16.4463 23.9541 16.6176 23.887L22.6221 20.4096C22.9667 20.1426 23.1695 19.7399 23.1877 19.3037V12.6559Z" fill="#96BEDC"/>
</g>
<defs>
<clipPath id="clip0_7967_40137">
<rect width="16" height="16" fill="white" transform="translate(8.05914 7.99988)"/>
</clipPath>
</defs>
</svg>
