<?xml version="1.0" encoding="UTF-8" standalone="no"?>
<svg
   id="Layer_1"
   version="1.1"
   viewBox="0 0 1073.3101 273.70999"
   width="1073.3101"
   height="273.70999"
   xmlns="http://www.w3.org/2000/svg"
   xmlns:svg="http://www.w3.org/2000/svg">
  <!-- Generator: Adobe Illustrator 30.0.0, SVG Export Plug-In . SVG Version: 2.1.1 Build 123)  -->
  <defs
     id="defs716">
    <style
       id="style714">
      .st0 {
        fill: #fff;
      }
    </style>
  </defs>
  <path
     class="st0"
     d="M 230.78,60.82 130.88,2.81 C 127.64,0.96 124.11,0 120.52,0 116.93,0 113.4,0.95 110.22,2.81 L 10.3,60.87 C 3.96,64.57 0,71.4 0,78.78 v 116.13 c 0,7.38 3.96,14.29 10.3,17.97 l 17.97,10.44 26.21,15.22 5.87,-16.17 53.98,-148.88 c 0.49,-1.45 -0.55,-3.01 -2.17,-3.01 H 86.85 c -1.88,0 -3.62,1.19 -4.22,2.95 L 34.17,207.15 18.78,198.21 C 17.62,197.54 16.9,196.3 16.9,194.97 V 78.79 c 0,-1.33 0.72,-2.57 1.88,-3.24 l 99.93,-58.06 c 0.55,-0.35 1.22,-0.49 1.85,-0.49 0.63,0 1.27,0.17 1.88,0.49 l 99.95,58.06 c 1.16,0.67 1.88,1.91 1.88,3.24 v 116.13 c 0,1.33 -0.72,2.57 -1.88,3.24 l -15.22,8.85 -40.04,-110.48 c -0.72,-2.03 -3.5,-2.03 -4.22,0 l -13.19,36.34 c -0.38,1.01 -0.38,2.14 0,3.12 l 31.24,86.24 -10.39,6.05 L 145,157.66 c -0.72,-2.03 -3.5,-2.03 -4.22,0 L 127.59,194 c -0.38,1.01 -0.38,2.14 0,3.12 l 16.81,46.38 -21.93,12.76 c -0.55,0.35 -1.21,0.49 -1.88,0.49 -0.67,0 -1.27,-0.17 -1.88,-0.49 L 97.04,243.65 158.69,73.54 c 0.55,-1.5 -0.55,-3.1 -2.11,-3.1 h -25.31 c -1.88,0 -3.62,1.19 -4.22,2.95 l -56.21,155.01 -5.87,16.17 26.21,15.22 19.12,11.11 c 3.18,1.85 6.74,2.81 10.3,2.81 3.56,0 7.12,-0.95 10.3,-2.81 l 99.95,-58.06 c 6.39,-3.7 10.3,-10.53 10.3,-17.97 V 78.8 c 0,-7.38 -3.96,-14.29 -10.3,-17.97 h -0.06 z"
     id="path718" />
  <g
     id="g736"
     transform="translate(-120.56,-120.56)">
    <path
       class="st0"
       d="m 470.1,222.22 c 2.52,0 4.7,0.51 6.44,1.57 1.74,1.06 3.47,3.08 5.15,6.1 l 33.25,60.34 c 0.34,0.67 0.39,1.23 0.23,1.68 -0.17,0.45 -0.67,0.67 -1.45,0.67 h -12.76 c -1.12,0 -1.9,-0.45 -2.3,-1.29 l -7.11,-12.93 h -47.19 l -6.94,12.93 c -0.45,0.9 -1.23,1.29 -2.3,1.29 h -13.04 c -0.89,0 -1.4,-0.23 -1.57,-0.67 -0.17,-0.45 -0.11,-1.01 0.23,-1.68 l 32.97,-60.34 c 1.68,-3.02 3.3,-5.04 4.93,-6.1 1.62,-1.06 3.47,-1.57 5.6,-1.57 h 5.88 v 0 z m -19.54,44.39 h 34.59 L 469.2,237.17 c -0.28,-0.45 -0.62,-0.73 -1.12,-0.73 h -0.62 c -0.45,0 -0.84,0.23 -1.12,0.73 l -15.79,29.44 v 0 z"
       id="path720" />
    <path
       class="st0"
       d="m 587.99,222.22 c 7.72,0 13.21,1.74 16.57,5.21 3.36,3.47 5.04,8.62 5.04,15.45 v 5.71 c 0,5.76 -1.17,10.3 -3.53,13.66 -2.35,3.36 -6.16,5.49 -11.48,6.44 l 17.19,21.27 c 0.34,0.34 0.45,0.84 0.28,1.51 -0.11,0.68 -0.67,1 -1.62,1 h -12.93 c -0.89,0 -1.45,-0.11 -1.79,-0.28 -0.34,-0.23 -0.67,-0.56 -1.01,-1.01 l -15.9,-20.88 h -32.46 v 19.99 c 0,1.45 -0.73,2.19 -2.18,2.19 h -10.86 c -1.57,0 -2.3,-0.73 -2.3,-2.19 v -65.05 c 0,-2.02 1.01,-3.02 3.02,-3.02 z M 546.4,258.1 h 38.46 c 3.42,0 5.82,-0.73 7.22,-2.18 1.4,-1.45 2.13,-3.7 2.13,-6.72 V 245 c 0,-3.02 -0.73,-5.26 -2.13,-6.72 -1.4,-1.45 -3.81,-2.19 -7.22,-2.19 h -37.17 c -0.89,0 -1.29,0.39 -1.29,1.23 v 20.77 0 z"
       id="path722" />
    <path
       class="st0"
       d="m 693.62,222.22 c 6.89,0 11.81,1.4 14.72,4.14 2.91,2.74 4.36,6.89 4.36,12.42 v 4.81 c 0,5.6 -2.13,9.85 -6.44,12.76 4.59,2.68 6.94,7 6.94,12.93 v 5.82 c 0,2.68 -0.28,5.09 -0.9,7.22 -0.62,2.13 -1.57,3.97 -2.96,5.49 -1.4,1.51 -3.19,2.68 -5.49,3.47 -2.3,0.79 -5.09,1.23 -8.45,1.23 h -59.68 c -2.02,0 -3.02,-1 -3.02,-3.02 v -64.26 c 0,-2.02 1.01,-3.02 3.02,-3.02 h 57.89 z m -45.51,29.22 h 41.2 c 3.36,0 5.6,-0.51 6.83,-1.51 1.23,-1.01 1.79,-2.46 1.79,-4.42 v -3.42 c 0,-2.07 -0.56,-3.58 -1.74,-4.59 -1.17,-0.95 -3.08,-1.45 -5.66,-1.45 h -41.09 c -0.9,0 -1.29,0.45 -1.29,1.29 v 14.1 h -0.06 0.01 z m 0,10.98 v 14.95 c 0,0.89 0.45,1.29 1.29,1.29 h 41.2 c 2.68,0 4.59,-0.51 5.71,-1.45 1.12,-0.95 1.74,-2.52 1.74,-4.64 v -3.81 c 0,-2.07 -0.62,-3.64 -1.85,-4.7 -1.23,-1.06 -3.53,-1.62 -6.89,-1.62 h -41.2 z"
       id="path724" />
    <path
       class="st0"
       d="m 750.67,222.22 c 1.45,0 2.18,0.73 2.18,2.18 v 65.89 c 0,1.45 -0.73,2.18 -2.18,2.18 h -10.86 c -1.57,0 -2.3,-0.73 -2.3,-2.18 v -65.83 c 0,-1.45 0.78,-2.19 2.3,-2.19 l 10.86,-0.06 z"
       id="path726" />
    <path
       class="st0"
       d="m 855.91,222.22 c 1.57,0 2.3,0.73 2.3,2.18 v 9.85 c 0,1.57 -0.78,2.3 -2.3,2.3 h -31.52 v 53.74 c 0,1.45 -0.73,2.18 -2.19,2.18 h -10.97 c -1.45,0 -2.18,-0.73 -2.18,-2.18 v -53.74 h -31.52 c -1.57,0 -2.3,-0.78 -2.3,-2.3 v -9.85 c 0,-1.45 0.78,-2.18 2.3,-2.18 z"
       id="path728" />
    <path
       class="st0"
       d="m 935.34,222.22 c 7.72,0 13.21,1.74 16.57,5.21 3.36,3.47 5.04,8.62 5.04,15.45 v 5.71 c 0,5.76 -1.17,10.3 -3.53,13.66 -2.35,3.36 -6.16,5.49 -11.48,6.44 l 17.19,21.27 c 0.34,0.34 0.45,0.84 0.28,1.51 -0.11,0.68 -0.67,1 -1.62,1 h -12.93 c -0.9,0 -1.45,-0.11 -1.79,-0.28 -0.34,-0.23 -0.67,-0.56 -1,-1.01 L 926.17,270.3 H 893.7 v 19.99 c 0,1.45 -0.73,2.19 -2.18,2.19 h -10.86 c -1.57,0 -2.3,-0.73 -2.3,-2.19 v -65.05 c 0,-2.02 1.01,-3.02 3.02,-3.02 z M 893.8,258.1 h 38.46 c 3.42,0 5.82,-0.73 7.22,-2.18 1.4,-1.45 2.13,-3.7 2.13,-6.72 V 245 c 0,-3.02 -0.73,-5.26 -2.13,-6.72 -1.4,-1.45 -3.81,-2.19 -7.22,-2.19 h -37.17 c -0.89,0 -1.29,0.39 -1.29,1.23 v 20.77 0 z"
       id="path730" />
    <path
       class="st0"
       d="m 991.82,222.22 c 1.45,0 2.19,0.73 2.19,2.18 v 40.08 c 0,2.68 0.23,4.93 0.67,6.66 0.45,1.79 1.17,3.19 2.19,4.2 1.01,1.06 2.35,1.79 4.08,2.19 1.74,0.45 3.87,0.67 6.49,0.67 h 27.82 c 2.63,0 4.76,-0.23 6.49,-0.67 1.74,-0.45 3.08,-1.17 4.09,-2.19 1,-1.06 1.74,-2.46 2.13,-4.2 0.39,-1.79 0.62,-3.97 0.62,-6.66 V 224.4 c 0,-1.45 0.73,-2.18 2.19,-2.18 h 10.97 c 1.45,0 2.18,0.73 2.18,2.18 v 41.59 c 0,4.81 -0.51,8.9 -1.51,12.32 -1.01,3.36 -2.63,6.1 -4.87,8.23 -2.24,2.13 -5.15,3.64 -8.74,4.59 -3.58,0.95 -7.89,1.4 -12.99,1.4 h -28.94 c -5.09,0 -9.4,-0.45 -12.93,-1.4 -3.53,-0.95 -6.44,-2.46 -8.68,-4.59 -2.24,-2.13 -3.86,-4.87 -4.93,-8.23 -1.06,-3.36 -1.57,-7.5 -1.57,-12.32 V 224.4 c 0,-1.45 0.78,-2.18 2.3,-2.18 z"
       id="path732" />
    <path
       class="st0"
       d="m 1107.09,222.22 c 1.45,0 2.74,0.11 3.81,0.28 1.06,0.23 2.02,0.56 2.8,1.17 0.79,0.56 1.51,1.34 2.18,2.3 0.62,0.95 1.29,2.24 1.96,3.86 l 20.88,48.2 c 0.28,0.62 0.73,0.89 1.41,0.89 h 1.23 c 0.67,0 1.12,-0.28 1.4,-0.89 l 20.88,-48.2 c 0.67,-1.62 1.34,-2.91 1.96,-3.86 0.62,-0.95 1.34,-1.74 2.18,-2.3 0.79,-0.56 1.74,-0.95 2.75,-1.17 1.06,-0.23 2.29,-0.28 3.75,-0.28 h 10.74 c 3.47,0 5.83,0.78 7.06,2.35 1.23,1.57 1.79,4.25 1.79,8.06 v 57.66 c 0,1.45 -0.79,2.18 -2.3,2.18 h -10.24 c -1.46,0 -2.19,-0.73 -2.19,-2.18 v -52.45 c 0,-0.68 -0.28,-1.01 -0.78,-1.01 h -0.9 c -0.67,0 -1.12,0.28 -1.29,0.78 l -20.27,45.01 c -0.78,1.79 -1.62,3.36 -2.46,4.59 -0.84,1.23 -1.74,2.24 -2.69,3.08 -0.95,0.79 -2.06,1.4 -3.3,1.74 -1.23,0.34 -2.68,0.51 -4.36,0.51 h -4.81 c -1.68,0 -3.14,-0.17 -4.37,-0.51 -1.23,-0.34 -2.35,-0.9 -3.3,-1.74 -0.95,-0.78 -1.9,-1.85 -2.68,-3.08 -0.84,-1.23 -1.68,-2.74 -2.47,-4.59 l -20.26,-45.01 c -0.23,-0.56 -0.62,-0.78 -1.29,-0.78 h -0.9 c -0.56,0 -0.78,0.34 -0.78,1.01 v 52.45 c 0,1.45 -0.73,2.18 -2.19,2.18 h -10.25 c -1.57,0 -2.3,-0.73 -2.3,-2.18 v -57.66 c 0,-3.81 0.62,-6.49 1.79,-8.06 1.23,-1.57 3.58,-2.35 7.11,-2.35 h 10.69 z"
       id="path734" />
  </g>
</svg>
