<svg width="200" height="200" viewBox="0 0 200 200" fill="none" xmlns="http://www.w3.org/2000/svg">
<path fill-rule="evenodd" clip-rule="evenodd" d="M170.826 99.5C170.826 138.436 139.262 170 100.326 170C61.3895 170 29.8254 138.436 29.8254 99.5C29.8254 60.5639 61.3895 29 100.326 29C139.262 29 170.826 60.5639 170.826 99.5ZM80.348 127.554H66.666C63.791 127.554 62.3708 127.554 61.5048 127C60.5696 126.394 59.998 125.389 59.9287 124.281C59.8768 123.259 60.5868 122.012 62.0071 119.518L95.7898 59.9712C97.2272 57.4425 97.9547 56.1783 98.8726 55.7106C99.8598 55.2085 101.037 55.2085 102.025 55.7106C102.943 56.1783 103.67 57.4425 105.108 59.9712L112.053 72.0945L112.088 72.1564C113.641 74.8692 114.428 76.2448 114.772 77.6886C115.153 79.2646 115.153 80.9272 114.772 82.5033C114.425 83.9582 113.646 85.3438 112.07 88.0975L94.3246 119.466L94.2787 119.546C92.7157 122.281 91.9237 123.667 90.826 124.714C89.6311 125.857 88.1936 126.688 86.6176 127.156C85.1801 127.554 83.5694 127.554 80.348 127.554ZM114.9 127.555H134.505C137.397 127.555 138.852 127.556 139.718 126.984C140.653 126.378 141.242 125.356 141.294 124.248C141.344 123.259 140.65 122.061 139.288 119.712C139.242 119.632 139.194 119.55 139.147 119.468L129.327 102.668L129.215 102.479C127.835 100.145 127.138 98.9669 126.244 98.5115C125.257 98.0091 124.096 98.0091 123.109 98.5115C122.208 98.9789 121.481 100.209 120.044 102.685L110.258 119.485L110.225 119.543C108.792 122.015 108.076 123.251 108.128 124.265C108.197 125.373 108.769 126.395 109.704 127.001C110.553 127.555 112.007 127.555 114.9 127.555Z" fill="#E84142"/>
</svg>
