<svg width="200" height="200" viewBox="0 0 200 200" fill="none" xmlns="http://www.w3.org/2000/svg">
<path d="M61.5514 100L45.8515 115.721L30 100L45.8456 84.1392L61.5514 100ZM99.933 61.5817L126.974 88.6483L142.825 72.7933L99.933 30L57.0408 72.9333L72.8922 88.7883L99.933 61.5817ZM154.02 84.1392L138.315 100L154.16 115.861L170 100L154.02 84.1392ZM99.933 138.418L72.8922 111.212L57.0408 127.072L99.933 170L142.825 127.067L126.974 111.212L99.933 138.418ZM99.933 115.727L115.779 99.86L99.933 84.145L84.0873 100L99.933 115.721V115.727Z" fill="#FCD535"/>
</svg>
