<?xml version="1.0" encoding="UTF-8" standalone="no"?>
<svg
   enable-background="new 0 0 1920 1080"
   viewBox="0 0 1080 270.60001"
   version="1.1"
   id="svg30"
   width="1080"
   height="270.60001"
   xmlns="http://www.w3.org/2000/svg"
   xmlns:svg="http://www.w3.org/2000/svg">
  <defs
     id="defs34" />
  <g
     fill="white"
     id="g18"
     transform="translate(-420,-404.7)">
    <path
       d="m 726.2,560.4 c 0,1.9 -1.6,3.5 -3.6,3.5 h -66.3 c 1.7,16.4 14,31.4 31.4,31.4 11.9,0 20.7,-4.5 27.3,-14 0.7,-1 1.7,-1.7 2.9,-1.7 1.9,0 3.3,1.4 3.3,3.3 0,0.7 -0.2,1.2 -0.5,1.7 -6.7,11.6 -20,17.3 -33,17.3 -22.3,0 -38.3,-20 -38.3,-41.3 0,-21.4 15.9,-41.3 38.3,-41.3 22.3,0 38.4,19.8 38.5,41.1 z m -7.1,-3.1 c -1.4,-16.4 -14,-31.4 -31.4,-31.4 -17.4,0 -29.7,15 -31.4,31.4 z"
       id="path2" />
    <path
       d="m 806.7,520.9 c 1.9,0 3.3,1.7 3.3,3.3 0,1.9 -1.4,3.3 -3.3,3.3 h -17.8 v 69.9 c 0,1.7 -1.4,3.3 -3.3,3.3 -1.9,0 -3.3,-1.7 -3.3,-3.3 v -69.9 h -17.1 c -1.9,0 -3.3,-1.4 -3.3,-3.3 0,-1.7 1.4,-3.3 3.3,-3.3 h 17.1 v -25.5 c 0,-1.7 1.3,-3.3 3,-3.5 2.1,-0.2 3.7,1.3 3.7,3.3 v 25.7 z"
       id="path4" />
    <path
       d="M 915.3,554.7 V 597 c 0,1.9 -1.7,3.3 -3.3,3.3 -1.9,0 -3.3,-1.4 -3.3,-3.3 v -42.3 c 0,-14.3 -8.1,-28.5 -24,-28.5 -20.4,0 -29.2,17.8 -28,36.1 0,0.5 0.2,2.6 0.2,2.9 v 31.7 c 0,1.7 -1.3,3.3 -3,3.5 -2.1,0.2 -3.7,-1.3 -3.7,-3.3 V 458 c 0,-1.7 1.4,-3.3 3.3,-3.3 1.9,0 3.3,1.7 3.3,3.3 v 78.6 c 5.7,-10.2 15.9,-17.1 27.8,-17.1 19.6,0 30.7,17.1 30.7,35.2 z"
       id="path6" />
    <path
       d="m 1034.4,560.4 c 0,1.9 -1.6,3.5 -3.6,3.5 h -66.3 c 1.7,16.4 14,31.4 31.4,31.4 11.9,0 20.7,-4.5 27.3,-14 0.7,-1 1.7,-1.7 2.9,-1.7 1.9,0 3.3,1.4 3.3,3.3 0,0.7 -0.2,1.2 -0.5,1.7 -6.7,11.6 -20,17.3 -33,17.3 -22.3,0 -38.3,-20 -38.3,-41.3 0,-21.4 15.9,-41.3 38.3,-41.3 22.2,0 38.3,19.8 38.5,41.1 z m -7.2,-3.1 c -1.4,-16.4 -14,-31.4 -31.4,-31.4 -17.3,0 -29.7,15 -31.4,31.4 z"
       id="path8" />
    <path
       d="m 1115.8,524 c 0,2.1 -1.2,3.3 -3.1,3.6 -19.5,2.9 -28.3,18.8 -28.3,37.3 v 31.7 c 0,1.7 -1.3,3.3 -3,3.5 -2.1,0.2 -3.7,-1.3 -3.7,-3.3 v -72.3 c 0,-1.7 1.3,-3.3 3,-3.5 2.1,-0.2 3.7,1.3 3.7,3.3 V 539 c 5.5,-9.3 16.4,-18.1 27.8,-18.1 1.7,0 3.6,1.2 3.6,3.1 z"
       id="path10" />
    <path
       d="m 1224.9,560.4 c 0,1.9 -1.6,3.5 -3.6,3.5 H 1155 c 1.7,16.4 14,31.4 31.4,31.4 11.9,0 20.7,-4.5 27.3,-14 0.7,-1 1.7,-1.7 2.9,-1.7 1.9,0 3.3,1.4 3.3,3.3 0,0.7 -0.2,1.2 -0.5,1.7 -6.7,11.6 -20,17.3 -33,17.3 -22.3,0 -38.3,-20 -38.3,-41.3 0,-21.4 15.9,-41.3 38.3,-41.3 22.3,0 38.4,19.8 38.5,41.1 z m -7.1,-3.1 c -1.4,-16.4 -14,-31.4 -31.4,-31.4 -17.4,0 -29.7,15 -31.4,31.4 z"
       id="path12" />
    <path
       d="m 1332.1,524.8 v 22.9 49.7 c 0,1.9 -1.7,3.3 -3.3,3.3 -1.9,0 -3.3,-1.4 -3.3,-3.3 v -13.8 c -5.5,10.9 -15.2,18.8 -27.6,18.8 -19.7,0 -30.6,-17.1 -30.6,-35.2 v -42.5 c 0,-1.7 1.4,-3.3 3.3,-3.3 1.9,0 3.3,1.7 3.3,3.3 v 42.5 c 0,14.3 8.1,28.5 24,28.5 22.3,0 27.6,-20.9 27.6,-44 v -27.1 c 0,-2 2.1,-4 4.5,-3.1 1.2,0.6 2.1,1.9 2.1,3.3 z"
       id="path14" />
    <path
       d="m 1500,554.4 v 42.5 c 0,1.9 -1.7,3.3 -3.3,3.3 -1.9,0 -3.3,-1.4 -3.3,-3.3 v -42.5 c 0,-14.3 -8.1,-28.3 -24,-28.3 -20,0 -27.6,21.4 -27.6,38 v 32.8 c 0,1.9 -1.7,3.3 -3.3,3.3 -1.9,0 -3.3,-1.4 -3.3,-3.3 v -42.5 c 0,-14.3 -8.1,-28.3 -24,-28.3 -20.2,0 -28.5,15.9 -27.8,37.1 0,0.5 0.2,1.4 0,1.7 v 31.9 c 0,1.7 -1.3,3.3 -3,3.5 -2.1,0.2 -3.7,-1.3 -3.7,-3.3 v -72.5 c 0,-1.7 1.3,-3.3 3,-3.5 2.1,-0.2 3.7,1.3 3.7,3.3 v 12.1 c 5.7,-10.2 15.9,-16.9 27.8,-16.9 13.5,0 24,8.6 28.3,21.1 5.5,-12.4 16.2,-21.1 29.9,-21.1 19.5,0 30.6,16.9 30.6,34.9 z"
       id="path16" />
  </g>
  <path
     d="m 83,100.1 -83,37.7 83,49.1 83.1,-49.1 z"
     opacity="0.6"
          fill="white"
     id="path20" />
  <path
     d="m 0,137.8 83,49.1 V 100.1 0 Z"
     opacity="0.45"
          fill="white"
     id="path22" />
  <path
     d="m 83,0 v 100.1 86.8 l 83.1,-49.1 z"
     opacity="0.8"
          fill="white"
     id="path24" />
  <path
     d="m 0,153.6 83,117 v -68 z"
     opacity="0.45"
          fill="white"
     id="path26" />
  <path
     d="m 83,202.6 v 68 l 83.1,-117 z"
     opacity="0.8"
          fill="white"
     id="path28" />
</svg>
