<svg width="200" height="200" viewBox="0 0 200 200" fill="none" xmlns="http://www.w3.org/2000/svg">
<circle cx="99.8405" cy="99.8406" r="70.5426" fill="#FF0420"/>
<path d="M73.3949 123.529C70.0345 123.529 67.0187 122.99 64.3476 121.913C61.7196 120.836 59.6301 119.242 58.0791 117.131C56.5282 115.02 55.7527 112.435 55.7527 109.376C55.7527 108.472 55.8604 107.33 56.0758 105.951C56.8082 101.772 57.6052 98.0457 58.4669 94.7714C59.9317 88.9123 62.5166 84.4963 66.2217 81.5236C69.9698 78.5079 74.9889 77 81.2789 77C84.5962 77 87.5905 77.5601 90.2615 78.6802C92.9327 79.8003 95.0437 81.459 96.5948 83.6562C98.1456 85.8103 98.9212 88.4168 98.9212 91.4756C98.9212 92.3804 98.8135 93.479 98.5981 94.7714C97.9948 98.2611 97.1978 101.988 96.207 105.951C94.7422 111.854 92.1357 116.269 88.3876 119.199C84.6825 122.086 79.6848 123.529 73.3949 123.529ZM74.3642 113.835C76.6907 113.835 78.6509 113.168 80.245 111.832C81.8821 110.453 83.0454 108.364 83.7347 105.564C84.6825 101.643 85.4365 98.1103 85.9964 94.9653C86.1688 94.1037 86.2549 93.2205 86.2549 92.3157C86.2549 88.5676 84.2947 86.6935 80.3741 86.6935C78.0478 86.6935 76.066 87.3828 74.4289 88.7615C72.8348 90.097 71.6931 92.165 71.0038 94.9653C70.2714 97.6795 69.4959 101.212 68.6774 105.564C68.505 106.425 68.4189 107.308 68.4189 108.213C68.4189 111.961 70.4007 113.835 74.3642 113.835Z" fill="white"/>
<path d="M101.69 122.883C101.216 122.883 100.85 122.732 100.591 122.43C100.333 122.129 100.247 121.741 100.333 121.267L109.251 79.3265C109.337 78.8525 109.574 78.4648 109.962 78.1632C110.35 77.8186 110.78 77.6462 111.254 77.6462H128.573C133.399 77.6462 137.276 78.6371 140.205 80.6189C143.178 82.6007 144.665 85.4872 144.665 89.2784C144.665 90.3555 144.535 91.4757 144.277 92.6389C143.2 97.6364 141.003 101.342 137.685 103.754C134.411 106.124 129.93 107.308 124.244 107.308H115.843L112.87 121.267C112.784 121.741 112.547 122.129 112.159 122.43C111.814 122.732 111.405 122.883 110.931 122.883H101.69ZM124.696 98.0672C126.419 98.0672 127.927 97.6149 129.22 96.7101C130.512 95.7623 131.352 94.3837 131.74 92.5742C131.912 91.6264 131.998 90.9802 131.998 90.6355C131.998 88.1799 130.447 86.952 127.345 86.952H119.978L117.587 98.0672H124.696Z" fill="white"/>
</svg>
