<svg width="200" height="200" viewBox="0 0 200 200" fill="none" xmlns="http://www.w3.org/2000/svg">
<path d="M131.52 123.989L162.355 106.206C163.99 105.262 165 103.509 165 101.63V66.0642C165 64.1841 163.99 62.4325 162.355 61.4877L131.52 43.705C129.885 42.7604 127.856 42.7696 126.23 43.705L95.3948 61.4877C93.7604 62.4325 92.7502 64.1841 92.7502 66.0642V129.62L71.1249 142.083L49.4994 129.62V104.684L71.1249 92.2205L85.3859 100.446V83.7184L73.7693 77.0144C72.9704 76.5558 72.0526 76.3083 71.1249 76.3083C70.1973 76.3083 69.2794 76.5558 68.4803 77.0144L37.6447 94.7973C36.0101 95.7417 35 97.4939 35 99.3737V134.939C35 136.819 36.0101 138.571 37.6447 139.515L68.4803 157.298C70.1147 158.234 72.1351 158.234 73.7693 157.298L104.605 139.515C106.24 138.571 107.25 136.819 107.25 134.939V71.3742L107.635 71.154L128.866 58.9107L150.491 71.3742V96.3105L128.866 108.774L114.623 100.566V117.294L126.221 123.98C127.856 124.915 129.885 124.915 131.511 123.98L131.52 123.989Z" fill="#8A46FF"/>
</svg>
