<svg width="192" height="60" viewBox="0 0 192 60" fill="none" xmlns="http://www.w3.org/2000/svg">
<g clip-path="url(#clip0_281_1010)">
<path d="M145.722 29.3481C144.117 29.3481 142.846 30.6188 142.846 32.1569C142.846 33.6951 144.117 34.9657 145.722 34.9657C147.327 34.9657 148.597 33.6951 148.597 32.1569C148.597 30.6188 147.327 29.3481 145.722 29.3481Z" fill="white"/>
<path d="M95.0967 17.1777H68.2795V21.7922H95.0967V17.1777Z" fill="white"/>
<path d="M80.7187 25.6035H76.0374V47.1375H80.7187V25.6035Z" fill="white"/>
<path d="M87.4726 25.6035H82.7913V47.1375H87.4726V25.6035Z" fill="white"/>
<path d="M172.003 47.2041H175.949V35.9021L172.003 31.5552V47.2041Z" fill="white"/>
<path d="M187.319 17.1773V38.2431L165.183 13.9673V47.2045H169.864V26.1387L192 50.4145V17.1773H187.319Z" fill="white"/>
<path d="M145.722 17.1777C137.363 17.1777 130.541 23.9322 130.541 32.1579C130.541 40.3836 137.363 47.138 145.722 47.138C154.081 47.138 160.903 40.3836 160.903 32.1579C160.903 23.9322 154.081 17.1777 145.722 17.1777ZM145.722 42.5905C139.904 42.5905 135.223 37.9092 135.223 32.2248C135.223 26.5403 139.971 21.859 145.722 21.859C151.473 21.859 156.222 26.5403 156.222 32.2248C156.222 37.9092 151.473 42.5905 145.722 42.5905Z" fill="white"/>
<path d="M126.662 26.6741C126.662 21.4578 122.382 17.1777 117.099 17.1777H99.8451V47.2049H104.46V21.859H117.099C119.774 21.859 121.914 24.0659 121.914 26.741C121.914 29.416 119.774 31.556 117.099 31.6229H106.533V47.2718H111.147V36.2373H115.962L121.847 47.2718H127.197L120.844 35.4348C124.255 33.9635 126.595 30.486 126.595 26.741L126.662 26.6741Z" fill="white"/>
<path d="M42.8004 9.01881L0 3L23.8746 62.185L56.8443 20.0533L42.8004 9.08569V9.01881ZM48.8861 19.1839L34.976 22.1264L42.1986 13.9676L48.8861 19.1839ZM37.7179 12.6301L28.8234 22.7283L11.1014 8.88506L37.7848 12.6301H37.7179ZM23.5402 49.6792L8.42634 12.2957L26.7503 26.6071L23.5402 49.6792ZM27.7534 50.2811L30.9634 27.4765L48.4849 23.7315L27.7534 50.2811Z" fill="white"/>
</g>
<defs>
<clipPath id="clip0_281_1010">
<rect width="192" height="60" fill="white"/>
</clipPath>
</defs>
</svg>
