<svg width="260" height="64" viewBox="0 0 260 64" fill="none" xmlns="http://www.w3.org/2000/svg">
<path d="M0 32.0001L18.2857 13.7144V22.8572H36.5714L18.2857 36.5715V50.2858L0 32.0001Z" fill="white"/>
<path d="M63.9992 32.0001L45.7135 50.2858V41.1429H27.4277L45.7135 27.4286V13.7144L63.9992 32.0001Z" fill="white"/>
<path d="M119.043 52.3245V11.8145H128.834V28.9442H129.368L142.76 11.8145H154.291L139.931 29.8937L154.549 52.3245H142.839L132.751 36.4014L128.834 41.3465V52.3245H119.043Z" fill="white"/>
<path d="M84.332 52.3245V46.7465L104.013 19.7661H84.3518V11.8145H116.396V17.3925L96.7145 44.3728H116.376V52.3245H84.332Z" fill="white"/>
<path d="M247.933 52.9573C245.216 52.9573 242.849 52.2782 240.832 50.9199C238.827 49.5617 237.271 47.7023 236.164 45.3419C235.056 42.9814 234.502 40.2913 234.502 37.2715C234.502 34.2253 235.062 31.5154 236.183 29.1418C237.317 26.7681 238.887 24.9088 240.891 23.5637C242.895 22.2055 245.223 21.5264 247.873 21.5264C249.904 21.5264 251.744 21.922 253.392 22.7132C255.041 23.4912 256.399 24.5923 257.467 26.0165C258.548 27.4275 259.227 29.0759 259.504 30.9616H255.944C255.575 29.2473 254.684 27.7835 253.273 26.5703C251.876 25.344 250.095 24.7308 247.933 24.7308C245.994 24.7308 244.28 25.2583 242.79 26.3132C241.3 27.355 240.133 28.8121 239.289 30.6847C238.458 32.544 238.043 34.7001 238.043 37.1528C238.043 39.6188 238.451 41.8012 239.269 43.7001C240.087 45.5858 241.234 47.0627 242.711 48.1309C244.201 49.199 245.942 49.7331 247.933 49.7331C249.278 49.7331 250.504 49.4825 251.612 48.9814C252.733 48.4672 253.669 47.7419 254.421 46.8056C255.186 45.8693 255.7 44.755 255.964 43.4627H259.524C259.26 45.2957 258.608 46.9309 257.566 48.3682C256.537 49.7924 255.199 50.9133 253.55 51.7309C251.915 52.5485 250.043 52.9573 247.933 52.9573Z" fill="white"/>
<path d="M211.228 33.3355V52.3245H207.707V21.942H211.129V26.709H211.446C212.158 25.153 213.265 23.9068 214.769 22.9706C216.285 22.0211 218.158 21.5464 220.386 21.5464C222.43 21.5464 224.224 21.975 225.766 22.8321C227.323 23.6761 228.529 24.9222 229.386 26.5706C230.257 28.2189 230.692 30.2431 230.692 32.6431V52.3245H227.171V32.8607C227.171 30.3684 226.472 28.397 225.074 26.9464C223.69 25.4959 221.83 24.7706 219.496 24.7706C217.9 24.7706 216.483 25.1134 215.243 25.7992C214.004 26.4849 213.021 27.4739 212.296 28.7662C211.584 30.0453 211.228 31.5684 211.228 33.3355Z" fill="white"/>
<path d="M183.651 63.7179C182.952 63.7179 182.3 63.652 181.693 63.5201C181.087 63.3882 180.605 63.2432 180.249 63.0849L181.199 59.9794C182.399 60.3487 183.467 60.4805 184.403 60.375C185.339 60.2827 186.17 59.8608 186.895 59.1091C187.621 58.3706 188.267 57.2366 188.834 55.7069L189.942 52.6212L178.766 21.9419H182.583L191.603 47.6761H191.88L200.9 21.9419H204.717L191.86 57.1311C191.32 58.5948 190.654 59.8146 189.862 60.7904C189.071 61.7794 188.155 62.5113 187.113 62.986C186.084 63.474 184.93 63.7179 183.651 63.7179Z" fill="white"/>
<path d="M176.953 28.6077L173.729 29.5176C173.413 28.6077 172.964 27.7835 172.384 27.0451C171.804 26.3066 171.045 25.7198 170.109 25.2846C169.186 24.8495 168.039 24.6319 166.667 24.6319C164.61 24.6319 162.922 25.1198 161.604 26.0956C160.285 27.0714 159.626 28.3308 159.626 29.8737C159.626 31.1792 160.074 32.2407 160.971 33.0583C161.881 33.8627 163.278 34.5023 165.164 34.977L169.753 36.1045C172.298 36.7242 174.204 37.7067 175.47 39.0517C176.749 40.3968 177.388 42.0847 177.388 44.1155C177.388 45.8298 176.914 47.3529 175.964 48.6847C175.015 50.0166 173.689 51.065 171.988 51.8298C170.3 52.5815 168.342 52.9573 166.114 52.9573C163.147 52.9573 160.7 52.2913 158.775 50.9595C156.85 49.6144 155.617 47.6759 155.076 45.1441L158.459 44.3133C158.894 46.1199 159.744 47.4847 161.01 48.4078C162.289 49.3309 163.971 49.7924 166.054 49.7924C168.388 49.7924 170.254 49.2715 171.652 48.2298C173.05 47.1748 173.749 45.8561 173.749 44.2737C173.749 43.0473 173.34 42.0188 172.522 41.188C171.705 40.344 170.465 39.7243 168.804 39.3286L163.839 38.1418C161.201 37.5089 159.25 36.5067 157.984 35.1352C156.718 33.7638 156.085 32.0627 156.085 30.0319C156.085 28.3572 156.54 26.8868 157.45 25.6209C158.36 24.3418 159.612 23.3396 161.208 22.6143C162.804 21.889 164.623 21.5264 166.667 21.5264C169.45 21.5264 171.672 22.1593 173.333 23.4253C175.008 24.678 176.215 26.4055 176.953 28.6077Z" fill="white"/>
</svg>
