<?xml version="1.0" standalone="no"?>
<!DOCTYPE svg PUBLIC "-//W3C//DTD SVG 20010904//EN"
 "http://www.w3.org/TR/2001/REC-SVG-20010904/DTD/svg10.dtd">
<svg version="1.0" xmlns="http://www.w3.org/2000/svg"
 width="1200.000000pt" height="1200.000000pt" viewBox="0 0 1200.000000 1200.000000"
 preserveAspectRatio="xMidYMid meet">
<metadata>
Created by potrace 1.14, written by Peter Selinger 2001-2017
</metadata>
<g transform="translate(0.000000,1200.000000) scale(0.100000,-0.100000)"
fill="#000000" stroke="none">
<path d="M855 11989 c-91 -13 -220 -56 -315 -105 -282 -145 -485 -432 -529
-748 -15 -110 -15 -10162 0 -10272 37 -270 199 -535 418 -683 86 -59 228 -124
331 -153 l85 -23 4278 -3 4277 -2 -5 29 c-6 34 7 48 24 27 10 -11 8 -17 -6
-25 -11 -6 -13 -11 -5 -11 7 0 11 -4 8 -8 -3 -5 1 -9 9 -9 7 0 12 8 10 18 -2
10 0 21 6 24 5 4 9 12 9 18 0 8 -3 8 -9 -1 -7 -11 -9 -11 -14 2 -4 9 -1 15 6
13 7 -1 11 4 9 11 -1 8 2 11 8 7 10 -6 13 2 13 36 0 21 38 20 45 -1 4 -13 3
-13 -10 -2 -13 10 -18 10 -24 1 -5 -8 -3 -9 6 -4 8 5 4 -5 -8 -22 -14 -20 -18
-34 -12 -38 5 -3 11 -4 11 -1 9 40 21 57 33 47 9 -8 12 1 13 35 1 25 -2 42 -8
38 -5 -3 -7 -9 -5 -13 3 -4 -1 -8 -8 -8 -7 0 -13 6 -13 13 0 7 5 12 11 11 5
-1 10 3 11 10 0 6 4 15 9 20 5 5 6 3 2 -4 -4 -7 -4 -13 1 -14 4 0 15 -2 23 -4
20 -3 24 33 7 55 -10 13 -10 13 4 3 17 -14 29 -8 25 10 -2 7 -1 9 1 4 3 -4 10
-4 16 0 7 4 5 -2 -3 -12 -9 -11 -10 -16 -2 -11 6 4 12 3 12 -3 0 -13 -17 -23
-23 -14 -2 5 -3 4 -2 -2 4 -20 -15 -56 -26 -49 -6 3 -4 -5 6 -19 10 -17 13
-27 6 -32 -6 -3 -11 -11 -11 -18 0 -6 7 -2 16 9 15 19 16 19 9 -1 -13 -39 -13
-52 0 -52 8 0 12 9 9 24 -3 17 -1 22 7 18 8 -6 8 -2 0 13 -7 12 -7 23 -2 27 5
3 12 -3 14 -12 3 -10 4 -6 4 9 -1 15 -4 25 -8 22 -13 -8 -21 38 -9 50 9 8 11
7 8 -6 -1 -9 2 -16 7 -15 6 1 8 6 6 12 -8 21 -7 51 2 63 5 6 6 12 3 12 -4 0
-2 10 4 22 11 22 10 22 -4 4 -9 -10 -13 -23 -9 -29 3 -6 1 -7 -5 -3 -8 4 -9
14 -4 24 11 22 9 42 -3 42 -5 0 -10 -9 -10 -19 0 -11 -2 -22 -5 -25 -3 -3 -6
10 -6 28 0 30 3 33 28 31 30 -3 58 27 38 40 -9 6 -14 -1 -11 -17 0 -5 -3 -8
-8 -8 -6 0 -9 8 -8 19 1 15 21 21 35 11 3 -3 19 -7 32 -9 5 0 7 -9 3 -19 -3
-9 -3 -14 2 -10 11 10 14 69 4 62 -5 -3 -6 -10 -3 -16 4 -7 2 -8 -5 -4 -9 6
-9 11 0 22 6 8 8 14 3 14 -4 0 2 9 14 20 12 12 22 27 22 35 0 8 4 17 10 20 17
10 -9 -49 -27 -62 -9 -7 -12 -13 -6 -13 7 0 14 4 18 9 3 6 14 8 25 6 11 -2 19
-1 19 3 -3 20 2 32 14 29 7 -1 11 6 9 18 -2 19 -2 19 12 2 13 -16 14 -16 20
-1 4 10 0 25 -9 34 -11 12 -12 20 -5 23 6 3 5 4 -2 3 -7 -2 -13 -7 -13 -12 -2
-25 -18 -54 -27 -48 -6 4 -5 10 3 15 11 8 10 13 -6 26 -17 13 -17 15 -2 10 23
-8 40 31 23 53 -10 13 -9 13 7 1 19 -15 22 -9 7 20 -6 10 -8 19 -6 19 14 0 27
-42 17 -54 -9 -10 -3 -13 28 -12 l39 1 -4 43 c-3 25 0 41 5 38 5 -3 7 3 4 14
-3 11 -9 17 -14 14 -5 -3 -6 -10 -3 -16 5 -7 2 -8 -6 -3 -10 6 -12 4 -7 -9 15
-38 18 -64 9 -70 -5 -3 -10 7 -11 22 -3 49 -7 67 -16 82 -8 13 -6 13 8 1 16
-13 22 -8 18 13 -1 5 5 3 14 -4 14 -12 15 -10 11 13 -3 17 0 26 7 24 7 -1 11
3 10 10 -1 6 5 10 15 8 9 -1 23 2 30 8 16 12 16 41 0 31 -6 -4 -1 10 12 32 14
21 24 40 22 42 -1 1 1 2 5 2 4 0 8 -6 9 -15 1 -8 -2 -13 -7 -9 -5 3 -9 1 -9
-4 0 -5 8 -12 18 -14 14 -4 18 0 18 17 -1 13 -8 30 -15 39 -8 9 -11 19 -7 23
3 3 6 0 6 -8 0 -11 2 -11 10 1 5 8 10 10 10 4 0 -6 7 -11 15 -11 8 0 15 7 15
14 0 8 -5 11 -11 7 -6 -3 -5 4 4 17 15 26 17 85 2 109 -7 13 -6 13 7 2 13 -10
17 -10 22 3 3 8 11 14 18 13 7 -2 12 4 10 12 -3 12 0 12 14 -2 13 -13 15 -20
6 -31 -9 -10 -8 -17 1 -27 10 -12 9 -12 -6 0 -12 9 -15 16 -7 24 15 15 12 30
-3 17 -8 -6 -17 -8 -20 -4 -4 3 -7 1 -7 -5 0 -7 9 -21 20 -32 21 -21 27 -35
11 -25 -6 3 -15 -3 -20 -12 -10 -15 -10 -14 -7 8 3 21 -11 67 -15 49 -6 -23
-3 -70 4 -70 4 0 6 -4 2 -9 -3 -5 -1 -13 5 -16 7 -4 8 -11 1 -18 -5 -7 -8 -27
-6 -45 3 -38 19 -60 30 -42 5 8 13 6 28 -7 13 -10 17 -12 11 -3 -7 8 -10 26
-8 40 3 19 2 22 -6 10 -8 -12 -10 -11 -10 6 0 25 22 48 36 36 4 -4 3 0 -4 9
-9 12 -9 20 2 35 14 18 15 18 24 -5 l9 -25 6 25 c4 13 2 28 -3 33 -5 5 -4 18
3 33 9 19 7 27 -8 41 -18 16 -18 16 -6 0 14 -19 5 -62 -11 -52 -6 4 -8 3 -5
-3 7 -12 -27 -66 -36 -56 -4 3 1 15 10 26 10 11 12 17 5 13 -16 -9 -16 6 1 23
10 11 10 13 0 7 -8 -5 -13 -1 -13 9 0 9 4 13 10 10 9 -6 5 16 -8 40 -3 5 -7
21 -8 35 -3 23 -2 24 8 5 6 -11 16 -23 22 -27 7 -5 6 -8 -3 -8 -8 0 -12 -3 -8
-6 3 -3 12 -2 19 2 7 5 24 9 37 9 20 0 25 5 26 27 2 21 -2 25 -17 23 -13 -3
-18 1 -16 13 1 9 -1 23 -6 31 -6 9 -5 12 2 7 6 -3 15 2 21 11 6 10 11 13 11 7
0 -6 -3 -14 -7 -18 -12 -12 -11 -33 2 -33 8 0 11 7 7 15 -3 10 -1 13 6 8 7 -4
15 -1 18 8 3 9 10 13 15 10 5 -3 6 3 2 12 -4 12 -3 15 5 10 8 -5 10 -2 6 9 -5
12 -10 13 -20 4 -8 -6 -12 -14 -10 -18 3 -4 1 -13 -3 -19 -4 -8 -8 2 -8 23 0
22 3 31 9 23 8 -13 9 -11 12 15 1 6 10 10 21 9 16 -3 17 -2 6 12 -13 15 -15
15 -32 0 -16 -15 -17 -14 -15 3 2 11 11 18 25 18 12 0 26 7 32 15 7 11 8 9 5
-11 -2 -14 0 -32 5 -40 6 -9 9 4 9 39 0 31 4 51 10 47 5 -3 7 -12 4 -20 -3 -8
-2 -20 2 -27 14 -22 14 -69 1 -62 -7 4 -8 3 -4 -2 5 -5 12 -9 15 -9 14 0 32
-17 27 -25 -3 -4 3 -7 12 -6 13 2 17 14 18 54 1 28 -2 49 -7 46 -4 -3 -8 0 -8
6 0 6 -11 8 -25 6 -22 -4 -25 -1 -22 19 1 12 8 29 14 36 18 22 19 43 4 44 -8
0 -15 8 -17 18 -2 14 1 15 10 8 7 -6 17 -7 21 -3 5 4 5 1 1 -5 -4 -7 -3 -13 3
-13 5 0 13 9 16 21 4 11 9 18 12 16 2 -3 -2 -18 -10 -34 -8 -15 -12 -34 -9
-42 3 -9 0 -11 -8 -6 -9 6 -11 4 -5 -5 6 -9 4 -11 -5 -5 -9 6 -11 4 -5 -5 5
-9 4 -11 -3 -6 -8 5 -10 2 -6 -8 5 -13 9 -12 25 7 12 15 18 17 19 8 0 -8 3
-12 6 -9 3 4 1 15 -4 25 -7 13 -6 26 3 42 12 23 13 23 22 5 6 -10 9 -29 7 -40
-2 -12 4 -28 14 -35 14 -11 15 -11 5 1 -21 23 -15 35 8 14 11 -10 20 -14 19
-9 -4 20 0 36 8 31 5 -3 9 1 9 9 0 8 -4 12 -8 10 -4 -3 -10 2 -13 11 -9 24 -7
28 7 15 10 -8 14 -7 14 4 0 8 -5 11 -10 8 -5 -3 -7 0 -5 8 3 8 10 13 16 12 7
-2 9 4 5 13 -5 13 -12 7 -31 -25 -13 -23 -27 -40 -29 -37 -6 6 46 102 53 98 3
-2 9 0 12 4 4 4 1 4 -5 0 -7 -4 -13 -3 -13 1 0 5 6 15 13 22 10 11 10 13 0 7
-20 -11 -15 9 6 28 19 17 19 17 17 -22 -2 -23 3 -47 12 -58 12 -15 14 -16 9
-2 -6 17 15 43 26 32 4 -4 4 4 1 17 -3 13 -6 30 -6 36 -1 9 -5 10 -15 2 -17
-14 -17 2 0 20 10 11 10 13 0 7 -9 -5 -13 0 -13 16 0 19 2 20 11 8 9 -13 10
-13 6 1 -6 19 20 62 33 54 4 -3 7 3 5 12 -2 10 -4 18 -6 18 -1 0 -2 14 -3 32
-1 18 2 31 8 30 6 -1 10 4 9 10 -2 7 3 12 10 10 7 -1 12 7 11 20 -1 13 2 20 6
18 9 -6 8 -25 -3 -42 -5 -7 -4 -13 2 -13 13 0 29 31 25 48 -1 7 0 8 3 2 9 -20
20 -10 15 15 -2 15 0 25 7 25 6 0 11 5 11 11 0 5 -6 7 -12 3 -7 -4 -10 -4 -6
1 4 4 2 15 -5 24 -10 14 -10 14 4 4 20 -16 33 -5 16 15 -8 11 -9 14 0 9 7 -4
16 0 22 10 6 11 11 13 11 5 0 -7 5 -10 10 -7 6 3 10 2 10 -4 0 -5 -4 -13 -10
-16 -5 -3 -10 -1 -10 5 0 6 -5 8 -11 4 -8 -5 -8 -9 1 -14 9 -5 8 -9 -3 -13 -9
-3 -12 -16 -10 -39 3 -25 2 -29 -6 -18 -7 9 -11 10 -11 3 0 -6 5 -15 10 -18 6
-4 7 -11 4 -17 -5 -7 -2 -8 6 -3 8 5 11 3 8 -6 -3 -8 -11 -13 -18 -11 -11 3
-11 0 -1 -12 7 -8 10 -25 6 -38 -5 -20 -5 -21 5 -5 7 10 9 25 6 32 -3 8 -1 17
4 20 6 4 11 1 11 -4 1 -6 2 -17 3 -23 1 -7 -1 -17 -5 -23 -12 -18 -6 -43 10
-40 11 1 16 14 17 43 0 22 -3 39 -7 37 -10 -7 -21 23 -26 74 -4 31 -2 42 6 37
6 -4 9 -12 6 -17 -3 -5 1 -6 11 -2 15 5 15 7 0 15 -9 5 -14 14 -10 20 4 7 10
5 16 -3 7 -11 9 -11 7 1 -3 28 1 41 11 35 5 -3 16 9 25 27 8 18 14 24 12 12
-3 -15 1 -20 17 -20 17 0 22 6 23 29 0 16 -2 25 -6 20 -3 -6 -14 -9 -23 -7
-10 1 -23 -5 -28 -14 -9 -15 -10 -15 -8 3 2 12 -2 19 -10 17 -8 -1 -11 2 -7 8
5 8 11 8 19 1 13 -11 26 -5 26 11 0 5 -6 6 -13 2 -8 -5 -8 -2 2 9 15 18 26 23
16 7 -3 -5 -1 -10 5 -10 6 0 8 -5 4 -12 -4 -7 -3 -8 5 -4 6 4 10 10 8 14 -1 4
9 19 24 34 l27 28 0 -25 c0 -14 -4 -23 -8 -20 -3 2 -7 -2 -7 -10 0 -8 4 -12 8
-10 4 3 9 -2 13 -10 3 -8 1 -17 -4 -20 -6 -4 -10 -1 -10 6 0 22 -11 2 -15 -27
-2 -16 -2 -23 1 -16 3 6 11 9 16 6 6 -4 8 -2 5 3 -8 13 17 36 27 25 4 -4 6 0
4 8 -2 8 2 14 8 13 5 -1 10 9 10 22 0 13 -4 21 -8 19 -4 -3 -8 2 -8 11 0 9 4
14 9 10 5 -3 13 0 17 6 4 8 3 9 -4 5 -17 -10 -32 26 -20 48 8 14 7 17 -1 12
-6 -4 -11 0 -11 9 0 9 4 14 9 10 5 -3 13 0 17 6 4 8 3 9 -4 5 -7 -4 -12 -1
-12 8 0 9 5 15 11 13 6 -1 14 5 16 13 4 13 3 13 -6 0 -7 -9 -11 -10 -11 -3 0
19 21 27 31 12 6 -10 8 -9 7 6 -1 11 2 31 7 45 7 22 6 23 -8 11 -9 -7 -15 -17
-12 -21 3 -5 2 -11 -2 -13 -5 -3 -9 15 -9 40 -1 25 2 39 6 33 6 -9 9 -8 13 6
4 16 5 16 6 2 0 -9 -3 -20 -9 -23 -5 -3 -10 -11 -10 -17 0 -6 9 -3 19 6 11 10
17 25 14 34 -4 13 -2 12 10 -3 13 -16 13 -22 1 -40 -18 -28 -15 -79 3 -63 15
12 17 22 3 13 -5 -3 -10 4 -10 16 0 17 3 19 13 10 10 -8 14 -7 14 4 0 8 -4 12
-9 9 -4 -3 -8 -1 -8 5 0 5 6 11 13 14 9 3 9 9 -1 27 -8 12 -9 19 -3 15 6 -3
11 -1 11 5 0 7 6 8 19 1 13 -7 18 -20 16 -41 -1 -16 1 -28 5 -25 12 7 19 -32
8 -43 -6 -6 -5 -12 3 -17 7 -5 10 -4 5 3 -3 6 -2 13 4 17 5 3 10 -2 10 -11 0
-33 11 -6 15 37 3 29 2 37 -4 24 -5 -11 -6 -26 -3 -34 4 -9 1 -12 -7 -7 -6 4
-9 20 -7 34 2 15 5 31 5 35 1 5 6 5 12 1 7 -4 6 3 -2 17 -17 31 -19 48 -8 55
5 3 9 -3 9 -13 0 -10 5 -25 10 -33 8 -11 9 -7 4 14 -12 51 -10 91 4 88 8 -1
11 2 8 7 -8 12 15 29 36 26 11 -2 15 2 11 13 -3 13 -1 12 13 -3 12 -15 15 -16
11 -4 -3 9 0 22 6 28 7 7 7 11 2 9 -12 -4 -15 4 -15 38 0 16 4 23 12 18 7 -5
8 -3 3 6 -6 10 -11 9 -21 -4 -7 -10 -11 -23 -10 -29 2 -7 1 -8 -2 -4 -2 5 -18
-4 -36 -20 -17 -15 -28 -24 -24 -19 5 5 2 16 -5 25 -10 14 -10 14 4 4 21 -17
33 -5 16 16 -11 14 -10 14 6 2 16 -12 22 -9 18 12 -1 5 2 6 7 3 4 -2 13 4 20
15 13 20 4 26 -16 9 -9 -7 -9 -7 -1 2 5 7 24 13 42 13 20 0 31 5 29 13 -1 7 9
17 23 22 30 11 32 31 5 55 -11 10 -20 23 -20 29 0 6 5 4 10 -4 9 -13 14 -7 11
12 0 5 5 7 12 5 7 -1 11 6 10 18 -1 11 0 14 3 7 3 -6 10 -9 15 -6 6 3 5 12 -3
22 -8 10 -9 13 -1 9 7 -4 16 0 22 10 10 17 11 16 8 -2 -1 -11 -6 -25 -9 -30
-8 -13 3 -31 19 -30 17 0 28 14 28 38 1 12 5 28 9 36 6 10 5 12 -2 7 -8 -5
-12 0 -12 13 0 12 5 21 11 21 5 0 8 4 4 9 -3 5 -1 13 5 16 8 5 7 11 -1 21 -6
8 -9 17 -5 21 3 3 6 1 6 -6 0 -7 5 -9 12 -5 7 5 5 12 -8 22 -16 13 -17 14 -1
9 20 -7 22 3 5 23 -11 12 -10 12 4 1 17 -13 19 -35 5 -58 -4 -6 -3 -14 2 -17
5 -4 13 4 17 16 11 32 11 41 2 54 -5 7 -2 16 6 24 13 10 15 8 11 -9 -2 -11 0
-23 5 -26 11 -7 -23 -70 -38 -70 -21 0 -23 -13 -2 -18 11 -3 18 -1 15 3 -3 5
-1 11 4 14 5 4 12 -2 14 -11 4 -17 5 -17 6 0 0 10 5 16 9 13 5 -3 9 1 9 9 0 8
-4 12 -9 9 -4 -3 -8 0 -8 5 0 6 5 11 12 11 6 0 8 3 5 7 -4 3 -1 13 6 21 10 13
9 14 -1 8 -9 -6 -12 -1 -10 16 2 12 6 28 9 33 3 6 4 19 4 31 -1 11 4 21 11 21
7 0 11 -4 8 -8 -2 -4 0 -10 6 -14 5 -3 11 -1 11 4 1 6 2 17 3 24 1 6 -3 18 -8
26 -8 11 -8 13 1 8 7 -4 16 0 22 10 8 14 11 15 11 3 1 -10 4 -8 9 5 5 12 4 26
-3 35 -10 13 -9 13 6 1 10 -7 16 -16 14 -20 -2 -3 13 -6 33 -6 32 -1 37 2 36
20 -1 11 3 26 9 34 7 9 7 12 1 9 -7 -4 -11 9 -11 37 0 34 3 42 13 33 12 -9 17
-5 15 13 -1 3 6 6 13 6 10 0 12 -4 5 -12 -5 -7 -6 -16 -2 -20 4 -5 1 -5 -7 0
-9 5 -12 4 -7 -3 3 -6 2 -13 -4 -17 -7 -4 -7 -12 0 -24 5 -10 6 -22 2 -26 -4
-5 -1 -5 7 0 9 5 12 3 9 -6 -3 -8 -12 -13 -19 -11 -10 3 -9 -2 3 -15 9 -10 17
-21 17 -25 1 -5 4 -8 9 -8 9 0 10 40 2 60 -9 18 -1 42 10 35 5 -3 7 -12 4 -19
-6 -17 12 -31 21 -16 4 6 11 8 16 4 5 -3 9 -2 8 3 -3 19 2 34 10 28 5 -3 13 0
17 7 4 7 4 10 -1 6 -4 -4 -15 -2 -23 5 -10 8 -13 8 -9 1 4 -7 -2 -23 -13 -35
-11 -13 -19 -19 -20 -14 0 6 5 16 12 23 9 9 9 15 -1 25 -10 10 -11 8 -5 -8 7
-17 6 -18 -8 -7 -11 8 -14 26 -12 59 1 25 -1 41 -5 34 -6 -9 -10 -6 -14 10 -4
14 0 30 8 39 8 9 12 19 9 23 -3 3 6 4 20 3 19 -2 27 3 33 18 10 30 9 56 -2 54
-6 -2 -10 -13 -10 -25 0 -12 -3 -24 -6 -27 -3 -3 -5 4 -4 17 1 12 -3 28 -9 36
-8 11 -8 13 1 8 6 -4 14 -3 18 2 3 5 14 8 25 6 11 -2 24 4 29 13 9 15 10 14 8
-5 0 -12 -4 -21 -7 -20 -3 1 -6 -1 -7 -5 -2 -5 0 -8 3 -7 4 0 11 -5 15 -13 6
-8 9 5 9 35 0 27 -4 46 -9 42 -5 -3 -13 -1 -16 5 -4 6 -1 9 5 8 7 -2 14 5 15
15 2 11 7 22 11 25 4 4 4 -1 1 -10 -3 -10 -2 -20 3 -23 5 -3 7 -18 5 -33 -2
-15 -2 -21 1 -14 3 6 10 10 15 6 5 -3 6 -11 2 -17 -13 -21 -14 -58 -2 -73 16
-19 30 -7 25 21 -3 14 -1 27 4 30 11 7 19 -52 8 -65 -5 -6 -4 -7 3 -1 6 5 12
31 14 57 1 28 -1 41 -4 30 -11 -29 -18 -8 -16 49 1 28 -2 59 -7 70 -8 18 -7
18 10 -2 l19 -22 11 22 c12 25 13 59 1 52 -4 -3 -5 -14 -2 -24 6 -23 -13 -37
-21 -15 -3 9 -2 12 4 9 7 -4 9 3 6 19 -3 16 -1 24 5 20 6 -3 7 7 4 25 -3 16
-1 32 5 36 5 3 7 13 4 23 -4 9 3 5 13 -11 11 -15 23 -24 26 -20 4 3 -1 16 -10
27 -14 15 -14 18 -2 8 9 -6 19 -9 22 -6 4 4 5 -3 2 -15 -2 -11 0 -21 6 -21 8
0 12 37 11 105 -1 18 2 25 7 16 4 -7 7 -29 5 -49 -2 -29 0 -33 7 -19 6 9 8 21
4 26 -3 5 -1 13 5 16 7 5 8 11 1 19 -7 8 -6 17 1 26 8 12 9 12 4 -2 -3 -10 -1
-20 5 -24 7 -4 6 -10 -1 -19 -8 -10 -8 -15 0 -20 6 -4 7 -12 2 -18 -7 -10 -8
-70 -2 -87 1 -3 2 -9 1 -13 -1 -5 3 -6 8 -3 9 6 7 39 -5 80 -4 12 -2 16 5 12
15 -10 16 7289 0 7399 -19 142 -83 307 -162 425 -153 227 -417 391 -691 429
-95 13 -10188 13 -10281 0z m5381 -2309 c313 -20 591 -69 869 -154 948 -288
1736 -942 2203 -1826 212 -403 360 -906 403 -1375 15 -164 15 -533 0 -685 -68
-698 -315 -1341 -725 -1885 -265 -353 -610 -671 -980 -904 -353 -222 -799
-405 -1166 -477 -14 -3 -41 -9 -60 -14 -32 -8 -99 -19 -220 -36 -90 -13 -115
-12 -135 5 -18 15 -19 15 -6 -1 11 -15 11 -18 -1 -18 -23 0 -28 11 -17 34 10
20 9 20 -5 2 -9 -10 -13 -23 -10 -27 6 -11 7 -10 -79 -13 -46 -2 -71 2 -79 11
-9 11 -14 11 -27 1 -14 -12 -15 -11 -1 6 16 21 16 22 -8 51 -12 14 -13 17 -2
9 15 -10 34 -10 78 0 12 3 22 1 22 -4 0 -15 -18 -21 -22 -8 -3 7 -7 5 -11 -6
-4 -10 -3 -15 3 -11 6 3 13 -1 16 -10 6 -13 8 -14 15 -3 7 10 9 10 9 -2 0 -12
2 -12 9 -1 6 9 11 10 15 2 4 -6 2 -11 -3 -11 -6 0 -11 -5 -11 -11 0 -8 5 -8
15 1 12 10 15 10 15 -1 0 -11 2 -11 10 1 8 12 10 12 10 1 0 -8 3 -11 7 -8 3 4
-1 15 -10 25 -10 10 -14 23 -10 27 5 5 0 3 -9 -4 -21 -16 -23 -3 -4 22 13 16
15 16 24 -13 13 -36 17 -38 17 -6 0 13 -3 22 -7 19 -5 -2 -8 0 -8 5 0 5 19 12
43 16 23 3 60 8 82 11 23 3 52 8 65 11 14 2 39 7 55 10 17 2 55 11 85 19 55
14 55 14 -55 9 -60 -3 -127 -7 -148 -9 -28 -3 -36 -1 -31 8 5 7 0 6 -10 -2
-14 -12 -21 -13 -38 -2 -13 8 -18 9 -13 1 9 -14 -27 -9 -37 5 -5 6 -8 4 -8 -4
0 -11 -4 -9 -14 4 -8 11 -12 24 -9 29 4 5 1 6 -6 2 -6 -4 -9 -11 -7 -15 3 -4
1 -13 -5 -21 -6 -10 -9 -11 -9 -2 0 23 -2 27 -16 43 -8 9 -11 19 -7 24 5 4 2
5 -5 1 -11 -6 -11 -11 0 -24 11 -13 11 -14 -2 -10 -8 3 -15 14 -14 26 0 12 -3
19 -8 16 -4 -3 -8 -13 -8 -22 0 -14 -2 -14 -9 -3 -15 23 -3 37 32 37 57 1 291
15 322 19 17 3 86 12 155 20 310 40 592 116 875 238 127 54 368 177 361 184
-1 1 -59 -17 -129 -42 -159 -56 -290 -89 -474 -121 -208 -35 -275 -39 -593
-38 -275 1 -516 19 -558 43 -8 5 -24 6 -35 3 -11 -3 -18 -1 -14 4 3 6 -8 8
-27 6 -26 -3 -35 1 -44 20 -7 12 -11 16 -8 6 3 -11 -1 -15 -12 -13 -9 2 -17 4
-17 5 0 2 -35 11 -55 14 -29 4 -42 17 -30 30 5 7 11 25 12 40 3 31 6 32 25 9
8 -10 12 -12 8 -5 -6 12 12 11 88 -4 12 -2 39 -6 62 -9 22 -3 63 -10 90 -15
179 -32 619 -44 825 -21 527 58 954 209 1328 469 35 25 61 46 59 48 -2 2 -48
-17 -103 -42 -144 -68 -262 -108 -446 -153 -195 -48 -309 -66 -523 -82 -144
-10 -472 -7 -575 6 -19 2 -73 9 -120 15 -47 6 -96 12 -110 15 -14 2 -68 11
-120 20 -150 26 -272 54 -419 96 -241 71 -336 101 -352 115 -9 8 -19 11 -22 7
-4 -3 -7 0 -7 7 0 7 -3 10 -7 7 -3 -4 -12 1 -20 11 -8 9 -12 11 -8 5 8 -18 -6
-16 -33 3 -12 8 -22 12 -22 8 0 -3 -7 -1 -15 6 -8 7 -15 9 -15 5 0 -4 -7 -2
-15 5 -8 7 -15 9 -15 4 0 -4 -5 -3 -11 3 -8 8 -8 16 1 30 11 17 11 17 7 -3 -3
-12 1 -21 8 -21 7 0 11 7 8 14 -3 8 3 24 13 36 19 22 19 22 -1 5 -11 -9 -24
-16 -28 -15 -5 1 -15 -9 -22 -23 -8 -14 -14 -19 -15 -12 0 7 -5 10 -10 7 -6
-3 -13 1 -16 9 -3 9 -10 13 -15 10 -5 -3 -6 3 -2 13 6 16 5 16 -11 4 -15 -13
-18 -12 -23 7 -3 12 -9 19 -14 16 -5 -3 -7 -10 -4 -15 10 -15 -1 -10 -15 7
-11 12 -11 15 0 12 7 -2 15 3 18 11 2 8 0 11 -6 8 -5 -4 -15 0 -22 8 -7 8 -17
12 -22 9 -6 -4 -5 3 1 15 13 22 12 23 -21 25 -12 0 -22 9 -24 19 -2 18 -2 18
17 1 10 -9 19 -14 19 -10 0 4 6 4 13 -1 6 -4 18 -8 25 -9 8 -2 17 -6 20 -10 4
-4 -1 -4 -10 -1 -21 8 -34 -11 -19 -26 8 -8 11 -8 11 2 0 8 6 11 15 7 8 -3 15
0 16 7 0 9 2 9 5 0 3 -7 12 -9 20 -6 8 3 14 0 14 -6 0 -6 6 -10 13 -8 13 2 14
-13 4 -53 -4 -14 -4 -19 -1 -11 5 11 10 8 21 -10 14 -23 14 -24 8 -1 -4 15 -2
22 5 20 7 -2 14 4 15 13 2 9 -3 16 -11 16 -7 0 -11 -4 -8 -8 2 -4 0 -10 -6
-14 -13 -8 -13 15 0 35 8 12 10 12 10 1 0 -8 3 -12 6 -8 4 3 23 0 43 -8 20 -7
49 -16 64 -19 17 -4 25 -11 21 -18 -4 -7 -3 -8 4 -4 13 8 64 -3 58 -13 -3 -4
5 -8 17 -9 12 0 67 -17 122 -36 145 -49 509 -141 655 -165 348 -56 656 -69
980 -40 508 44 977 228 1302 513 92 80 122 114 73 82 -384 -252 -853 -374
-1435 -374 -388 1 -726 44 -1125 144 -192 48 -502 144 -650 201 -223 86 -295
116 -295 124 0 5 -4 8 -8 6 -10 -3 -115 45 -123 56 -3 5 -10 8 -15 8 -20 -2
-44 11 -38 21 4 6 -1 8 -13 4 -12 -4 -25 -1 -33 9 -7 8 -16 13 -20 10 -4 -3
-13 2 -20 10 -7 8 -20 15 -29 16 -9 0 -11 3 -5 5 6 3 24 -2 40 -11 17 -9 30
-11 32 -5 2 6 9 7 14 4 6 -4 8 -2 5 4 -4 5 -16 8 -26 5 -10 -3 -22 1 -27 8 -5
9 -2 10 10 6 11 -4 15 -3 10 4 -3 6 -14 9 -23 6 -14 -3 -17 2 -16 28 0 21 -4
31 -11 28 -6 -2 -9 -14 -7 -27 3 -13 1 -26 -4 -29 -5 -3 -9 7 -8 21 0 17 -5
26 -13 24 -8 -1 -11 2 -7 8 3 5 -5 14 -18 19 -13 5 -24 16 -24 24 0 9 6 13 15
10 11 -5 11 -7 0 -14 -8 -6 -9 -9 -1 -9 6 0 19 -3 29 -7 12 -4 15 -3 10 5 -5
8 -2 10 9 5 14 -5 14 -8 3 -15 -9 -7 -4 -8 15 -4 15 4 27 2 27 -4 0 -5 7 -10
15 -10 8 0 15 -4 15 -10 0 -5 3 -9 8 -9 20 3 32 -2 26 -13 -4 -7 -3 -8 4 -4
12 7 155 -51 160 -65 2 -5 7 -7 12 -4 4 3 39 -9 76 -26 230 -105 792 -285
1070 -343 344 -72 654 -100 1014 -93 369 7 579 40 855 134 221 75 428 191 578
322 76 65 173 174 201 224 l19 32 -39 -37 c-122 -114 -380 -256 -587 -322
-321 -103 -643 -145 -1057 -139 -321 4 -707 49 -1040 119 -281 60 -736 198
-1036 314 -177 69 -437 187 -442 201 -2 5 -8 7 -13 3 -5 -3 -9 0 -9 6 0 6 -4
8 -10 5 -5 -3 -10 -1 -10 5 0 6 -4 8 -10 5 -5 -3 -10 -1 -10 4 0 6 5 11 12 11
6 0 8 3 5 6 -4 4 -13 1 -22 -6 -11 -9 -15 -9 -15 -1 0 7 -5 9 -12 5 -6 -4 -8
-3 -4 4 3 6 2 13 -4 17 -5 3 -10 1 -10 -6 0 -7 -2 -10 -5 -7 -9 8 6 38 16 32
5 -3 6 2 3 11 -6 14 -10 12 -24 -9 -16 -26 -30 -25 -30 1 0 8 4 12 9 8 5 -3
13 0 17 6 5 8 1 10 -14 7 -15 -4 -19 -2 -15 8 3 8 9 11 14 8 5 -3 6 3 2 12 -5
14 -8 12 -20 -10 -8 -15 -11 -31 -8 -36 3 -6 2 -10 -4 -10 -17 0 -18 34 -2 54
9 11 10 16 4 12 -8 -4 -13 -2 -13 7 0 16 -32 19 -43 3 -5 -7 -7 -6 -6 4 1 8 1
22 0 30 -1 13 -2 13 -11 0 -7 -11 -10 -11 -10 -2 0 7 -4 11 -8 8 -5 -3 -9 1
-9 8 0 17 19 15 43 -4 9 -8 18 -14 18 -13 1 1 11 0 23 -3 13 -4 20 -11 16 -17
-3 -6 -1 -7 5 -3 9 5 155 -57 172 -74 3 -3 10 -6 15 -7 6 -1 89 -35 185 -76
1502 -640 3058 -703 3788 -152 138 104 229 211 301 354 l33 64 -94 -95 c-97
-98 -209 -179 -338 -243 -388 -194 -969 -288 -1583 -256 -576 31 -1051 114
-1642 288 -260 77 -658 222 -770 281 -16 9 -33 15 -37 14 -5 -1 -8 3 -8 9 0 5
-4 7 -10 4 -5 -3 -10 -1 -10 6 0 7 -3 9 -7 6 -3 -4 -15 1 -26 10 -11 10 -17
13 -13 6 3 -6 -15 0 -41 15 -27 14 -50 30 -51 34 -2 4 -8 6 -13 2 -5 -3 -9 0
-9 5 0 6 -3 10 -7 9 -5 -1 -18 3 -31 10 -12 7 -22 9 -22 5 0 -4 -7 3 -16 15
-8 12 -18 20 -22 18 -4 -2 -21 7 -37 20 -17 14 -22 22 -11 18 14 -5 17 -3 14
7 -3 8 -10 13 -16 12 -6 -2 -9 4 -5 13 5 13 7 13 14 2 7 -10 9 -10 9 3 0 21
-9 29 -26 22 -8 -3 -11 -10 -7 -17 3 -6 2 -7 -2 -3 -15 13 -14 36 1 30 10 -4
12 0 8 11 -3 9 -9 14 -14 11 -4 -2 -5 8 -2 23 3 15 7 21 9 12 10 -35 27 -60
34 -49 3 6 7 -1 8 -15 1 -14 2 -32 2 -38 1 -7 0 -17 -2 -23 -2 -5 0 -10 6 -10
5 0 8 7 7 14 -3 13 -1 13 13 1 9 -7 13 -20 10 -29 -5 -13 -4 -13 6 -4 10 10 8
17 -9 36 -25 26 -28 42 -10 53 7 5 9 2 5 -8 -3 -10 4 -25 18 -38 19 -18 22
-27 15 -46 -5 -13 -7 -24 -4 -24 2 0 9 10 13 23 7 17 4 27 -12 45 -11 12 -17
22 -13 22 4 0 3 8 -3 17 -7 13 -5 23 5 34 12 14 12 16 -1 16 -8 0 -12 -4 -10
-8 3 -3 -3 -13 -12 -20 -14 -12 -15 -11 -10 11 4 14 4 19 1 12 -3 -6 -10 -9
-15 -6 -6 4 -6 11 1 19 8 9 8 15 0 20 -6 3 -7 11 -4 17 4 6 2 8 -3 5 -6 -4
-16 0 -22 7 -8 10 -9 16 -1 21 5 3 10 11 10 18 0 6 -7 2 -16 -9 -14 -17 -15
-17 -10 -1 3 10 2 16 -2 13 -10 -6 -24 4 -39 29 -6 11 -16 19 -22 18 -6 -2
-11 4 -11 13 0 8 4 13 9 9 5 -3 13 0 16 5 5 8 14 5 28 -7 15 -12 18 -13 9 -2
-6 9 -9 18 -6 21 3 3 -9 4 -26 3 -19 -2 -34 3 -39 12 -7 13 -9 13 -14 -1 -5
-11 -3 -15 5 -10 6 4 9 3 5 -2 -3 -5 3 -27 13 -49 12 -25 19 -33 20 -21 0 11
3 16 6 13 4 -4 1 -20 -6 -37 -11 -25 -10 -33 0 -43 10 -9 12 -9 8 3 -3 8 -2
24 3 35 l8 20 0 -20 c1 -17 3 -18 12 -5 9 13 10 13 6 0 -2 -8 -1 -22 4 -31 4
-8 3 -22 -2 -30 -7 -12 -9 -12 -9 0 0 11 -5 9 -22 -5 -15 -12 -18 -13 -10 -3
10 13 9 19 -3 29 -14 12 -19 7 -16 -13 1 -5 -3 -6 -8 -3 -6 4 -4 17 5 34 18
35 18 48 -1 32 -8 -7 -13 -16 -10 -20 3 -4 -3 -14 -13 -21 -14 -11 -15 -11 -5
1 9 10 10 17 1 27 -6 8 -11 27 -10 43 0 16 -6 34 -13 40 -8 6 -11 19 -8 28 6
15 5 15 -13 2 -15 -11 -16 -11 -6 0 23 26 12 34 -14 9 -14 -13 -25 -19 -24
-14 1 6 1 12 0 15 -7 18 -7 41 0 45 4 2 7 -3 6 -13 0 -9 4 -18 9 -19 6 -1 9 6
7 15 -2 15 -1 15 7 2 10 -13 11 -13 11 0 0 9 3 11 8 5 4 -5 16 -11 27 -12 21
-2 58 -10 63 -13 1 -2 10 -3 20 -4 11 0 27 -8 37 -16 15 -12 17 -12 10 -1 -5
9 -4 12 3 7 6 -3 23 -8 39 -10 15 -2 78 -13 138 -25 207 -41 260 -50 400 -70
171 -25 404 -48 585 -58 244 -14 837 -8 1050 11 676 59 1244 196 1615 390 143
74 211 121 288 200 167 169 202 293 130 449 -33 69 -117 166 -202 231 -280
215 -818 399 -1436 490 -396 58 -645 76 -1075 77 -403 0 -664 -16 -985 -62
-532 -76 -904 -180 -1247 -350 -54 -26 -98 -45 -98 -41 0 4 -5 -1 -11 -11 -10
-18 -12 -18 -37 5 -21 17 -23 18 -10 2 17 -19 16 -21 -2 -37 -11 -9 -20 -13
-20 -7 0 5 5 12 10 15 7 4 5 14 -5 28 -17 25 -20 47 -4 47 5 0 7 -5 3 -12 -4
-7 -3 -8 5 -4 6 4 9 11 7 15 -9 14 11 29 122 90 135 73 192 98 377 163 376
133 898 227 1465 265 105 7 110 8 60 14 -79 9 -588 -8 -770 -26 -262 -26 -608
-86 -805 -139 -122 -33 -389 -129 -475 -170 -39 -19 -70 -32 -70 -29 0 2 -7
-3 -16 -12 -15 -14 -17 -14 -30 2 -12 17 -13 16 -7 -4 3 -14 1 -23 -6 -23 -7
0 -10 4 -6 9 3 5 1 13 -5 16 -8 5 -7 11 1 21 6 7 16 11 22 7 6 -4 7 -1 2 6 -5
9 -13 7 -31 -10 -25 -23 -34 -14 -12 12 7 7 4 6 -6 -3 -16 -14 -17 -20 -7 -32
8 -9 17 -14 21 -11 5 3 6 -5 2 -17 -5 -21 -6 -21 -13 -2 -5 13 -8 15 -9 4 -2
-8 -2 -19 -1 -24 1 -5 -5 -4 -13 3 -9 7 -14 23 -12 35 3 11 5 24 5 28 2 13 44
47 53 42 4 -3 8 -1 8 5 0 24 246 140 430 203 98 33 406 110 530 132 261 47
644 82 1000 92 211 5 624 -7 733 -22 29 -3 37 -2 27 4 -16 10 -282 42 -530 64
-190 16 -852 16 -1030 0 -346 -32 -566 -71 -817 -142 -204 -57 -540 -200 -526
-223 3 -6 1 -7 -4 -4 -6 4 -14 0 -17 -9 -3 -8 -10 -13 -15 -10 -5 4 -11 1 -13
-6 -2 -6 -12 -12 -21 -14 -9 -1 -15 1 -12 6 7 12 -17 28 -38 25 -15 -3 -16 -1
-6 11 9 12 15 12 27 2 14 -11 15 -10 9 7 -7 18 -6 19 6 3 8 -10 18 -14 23 -10
4 4 3 0 -4 -10 -8 -9 -9 -19 -4 -22 6 -3 13 1 16 10 9 23 7 46 -3 40 -5 -3
-15 2 -22 12 -13 16 -13 16 5 2 18 -14 19 -13 12 5 -4 11 -4 16 0 12 4 -4 13
2 21 13 15 21 33 27 33 10 0 -5 -5 -9 -11 -7 -6 1 -13 -4 -15 -11 -1 -7 0 -8
3 -2 6 12 23 4 23 -11 0 -6 -4 -7 -10 -4 -6 4 -7 -1 -3 -11 4 -11 8 -13 11 -6
2 7 9 9 14 6 7 -4 8 -2 4 5 -14 22 -16 73 -3 68 7 -2 12 -15 12 -29 0 -31 10
-44 21 -27 4 8 3 10 -4 5 -8 -5 -11 0 -8 16 2 13 -1 28 -6 34 -29 37 392 212
657 274 149 35 404 74 655 102 75 8 264 12 540 12 541 0 750 -17 1299 -110
145 -24 266 -43 267 -41 2 2 -47 15 -109 30 -62 15 -177 42 -257 61 -307 74
-716 136 -1080 165 -657 53 -1324 -11 -1748 -168 -93 -34 -290 -128 -316 -150
-16 -13 -18 -13 -12 -1 7 13 6 13 -6 0 -7 -8 -25 -23 -40 -33 -25 -15 -28 -16
-28 -2 0 10 5 13 13 9 6 -4 3 2 -7 14 -11 12 -16 22 -11 22 4 0 1 8 -6 17 -12
15 -12 16 3 10 10 -3 17 -2 15 2 -7 26 210 151 362 208 95 36 328 100 444 122
590 114 1386 99 2157 -40 313 -56 926 -218 1154 -304 109 -41 88 -22 -31 28
-307 129 -753 277 -1088 361 -728 181 -1485 240 -2075 161 -150 -21 -398 -78
-524 -122 -120 -42 -275 -118 -374 -184 -40 -27 -77 -49 -83 -49 -6 0 -7 -4
-4 -10 6 -9 -8 -14 -28 -11 -5 1 -6 -2 -3 -7 3 -5 -10 -23 -29 -40 -19 -16
-35 -27 -35 -23 0 4 3 11 8 15 4 4 8 20 8 34 1 15 3 27 4 27 1 0 3 11 6 25 3
18 2 21 -5 10 -5 -8 -8 -17 -5 -21 2 -4 0 -10 -6 -14 -5 -3 -10 0 -10 7 0 8
-5 6 -11 -5 -5 -9 -7 -22 -3 -29 4 -6 3 -8 -3 -5 -6 4 -10 -1 -10 -11 0 -43
-3 -48 -14 -32 -9 13 -10 12 -5 -3 3 -10 2 -15 -3 -12 -18 10 -21 -13 -4 -26
10 -8 14 -9 10 -2 -4 6 -3 14 3 18 5 3 10 -1 10 -9 0 -8 -5 -18 -11 -21 -6 -4
-14 -17 -19 -29 -8 -20 -9 -20 -10 -1 0 17 -2 17 -10 5 -9 -13 -10 -13 -11 0
0 10 -3 9 -10 -5 l-9 -20 3 20 c1 11 -3 20 -8 20 -6 0 -9 -8 -9 -18 2 -20 -9
-14 -12 8 -2 14 24 42 35 38 3 -2 6 0 6 5 1 14 34 67 35 54 0 -7 4 -11 9 -7 6
3 8 14 6 25 -2 12 0 18 6 15 5 -4 9 -2 9 4 0 18 62 82 135 140 108 86 278 173
452 231 186 61 278 84 453 109 494 73 953 66 1578 -24 747 -108 1666 -417
2323 -780 45 -25 83 -44 85 -42 10 9 -325 213 -541 329 -401 215 -914 421
-1365 547 -796 224 -1582 278 -2190 152 -247 -51 -551 -178 -705 -293 -90 -68
-247 -222 -238 -233 5 -4 0 -5 -9 -2 -12 4 -15 2 -12 -7 3 -8 -4 -21 -16 -29
-11 -8 -20 -19 -18 -25 2 -6 -6 -18 -17 -27 -11 -9 -13 -13 -5 -9 12 6 13 5 3
-7 -6 -8 -13 -18 -15 -24 -1 -5 -7 -9 -12 -7 -5 2 -6 -4 -2 -13 4 -11 2 -14
-6 -9 -8 5 -9 2 -5 -10 4 -9 3 -15 -2 -12 -5 3 -14 -1 -20 -8 -8 -9 -8 -17 -2
-20 5 -3 12 0 14 6 4 9 6 10 6 1 2 -21 -16 -23 -33 -4 -11 13 -14 21 -7 26 6
3 11 11 11 17 0 6 -9 3 -20 -7 -19 -17 -19 -19 -3 -37 17 -19 27 -72 12 -62
-4 2 -6 13 -4 23 2 11 -5 27 -16 36 -10 10 -15 23 -12 29 4 6 8 26 9 45 1 31
0 33 -11 17 -8 -10 -12 -27 -10 -38 3 -11 2 -18 -2 -14 -3 3 -12 1 -19 -5 -9
-7 -14 -6 -20 3 -4 7 -4 10 1 6 4 -4 14 -3 22 3 11 10 11 15 1 27 -10 13 -10
14 0 8 6 -4 12 -4 13 1 0 4 2 15 4 24 1 9 -1 23 -6 30 -7 11 -9 9 -10 -6 -1
-11 -1 -23 0 -27 0 -5 -5 -7 -12 -5 -6 1 -11 -4 -9 -11 1 -8 -2 -11 -8 -7 -8
5 -7 11 1 21 11 13 5 19 -15 15 -5 -1 -4 4 3 12 6 8 10 27 7 42 -4 22 -3 25
10 15 17 -15 17 -10 4 25 -7 17 -7 24 0 20 9 -6 15 16 10 40 -1 6 3 5 10 -1 8
-8 8 -18 -1 -37 -9 -21 -9 -30 1 -42 9 -11 9 -15 1 -15 -7 0 -9 -5 -6 -11 5
-6 12 -4 21 8 7 10 14 13 14 8 0 -6 -6 -17 -12 -24 -9 -10 -10 -12 -1 -7 14 8
39 -31 35 -54 -3 -13 -2 -13 7 0 10 13 11 13 11 0 0 -13 2 -13 11 0 9 13 10
13 6 -1 -3 -9 -1 -22 4 -30 7 -12 9 -12 10 1 1 8 1 21 0 29 -2 8 3 10 11 5 7
-4 10 -3 5 1 -8 9 22 47 32 41 3 -2 6 6 6 19 0 13 -3 21 -7 18 -5 -2 -8 -12
-8 -21 0 -14 -2 -15 -10 -2 -5 9 -5 19 2 27 6 7 7 13 3 13 -4 0 -2 6 4 13 8
10 7 14 -3 14 -8 0 -13 -8 -11 -18 2 -10 0 -21 -6 -24 -5 -4 -5 -13 1 -25 7
-13 5 -21 -7 -31 -14 -12 -15 -11 -10 11 4 14 4 19 1 12 -3 -6 -10 -9 -15 -6
-6 4 -6 11 1 19 7 9 6 16 -7 26 -16 13 -17 12 -5 -3 8 -9 9 -19 4 -22 -11 -7
-24 19 -27 49 -2 28 6 40 16 24 7 -11 9 -11 9 -1 0 7 4 11 9 7 6 -3 8 -14 6
-25 -2 -11 0 -22 5 -25 4 -3 7 3 5 12 -1 10 2 24 8 31 8 10 7 12 -4 10 -9 -2
-14 5 -13 19 1 12 -3 21 -9 20 -6 -1 -11 8 -12 20 0 12 -3 24 -6 27 -12 12 -3
-42 9 -57 8 -9 9 -18 4 -21 -6 -3 -13 1 -16 10 -4 9 -9 14 -13 10 -3 -3 -16 2
-27 11 -21 18 -21 18 -4 -3 16 -19 16 -22 2 -40 -14 -17 -15 -17 -10 -1 3 10
1 27 -4 37 -12 23 4 37 23 21 10 -8 13 -4 13 14 0 19 -3 22 -13 13 -8 -6 -16
-8 -20 -4 -3 3 -1 6 6 6 7 0 9 5 6 10 -5 9 15 15 38 11 4 -1 1 9 -7 22 -14 21
-13 28 22 102 80 173 243 430 387 610 392 492 893 870 1470 1110 506 211 1090
310 1621 275z m-3511 -2100 c3 -5 1 -10 -4 -10 -6 0 -11 5 -11 10 0 6 2 10 4
10 3 0 8 -4 11 -10z m9 -122 c-15 -23 -11 -52 11 -83 33 -47 35 -52 19 -52
-18 0 -49 42 -49 66 0 9 -7 16 -15 16 -8 0 -16 8 -18 19 -3 11 0 16 7 11 6 -3
8 -12 5 -18 -4 -7 -3 -8 2 -4 5 5 9 12 9 15 1 14 27 54 32 49 3 -3 1 -12 -3
-19z m213 -188 c-2 -11 -6 -23 -10 -26 -4 -4 -7 -19 -7 -33 0 -20 -3 -22 -9
-12 -6 9 -6 22 0 33 5 10 6 18 2 18 -4 0 -2 5 4 11 6 6 9 18 6 27 -4 10 -2 13
5 8 7 -4 10 -16 9 -26z m-257 -34 c0 -2 -8 -10 -17 -17 -16 -13 -17 -12 -4 4
13 16 21 21 21 13z m21 -33 c13 -16 12 -17 -3 -4 -10 7 -18 15 -18 17 0 8 8 3
21 -13z m18 -57 c9 -11 9 -16 -1 -22 -7 -4 -10 -4 -6 1 4 4 3 14 -3 22 -6 7
-9 13 -6 13 2 0 10 -6 16 -14z m58 -3 c0 -9 -4 -10 -14 -2 -7 6 -13 12 -13 14
0 1 6 2 13 2 8 0 14 -6 14 -14z m66 -34 c-8 -8 -13 -7 -18 2 -5 8 -4 10 3 5 7
-4 12 -2 12 5 0 7 3 9 7 6 4 -4 2 -12 -4 -18z m222 1 c-4 -6 -10 -8 -14 -6 -4
3 -5 -12 -2 -32 l5 -37 7 35 c7 40 10 38 12 -7 1 -17 -1 -29 -5 -26 -5 2 -8
-2 -8 -9 0 -10 -2 -10 -9 1 -7 11 -10 9 -13 -8 -1 -12 -7 -22 -13 -23 -5 0
-16 -9 -22 -18 -11 -15 -38 -20 -50 -10 -2 2 -7 3 -12 4 -5 0 -13 5 -18 10 -5
5 -3 6 5 2 7 -4 12 -2 12 6 0 9 3 9 10 -2 5 -8 10 -12 10 -8 0 3 3 14 7 24 5
13 3 15 -7 9 -9 -5 -11 -4 -6 4 4 6 11 9 16 6 8 -5 25 13 25 28 0 4 3 7 8 7 4
0 12 0 17 0 6 0 10 -5 10 -11 0 -5 -4 -8 -9 -4 -5 3 -13 0 -17 -6 -4 -8 -3 -9
4 -5 8 5 12 -1 13 -16 1 -23 1 -23 9 2 12 37 12 82 0 75 -6 -4 -7 -11 -4 -17
5 -7 2 -8 -5 -4 -9 6 -8 13 5 27 18 20 50 27 39 9z m-290 -29 c3 -5 2 -12 -3
-15 -5 -3 -9 1 -9 9 0 17 3 19 12 6z m20 -30 c3 -5 2 -12 -3 -15 -5 -3 -9 1
-9 9 0 17 3 19 12 6z m322 -268 c0 -9 -4 -10 -10 -4 -7 7 -16 7 -26 -2 -14
-10 -14 -10 -4 4 15 19 40 21 40 2z m26 -3 c3 -11 1 -18 -4 -14 -5 3 -9 12 -9
20 0 20 7 17 13 -6z m-29 -38 c3 -5 -1 -9 -9 -9 -8 0 -12 4 -9 9 3 4 7 8 9 8
2 0 6 -4 9 -8z m229 -74 c-12 -20 -10 -41 6 -61 8 -9 11 -20 8 -24 -4 -3 -7
-1 -7 7 0 10 -3 10 -17 -1 -15 -11 -16 -11 -6 1 10 11 9 18 -5 34 -10 12 -12
16 -3 11 11 -6 13 -4 8 7 -3 9 0 21 6 27 15 15 20 14 10 -1z m-27 -65 c-10
-11 -19 -7 -22 10 -2 15 0 16 12 6 8 -6 12 -14 10 -16z m237 -193 c-7 -14 -21
-25 -31 -25 -11 0 -27 -7 -38 -15 -18 -14 -18 -14 -4 3 8 11 15 27 17 38 5 36
8 42 23 59 14 14 16 14 31 -9 13 -22 13 -30 2 -51z m-69 8 c-5 -7 -9 -16 -9
-20 0 -20 -11 -13 -11 7 0 13 4 21 8 19 4 -3 8 0 8 7 0 7 3 10 6 6 3 -3 2 -12
-2 -19z m703 -1143 c0 -8 -4 -12 -9 -9 -5 3 -6 10 -3 15 9 13 12 11 12 -6z
m97 -94 c14 -15 15 -21 4 -27 -7 -4 -10 -4 -6 1 11 11 -12 36 -25 28 -6 -3 -7
-1 -3 5 9 15 10 15 30 -7z m-23 -48 c13 -16 12 -17 -3 -4 -10 7 -18 15 -18 17
0 8 8 3 21 -13z m199 -98 c-5 -7 -6 -16 -2 -20 4 -5 1 -5 -5 -1 -7 4 -13 14
-13 22 0 8 -8 27 -17 42 l-17 27 32 -29 c22 -20 29 -33 22 -41z m-63 -20 c0
-8 -4 -12 -9 -9 -5 3 -6 10 -3 15 9 13 12 11 12 -6z m-30 -10 c0 -8 -4 -12 -9
-9 -5 3 -6 10 -3 15 9 13 12 11 12 -6z m242 -328 c0 -9 -2 -8 -6 1 -2 6 -10 9
-15 6 -7 -4 -8 -2 -4 5 9 13 26 5 25 -12z m-46 -3 c4 -1 10 -2 13 -3 3 0 2 -6
-1 -12 -5 -7 -13 -5 -24 5 -10 9 -21 13 -26 9 -4 -5 -5 -2 -1 5 4 7 13 9 19 5
7 -4 15 -8 20 -9z m45 -30 c-1 -5 -9 -9 -16 -10 -10 -2 -11 1 -1 12 12 14 24
13 17 -2z m103 -38 c-6 -7 -7 -17 -3 -22 4 -4 0 -3 -9 4 -9 6 -20 8 -24 4 -5
-4 -5 -1 -1 6 4 7 12 10 17 7 5 -4 9 1 9 10 0 9 5 13 10 10 8 -5 8 -11 1 -19z
m16 -301 c0 -8 -4 -12 -9 -9 -5 3 -6 10 -3 15 9 13 12 11 12 -6z m177 -61 c3
-8 2 -12 -4 -9 -6 3 -10 10 -10 16 0 14 7 11 14 -7z m6912 -734 c-1 -33 -4
-62 -8 -65 -3 -4 -4 -18 -2 -32 3 -15 1 -22 -6 -18 -12 7 -10 64 3 72 4 2 2
12 -5 20 -7 9 -13 40 -13 70 -1 51 0 53 15 32 11 -14 16 -40 16 -79z m-181
-287 c-2 -10 -4 -22 -4 -28 -1 -5 -5 -3 -11 5 -5 9 -5 19 2 27 14 17 17 16 13
-4z m-57 -18 c-3 -3 -9 2 -12 12 -6 14 -5 15 5 6 7 -7 10 -15 7 -18z m-53 -15
c-8 -9 -12 -20 -8 -23 3 -4 14 4 23 19 16 23 18 24 25 7 8 -17 9 -30 6 -52 0
-5 -8 -8 -16 -7 -23 3 -53 36 -50 54 4 21 2 19 20 19 13 0 13 -2 0 -17z m112
-45 c0 -8 -4 -12 -9 -9 -5 3 -6 10 -3 15 9 13 12 11 12 -6z m-5797 -125 c0 -4
6 -7 13 -8 64 -5 110 -15 118 -25 9 -12 -2 -58 -12 -51 -5 3 -9 -5 -10 -18 -1
-23 -1 -22 -8 2 -6 22 -8 23 -14 6 -6 -15 -10 -16 -22 -6 -8 6 -18 9 -24 6 -5
-3 -8 2 -7 11 4 26 -16 34 -37 15 -10 -9 -18 -12 -17 -7 4 18 -13 57 -19 46
-4 -6 -12 -1 -20 12 -13 21 -13 21 4 7 17 -13 18 -13 13 1 -4 11 1 15 18 15
13 0 24 -3 24 -6z m-63 -36 c-3 -4 -2 -16 4 -28 10 -20 9 -20 -5 -2 -14 17
-13 36 1 36 4 0 3 -3 0 -6z m5530 -139 c-4 -8 -3 -17 2 -19 11 -7 7 -61 -5
-61 -5 0 -7 5 -6 10 9 26 10 45 2 50 -9 6 -3 35 7 35 3 0 3 -7 0 -15z m-78
-179 c-3 -3 -11 5 -18 17 -13 21 -12 21 5 5 10 -10 16 -20 13 -22z m-33 -15
c-9 -10 -14 -20 -11 -23 3 -2 -1 -5 -8 -5 -8 0 -14 6 -14 13 0 7 5 12 11 11 5
-1 11 4 12 11 3 22 4 23 15 17 7 -5 5 -13 -5 -24z m-5069 -117 c0 -7 -10 -23
-21 -36 -12 -13 -18 -19 -13 -14 12 17 8 29 -7 17 -10 -8 -16 -9 -21 -1 -4 6
-1 9 7 8 8 -2 13 5 12 18 -1 14 5 20 21 20 12 0 22 -6 22 -12z m20 -18 c-3
-19 0 -40 7 -47 6 -8 1 -5 -12 6 -15 12 -19 22 -12 29 5 5 10 18 10 28 0 10 3
18 6 18 3 0 4 -15 1 -34z m55 21 c3 4 4 3 2 -4 -1 -6 4 -19 11 -30 8 -10 15
-14 15 -9 0 5 7 3 15 -4 8 -6 18 -9 22 -7 5 3 9 -4 10 -16 0 -12 -1 -16 -4 -9
-3 6 -9 12 -14 12 -6 0 -7 -6 -3 -12 6 -10 5 -10 -7 -1 -12 10 -18 10 -28 0
-7 -6 -12 -7 -11 -2 5 22 -1 29 -11 15 -8 -13 -9 -13 -7 2 2 9 -1 16 -7 15 -5
-1 -8 -6 -7 -12 2 -5 0 -7 -4 -2 -4 4 -9 18 -11 30 -2 17 -1 19 7 7 6 -10 10
-11 10 -2 0 19 -4 27 -13 24 -5 -1 -6 2 -2 8 5 8 11 8 20 0 7 -6 15 -7 17 -3z
m4939 -14 c8 -10 9 -14 2 -10 -7 4 -16 0 -22 -10 -8 -14 -10 -15 -11 -3 0 13
-1 13 -10 0 -5 -8 -10 -11 -10 -6 0 8 29 46 35 46 2 0 9 -8 16 -17z m-64 -48
c-4 -8 -10 -14 -14 -13 -4 2 -8 0 -8 -3 0 -3 -6 -13 -13 -22 -9 -10 -10 -17
-2 -22 5 -3 10 -1 10 6 0 7 3 9 7 6 3 -4 -1 -15 -10 -24 -18 -21 -19 -33 -5
-50 6 -8 6 -18 -1 -31 -6 -11 -7 -23 -3 -27 4 -5 2 -5 -5 -1 -6 3 -10 15 -8
26 2 10 -3 24 -11 31 -8 6 -14 17 -14 23 0 6 4 5 9 -3 5 -8 11 -9 15 -3 3 5
-1 15 -8 21 -11 10 -16 8 -24 -5 -8 -14 -9 -12 -9 11 0 15 2 23 6 18 8 -12 31
-10 30 2 -1 6 -6 9 -12 7 -7 -2 -8 0 -4 5 5 4 14 8 20 8 7 0 13 6 13 13 1 6 3
15 4 20 1 4 2 11 1 16 -1 5 5 4 13 -4 14 -10 16 -10 16 5 0 10 3 16 6 12 4 -3
4 -13 1 -22z m-4767 -86 c0 8 3 12 6 8 8 -7 -17 -41 -32 -44 -9 -2 -9 4 -1 22
8 16 14 20 19 12 6 -9 8 -8 8 2z m4536 -178 c-3 -4 -1 -13 5 -21 7 -12 9 -11
10 5 1 11 1 24 0 28 -1 5 3 6 8 2 7 -3 7 -15 1 -30 -5 -13 -7 -39 -4 -57 3
-18 5 -42 5 -53 0 -10 4 -24 10 -31 6 -7 4 -16 -6 -24 -12 -10 -15 -10 -16 1
-3 34 -6 65 -8 74 -1 6 -13 -3 -27 -20 -15 -16 -24 -25 -21 -19 4 6 7 27 9 47
1 23 6 33 11 28 5 -5 15 -7 23 -4 10 3 10 11 3 31 -16 40 -19 63 -8 57 5 -4 7
-10 5 -14z m-106 -248 c0 -12 -25 -12 -37 1 -4 4 -1 6 7 4 10 -2 14 4 12 17
-2 16 -1 17 7 5 6 -8 11 -20 11 -27z m55 28 c3 -5 1 -12 -5 -16 -5 -3 -10 1
-10 9 0 18 6 21 15 7z m-88 -261 c-1 -12 -5 -16 -10 -11 -5 5 -6 14 -3 20 11
16 15 13 13 -9z m-179 -36 c6 -1 12 2 12 7 0 5 5 9 11 9 6 0 0 -13 -13 -29
-13 -16 -27 -28 -33 -27 -5 0 -9 -4 -8 -10 1 -6 -4 -11 -11 -11 -17 0 -14 31
2 33 7 1 17 2 23 3 5 0 7 6 4 11 -4 6 -10 8 -14 6 -4 -3 -8 1 -8 9 0 8 5 11
11 7 6 -3 17 -7 24 -8z m-43 -78 c7 3 15 -3 19 -13 4 -9 4 -14 0 -10 -4 4 -16
-1 -26 -10 -18 -16 -18 -16 -12 0 3 10 0 25 -7 35 -11 14 -11 15 0 5 7 -6 19
-9 26 -7z m-37 -51 c1 -8 3 -21 4 -28 3 -22 -45 -108 -55 -98 -5 5 -2 19 7 34
14 20 14 26 3 36 -8 6 -16 8 -19 6 -3 -3 -4 6 -2 21 1 14 6 29 10 32 4 4 5 0
1 -10 -3 -9 1 -24 9 -35 13 -16 14 -15 9 17 -4 24 -2 31 4 20 5 -8 7 -18 5
-22 -3 -4 2 -8 11 -8 12 0 14 4 6 19 -6 10 -7 21 -4 25 9 8 9 8 11 -9z m86
-11 c3 -7 -3 -19 -12 -27 -16 -14 -17 -13 -17 12 -1 28 20 39 29 15z m-143
-77 c-10 -9 -11 -8 -5 6 3 10 9 15 12 12 3 -3 0 -11 -7 -18z m52 -94 c-4 -10
-9 -11 -19 -2 -11 9 -12 15 -3 26 14 17 31 -1 22 -24z m-86 -87 c4 -4 8 -25 8
-47 0 -38 0 -39 -18 -20 -23 23 -31 80 -11 77 7 -1 17 -5 21 -10z m-201 -125
c-7 -10 11 -36 25 -36 7 0 13 -7 14 -16 2 -9 -4 -16 -11 -16 -8 0 -14 5 -14
10 0 5 -6 4 -14 -2 -10 -8 -16 -9 -21 -1 -4 6 -1 9 7 8 13 -3 14 7 4 50 -3 13
-1 20 5 17 5 -4 7 -10 5 -14z m-21 -20 c3 -5 2 -12 -3 -15 -5 -3 -9 1 -9 9 0
17 3 19 12 6z m35 -172 c0 -6 -4 -7 -10 -4 -5 3 -10 11 -10 16 0 6 5 7 10 4 6
-3 10 -11 10 -16z m-70 -3 c-6 -6 -5 -15 5 -26 14 -15 14 -18 0 -30 -18 -15
-19 -41 -2 -60 6 -8 8 -11 3 -7 -5 4 -15 2 -23 -4 -7 -6 -13 -8 -14 -3 0 5 -2
24 -4 41 -2 18 1 35 6 39 6 4 6 11 -2 20 -8 10 -8 14 0 14 6 0 11 6 11 13 0 8
7 14 15 14 11 0 12 -4 5 -11z m-86 -15 c3 -5 -1 -14 -8 -20 -12 -10 -14 -9
-11 6 2 10 4 19 4 21 2 5 10 2 15 -7z m-94 -135 c0 -2 -8 -10 -17 -17 -16 -13
-17 -12 -4 4 13 16 21 21 21 13z m-105 -184 c-3 -3 -1 -10 5 -16 5 -7 5 -17
-2 -26 -8 -13 -9 -12 -5 1 3 9 0 22 -6 28 -6 6 -7 11 -3 11 5 0 2 8 -5 18 -13
15 -12 16 4 3 9 -8 15 -16 12 -19z m-61 -60 c3 -5 -1 -9 -9 -9 -8 0 -12 4 -9
9 3 4 7 8 9 8 2 0 6 -4 9 -8z m46 -63 c0 -6 -4 -7 -10 -4 -5 3 -10 11 -10 16
0 6 5 7 10 4 6 -3 10 -11 10 -16z m-60 -40 c-7 -11 -14 -19 -16 -16 -7 7 7 37
17 37 6 0 5 -9 -1 -21z m-89 -56 c-12 -20 -14 -14 -5 12 4 9 9 14 11 11 3 -2
0 -13 -6 -23z m-111 -202 c0 -6 -4 -12 -8 -15 -5 -3 -9 1 -9 9 0 8 4 15 9 15
4 0 8 -4 8 -9z m33 -74 c-3 -5 -9 -3 -14 4 -4 7 -5 17 -2 22 3 5 9 3 14 -4 4
-7 5 -17 2 -22z"/>
<path d="M5635 9549 c-89 -10 -190 -25 -225 -33 l-65 -15 90 7 c141 11 559 7
680 -7 454 -50 912 -184 1316 -386 402 -202 714 -429 1044 -759 204 -204 296
-311 434 -505 343 -480 579 -1057 660 -1617 10 -69 22 -128 26 -132 4 -4 4 43
0 103 -72 1153 -679 2185 -1649 2805 -678 434 -1520 630 -2311 539z"/>
<path d="M5410 9389 c-129 -12 -374 -54 -495 -85 -160 -40 -409 -127 -556
-193 -121 -55 -315 -160 -297 -161 4 0 74 23 155 51 250 85 436 125 721 155
189 20 592 14 767 -10 248 -36 456 -77 580 -116 459 -143 744 -265 1075 -458
1160 -679 1960 -1810 2101 -2972 l13 -105 8 50 c10 57 3 334 -12 488 -71 715
-361 1402 -833 1977 -103 125 -425 442 -551 543 -599 476 -1273 758 -1991 832
-153 16 -530 18 -685 4z"/>
<path d="M5040 9053 c-373 -22 -792 -133 -1118 -297 -155 -78 -402 -239 -389
-253 3 -2 47 16 98 40 265 127 521 202 854 249 145 21 716 17 885 -5 536 -72
1021 -220 1545 -472 1064 -512 1958 -1406 2334 -2335 16 -41 30 -68 30 -60 2
32 -52 219 -104 366 -254 713 -762 1384 -1430 1886 -819 616 -1796 934 -2705
881z"/>
<path d="M4585 8689 c-532 -49 -998 -233 -1327 -524 -78 -69 -129 -125 -112
-125 3 0 46 27 94 59 286 191 664 311 1113 352 166 15 627 6 802 -15 527 -66
983 -189 1511 -409 887 -370 1687 -955 2203 -1614 40 -51 75 -93 78 -93 16 0
-172 289 -287 440 -186 243 -468 540 -695 731 -771 647 -1710 1069 -2640 1185
-144 18 -599 26 -740 13z"/>
<path d="M4470 8349 c-657 -36 -1182 -250 -1472 -600 -64 -78 -116 -159 -101
-159 4 0 44 33 88 72 454 407 1287 558 2291 413 675 -97 1347 -308 1990 -626
458 -226 753 -416 1199 -771 86 -68 -168 181 -303 298 -348 300 -703 535
-1157 764 -195 99 -537 249 -625 275 -14 4 -64 22 -111 41 -108 42 -269 91
-469 142 -447 116 -944 173 -1330 151z"/>
<path d="M2655 7364 c2 -32 11 -40 18 -15 3 11 0 25 -7 30 -8 7 -11 3 -11 -15z"/>
<path d="M2703 7343 c0 -11 7 -20 14 -20 10 0 10 4 1 16 -7 9 -13 18 -15 20
-1 2 -1 -5 0 -16z"/>
<path d="M2723 7278 c1 -17 3 -17 13 -3 11 14 12 14 18 -1 3 -9 1 -24 -6 -33
-11 -14 -10 -14 6 0 14 13 16 21 8 35 -14 25 -41 27 -39 2z"/>
<path d="M2973 7275 c0 -8 4 -12 9 -9 5 3 6 10 3 15 -9 13 -12 11 -12 -6z"/>
<path d="M2865 7223 c-5 -10 -9 -20 -9 -23 -1 -3 -5 -11 -9 -17 -5 -7 -7 -13
-5 -14 41 -10 58 0 33 21 -12 10 -13 16 -4 27 7 7 10 16 7 19 -3 3 -9 -3 -13
-13z m9 -41 c3 -5 -1 -9 -9 -9 -8 0 -12 4 -9 9 3 4 7 8 9 8 2 0 6 -4 9 -8z"/>
<path d="M3100 7107 c0 -2 6 -10 14 -16 11 -9 16 -9 22 1 4 7 4 10 -1 6 -4 -4
-14 -3 -22 3 -7 6 -13 9 -13 6z"/>
<path d="M3206 6845 c8 -37 10 -39 17 -21 3 8 -1 22 -9 33 -13 17 -14 16 -8
-12z"/>
<path d="M3373 6639 c-2 -23 3 -25 10 -4 4 8 3 16 -1 19 -4 3 -9 -4 -9 -15z"/>
<path d="M8851 5969 c-2 -135 -98 -313 -228 -423 -289 -244 -821 -435 -1483
-531 -217 -31 -426 -53 -595 -61 -72 -4 -150 -10 -175 -15 -64 -12 537 -2 690
11 809 68 1420 254 1702 518 149 139 195 331 120 493 l-30 64 -1 -56z"/>
<path d="M9029 5688 c-44 -209 -237 -396 -559 -543 -361 -166 -852 -270 -1475
-314 -128 -9 -882 -7 -940 3 -62 10 -189 17 -182 10 9 -9 9 -9 157 -28 342
-44 548 -55 975 -51 478 4 671 22 1050 101 152 32 229 54 385 111 150 55 218
88 330 161 191 124 310 297 310 451 0 49 -21 161 -30 161 -4 0 -13 -28 -21
-62z"/>
<path d="M9142 5358 c-179 -371 -798 -625 -1707 -699 -170 -14 -714 -18 -880
-6 -387 27 -912 98 -1173 158 -134 30 -140 31 -119 18 38 -22 480 -129 717
-173 287 -53 617 -94 925 -116 119 -8 697 -6 745 4 14 2 61 7 105 11 242 20
529 77 732 146 238 81 387 164 516 288 113 109 169 212 189 349 17 121 2 127
-50 20z"/>
<path d="M4304 5228 c2 -15 8 -33 15 -42 7 -8 11 -20 10 -28 -1 -7 -1 -22 0
-33 1 -18 2 -18 17 -3 16 15 16 19 -2 55 -10 21 -17 47 -16 58 2 15 1 17 -6 6
-8 -11 -10 -11 -15 0 -3 8 -4 2 -3 -13z m43 -83 c0 -8 -4 -12 -9 -9 -5 3 -6
10 -3 15 9 13 12 11 12 -6z"/>
<path d="M4390 5186 c0 -2 8 -10 18 -17 15 -13 16 -12 3 4 -13 16 -21 21 -21
13z"/>
<path d="M9220 5057 c-19 -33 -69 -95 -110 -136 -265 -269 -761 -437 -1441
-491 -202 -16 -763 -8 -984 14 -703 71 -1288 204 -1960 446 -33 12 -67 28 -76
36 -9 8 -19 11 -22 8 -4 -4 -13 -2 -20 4 -10 9 -14 8 -14 -3 0 -8 4 -12 9 -9
4 3 8 1 8 -4 0 -5 13 -15 30 -22 16 -7 27 -17 23 -23 -3 -6 -1 -7 5 -3 6 3 35
-5 64 -18 225 -102 724 -273 1054 -361 576 -153 1026 -220 1549 -232 782 -17
1378 134 1693 432 123 115 191 225 222 352 17 76 10 79 -30 10z"/>
<path d="M4394 5082 c0 -10 6 -19 13 -19 8 0 9 6 2 19 -5 10 -11 18 -12 18 -2
0 -3 -8 -3 -18z"/>
<path d="M4546 5011 c-14 -15 -15 -21 -4 -27 7 -4 10 -3 5 1 -4 5 0 17 10 27
9 10 14 18 11 18 -3 0 -13 -9 -22 -19z"/>
<path d="M4563 4985 c0 -8 4 -12 9 -9 5 3 6 10 3 15 -9 13 -12 11 -12 -6z"/>
<path d="M4564 4946 c1 -8 5 -18 8 -22 4 -3 5 1 4 10 -1 8 -5 18 -8 22 -4 3
-5 -1 -4 -10z"/>
<path d="M4585 4891 c-3 -12 -10 -19 -15 -16 -5 3 -12 0 -16 -6 -4 -7 -3 -9 4
-5 6 3 16 -2 22 -11 7 -12 10 -13 7 -3 -2 8 0 23 5 33 5 10 7 21 5 24 -3 2 -8
-5 -12 -16z"/>
<path d="M4633 4875 c0 -8 4 -12 9 -9 5 3 6 10 3 15 -9 13 -12 11 -12 -6z"/>
<path d="M4633 4835 c0 -8 4 -12 9 -9 5 3 6 10 3 15 -9 13 -12 11 -12 -6z"/>
<path d="M4841 4544 c0 -11 3 -14 6 -6 3 7 2 16 -1 19 -3 4 -6 -2 -5 -13z"/>
<path d="M5067 4163 c3 -7 6 -13 8 -13 2 0 5 6 8 13 3 8 -1 14 -8 14 -7 0 -11
-6 -8 -14z"/>
<path d="M5115 4080 c3 -5 11 -10 16 -10 6 0 7 5 4 10 -3 6 -11 10 -16 10 -6
0 -7 -4 -4 -10z"/>
<path d="M5383 3607 c-3 -6 -1 -7 6 -3 7 5 16 -4 25 -25 8 -19 16 -27 20 -20
4 6 13 8 19 5 7 -4 9 -4 5 1 -4 4 -3 16 3 26 5 11 6 19 2 18 -4 -1 -10 0 -13
1 -17 7 -62 5 -67 -3z m64 -14 c7 -20 -16 -24 -26 -4 -9 16 -8 19 6 17 9 -2
19 -8 20 -13z"/>
<path d="M5556 3531 c-3 -5 2 -15 12 -22 15 -12 16 -12 5 2 -7 9 -10 19 -6 22
3 4 4 7 0 7 -3 0 -8 -4 -11 -9z"/>
<path d="M5586 3493 c-6 -14 -5 -15 5 -6 7 7 10 15 7 18 -3 3 -9 -2 -12 -12z"/>
<path d="M6004 2938 c1 -14 -4 -22 -12 -20 -8 1 -11 -2 -7 -8 5 -8 11 -8 20 0
8 7 15 7 19 1 5 -8 27 -8 46 -1 3 1 10 1 15 0 6 -1 6 2 2 7 -5 4 -12 8 -15 8
-16 1 -32 17 -26 27 4 7 2 8 -5 4 -9 -6 -9 -11 -1 -21 7 -8 7 -16 2 -19 -10
-6 -40 23 -34 31 2 3 2 7 -1 9 -2 3 -4 -6 -3 -18z"/>
<path d="M6095 2941 c-3 -5 -2 -12 3 -15 5 -3 9 1 9 9 0 17 -3 19 -12 6z"/>
<path d="M6294 2524 c1 -8 4 -15 7 -16 2 -2 3 -1 2 1 -2 2 2 9 7 16 7 8 5 12
-4 12 -8 0 -13 -6 -12 -13z"/>
<path d="M6214 2354 c3 -20 22 -37 46 -41 22 -3 25 5 9 27 -9 12 -10 11 -5 -5
6 -19 6 -19 -9 -1 -8 10 -13 22 -10 25 2 4 -5 7 -15 8 -10 1 -17 -4 -16 -13z"/>
<path d="M2735 7356 c10 -14 19 -26 22 -26 7 0 -17 39 -28 46 -6 3 -3 -5 6
-20z"/>
<path d="M2986 7002 c-14 -27 -14 -30 0 -28 22 3 39 35 26 48 -7 7 -15 1 -26
-20z m15 -9 c-12 -20 -14 -14 -5 12 4 9 9 14 11 11 3 -2 0 -13 -6 -23z"/>
<path d="M3531 6453 c-17 -33 -17 -56 2 -58 12 -2 17 4 17 21 0 17 4 23 12 18
7 -4 8 -3 4 5 -4 6 -12 8 -18 5 -7 -5 -9 -1 -5 9 8 22 0 22 -12 0z m1 -45 c-8
-8 -9 -4 -5 13 4 13 8 18 11 10 2 -7 -1 -18 -6 -23z"/>
<path d="M11805 3549 c-1 -31 7 -30 12 1 1 10 -1 21 -5 24 -4 2 -7 -9 -7 -25z"/>
<path d="M11550 3171 c-7 -13 -7 -22 0 -26 5 -3 10 0 10 9 0 8 5 16 12 18 9 3
9 6 1 11 -7 4 -17 -1 -23 -12z"/>
<path d="M5820 3016 c0 -2 5 -17 10 -31 8 -21 13 -25 23 -16 10 8 19 7 33 -4
10 -8 15 -15 10 -15 -6 0 -1 -6 10 -14 14 -11 21 -11 26 -3 4 7 13 12 20 12 7
0 13 9 13 20 0 11 -6 19 -12 18 -7 -2 -13 3 -13 10 0 8 -3 8 -9 -2 -5 -8 -8
-23 -6 -34 4 -16 2 -17 -11 -6 -10 8 -12 15 -4 23 14 14 13 23 -2 23 -22 1
-67 11 -78 18 -5 3 -10 4 -10 1z m68 -25 c6 -1 12 -6 12 -11 0 -7 -6 -7 -19
-1 -10 6 -21 8 -24 5 -3 -3 -8 -1 -11 4 -3 6 2 9 11 7 10 -2 24 -4 31 -4z m72
-26 c0 -6 -6 -12 -13 -12 -8 0 -14 6 -14 12 0 6 6 12 14 12 7 0 13 -6 13 -12z"/>
<path d="M6106 2531 c-4 -5 -2 -12 3 -15 5 -4 12 -2 15 3 4 5 2 12 -3 15 -5 4
-12 2 -15 -3z"/>
<path d="M6200 2513 c0 -6 7 -17 16 -24 19 -15 47 -21 38 -8 -3 5 -9 7 -14 4
-5 -3 -16 5 -24 17 -9 12 -16 17 -16 11z"/>
<path d="M10833 2114 c0 -9 4 -11 12 -4 7 5 14 9 16 7 2 -1 3 0 1 2 -7 11 -29
7 -29 -5z"/>
<path d="M10344 1274 c1 -8 4 -15 7 -16 2 -2 3 -1 2 1 -2 2 2 9 7 16 7 8 5 12
-4 12 -8 0 -13 -6 -12 -13z"/>
<path d="M10090 955 c0 -5 5 -17 10 -25 5 -8 10 -10 10 -5 0 6 -5 17 -10 25
-5 8 -10 11 -10 5z"/>
<path d="M11877 3703 c-8 -12 -2 -45 12 -71 6 -11 8 -21 6 -24 -3 -3 2 -5 10
-5 11 0 12 4 5 11 -17 17 -11 27 9 14 11 -7 17 -16 14 -22 -4 -5 -1 -6 7 -1
10 6 8 12 -8 24 -13 11 -18 24 -16 41 3 18 2 21 -5 10 -5 -8 -8 -17 -5 -21 2
-4 0 -10 -5 -14 -6 -3 -8 4 -6 16 5 25 -9 57 -18 42z"/>
<path d="M11932 3660 c0 -14 2 -19 5 -12 2 6 2 18 0 25 -3 6 -5 1 -5 -13z"/>
<path d="M11899 3565 c-1 0 -2 -12 -3 -26 -2 -15 2 -26 10 -26 7 0 11 9 9 19
-2 10 4 22 13 27 15 8 14 10 -5 8 -13 -1 -23 -1 -24 -2z"/>
<path d="M11931 3534 c0 -11 3 -14 6 -6 3 7 2 16 -1 19 -3 4 -6 -2 -5 -13z"/>
<path d="M11720 3432 c0 -7 6 -12 13 -12 8 0 9 -3 1 -8 -6 -4 -16 -17 -23 -30
-7 -12 -17 -20 -22 -16 -10 6 -49 -23 -49 -37 0 -4 9 -7 19 -6 11 0 17 7 14
14 -3 8 2 11 16 8 12 -2 20 1 18 8 -1 7 4 11 11 10 6 -2 11 0 11 5 -4 25 2 34
15 23 10 -9 16 -7 27 6 7 10 9 15 4 10 -4 -4 -19 3 -32 15 -13 12 -23 16 -23
10z"/>
<path d="M11729 3318 c0 -2 -2 -18 -4 -36 l-3 -32 18 22 c11 13 19 18 20 13 0
-6 -5 -16 -10 -21 -7 -7 -6 -11 4 -11 9 0 13 9 11 24 -2 25 -15 45 -15 24 0
-7 -5 -9 -10 -6 -6 4 -8 11 -5 16 4 5 4 9 1 9 -3 0 -6 -1 -7 -2z"/>
<path d="M11489 3099 c0 -2 -2 -12 -4 -21 -2 -10 1 -20 6 -24 5 -3 9 -10 9
-15 0 -6 -4 -8 -9 -4 -5 3 -13 1 -16 -5 -5 -8 -12 -7 -23 2 -13 11 -15 11 -10
-4 4 -9 4 -19 0 -22 -3 -4 -7 -14 -8 -24 -2 -12 4 -9 21 10 20 24 24 25 28 10
4 -15 5 -15 6 1 0 10 6 15 11 12 6 -4 7 -11 4 -17 -4 -7 -2 -8 5 -4 6 4 8 13
4 19 -4 7 -7 26 -8 44 0 17 -3 35 -7 39 -5 4 -8 5 -9 3z"/>
<path d="M11571 3056 c-7 -8 -21 -13 -32 -11 -11 2 -17 0 -14 -6 4 -5 11 -7
16 -4 5 4 9 2 9 -2 0 -5 7 -18 16 -29 15 -18 15 -18 5 3 -17 33 -13 41 8 14
14 -18 20 -21 26 -11 5 9 4 11 -3 6 -16 -10 -15 6 1 24 10 12 9 12 -4 2 -20
-15 -33 -4 -18 15 6 7 9 13 6 13 -2 0 -10 -6 -16 -14z"/>
<path d="M11540 3000 c6 -11 13 -20 16 -20 2 0 0 9 -6 20 -6 11 -13 20 -16 20
-2 0 0 -9 6 -20z"/>
<path d="M11469 2968 c7 -10 10 -25 6 -35 -4 -10 -9 -29 -11 -42 l-5 -24 20
24 c24 29 28 18 5 -16 -9 -14 -21 -22 -28 -18 -6 3 -7 2 -3 -2 9 -11 37 -16
36 -7 -3 19 2 33 9 28 5 -3 8 8 8 24 0 24 -2 27 -13 18 -12 -9 -13 -7 -8 13 4
18 1 30 -12 40 -16 13 -17 12 -4 -3z"/>
<path d="M11452 2955 c4 -4 3 -16 -3 -26 -5 -11 -7 -19 -5 -19 3 0 10 9 16 19
7 15 7 22 -2 27 -7 4 -10 4 -6 -1z"/>
<path d="M11408 2788 c8 -9 9 -19 4 -22 -6 -3 -12 0 -15 8 -6 16 -31 16 -34 1
0 -6 3 -17 9 -25 8 -12 9 -12 4 2 -3 10 -1 20 4 23 9 5 14 -7 11 -27 0 -3 7
-5 17 -4 9 2 17 7 17 12 0 5 4 16 9 24 5 8 6 12 1 8 -4 -4 -15 -2 -24 5 -14
10 -14 10 -3 -5z"/>
<path d="M11251 2736 c-14 -15 -19 -26 -12 -31 6 -3 11 1 11 10 0 10 5 13 12
9 6 -4 8 -3 4 4 -3 5 0 12 6 15 7 2 10 7 7 11 -3 3 -16 -5 -28 -18z"/>
<path d="M11277 2680 c11 -20 19 -43 18 -51 -2 -9 3 -16 10 -16 7 0 12 7 10
16 -3 22 16 62 27 55 5 -3 4 -12 -3 -20 -6 -8 -9 -17 -5 -21 3 -3 6 -1 6 6 0
7 5 9 10 6 6 -4 9 -1 8 7 -2 7 3 12 10 10 8 -1 11 2 8 7 -4 5 0 11 6 14 7 3
-2 4 -21 3 -19 -1 -37 -8 -39 -14 -2 -7 -8 -9 -13 -6 -6 4 -6 10 0 18 8 9 7
13 -4 13 -7 0 -14 -3 -13 -6 2 -21 -4 -22 -18 -5 -10 12 -9 7 3 -16z m33 -21
c0 -6 -4 -7 -10 -4 -5 3 -10 11 -10 16 0 6 5 7 10 4 6 -3 10 -11 10 -16z"/>
<path d="M11405 2703 c3 -3 0 -11 -5 -18 -7 -8 -5 -12 4 -12 14 0 16 22 3 32
-4 3 -5 2 -2 -2z"/>
<path d="M11230 2519 c0 -5 -4 -8 -8 -5 -4 2 -8 -5 -9 -17 0 -12 1 -16 4 -9 4
10 8 10 21 0 14 -10 15 -10 5 1 -6 7 -9 20 -6 27 3 8 2 14 -1 14 -3 0 -6 -5
-6 -11z"/>
<path d="M11116 2435 c7 -18 6 -19 -12 -5 -12 9 -15 9 -7 1 6 -7 9 -21 6 -30
-3 -9 2 -5 12 7 13 18 15 26 6 35 -9 9 -10 7 -5 -8z"/>
<path d="M10948 2183 c-3 -5 -3 -14 -2 -20 1 -7 2 -18 3 -25 2 -16 11 -4 16
20 4 21 -10 40 -17 25z"/>
<path d="M10943 2088 c0 -13 1 -17 4 -10 3 6 10 9 16 5 7 -4 6 1 -2 10 -17 21
-17 21 -18 -5z"/>
<path d="M10763 1925 c0 -8 4 -12 9 -9 5 3 6 10 3 15 -9 13 -12 11 -12 -6z"/>
<path d="M10788 1915 c-6 -13 -14 -22 -18 -20 -4 2 -7 -2 -7 -10 0 -9 4 -11
11 -6 6 5 14 9 18 8 3 -1 10 2 15 7 5 5 3 6 -4 2 -16 -9 -16 -1 -3 25 6 10 8
19 5 19 -3 0 -10 -11 -17 -25z"/>
<path d="M10775 1860 c-3 -5 -1 -19 5 -30 13 -25 21 -26 14 -2 -5 14 -3 14 10
-2 9 -11 16 -15 16 -9 0 14 -25 34 -33 26 -4 -3 -7 -1 -7 5 0 5 6 13 13 15 9
4 9 6 0 6 -6 1 -15 -3 -18 -9z"/>
<path d="M10713 1830 c-2 -23 13 -35 23 -19 5 8 3 9 -6 4 -10 -6 -12 -4 -7 8
3 9 3 18 -1 21 -4 3 -8 -4 -9 -14z"/>
<path d="M10626 1784 c-13 -18 -21 -22 -26 -14 -6 9 -9 9 -16 -1 -14 -23 -13
-41 2 -56 9 -9 14 -10 14 -3 0 6 5 8 13 3 24 -15 37 -12 27 7 -5 9 -7 19 -5
21 5 5 17 69 13 69 -2 0 -11 -12 -22 -26z m5 -26 c-4 -13 -6 -29 -3 -37 3 -9
0 -11 -7 -6 -7 4 -10 14 -7 22 3 8 2 12 -2 9 -4 -2 -14 0 -22 6 -13 8 -12 9 2
5 9 -3 22 1 28 9 17 20 21 17 11 -8z m-31 -28 c0 -5 -2 -10 -4 -10 -3 0 -8 5
-11 10 -3 6 -1 10 4 10 6 0 11 -4 11 -10z"/>
<path d="M10585 1659 c-4 -5 2 -6 12 -2 16 6 16 5 5 -10 -8 -9 -12 -22 -9 -29
3 -8 6 -6 6 5 1 10 5 16 10 13 4 -3 7 -21 4 -40 -2 -19 1 -37 7 -41 6 -3 7 0
4 10 -4 8 0 23 7 32 12 14 12 16 0 8 -11 -6 -13 -4 -8 8 3 9 2 19 -4 23 -7 4
-7 10 0 18 7 8 5 12 -9 13 -11 1 -22 -2 -25 -8z"/>
<path d="M10587 1580 c-3 -11 2 -25 11 -32 13 -11 14 -11 7 2 -5 8 -8 23 -7
33 4 23 -4 22 -11 -3z"/>
<path d="M10265 1248 c11 -13 20 -24 21 -26 1 -2 4 4 8 13 3 9 2 13 -4 10 -6
-3 -10 -2 -10 3 0 6 -8 13 -17 16 -14 6 -14 4 2 -16z"/>
<path d="M10257 1147 c-10 -26 -1 -52 19 -52 13 0 19 7 19 23 0 12 -4 22 -9
21 -5 0 -12 5 -16 11 -5 8 -9 8 -13 -3z m30 -27 c1 -9 -4 -17 -11 -17 -6 0
-13 8 -13 17 -1 9 4 17 11 17 6 0 13 -8 13 -17z"/>
<path d="M10149 1057 c6 -8 7 -18 3 -22 -4 -5 -1 -5 6 -1 10 6 10 11 1 22 -6
8 -14 14 -16 14 -3 0 0 -6 6 -13z"/>
<path d="M10206 1044 c1 -6 -2 -16 -8 -22 -7 -7 -6 -16 1 -29 7 -14 7 -23 0
-30 -8 -8 -7 -13 0 -17 6 -4 12 -5 12 -2 1 3 2 9 3 14 1 4 5 13 10 21 6 9 5
12 -1 8 -6 -4 -14 0 -17 9 -10 25 -7 27 12 13 14 -11 15 -11 5 1 -10 11 -10
17 0 29 8 10 8 13 0 8 -6 -4 -13 -4 -16 0 -2 5 -3 3 -1 -3z"/>
<path d="M10243 1045 c0 -6 10 -12 21 -13 15 -1 17 1 7 7 -11 7 -11 9 0 14 8
3 5 5 -7 4 -11 -1 -21 -6 -21 -12z"/>
<path d="M10009 886 c6 -7 7 -17 3 -21 -4 -5 -1 -5 7 0 10 6 12 2 7 -13 -4
-11 -3 -23 2 -26 5 -3 8 8 7 24 -1 17 3 30 8 30 17 0 1 10 -23 15 -17 3 -19 1
-11 -9z"/>
<path d="M9957 833 c-4 -3 -7 -11 -7 -17 0 -6 5 -5 12 2 6 6 9 14 7 17 -3 3
-9 2 -12 -2z"/>
<path d="M9980 795 c-1 -11 -4 -14 -7 -7 -3 8 -11 4 -25 -13 -11 -14 -23 -23
-28 -20 -12 7 -33 -23 -36 -53 -3 -27 -3 -27 9 -4 9 16 16 19 25 12 9 -7 9 -7
2 2 -5 7 -10 19 -10 27 0 11 3 11 13 -3 13 -17 15 -17 39 14 l25 32 14 -24 c8
-13 14 -29 13 -35 -1 -7 -2 -18 -3 -24 0 -5 -7 -7 -13 -3 -7 4 -9 3 -5 -1 13
-15 36 -14 49 3 12 15 11 16 -4 3 -17 -13 -26 -2 -11 13 4 4 8 18 9 31 1 21
-1 23 -14 13 -13 -11 -14 -10 -8 9 4 12 2 24 -3 28 -7 3 -8 0 -5 -9 3 -9 3
-16 0 -16 -4 0 -11 10 -16 23 -8 20 -9 21 -10 2z m-20 -34 c-10 -20 -30 -37
-30 -27 0 6 33 46 38 46 1 0 -2 -9 -8 -19z"/>
<path d="M10026 797 c3 -10 9 -15 12 -12 3 3 0 11 -7 18 -10 9 -11 8 -5 -6z"/>
<path d="M10063 792 c-8 -14 -8 -19 1 -19 7 0 13 9 13 19 2 23 1 23 -14 0z"/>
<path d="M10093 788 c0 -13 1 -17 4 -10 3 6 10 9 16 5 7 -4 6 1 -2 10 -17 21
-17 21 -18 -5z"/>
<path d="M9981 755 c1 -19 18 -51 18 -35 0 8 -4 22 -9 30 -5 8 -9 11 -9 5z"/>
<path d="M9913 625 c0 -8 4 -12 9 -9 5 3 6 10 3 15 -9 13 -12 11 -12 -6z"/>
<path d="M9935 610 c-4 -12 -11 -17 -18 -14 -7 4 -8 3 -4 -1 13 -15 36 -14 49
3 12 16 11 16 -6 2 -18 -14 -18 -13 -12 8 4 12 5 22 2 22 -2 0 -8 -9 -11 -20z"/>
<path d="M9829 533 c8 -15 8 -24 1 -28 -8 -5 -7 -11 1 -21 14 -17 31 -8 28 14
-2 29 1 38 10 24 6 -11 10 -10 15 4 4 10 4 15 0 11 -4 -4 -13 -2 -21 5 -8 6
-13 7 -12 2 4 -23 -2 -26 -17 -8 -15 18 -15 18 -5 -3z m21 -39 c0 -8 -5 -12
-10 -9 -6 4 -8 11 -5 16 9 14 15 11 15 -7z"/>
<path d="M9921 544 c3 -20 -2 -28 -10 -16 -7 11 -9 11 -14 -1 -6 -15 9 -17 30
-4 6 4 14 1 16 -5 4 -8 6 -9 6 -2 1 6 -6 17 -15 24 -8 8 -14 9 -13 4z"/>
<path d="M9646 365 c-9 -14 -20 -23 -25 -21 -4 3 -8 -1 -8 -9 0 -8 5 -13 11
-12 6 1 10 -10 8 -24 -1 -15 2 -37 8 -50 8 -20 9 -17 3 15 -4 28 -3 37 6 32 6
-4 9 -11 6 -16 -3 -5 -1 -11 4 -15 6 -3 7 -13 4 -23 -3 -9 -3 -14 1 -10 12 11
16 77 5 84 -6 4 -6 10 1 19 7 9 8 15 1 19 -6 4 -8 13 -4 21 8 23 -3 18 -21
-10z m14 -30 c-8 -9 -8 -15 0 -20 5 -3 10 -12 10 -18 0 -7 -7 -4 -14 6 -12 15
-13 29 -7 55 1 2 6 0 11 -3 8 -5 8 -11 0 -20z"/>
<path d="M9613 105 c-3 -9 -3 -19 1 -22 3 -3 0 -13 -7 -22 -10 -14 -10 -14 4
-4 9 7 20 9 25 5 4 -4 2 1 -5 10 -7 10 -11 25 -7 33 3 8 3 15 0 15 -2 0 -7 -7
-11 -15z"/>
<path d="M9635 101 c-3 -5 -2 -12 3 -15 5 -3 9 1 9 9 0 17 -3 19 -12 6z"/>
<path d="M9400 50 c0 -5 5 -10 11 -10 5 0 7 5 4 10 -3 6 -8 10 -11 10 -2 0 -4
-4 -4 -10z"/>
<path d="M9503 15 c0 -8 4 -12 9 -9 5 3 6 10 3 15 -9 13 -12 11 -12 -6z"/>
</g>
</svg>
