<?xml version="1.0" encoding="UTF-8" standalone="no"?>
<svg
  width="4893"
  height="2100"
  version="1.1"
  xmlns="http://www.w3.org/2000/svg"
  xmlns:svg="http://www.w3.org/2000/svg">
  <g
    clip-path="url(#clip0)"
    transform="translate(-327,-1483)"
    id="g91">
    <path
       d="m 0,-3.4375 h 27.5 v 6.875 H 0 Z m 48.125,0 h 27.5 v 6.875 h -27.5 z m 48.125,0 h 27.5 v 6.875 h -27.5 z m 48.125,0 h 27.5 v 6.875 h -27.5 z m 48.125,0 H 220 v 6.875 h -27.5 z m 48.125,0 h 27.5 v 6.875 h -27.5 z m 48.125,0 h 27.5 v 6.875 h -27.5 z m 48.125,0 h 27.5 v 6.875 h -27.5 z m 48.125,0 h 27.5 v 6.875 H 385 Z m 48.125,0 h 27.5 v 6.875 h -27.5 z m 48.125,0 h 27.5 v 6.875 h -27.5 z m 48.125,0 h 27.5 v 6.875 h -27.5 z m 48.125,0 H 605 v 6.875 h -27.5 z m 48.125,0 h 27.5 v 6.875 h -27.5 z m 48.125,0 h 27.5 v 6.875 h -27.5 z m 48.125,0 h 27.5 v 6.875 h -27.5 z M 766.472,6.96522 V 34.4652 h -6.875 V 6.96522 Z m 0,48.12498 v 27.5 h -6.875 v -27.5 z m 0,48.1248 v 27.5 h -6.875 v -27.5 z m 0,48.125 v 27.5 h -6.875 v -27.5 z m 0,48.125 v 18.002 h -6.875 v -18.002 z m 22.484,-21.579 -25.921,46.659 -25.922,-46.659 c -0.922,-1.659 -0.324,-3.752 1.336,-4.674 1.659,-0.922 3.752,-0.324 4.674,1.335 l 22.917,41.25 h -6.01 l 22.917,-41.25 c 0.922,-1.659 3.014,-2.257 4.674,-1.335 1.659,0.922 2.257,3.015 1.335,4.674 z"
       fill="currentColor"
       id="path7"
       transform="matrix(0,1,1,0,626.5,2070.5)" />
    <path
      d="m 327,1810 c 0,-28.72 23.282,-52 52.001,-52 h 492.998 c 28.719,0 52.001,23.28 52.001,52 v 208 c 0,28.72 -23.282,52 -52.001,52 H 379.001 C 350.282,2070 327,2046.72 327,2018 Z"
      fill="#f2f2f2"
      fill-rule="evenodd"
      id="path9"/>
    <g
      aria-label="Pool"
      transform="translate(555.627,1938)"
      id="text11"
      style="font-size:68.68px;font-family:'IBM Plex Sans';-inkscape-font-specification:'IBM Plex Sans, Normal'"><path
         d="m 12.15636,0 v -20.46664 h 13.32392 c 8.585,0 13.3926,-5.28836 13.3926,-13.736 0,-8.44764 -4.8076,-13.736 -13.3926,-13.736 H 6.38724 V 0 Z m 0,-42.85632 h 13.32392 c 4.53288,0 7.2114,2.47248 7.2114,6.868 v 3.57136 c 0,4.39552 -2.67852,6.868 -7.2114,6.868 H 12.15636 Z"
         id="path484" />
      <path
        d="m 59.47691,0.82416 c 9.47784,0 16.00244,-7.28008 16.00244,-18.5436 0,-11.26352 -6.5246,-18.5436 -16.00244,-18.5436 -9.47784,0 -16.00244,7.28008 -16.00244,18.5436 0,11.26352 6.5246,18.5436 16.00244,18.5436 z m 0,-4.87628 c -5.90648,0 -10.09596,-3.64004 -10.09596,-11.12616 v -5.08232 c 0,-7.48612 4.18948,-11.12616 10.09596,-11.12616 5.90648,0 10.09596,3.64004 10.09596,11.12616 v 5.08232 c 0,7.48612 -4.18948,11.12616 -10.09596,11.12616 z"
        id="path486"/>
      <path
        d="m 97.937675,0.82416 c 9.477845,0 16.002445,-7.28008 16.002445,-18.5436 0,-11.26352 -6.5246,-18.5436 -16.002445,-18.5436 -9.47784,0 -16.00244,7.28008 -16.00244,18.5436 0,11.26352 6.5246,18.5436 16.00244,18.5436 z m 0,-4.87628 c -5.90648,0 -10.09596,-3.64004 -10.09596,-11.12616 v -5.08232 c 0,-7.48612 4.18948,-11.12616 10.09596,-11.12616 5.906485,0 10.095965,3.64004 10.095965,11.12616 v 5.08232 c 0,7.48612 -4.18948,11.12616 -10.095965,11.12616 z"
        id="path488"/>
      <path
        d="m 133.71991,0 v -4.8076 h -5.21968 v -46.0156 h -5.4944 v 45.12276 c 0,3.29664 2.0604,5.70044 5.8378,5.70044 z"
        id="path490"/></g>
    <path
      d="m 1474,2180 c 0,-28.72 23.28,-52 52,-52 h 494 c 28.72,0 52,23.28 52,52 v 208 c 0,28.72 -23.28,52 -52,52 h -494 c -28.72,0 -52,-23.28 -52,-52 z"
      fill="#f2f2f2"
      fill-rule="evenodd"
      id="path13"/>
    <g
      aria-label="doe@mail.com"
      transform="translate(1530.91,2308)"
   ><path
         d="m 28.5022,0 h 5.4944 v -50.8232 h -5.4944 v 21.15344 h -0.27472 c -1.85436,-4.4642 -5.4944,-6.59328 -10.37068,-6.59328 -8.85972,0 -14.4228,7.2114 -14.4228,18.5436 0,11.3322 5.56308,18.5436 14.4228,18.5436 4.87628,0 8.2416,-2.19776 10.37068,-6.59328 h 0.27472 z m -9.13444,-4.1208 c -6.1812,0 -10.02728,-4.25816 -10.02728,-10.57672 v -6.04384 c 0,-6.31856 3.84608,-10.57672 10.02728,-10.57672 5.01364,0 9.13444,2.88456 9.13444,6.79932 v 13.18656 c 0,4.60156 -4.1208,7.2114 -9.13444,7.2114 z"
         id="path503" />
      <path
        d="m 59.064796,0.82416 c 9.47784,0 16.002441,-7.28008 16.002441,-18.5436 0,-11.26352 -6.524601,-18.5436 -16.002441,-18.5436 -9.47784,0 -16.00244,7.28008 -16.00244,18.5436 0,11.26352 6.5246,18.5436 16.00244,18.5436 z m 0,-4.87628 c -5.90648,0 -10.09596,-3.64004 -10.09596,-11.12616 v -5.08232 c 0,-7.48612 4.18948,-11.12616 10.09596,-11.12616 5.90648,0 10.09596,3.64004 10.09596,11.12616 v 5.08232 c 0,7.48612 -4.18948,11.12616 -10.09596,11.12616 z"
        id="path505"/>
      <path
        d="m 97.456878,0.82416 c 6.661962,0 11.744282,-3.29664 14.010722,-8.10424 l -3.91476,-2.81588 c -1.85436,3.91476 -5.28836,6.11252 -9.752562,6.11252 -6.59328,0 -10.50804,-4.60156 -10.50804,-10.71408 v -1.64832 h 25.480282 v -2.60984 c 0,-10.02728 -5.8378,-17.30736 -15.315642,-17.30736 -9.6152,0 -15.93376,7.28008 -15.93376,18.5436 0,11.26352 6.31856,18.5436 15.93376,18.5436 z m 0,-32.48564 c 5.631762,0 9.409162,4.18948 9.409162,10.43936 v 0.75548 H 87.292238 v -0.48076 c 0,-6.1812 4.18948,-10.71408 10.16464,-10.71408 z"
        id="path507"/>
      <path
        d="m 162.63419,4.1208 h -15.86508 c -12.98052,0 -21.70288,-9.13444 -21.70288,-22.11496 v -4.05212 c 0,-12.63712 9.06576,-22.45836 22.18364,-22.45836 11.81296,0 20.9474,7.96688 20.9474,20.05456 v 3.15928 c 0,7.62348 -2.26644,12.3624 -6.5246,12.3624 -2.54116,0 -3.7774,-0.96152 -3.7774,-4.53288 V -34.34 h -4.73892 v 4.67024 h -0.27472 c -1.23624,-2.95324 -3.64004,-5.28836 -7.82952,-5.28836 -6.38724,0 -11.95032,4.87628 -11.95032,15.1096 0,10.23332 5.56308,15.1096 11.95032,15.1096 4.18948,0 6.73064,-2.26644 8.51632,-5.90648 h 0.27472 c 0.41208,3.50268 2.60984,5.90648 6.93668,5.90648 8.65368,0 11.95032,-7.96688 11.95032,-17.44472 0,-18.95568 -12.49976,-26.4418 -25.4116,-26.4418 -16.20848,0 -26.85388,11.81296 -26.85388,28.8456 0,16.96396 10.43936,28.09012 26.23576,28.09012 h 15.93376 z M 146.01363,-9.2718 c -4.87628,0 -7.14272,-3.0906 -7.14272,-7.82952 v -5.4944 c 0,-4.73892 2.26644,-7.82952 7.14272,-7.82952 4.87628,0 7.14272,2.67852 7.14272,6.1812 v 8.37896 c 0,4.18948 -2.33512,6.59328 -7.14272,6.59328 z"
        id="path509"/>
      <path
        d="m 188.5266,0 v -24.58744 c 0,-4.53288 4.1208,-6.73064 8.44764,-6.73064 5.21968,0 7.62348,3.22796 7.62348,9.54652 V 0 h 5.4944 v -24.58744 c 0,-4.53288 3.98344,-6.73064 8.31028,-6.73064 5.35704,0 7.76084,3.29664 7.76084,9.54652 V 0 h 5.4944 v -22.73308 c 0,-8.585 -4.32684,-13.52996 -11.53824,-13.52996 -6.04384,0 -9.47784,3.36532 -10.78276,7.2114 h -0.13736 c -1.92304,-5.08232 -6.1812,-7.2114 -10.85144,-7.2114 -5.4944,0 -7.96688,2.95324 -9.54652,6.59328 h -0.27472 v -5.76912 h -5.4944 V 0 Z"
        id="path511"/>
      <path
        d="m 271.83538,0 v -4.8076 h -4.05212 v -19.50512 c 0,-7.48612 -5.08232,-11.95032 -13.59864,-11.95032 -6.38724,0 -10.6454,3.15928 -12.56844,6.93668 l 3.29664,3.0906 c 1.92304,-3.22796 4.73892,-5.28836 8.99708,-5.28836 5.63176,0 8.37896,2.7472 8.37896,7.76084 v 3.50268 h -7.00536 c -10.302,0 -15.1096,3.70872 -15.1096,10.37068 0,6.59328 4.39552,10.71408 11.88164,10.71408 4.94496,0 8.72236,-2.26644 10.23332,-6.59328 h 0.3434 C 263.04434,-2.47248 264.69266,0 268.74478,0 Z m -18.887,-3.84608 c -4.25816,0 -7.00536,-1.99172 -7.00536,-5.4944 v -1.44228 c 0,-3.434 2.81588,-5.35704 9.06576,-5.35704 h 7.28008 v 5.8378 c 0,3.64004 -3.91476,6.45592 -9.34048,6.45592 z"
        id="path513"/>
      <path
        d="m 282.41212,-43.74916 c 2.33512,0 3.36532,-1.23624 3.36532,-3.0906 v -0.89284 c 0,-1.85436 -1.0302,-3.0906 -3.36532,-3.0906 -2.33512,0 -3.36532,1.23624 -3.36532,3.0906 v 0.89284 c 0,1.85436 1.0302,3.0906 3.36532,3.0906 z M 279.66492,0 h 5.4944 v -35.43888 h -5.4944 z"
        id="path515"/>
      <path
        d="m 307.54901,0 v -4.8076 h -5.21968 v -46.0156 h -5.4944 v 45.12276 c 0,3.29664 2.0604,5.70044 5.8378,5.70044 z"
        id="path517"/>
      <path
        d="m 319.70535,0.82416 c 2.88456,0 4.18948,-1.64832 4.18948,-3.98344 v -0.89284 c 0,-2.33512 -1.30492,-3.98344 -4.18948,-3.98344 -2.88456,0 -4.18948,1.64832 -4.18948,3.98344 v 0.89284 c 0,2.33512 1.30492,3.98344 4.18948,3.98344 z"
        id="path519"/>
      <path
        d="m 347.38331,0.82416 c 6.73064,0 11.3322,-3.29664 13.59864,-8.37896 l -3.98344,-2.67852 c -1.92304,4.05212 -5.151,6.1812 -9.6152,6.1812 -6.5246,0 -9.88992,-4.4642 -9.88992,-10.6454 v -6.04384 c 0,-6.1812 3.36532,-10.6454 9.88992,-10.6454 4.32684,0 7.34876,2.12908 8.65368,5.76912 l 4.60156,-2.33512 c -2.0604,-4.87628 -6.24988,-8.31028 -13.25524,-8.31028 -9.9586,0 -15.7964,7.2114 -15.7964,18.5436 0,11.3322 5.8378,18.5436 15.7964,18.5436 z"
        id="path521"/>
      <path
        d="m 381.72329,0.82416 c 9.47784,0 16.00244,-7.28008 16.00244,-18.5436 0,-11.26352 -6.5246,-18.5436 -16.00244,-18.5436 -9.47784,0 -16.00244,7.28008 -16.00244,18.5436 0,11.26352 6.5246,18.5436 16.00244,18.5436 z m 0,-4.87628 c -5.90648,0 -10.09596,-3.64004 -10.09596,-11.12616 v -5.08232 c 0,-7.48612 4.18948,-11.12616 10.09596,-11.12616 5.90648,0 10.09596,3.64004 10.09596,11.12616 v 5.08232 c 0,7.48612 -4.18948,11.12616 -10.09596,11.12616 z"
        id="path523"/>
      <path
        d="m 412.28587,0 v -24.58744 c 0,-4.53288 4.1208,-6.73064 8.44764,-6.73064 5.21968,0 7.62348,3.22796 7.62348,9.54652 V 0 h 5.4944 v -24.58744 c 0,-4.53288 3.98344,-6.73064 8.31028,-6.73064 5.35704,0 7.76084,3.29664 7.76084,9.54652 V 0 h 5.4944 v -22.73308 c 0,-8.585 -4.32684,-13.52996 -11.53824,-13.52996 -6.04384,0 -9.47784,3.36532 -10.78276,7.2114 h -0.13736 c -1.92304,-5.08232 -6.1812,-7.2114 -10.85144,-7.2114 -5.4944,0 -7.96688,2.95324 -9.54652,6.59328 h -0.27472 v -5.76912 h -5.4944 V 0 Z"
        id="path525"/></g>
    <path
      d="m 850,2833 78,-156 h 442 l 78,156 -78,156 H 928 Z"
      fill="#f2f2f2"
      id="path17"/>
    <g
      aria-label="Group"
      transform="translate(1049.48,2857)"
      id="text19"
      style="font-size:68.68px;font-family:'IBM Plex Sans';-inkscape-font-specification:'IBM Plex Sans, Normal'"><path
         d="m 37.4306,0 h 5.35704 V -24.65612 H 26.57916 v 5.08232 h 10.57672 v 4.73892 c 0,7.07404 -5.56308,10.50804 -12.22504,10.50804 -9.13444,0 -14.7662,-6.31856 -14.7662,-15.7964 v -7.76084 c 0,-9.47784 5.76912,-15.72772 14.21676,-15.72772 6.04384,0 10.50804,3.15928 12.7058,8.2416 l 4.73892,-2.88456 C 38.73552,-44.50464 32.9664,-48.7628 24.3814,-48.7628 c -12.29372,0 -20.39796,8.85972 -20.39796,24.79348 0,16.07112 8.17292,24.79348 19.9172,24.79348 7.28008,0 12.15636,-3.36532 13.32392,-7.82952 h 0.20604 z"
         id="path554" />
      <path
        d="m 59.064778,0 v -24.038 c 0,-3.36532 3.57136,-5.90648 9.47784,-5.90648 h 3.22796 v -5.4944 h -2.12908 c -5.76912,0 -8.99708,3.15928 -10.23332,6.5246 h -0.3434 v -6.5246 h -5.4944 V 0 Z"
        id="path556"/>
      <path
        d="m 91.825233,0.82416 c 9.477837,0 16.002437,-7.28008 16.002437,-18.5436 0,-11.26352 -6.5246,-18.5436 -16.002437,-18.5436 -9.47784,0 -16.00244,7.28008 -16.00244,18.5436 0,11.26352 6.5246,18.5436 16.00244,18.5436 z m 0,-4.87628 c -5.90648,0 -10.09596,-3.64004 -10.09596,-11.12616 v -5.08232 c 0,-7.48612 4.18948,-11.12616 10.09596,-11.12616 5.90648,0 10.095957,3.64004 10.095957,11.12616 v 5.08232 c 0,7.48612 -4.189477,11.12616 -10.095957,11.12616 z"
        id="path558"/>
      <path
        d="m 138.73364,0 h 5.4944 v -35.43888 h -5.4944 v 24.51876 c 0,4.67024 -4.25816,6.79932 -8.585,6.79932 -5.28836,0 -8.10424,-3.22796 -8.10424,-9.54652 V -35.43888 H 116.55 v 22.73308 c 0,8.585 4.67024,13.52996 11.95032,13.52996 5.90648,0 8.585,-3.22796 9.9586,-6.59328 h 0.27472 z"
        id="path560"/>
      <path
        d="m 155.90369,13.736 h 5.4944 V -5.76912 h 0.27472 c 2.12908,4.39552 5.4944,6.59328 10.37068,6.59328 8.85972,0 14.4228,-7.2114 14.4228,-18.5436 0,-11.3322 -5.56308,-18.5436 -14.4228,-18.5436 -4.87628,0 -8.51632,2.12908 -10.37068,6.59328 h -0.27472 v -5.76912 h -5.4944 z m 14.62884,-17.8568 c -5.01364,0 -9.13444,-2.60984 -9.13444,-7.2114 v -13.18656 c 0,-3.91476 4.1208,-6.79932 9.13444,-6.79932 6.1812,0 10.02728,4.25816 10.02728,10.57672 v 6.04384 c 0,6.31856 -3.84608,10.57672 -10.02728,10.57672 z"
        id="path562"/></g>
    <path
      d="m 2421,3212 c 0,-28.72 23.28,-52 52,-52 h 494 c 28.72,0 52,23.28 52,52 v 208 c 0,28.72 -23.28,52 -52,52 h -494 c -28.72,0 -52,-23.28 -52,-52 z"
      fill="#f2f2f2"
      fill-rule="evenodd"
      id="path21"/>
    <g
      aria-label="555"
      transform="translate(2570.82,3340)"
      id="text23"
      style="font-size:68.68px;font-family:'IBM Plex Sans';-inkscape-font-specification:'IBM Plex Sans, Normal'"><path
         d="M 34.20264,-47.93864 H 8.51632 l -1.717,26.37312 4.87628,0.6868 c 1.99172,-2.19776 4.18948,-4.05212 8.585,-4.05212 6.5246,0 10.02728,3.64004 10.02728,9.9586 v 0.6868 c 0,6.31856 -3.50268,9.9586 -10.02728,9.9586 -5.76912,0 -8.17292,-2.54116 -10.6454,-6.31856 l -4.32684,3.29664 c 2.88456,4.1208 7.00536,8.17292 14.97224,8.17292 10.09596,0 16.1398,-6.5246 16.1398,-15.86508 0,-9.2718 -6.04384,-14.83488 -14.28544,-14.83488 -5.01364,0 -7.5548,2.0604 -9.82124,5.28836 h -0.48076 l 1.3736,-18.26888 h 21.01608 z"
         id="path577" />
      <path
        d="m 75.410667,-47.93864 h -25.68632 l -1.717,26.37312 4.87628,0.6868 c 1.99172,-2.19776 4.18948,-4.05212 8.585,-4.05212 6.5246,0 10.02728,3.64004 10.02728,9.9586 v 0.6868 c 0,6.31856 -3.50268,9.9586 -10.02728,9.9586 -5.76912,0 -8.17292,-2.54116 -10.6454,-6.31856 l -4.32684,3.29664 c 2.88456,4.1208 7.00536,8.17292 14.97224,8.17292 10.09596,0 16.1398,-6.5246 16.1398,-15.86508 0,-9.2718 -6.04384,-14.83488 -14.28544,-14.83488 -5.01364,0 -7.5548,2.0604 -9.82124,5.28836 h -0.48076 l 1.3736,-18.26888 h 21.01608 z"
        id="path579"/>
      <path
        d="M 116.61869,-47.93864 H 90.932374 l -1.717,26.37312 4.87628,0.6868 c 1.99172,-2.19776 4.18948,-4.05212 8.584996,-4.05212 6.5246,0 10.02728,3.64004 10.02728,9.9586 v 0.6868 c 0,6.31856 -3.50268,9.9586 -10.02728,9.9586 -5.769116,0 -8.172916,-2.54116 -10.645396,-6.31856 l -4.32684,3.29664 c 2.88456,4.1208 7.00536,8.17292 14.972236,8.17292 10.09596,0 16.1398,-6.5246 16.1398,-15.86508 0,-9.2718 -6.04384,-14.83488 -14.28544,-14.83488 -5.013636,0 -7.554796,2.0604 -9.821236,5.28836 h -0.48076 l 1.3736,-18.26888 h 21.016076 z"
        id="path581"/></g>
    <g
      aria-label="-"
      transform="translate(2687.7,3340)"
      id="text25"
      style="font-size:68.68px;font-family:'IBM Plex Sans';-inkscape-font-specification:'IBM Plex Sans, Normal'"><path
         d="m 22.6644,-17.92548 v -5.90648 H 4.73892 v 5.90648 z"
         id="path590" /></g>
    <g
      aria-label="3812"
      transform="translate(2712.91,3340)"
      id="text27"
      style="font-size:68.68px;font-family:'IBM Plex Sans';-inkscape-font-specification:'IBM Plex Sans, Normal'"><path
         d="m 12.7058,-27.60936 v 5.01364 h 5.63176 c 6.73064,0 10.302,3.22796 10.302,8.85972 v 0.54944 c 0,5.63176 -3.57136,8.85972 -10.302,8.85972 -5.8378,0 -8.65368,-2.54116 -11.12616,-6.31856 l -4.32684,3.29664 c 2.95324,4.1208 7.2114,8.17292 15.52168,8.17292 9.75256,0 16.27716,-5.70044 16.27716,-13.94204 0,-7.2114 -4.94496,-11.05748 -10.09596,-12.08768 v -0.27472 c 5.08232,-1.30492 9.20312,-5.01364 9.20312,-11.19484 0,-7.76084 -6.45592,-12.08768 -14.56016,-12.08768 -7.69216,0 -11.88164,3.98344 -14.28544,7.82952 l 4.25816,3.29664 c 1.99172,-3.64004 4.94496,-5.97516 9.88992,-5.97516 5.08232,0 8.585,2.54116 8.585,7.5548 v 0.48076 c 0,4.60156 -3.29664,7.96688 -9.75256,7.96688 z"
         id="path595" />
      <path
        d="m 61.812027,0.82416 c 10.92012,0 16.62056,-5.97516 16.62056,-13.87336 0,-6.5246 -3.91476,-10.302 -9.68388,-11.88164 v -0.54944 c 5.01364,-1.717 8.2416,-5.76912 8.2416,-11.26352 0,-7.28008 -5.63176,-12.019 -15.17828,-12.019 -9.54652,0 -15.17828,4.73892 -15.17828,12.019 0,5.4944 3.22796,9.54652 8.2416,11.26352 v 0.54944 c -5.76912,1.57964 -9.68388,5.35704 -9.68388,11.88164 0,7.8982 5.70044,13.87336 16.62056,13.87336 z m 0,-5.01364 c -6.66196,0 -10.50804,-3.15928 -10.50804,-8.585 v -1.44228 c 0,-5.42572 3.84608,-8.585 10.50804,-8.585 6.66196,0 10.50804,3.15928 10.50804,8.585 v 1.44228 c 0,5.42572 -3.84608,8.585 -10.50804,8.585 z m 0,-23.41988 c -5.97516,0 -9.20312,-2.67852 -9.20312,-7.5548 v -1.0302 c 0,-4.87628 3.22796,-7.5548 9.20312,-7.5548 5.97516,0 9.20312,2.67852 9.20312,7.5548 v 1.0302 c 0,4.87628 -3.22796,7.5548 -9.20312,7.5548 z"
        id="path597"/>
      <path
        d="m 119.98401,0 v -5.08232 h -12.3624 v -42.85632 h -8.997076 l -12.7058,11.88164 3.36532,3.64004 12.087676,-11.26352 h 0.48076 V -5.08232 H 88.459894 V 0 Z"
        id="path599"/>
      <path
        d="m 160.23052,-5.08232 h -25.20556 l 12.91184,-11.60692 c 6.11252,-5.4944 10.50804,-10.71408 10.50804,-18.13152 0,-8.17292 -5.35704,-13.94204 -14.69752,-13.94204 -9.2718,0 -13.52996,5.63176 -15.38432,11.26352 l 5.151,1.99172 c 1.30492,-4.53288 4.05212,-8.10424 9.9586,-8.10424 5.90648,0 8.85972,3.64004 8.85972,8.9284 v 0.82416 c 0,4.60156 -3.434,9.40916 -7.8982,13.52996 l -15.65904,14.4228 V 0 h 31.45544 z"
        id="path601"/></g>
    <path
      d="m 0,-3.4375 h 27.5 v 6.875 H 0 Z m 48.125,0 h 27.5 v 6.875 h -27.5 z m 48.125,0 h 27.5 v 6.875 h -27.5 z m 48.125,0 h 27.5 v 6.875 h -27.5 z m 48.125,0 H 220 v 6.875 h -27.5 z m 48.125,0 h 27.5 v 6.875 h -27.5 z m 48.125,0 h 27.5 v 6.875 h -27.5 z m 48.125,0 h 27.5 v 6.875 h -27.5 z m 48.125,0 h 27.5 v 6.875 H 385 Z m 48.125,0 h 27.5 v 6.875 h -27.5 z m 48.125,0 h 27.5 v 6.875 h -27.5 z m 48.125,0 h 27.5 v 6.875 h -27.5 z m 48.125,0 H 605 v 6.875 h -27.5 z m 48.125,0 h 27.5 v 6.875 h -27.5 z m 48.125,0 h 27.5 v 6.875 h -27.5 z m 48.125,0 h 27.5 v 6.875 h -27.5 z m 48.125,0 h 27.5 v 6.875 H 770 Z m 48.125,0 h 27.5 v 6.875 h -27.5 z m 48.125,0 h 27.5 v 6.875 h -27.5 z m 48.125,0 h 27.5 v 6.875 h -27.5 z m 48.125,0 H 990 v 6.875 h -27.5 z m 48.12,0 h 27.5 v 6.875 h -27.5 z m 48.13,0 h 27.5 v 6.875 h -27.5 z m 48.13,0 h 27.5 v 6.875 h -27.5 z m 48.12,0 h 27.5 v 6.875 H 1155 Z m 48.12,0 h 27.5 v 6.875 h -27.5 z m 48.13,0 h 27.5 v 6.875 h -27.5 z m 48.13,0 h 27.5 v 6.875 h -27.5 z m 48.12,0 h 27.5 v 6.875 h -27.5 z m 48.12,0 h 27.5 v 6.875 h -27.5 z m 48.13,0 h 27.5 v 6.875 h -27.5 z m 48.13,0 h 27.5 v 6.875 h -27.5 z m 48.12,0 h 27.5 v 6.875 H 1540 Z m 48.12,0 h 27.5 v 6.875 h -27.5 z m 48.13,0 h 27.5 v 6.875 h -27.5 z m 48.13,0 h 27.5 v 6.875 h -27.5 z m 48.12,0 h 27.5 v 6.875 h -27.5 z m 48.12,0 h 27.5 v 6.875 h -27.5 z m 48.13,0 h 27.5 v 6.875 h -27.5 z m 48.13,0 h 27.5 v 6.875 h -27.5 z m 48.12,0 h 27.5 v 6.875 H 1925 Z m 48.12,0 h 27.5 v 6.875 h -27.5 z m 48.13,0 h 27.5 v 6.875 h -27.5 z m 42.37,12.62618 V 36.6887 h -6.87 V 9.18868 Z m 0,48.12502 v 27.5 h -6.87 v -27.5 z m 0,48.1253 v 6.255 h -6.87 v -6.255 z m 22.49,-33.3254 -25.92,46.6584 -25.93,-46.6584 c -0.92,-1.6596 -0.32,-3.7523 1.34,-4.6743 1.66,-0.922 3.75,-0.3241 4.67,1.3355 l 22.92,41.2502 h -6.01 l 22.92,-41.2502 c 0.92,-1.6596 3.01,-2.2575 4.67,-1.3355 1.66,0.922 2.26,3.0147 1.34,4.6743 z"
      fill="rgba(currentColor, 0.2)"
      id="path29"
      transform="matrix(1,0,0,-1,924.5,1914.28)"/>
    <path
      d="M 924.5,1911.06 H 952 v 6.88 h -27.5 z m 48.125,0 h 27.495 v 6.88 h -27.495 z m 48.125,0 h 27.5 v 6.88 h -27.5 z m 48.12,0 h 27.5 v 6.88 h -27.5 z m 48.13,0 h 27.5 v 6.88 H 1117 Z m 48.12,0 h 27.5 v 6.88 h -27.5 z m 37.85,17.16 v 27.5 h -6.87 v -27.5 z m 0,48.12 v 27.5 h -6.87 v -27.5 z m 0,48.13 v 27.5 h -6.87 v -27.5 z m 0,48.12 v 27.5 h -6.87 v -27.5 z m 0,48.13 v 27.5 h -6.87 v -27.5 z m 0,48.12 v 27.5 h -6.87 v -27.5 z m 0,48.13 v 27.5 h -6.87 v -27.5 z m 0,48.12 v 19.43 l -3.44,-3.44 h 8.08 v 6.87 h -11.51 v -22.86 z m 25.26,15.99 h 27.5 v 6.87 h -27.5 z m 48.13,0 h 27.5 v 6.87 h -27.5 z m 48.12,0 h 27.5 v 6.87 h -27.5 z m 48.13,0 h 27.5 v 6.87 h -27.5 z m 48.12,0 h 27.5 v 6.87 h -27.5 z m 7.18,-22.49 46.65,25.93 -46.65,25.92 c -1.66,0.92 -3.76,0.32 -4.68,-1.34 -0.92,-1.66 -0.32,-3.75 1.34,-4.67 l 41.25,-22.92 v 6.01 l -41.25,-22.92 c -1.66,-0.92 -2.26,-3.01 -1.34,-4.67 0.92,-1.66 3.02,-2.26 4.68,-1.34 z"
      fill="rgba(currentColor, 0.2)"
      id="path31"/>
    <path
      d="m 0,-3.4375 h 27.5 v 6.875 H 0 Z m 48.125,0 h 27.5 v 6.875 h -27.5 z m 48.125,0 h 27.5 v 6.875 h -27.5 z m 36.164,18.8363 v 27.5 h -6.875 v -27.5 z m 0,48.125 v 27.5 h -6.875 v -27.5 z m 0,48.1252 v 12.963 l -3.438,-3.437 h 14.537 v 6.875 h -17.974 v -16.401 z m 31.724,9.526 h 27.5 v 6.875 h -27.5 z m 48.125,0 h 27.5 v 6.875 h -27.5 z m 48.125,0 h 27.5 v 6.875 h -27.5 z m 48.125,0 h 27.5 v 6.875 h -27.5 z m 48.125,0 h 27.5 v 6.875 h -27.5 z m 48.125,0 h 27.5 v 6.875 h -27.5 z m 48.125,0 h 27.5 v 6.875 h -27.5 z m 48.125,0 h 27.5 v 6.875 h -27.5 z m 48.125,0 h 27.5 v 6.875 h -27.5 z m 48.125,0 h 27.5 v 6.875 h -27.5 z m 48.125,0 h 27.5 v 6.875 h -27.5 z m 48.125,0 h 27.5 v 6.875 h -27.5 z m 48.125,0 h 27.5 v 6.875 h -27.5 z m 48.125,0 h 27.5 v 6.875 h -27.5 z m 48.125,0 h 27.5 v 6.875 h -27.5 z m 48.125,0 h 27.5 v 6.875 h -27.5 z m 4.924,-22.4844 46.659,25.9214 -46.659,25.922 c -1.66,0.922 -3.752,0.324 -4.674,-1.336 -0.922,-1.659 -0.324,-3.752 1.335,-4.674 l 41.25,-22.917 v 6.01 L 887.598,104.7 c -1.659,-0.922 -2.257,-3.014 -1.335,-4.674 0.922,-1.6595 3.014,-2.2574 4.674,-1.3354 z"
      fill="rgba(currentColor, 0.2)"
      id="path33"
      transform="matrix(1,0,0,-1,1448.5,2833.11)"/>
    <path
      d="m 1448.5,2830.06 h 27.5 v 6.88 h -27.5 z m 48.13,0 h 27.5 v 6.88 h -27.5 z m 48.12,0 h 27.5 v 6.88 h -27.5 z m 34.33,20.68 v 27.5 h -6.88 v -27.5 z m 0,48.12 v 27.5 h -6.88 v -27.5 z m 0,48.13 v 27.5 h -6.88 v -27.5 z m 0,48.12 v 27.5 h -6.88 v -27.5 z m 0,48.13 v 27.5 h -6.88 v -27.5 z m 0,48.12 v 27.5 h -6.88 v -27.5 z m 0,48.13 v 27.5 h -6.88 v -27.5 z m 0,48.12 v 27.5 h -6.88 v -27.5 z m 0,48.13 v 27.5 h -6.88 v -27.5 z m 0,48.12 v 27.5 h -6.88 v -27.5 z m 11.66,29.59 h 27.5 v 6.87 h -27.5 z m 48.13,0 h 27.5 v 6.87 h -27.5 z m 48.12,0 h 27.5 v 6.87 h -27.5 z m 48.13,0 h 27.5 v 6.87 h -27.5 z m 48.12,0 h 27.5 v 6.87 h -27.5 z m 48.13,0 h 27.5 v 6.87 h -27.5 z m 48.12,0 h 27.5 v 6.87 h -27.5 z m 48.13,0 h 27.5 v 6.87 h -27.5 z m 48.12,0 h 27.5 v 6.87 h -27.5 z m 48.13,0 h 27.5 v 6.87 h -27.5 z m 48.12,0 h 27.5 v 6.87 h -27.5 z m 48.13,0 h 27.5 v 6.87 h -27.5 z m 48.12,0 h 27.5 v 6.87 h -27.5 z m 48.13,0 h 27.5 v 6.87 h -27.5 z m 48.12,0 h 27.5 v 6.87 h -27.5 z m 48.13,0 h 27.5 v 6.87 h -27.5 z m 48.12,0 h 27.5 v 6.87 h -27.5 z m 48.13,0 h 5.75 v 6.87 h -5.75 z m -33.84,-22.49 46.66,25.92 -46.66,25.93 c -1.66,0.92 -3.75,0.32 -4.67,-1.34 -0.92,-1.66 -0.33,-3.75 1.33,-4.67 l 41.25,-22.92 v 6.01 l -41.25,-22.92 c -1.66,-0.92 -2.25,-3.01 -1.33,-4.67 0.92,-1.66 3.01,-2.26 4.67,-1.34 z"
      fill="rgba(currentColor, 0.2)"
      id="path35"/>
    <g
      aria-label="4"
      transform="translate(675.596,2402)"
      id="text37"
      style="font-size:68.68px;font-family:'IBM Plex Sans';-inkscape-font-specification:'IBM Plex Sans, Normal'"><path
         d="m 31.2494,0 v -9.40916 h 6.93668 v -4.8076 H 31.2494 v -33.72188 h -8.585 L 2.60984,-14.49148 v 5.08232 H 25.755 V 0 Z m -5.8378,-43.47444 h 0.3434 v 29.25768 H 8.03556 Z"
         id="path620" /></g>
    <g
      aria-label="0"
      transform="translate(709.971,2402)"
      id="text39"
      style="font-size:68.68px;font-family:'IBM Plex Sans';-inkscape-font-specification:'IBM Plex Sans, Normal'"><path
         d="m 20.604,0.82416 c 11.46956,0 16.4832,-9.13444 16.4832,-24.79348 0,-15.65904 -5.01364,-24.79348 -16.4832,-24.79348 -11.46956,0 -16.4832,9.13444 -16.4832,24.79348 0,15.65904 5.01364,24.79348 16.4832,24.79348 z m 0,-5.01364 c -7.48612,0 -10.43936,-6.59328 -10.43936,-15.86508 v -7.82952 c 0,-9.2718 2.95324,-15.86508 10.43936,-15.86508 7.48612,0 10.43936,6.59328 10.43936,15.86508 v 7.82952 c 0,9.2718 -2.95324,15.86508 -10.43936,15.86508 z"
         id="path625" /></g>
    <g
      aria-label="%"
      transform="translate(744.346,2402)"
      id="text41"
      style="font-size:68.68px;font-family:'IBM Plex Sans';-inkscape-font-specification:'IBM Plex Sans, Normal'"><path
         d="M 17.8568,0 51.09792,-47.93864 H 45.80956 L 12.56844,0 Z m -2.54116,-21.56552 c 6.93668,0 10.85144,-4.8076 10.85144,-13.59864 0,-8.79104 -3.91476,-13.59864 -10.85144,-13.59864 -6.93668,0 -10.85144,4.8076 -10.85144,13.59864 0,8.79104 3.91476,13.59864 10.85144,13.59864 z m 0,-3.57136 c -3.98344,0 -5.90648,-2.7472 -5.90648,-7.96688 v -4.1208 c 0,-5.21968 1.92304,-7.96688 5.90648,-7.96688 3.98344,0 5.90648,2.7472 5.90648,7.96688 v 4.1208 c 0,5.21968 -1.92304,7.96688 -5.90648,7.96688 z M 48.35072,0.82416 c 6.93668,0 10.85144,-4.8076 10.85144,-13.59864 0,-8.79104 -3.91476,-13.59864 -10.85144,-13.59864 -6.93668,0 -10.85144,4.8076 -10.85144,13.59864 0,8.79104 3.91476,13.59864 10.85144,13.59864 z m 0,-3.57136 c -3.98344,0 -5.90648,-2.7472 -5.90648,-7.96688 v -4.1208 c 0,-5.21968 1.92304,-7.96688 5.90648,-7.96688 3.98344,0 5.90648,2.7472 5.90648,7.96688 v 4.1208 c 0,5.21968 -1.92304,7.96688 -5.90648,7.96688 z"
         id="path630" /></g>
    <g
      aria-label="20%"
      transform="translate(1254.58,2225)"
      id="text43"
      style="font-size:68.68px;font-family:'IBM Plex Sans';-inkscape-font-specification:'IBM Plex Sans, Normal'"><path
         d="M 36.60644,-5.08232 H 11.40088 l 12.91184,-11.60692 c 6.11252,-5.4944 10.50804,-10.71408 10.50804,-18.13152 0,-8.17292 -5.35704,-13.94204 -14.69752,-13.94204 -9.2718,0 -13.52996,5.63176 -15.38432,11.26352 l 5.151,1.99172 c 1.30492,-4.53288 4.05212,-8.10424 9.9586,-8.10424 5.90648,0 8.85972,3.64004 8.85972,8.9284 v 0.82416 c 0,4.60156 -3.434,9.40916 -7.8982,13.52996 L 5.151,-5.90648 V 0 h 31.45544 z"
         id="path635" />
      <path
        d="m 61.812027,0.82416 c 11.46956,0 16.4832,-9.13444 16.4832,-24.79348 0,-15.65904 -5.01364,-24.79348 -16.4832,-24.79348 -11.46956,0 -16.4832,9.13444 -16.4832,24.79348 0,15.65904 5.01364,24.79348 16.4832,24.79348 z m 0,-5.01364 c -7.48612,0 -10.43936,-6.59328 -10.43936,-15.86508 v -7.82952 c 0,-9.2718 2.95324,-15.86508 10.43936,-15.86508 7.48612,0 10.43936,6.59328 10.43936,15.86508 v 7.82952 c 0,9.2718 -2.95324,15.86508 -10.43936,15.86508 z"
        id="path637"/>
      <path
        d="m 100.27285,0 33.24112,-47.93864 h -5.28836 L 94.984494,0 Z m -2.541156,-21.56552 c 6.936676,0 10.851436,-4.8076 10.851436,-13.59864 0,-8.79104 -3.91476,-13.59864 -10.851436,-13.59864 -6.93668,0 -10.85144,4.8076 -10.85144,13.59864 0,8.79104 3.91476,13.59864 10.85144,13.59864 z m 0,-3.57136 c -3.98344,0 -5.90648,-2.7472 -5.90648,-7.96688 v -4.1208 c 0,-5.21968 1.92304,-7.96688 5.90648,-7.96688 3.983436,0 5.906476,2.7472 5.906476,7.96688 v 4.1208 c 0,5.21968 -1.92304,7.96688 -5.906476,7.96688 z M 130.76677,0.82416 c 6.93668,0 10.85144,-4.8076 10.85144,-13.59864 0,-8.79104 -3.91476,-13.59864 -10.85144,-13.59864 -6.93668,0 -10.85144,4.8076 -10.85144,13.59864 0,8.79104 3.91476,13.59864 10.85144,13.59864 z m 0,-3.57136 c -3.98344,0 -5.90648,-2.7472 -5.90648,-7.96688 v -4.1208 c 0,-5.21968 1.92304,-7.96688 5.90648,-7.96688 3.98344,0 5.90648,2.7472 5.90648,7.96688 v 4.1208 c 0,5.21968 -1.92304,7.96688 -5.90648,7.96688 z"
        id="path639"/></g>
    <path
      d="m 2385,2708 78,-156 h 442 l 78,156 -78,156 h -442 z"
      fill="#f2f2f2"
      fill-rule="evenodd"
      id="path45"/>
    <g
      aria-label="Group"
      transform="translate(2584.71,2732)"
      id="text47"
      style="font-size:68.68px;font-family:'IBM Plex Sans';-inkscape-font-specification:'IBM Plex Sans, Normal'"><path
         d="m 37.4306,0 h 5.35704 V -24.65612 H 26.57916 v 5.08232 h 10.57672 v 4.73892 c 0,7.07404 -5.56308,10.50804 -12.22504,10.50804 -9.13444,0 -14.7662,-6.31856 -14.7662,-15.7964 v -7.76084 c 0,-9.47784 5.76912,-15.72772 14.21676,-15.72772 6.04384,0 10.50804,3.15928 12.7058,8.2416 l 4.73892,-2.88456 C 38.73552,-44.50464 32.9664,-48.7628 24.3814,-48.7628 c -12.29372,0 -20.39796,8.85972 -20.39796,24.79348 0,16.07112 8.17292,24.79348 19.9172,24.79348 7.28008,0 12.15636,-3.36532 13.32392,-7.82952 h 0.20604 z"
         id="path650" />
      <path
        d="m 59.064778,0 v -24.038 c 0,-3.36532 3.57136,-5.90648 9.47784,-5.90648 h 3.22796 v -5.4944 h -2.12908 c -5.76912,0 -8.99708,3.15928 -10.23332,6.5246 h -0.3434 v -6.5246 h -5.4944 V 0 Z"
        id="path652"/>
      <path
        d="m 91.825233,0.82416 c 9.477837,0 16.002437,-7.28008 16.002437,-18.5436 0,-11.26352 -6.5246,-18.5436 -16.002437,-18.5436 -9.47784,0 -16.00244,7.28008 -16.00244,18.5436 0,11.26352 6.5246,18.5436 16.00244,18.5436 z m 0,-4.87628 c -5.90648,0 -10.09596,-3.64004 -10.09596,-11.12616 v -5.08232 c 0,-7.48612 4.18948,-11.12616 10.09596,-11.12616 5.90648,0 10.095957,3.64004 10.095957,11.12616 v 5.08232 c 0,7.48612 -4.189477,11.12616 -10.095957,11.12616 z"
        id="path654"/>
      <path
        d="m 138.73364,0 h 5.4944 v -35.43888 h -5.4944 v 24.51876 c 0,4.67024 -4.25816,6.79932 -8.585,6.79932 -5.28836,0 -8.10424,-3.22796 -8.10424,-9.54652 V -35.43888 H 116.55 v 22.73308 c 0,8.585 4.67024,13.52996 11.95032,13.52996 5.90648,0 8.585,-3.22796 9.9586,-6.59328 h 0.27472 z"
        id="path656"/>
      <path
        d="m 155.90369,13.736 h 5.4944 V -5.76912 h 0.27472 c 2.12908,4.39552 5.4944,6.59328 10.37068,6.59328 8.85972,0 14.4228,-7.2114 14.4228,-18.5436 0,-11.3322 -5.56308,-18.5436 -14.4228,-18.5436 -4.87628,0 -8.51632,2.12908 -10.37068,6.59328 h -0.27472 v -5.76912 h -5.4944 z m 14.62884,-17.8568 c -5.01364,0 -9.13444,-2.60984 -9.13444,-7.2114 v -13.18656 c 0,-3.91476 4.1208,-6.79932 9.13444,-6.79932 6.1812,0 10.02728,4.25816 10.02728,10.57672 v 6.04384 c 0,6.31856 -3.84608,10.57672 -10.02728,10.57672 z"
        id="path658"/></g>
    <path
      d="m 2686,1535 c 0,-28.72 23.28,-52 52,-52 h 493 c 28.72,0 52,23.28 52,52 v 208 c 0,28.72 -23.28,52 -52,52 h -493 c -28.72,0 -52,-23.28 -52,-52 z"
      fill="#f2f2f2"
      fill-rule="evenodd"
      id="path49"/>
    <g
      aria-label="LiquidityPool"
      id="text51"
      style="font-size:68.68px;font-family:'IBM Plex Sans';-inkscape-font-specification:'IBM Plex Sans, Normal'"><path
         d="m 2809.9742,1663 v -5.0823 h -20.3979 v -42.8563 h -5.7691 V 1663 Z"
         id="path673" />
      <path
        d="m 2820.4136,1619.2508 c 2.3351,0 3.3653,-1.2362 3.3653,-3.0906 v -0.8928 c 0,-1.8544 -1.0302,-3.0906 -3.3653,-3.0906 -2.3352,0 -3.3654,1.2362 -3.3654,3.0906 v 0.8928 c 0,1.8544 1.0302,3.0906 3.3654,3.0906 z M 2817.6664,1663 h 5.4944 v -35.4389 h -5.4944 z"
        id="path675"/>
      <path
        d="m 2857.5008,1676.736 h 5.4944 v -49.1749 h -5.4944 v 5.7691 h -0.2748 c -1.8543,-4.4642 -5.4944,-6.5932 -10.3706,-6.5932 -8.8598,0 -14.4228,7.2114 -14.4228,18.5436 0,11.3322 5.563,18.5436 14.4228,18.5436 4.8762,0 8.2416,-2.1978 10.3706,-6.5933 h 0.2748 z m -9.1345,-17.8568 c -6.1812,0 -10.0273,-4.2582 -10.0273,-10.5767 v -6.0439 c 0,-6.3185 3.8461,-10.5767 10.0273,-10.5767 5.0137,0 9.1345,2.8846 9.1345,6.7993 v 13.1866 c 0,4.6016 -4.1208,7.2114 -9.1345,7.2114 z"
        id="path677"/>
      <path
        d="m 2896.511,1663 h 5.4944 v -35.4389 h -5.4944 v 24.5188 c 0,4.6702 -4.2582,6.7993 -8.585,6.7993 -5.2884,0 -8.1042,-3.228 -8.1042,-9.5465 v -21.7716 h -5.4944 v 22.7331 c 0,8.585 4.6702,13.53 11.9503,13.53 5.9065,0 8.585,-3.228 9.9586,-6.5933 h 0.2747 z"
        id="path679"/>
      <path
        d="m 2916.4283,1619.2508 c 2.3351,0 3.3653,-1.2362 3.3653,-3.0906 v -0.8928 c 0,-1.8544 -1.0302,-3.0906 -3.3653,-3.0906 -2.3352,0 -3.3654,1.2362 -3.3654,3.0906 v 0.8928 c 0,1.8544 1.0302,3.0906 3.3654,3.0906 z M 2913.6811,1663 h 5.4944 v -35.4389 h -5.4944 z"
        id="path681"/>
      <path
        d="m 2953.5155,1663 h 5.4944 v -50.8232 h -5.4944 v 21.1534 h -0.2748 c -1.8543,-4.4642 -5.4944,-6.5932 -10.3706,-6.5932 -8.8598,0 -14.4228,7.2114 -14.4228,18.5436 0,11.3322 5.563,18.5436 14.4228,18.5436 4.8762,0 8.2416,-2.1978 10.3706,-6.5933 h 0.2748 z m -9.1345,-4.1208 c -6.1812,0 -10.0273,-4.2582 -10.0273,-10.5767 v -6.0439 c 0,-6.3185 3.8461,-10.5767 10.0273,-10.5767 5.0137,0 9.1345,2.8846 9.1345,6.7993 v 13.1866 c 0,4.6016 -4.1208,7.2114 -9.1345,7.2114 z"
        id="path683"/>
      <path
        d="m 2973.4327,1619.2508 c 2.3351,0 3.3653,-1.2362 3.3653,-3.0906 v -0.8928 c 0,-1.8544 -1.0302,-3.0906 -3.3653,-3.0906 -2.3352,0 -3.3654,1.2362 -3.3654,3.0906 v 0.8928 c 0,1.8544 1.0302,3.0906 3.3654,3.0906 z M 2970.6855,1663 h 5.4944 v -35.4389 h -5.4944 z"
        id="path685"/>
      <path
        d="m 3002.553,1663 v -4.8076 h -7.2114 v -25.8237 h 7.7608 v -4.8076 h -7.7608 v -9.8212 h -4.945 v 6.5933 c 0,2.4038 -0.7555,3.2279 -3.0906,3.2279 h -3.2966 v 4.8076 h 5.8378 v 24.7935 c 0,3.434 2.0604,5.8378 5.8378,5.8378 z"
        id="path687"/>
      <path
        d="m 3025.2174,1651.6678 -1.9231,5.7691 h -0.3434 l -1.6483,-5.7691 -8.5163,-24.1067 h -5.4944 l 13.2552,36.8125 -2.6785,7.5548 h -5.5631 v 4.8076 h 2.8159 c 5.2197,0 6.662,-1.2362 8.2416,-5.4944 l 15.8651,-43.6805 h -5.4257 z"
        id="path689"/>
      <path
        d="m 3052.5521,1663 v -20.4666 h 13.3239 c 8.585,0 13.3926,-5.2884 13.3926,-13.736 0,-8.4477 -4.8076,-13.736 -13.3926,-13.736 h -19.0931 V 1663 Z m 0,-42.8563 h 13.3239 c 4.5329,0 7.2114,2.4725 7.2114,6.868 v 3.5713 c 0,4.3956 -2.6785,6.868 -7.2114,6.868 h -13.3239 z"
        id="path691"/>
      <path
        d="m 3099.8726,1663.8242 c 9.4778,0 16.0024,-7.2801 16.0024,-18.5436 0,-11.2636 -6.5246,-18.5436 -16.0024,-18.5436 -9.4779,0 -16.0025,7.28 -16.0025,18.5436 0,11.2635 6.5246,18.5436 16.0025,18.5436 z m 0,-4.8763 c -5.9065,0 -10.096,-3.6401 -10.096,-11.1262 v -5.0823 c 0,-7.4861 4.1895,-11.1262 10.096,-11.1262 5.9065,0 10.0959,3.6401 10.0959,11.1262 v 5.0823 c 0,7.4861 -4.1894,11.1262 -10.0959,11.1262 z"
        id="path693"/>
      <path
        d="m 3138.3334,1663.8242 c 9.4778,0 16.0024,-7.2801 16.0024,-18.5436 0,-11.2636 -6.5246,-18.5436 -16.0024,-18.5436 -9.4779,0 -16.0025,7.28 -16.0025,18.5436 0,11.2635 6.5246,18.5436 16.0025,18.5436 z m 0,-4.8763 c -5.9065,0 -10.096,-3.6401 -10.096,-11.1262 v -5.0823 c 0,-7.4861 4.1895,-11.1262 10.096,-11.1262 5.9064,0 10.0959,3.6401 10.0959,11.1262 v 5.0823 c 0,7.4861 -4.1895,11.1262 -10.0959,11.1262 z"
        id="path695"/>
      <path
        d="m 3174.1156,1663 v -4.8076 h -5.2197 v -46.0156 h -5.4944 v 45.1228 c 0,3.2966 2.0604,5.7004 5.8378,5.7004 z"
        id="path697"/></g>
    <text
      font-family="Aptos, Aptos_MSFontService, sans-serif"
      font-weight="400"
      font-size="73px"
      id="text53"
      x="2996.6101"
      y="1665"
      style="font-style:normal;font-variant:normal;font-weight:normal;font-stretch:normal;font-size:68.68px;font-family:'IBM Plex Sans';-inkscape-font-specification:'IBM Plex Sans, Normal';font-variant-ligatures:normal;font-variant-caps:normal;font-variant-numeric:normal;font-variant-east-asian:normal"/>
    <g
      aria-label="4"
      transform="translate(1254.58,1855)"
      id="text57"
      style="font-size:68.68px;font-family:'IBM Plex Sans';-inkscape-font-specification:'IBM Plex Sans, Normal'"><path
         d="m 31.2494,0 v -9.40916 h 6.93668 v -4.8076 H 31.2494 v -33.72188 h -8.585 L 2.60984,-14.49148 v 5.08232 H 25.755 V 0 Z m -5.8378,-43.47444 h 0.3434 v 29.25768 H 8.03556 Z"
         id="path726" /></g>
    <g
      aria-label="0"
      transform="translate(1288.95,1855)"
      id="text59"
      style="font-size:68.68px;font-family:'IBM Plex Sans';-inkscape-font-specification:'IBM Plex Sans, Normal'"><path
         d="m 20.604,0.82416 c 11.46956,0 16.4832,-9.13444 16.4832,-24.79348 0,-15.65904 -5.01364,-24.79348 -16.4832,-24.79348 -11.46956,0 -16.4832,9.13444 -16.4832,24.79348 0,15.65904 5.01364,24.79348 16.4832,24.79348 z m 0,-5.01364 c -7.48612,0 -10.43936,-6.59328 -10.43936,-15.86508 v -7.82952 c 0,-9.2718 2.95324,-15.86508 10.43936,-15.86508 7.48612,0 10.43936,6.59328 10.43936,15.86508 v 7.82952 c 0,9.2718 -2.95324,15.86508 -10.43936,15.86508 z"
         id="path731" /></g>
    <g
      aria-label="%"
      transform="translate(1323.33,1855)"
      id="text61"
      style="font-size:68.68px;font-family:'IBM Plex Sans';-inkscape-font-specification:'IBM Plex Sans, Normal'"><path
         d="M 17.8568,0 51.09792,-47.93864 H 45.80956 L 12.56844,0 Z m -2.54116,-21.56552 c 6.93668,0 10.85144,-4.8076 10.85144,-13.59864 0,-8.79104 -3.91476,-13.59864 -10.85144,-13.59864 -6.93668,0 -10.85144,4.8076 -10.85144,13.59864 0,8.79104 3.91476,13.59864 10.85144,13.59864 z m 0,-3.57136 c -3.98344,0 -5.90648,-2.7472 -5.90648,-7.96688 v -4.1208 c 0,-5.21968 1.92304,-7.96688 5.90648,-7.96688 3.98344,0 5.90648,2.7472 5.90648,7.96688 v 4.1208 c 0,5.21968 -1.92304,7.96688 -5.90648,7.96688 z M 48.35072,0.82416 c 6.93668,0 10.85144,-4.8076 10.85144,-13.59864 0,-8.79104 -3.91476,-13.59864 -10.85144,-13.59864 -6.93668,0 -10.85144,4.8076 -10.85144,13.59864 0,8.79104 3.91476,13.59864 10.85144,13.59864 z m 0,-3.57136 c -3.98344,0 -5.90648,-2.7472 -5.90648,-7.96688 v -4.1208 c 0,-5.21968 1.92304,-7.96688 5.90648,-7.96688 3.98344,0 5.90648,2.7472 5.90648,7.96688 v 4.1208 c 0,5.21968 -1.92304,7.96688 -5.90648,7.96688 z"
         id="path736" /></g>
    <g
      aria-label="7d / 2000 USDT"
      transform="translate(1721.19,3278)"
      id="text63"
      style="font-size:68.68px;font-family:'IBM Plex Sans';-inkscape-font-specification:'IBM Plex Sans, Normal'"><path
         d="m 18.2002,0 17.99416,-42.85632 v -5.08232 H 4.73892 v 13.87336 h 5.151 v -8.9284 H 30.35656 L 12.019,0 Z"
         id="path741" />
      <path
        d="m 69.710227,0 h 5.4944 v -50.8232 h -5.4944 v 21.15344 h -0.27472 c -1.85436,-4.4642 -5.4944,-6.59328 -10.37068,-6.59328 -8.85972,0 -14.4228,7.2114 -14.4228,18.5436 0,11.3322 5.56308,18.5436 14.4228,18.5436 4.87628,0 8.2416,-2.19776 10.37068,-6.59328 h 0.27472 z m -9.13444,-4.1208 c -6.1812,0 -10.02728,-4.25816 -10.02728,-10.57672 v -6.04384 c 0,-6.31856 3.84608,-10.57672 10.02728,-10.57672 5.01364,0 9.13444,2.88456 9.13444,6.79932 v 13.18656 c 0,4.60156 -4.1208,7.2114 -9.13444,7.2114 z"
        id="path743"/>
      <path
        d="m 102.81399,10.37068 17.92548,-61.19388 h -4.94496 L 97.869028,10.37068 Z"
        id="path745"/>
      <path
        d="m 176.37023,-5.08232 h -25.20556 l 12.91184,-11.60692 c 6.11252,-5.4944 10.50804,-10.71408 10.50804,-18.13152 0,-8.17292 -5.35704,-13.94204 -14.69752,-13.94204 -9.2718,0 -13.52996,5.63176 -15.38432,11.26352 l 5.151,1.99172 c 1.30492,-4.53288 4.05212,-8.10424 9.9586,-8.10424 5.90648,0 8.85972,3.64004 8.85972,8.9284 v 0.82416 c 0,4.60156 -3.434,9.40916 -7.8982,13.52996 l -15.65904,14.4228 V 0 h 31.45544 z"
        id="path747"/>
      <path
        d="m 201.57582,0.82416 c 11.46956,0 16.4832,-9.13444 16.4832,-24.79348 0,-15.65904 -5.01364,-24.79348 -16.4832,-24.79348 -11.46956,0 -16.4832,9.13444 -16.4832,24.79348 0,15.65904 5.01364,24.79348 16.4832,24.79348 z m 0,-5.01364 c -7.48612,0 -10.43936,-6.59328 -10.43936,-15.86508 v -7.82952 c 0,-9.2718 2.95324,-15.86508 10.43936,-15.86508 7.48612,0 10.43936,6.59328 10.43936,15.86508 v 7.82952 c 0,9.2718 -2.95324,15.86508 -10.43936,15.86508 z"
        id="path749"/>
      <path
        d="m 242.78384,0.82416 c 11.46956,0 16.4832,-9.13444 16.4832,-24.79348 0,-15.65904 -5.01364,-24.79348 -16.4832,-24.79348 -11.46956,0 -16.4832,9.13444 -16.4832,24.79348 0,15.65904 5.01364,24.79348 16.4832,24.79348 z m 0,-5.01364 c -7.48612,0 -10.43936,-6.59328 -10.43936,-15.86508 v -7.82952 c 0,-9.2718 2.95324,-15.86508 10.43936,-15.86508 7.48612,0 10.43936,6.59328 10.43936,15.86508 v 7.82952 c 0,9.2718 -2.95324,15.86508 -10.43936,15.86508 z"
        id="path751"/>
      <path
        d="m 283.99188,0.82416 c 11.46956,0 16.4832,-9.13444 16.4832,-24.79348 0,-15.65904 -5.01364,-24.79348 -16.4832,-24.79348 -11.46956,0 -16.4832,9.13444 -16.4832,24.79348 0,15.65904 5.01364,24.79348 16.4832,24.79348 z m 0,-5.01364 c -7.48612,0 -10.43936,-6.59328 -10.43936,-15.86508 v -7.82952 c 0,-9.2718 2.95324,-15.86508 10.43936,-15.86508 7.48612,0 10.43936,6.59328 10.43936,15.86508 v 7.82952 c 0,9.2718 -2.95324,15.86508 -10.43936,15.86508 z"
        id="path753"/>
      <path
        d="m 326.84822,-47.93864 v 28.29616 c 0,13.94204 4.25816,20.46664 17.03264,20.46664 12.77448,0 17.44472,-6.5246 17.44472,-20.46664 v -28.29616 h -5.76912 v 29.66976 c 0,9.13444 -2.95324,13.94204 -11.46956,13.94204 -8.51632,0 -11.46956,-4.8076 -11.46956,-13.94204 v -29.66976 z"
        id="path755"/>
      <path
        d="m 387.2179,0.82416 c 10.302,0 16.4832,-5.63176 16.4832,-14.4228 0,-7.14272 -4.05212,-11.26352 -13.3926,-13.3926 l -3.91476,-0.89284 c -6.04384,-1.3736 -8.99708,-3.434 -8.99708,-7.96688 0,-5.151 3.7774,-7.82952 9.88992,-7.82952 5.56308,0 9.20312,2.26644 11.81296,5.90648 l 4.32684,-3.15928 c -3.57136,-5.08232 -8.65368,-7.82952 -15.86508,-7.82952 -9.40916,0 -15.86508,4.60156 -15.86508,13.11788 0,7.34876 4.8076,11.19484 13.52996,13.18656 l 3.91476,0.89284 c 6.31856,1.44228 8.85972,3.70872 8.85972,8.2416 0,5.4944 -3.70872,9.06576 -10.57672,9.06576 -5.56308,0 -9.54652,-2.4038 -12.91184,-6.868 l -4.25816,3.57136 c 3.84608,5.21968 9.2718,8.37896 16.96396,8.37896 z"
        id="path757"/>
      <path
        d="m 413.65967,0 h 16.07112 c 11.95032,0 19.64248,-7.96688 19.64248,-23.96932 0,-16.00244 -7.69216,-23.96932 -19.64248,-23.96932 h -16.07112 z m 5.76912,-5.08232 v -37.774 h 10.302 c 7.8982,0 13.46128,5.4944 13.46128,14.97224 v 7.82952 c 0,9.47784 -5.56308,14.97224 -13.46128,14.97224 z"
        id="path759"/>
      <path
        d="m 489.27629,-42.85632 v -5.08232 h -36.26304 v 5.08232 h 15.24696 V 0 h 5.76912 v -42.85632 z"
        id="path761"/></g>
    <g
      aria-label="14d / 100 ETH"
      transform="translate(1701.12,2666)"
      id="text65"
      style="font-size:68.68px;font-family:'IBM Plex Sans';-inkscape-font-specification:'IBM Plex Sans, Normal'"><path
         d="M 37.56796,0 V -5.08232 H 25.20556 V -47.93864 H 16.20848 L 3.50268,-36.057 6.868,-32.41696 18.95568,-43.68048 h 0.48076 V -5.08232 H 6.04384 V 0 Z"
         id="path786" />
      <path
        d="m 72.457427,0 v -9.40916 h 6.93668 v -4.8076 h -6.93668 v -33.72188 h -8.585 l -20.05456,33.44716 v 5.08232 h 23.14516 V 0 Z m -5.8378,-43.47444 h 0.3434 v 29.25768 h -17.71944 z"
        id="path788"/>
      <path
        d="m 110.91825,0 h 5.4944 v -50.8232 h -5.4944 v 21.15344 h -0.27472 c -1.85436,-4.4642 -5.4944,-6.59328 -10.37068,-6.59328 -8.859716,0 -14.422796,7.2114 -14.422796,18.5436 0,11.3322 5.56308,18.5436 14.422796,18.5436 4.87628,0 8.2416,-2.19776 10.37068,-6.59328 h 0.27472 z m -9.13444,-4.1208 c -6.181196,0 -10.027276,-4.25816 -10.027276,-10.57672 v -6.04384 c 0,-6.31856 3.84608,-10.57672 10.027276,-10.57672 5.01364,0 9.13444,2.88456 9.13444,6.79932 v 13.18656 c 0,4.60156 -4.1208,7.2114 -9.13444,7.2114 z"
        id="path790"/>
      <path
        d="M 144.02202,10.37068 161.9475,-50.8232 h -4.94496 l -17.92548,61.19388 z"
        id="path792"/>
      <path
        d="m 218.53978,0 v -5.08232 h -12.3624 v -42.85632 h -8.99708 l -12.7058,11.88164 3.36532,3.64004 12.08768,-11.26352 h 0.48076 v 38.59816 h -13.3926 V 0 Z"
        id="path794"/>
      <path
        d="m 242.78384,0.82416 c 11.46956,0 16.4832,-9.13444 16.4832,-24.79348 0,-15.65904 -5.01364,-24.79348 -16.4832,-24.79348 -11.46956,0 -16.4832,9.13444 -16.4832,24.79348 0,15.65904 5.01364,24.79348 16.4832,24.79348 z m 0,-5.01364 c -7.48612,0 -10.43936,-6.59328 -10.43936,-15.86508 v -7.82952 c 0,-9.2718 2.95324,-15.86508 10.43936,-15.86508 7.48612,0 10.43936,6.59328 10.43936,15.86508 v 7.82952 c 0,9.2718 -2.95324,15.86508 -10.43936,15.86508 z"
        id="path796"/>
      <path
        d="m 283.99188,0.82416 c 11.46956,0 16.4832,-9.13444 16.4832,-24.79348 0,-15.65904 -5.01364,-24.79348 -16.4832,-24.79348 -11.46956,0 -16.4832,9.13444 -16.4832,24.79348 0,15.65904 5.01364,24.79348 16.4832,24.79348 z m 0,-5.01364 c -7.48612,0 -10.43936,-6.59328 -10.43936,-15.86508 v -7.82952 c 0,-9.2718 2.95324,-15.86508 10.43936,-15.86508 7.48612,0 10.43936,6.59328 10.43936,15.86508 v 7.82952 c 0,9.2718 -2.95324,15.86508 -10.43936,15.86508 z"
        id="path798"/>
      <path
        d="m 356.4493,0 v -5.08232 h -23.48856 v -16.62056 h 22.11496 v -5.08232 h -22.11496 v -16.07112 h 23.48856 v -5.08232 H 327.19162 V 0 Z"
        id="path800"/>
      <path
        d="m 398.61885,-42.85632 v -5.08232 h -36.26304 v 5.08232 h 15.24696 V 0 h 5.76912 v -42.85632 z"
        id="path802"/>
      <path
        d="m 436.53022,0 h 5.76912 v -47.93864 h -5.76912 v 21.15344 h -24.24404 v -21.15344 h -5.76912 V 0 h 5.76912 v -21.70288 h 24.24404 z"
        id="path804"/></g>
    <path
      d="m 3673,2288 c 0,-28.72 23.28,-52 52,-52 h 494 c 28.72,0 52,23.28 52,52 v 208 c 0,28.72 -23.28,52 -52,52 h -494 c -28.72,0 -52,-23.28 -52,-52 z"
      fill="#f2f2f2"
      fill-rule="evenodd"
      id="path67"/>
    <g
      aria-label="bob.eth"
      transform="translate(3850.96,2416)"
      id="text69"
      style="font-size:68.68px;font-family:'IBM Plex Sans';-inkscape-font-specification:'IBM Plex Sans, Normal'"><path
         d="m 5.8378,0 h 5.4944 v -5.76912 h 0.27472 c 2.12908,4.39552 5.4944,6.59328 10.37068,6.59328 8.85972,0 14.4228,-7.2114 14.4228,-18.5436 0,-11.3322 -5.56308,-18.5436 -14.4228,-18.5436 -4.87628,0 -8.51632,2.12908 -10.37068,6.59328 H 11.3322 V -50.8232 H 5.8378 Z m 14.62884,-4.1208 c -5.01364,0 -9.13444,-2.60984 -9.13444,-7.2114 v -13.18656 c 0,-3.91476 4.1208,-6.79932 9.13444,-6.79932 6.1812,0 10.02728,4.25816 10.02728,10.57672 v 6.04384 c 0,6.31856 -3.84608,10.57672 -10.02728,10.57672 z"
         id="path829" />
      <path
        d="m 59.064796,0.82416 c 9.47784,0 16.002441,-7.28008 16.002441,-18.5436 0,-11.26352 -6.524601,-18.5436 -16.002441,-18.5436 -9.47784,0 -16.00244,7.28008 -16.00244,18.5436 0,11.26352 6.5246,18.5436 16.00244,18.5436 z m 0,-4.87628 c -5.90648,0 -10.09596,-3.64004 -10.09596,-11.12616 v -5.08232 c 0,-7.48612 4.18948,-11.12616 10.09596,-11.12616 5.90648,0 10.09596,3.64004 10.09596,11.12616 v 5.08232 c 0,7.48612 -4.18948,11.12616 -10.09596,11.12616 z"
        id="path831"/>
      <path
        d="m 84.132958,0 h 5.4944 v -5.76912 h 0.27472 c 2.12908,4.39552 5.4944,6.59328 10.370682,6.59328 8.85972,0 14.4228,-7.2114 14.4228,-18.5436 0,-11.3322 -5.56308,-18.5436 -14.4228,-18.5436 -4.876282,0 -8.516322,2.12908 -10.370682,6.59328 h -0.27472 V -50.8232 h -5.4944 z m 14.62884,-4.1208 c -5.01364,0 -9.13444,-2.60984 -9.13444,-7.2114 v -13.18656 c 0,-3.91476 4.1208,-6.79932 9.13444,-6.79932 6.181202,0 10.027282,4.25816 10.027282,10.57672 v 6.04384 c 0,6.31856 -3.84608,10.57672 -10.027282,10.57672 z"
        id="path833"/>
      <path
        d="m 126.0964,0.82416 c 2.88456,0 4.18948,-1.64832 4.18948,-3.98344 v -0.89284 c 0,-2.33512 -1.30492,-3.98344 -4.18948,-3.98344 -2.88456,0 -4.18948,1.64832 -4.18948,3.98344 v 0.89284 c 0,2.33512 1.30492,3.98344 4.18948,3.98344 z"
        id="path835"/>
      <path
        d="m 153.91174,0.82416 c 6.66196,0 11.74428,-3.29664 14.01072,-8.10424 l -3.91476,-2.81588 c -1.85436,3.91476 -5.28836,6.11252 -9.75256,6.11252 -6.59328,0 -10.50804,-4.60156 -10.50804,-10.71408 v -1.64832 h 25.48028 v -2.60984 c 0,-10.02728 -5.8378,-17.30736 -15.31564,-17.30736 -9.6152,0 -15.93376,7.28008 -15.93376,18.5436 0,11.26352 6.31856,18.5436 15.93376,18.5436 z m 0,-32.48564 c 5.63176,0 9.40916,4.18948 9.40916,10.43936 v 0.75548 h -19.5738 v -0.48076 c 0,-6.1812 4.18948,-10.71408 10.16464,-10.71408 z"
        id="path837"/>
      <path
        d="m 192.99064,0 v -4.8076 h -7.2114 v -25.82368 h 7.76084 v -4.8076 h -7.76084 v -9.82124 h -4.94496 v 6.59328 c 0,2.4038 -0.75548,3.22796 -3.0906,3.22796 h -3.29664 v 4.8076 h 5.8378 V -5.8378 c 0,3.434 2.0604,5.8378 5.8378,5.8378 z"
        id="path839"/>
      <path
        d="m 202.3998,0 h 5.4944 v -24.58744 c 0,-4.53288 4.25816,-6.73064 8.65368,-6.73064 5.28836,0 8.03556,3.22796 8.03556,9.54652 V 0 h 5.4944 v -22.73308 c 0,-8.585 -4.60156,-13.52996 -11.88164,-13.52996 -5.28836,0 -8.31028,2.60984 -10.02728,6.59328 H 207.8942 V -50.8232 h -5.4944 z"
        id="path841"/></g>
    <g
      aria-label="1. / 200 EUR"
      transform="translate(3196.78,2357)"
      id="text71"
      style="font-size:68.68px;font-family:'IBM Plex Sans';-inkscape-font-specification:'IBM Plex Sans, Normal'"><path
         d="M 37.56796,0 V -5.08232 H 25.20556 V -47.93864 H 16.20848 L 3.50268,-36.057 6.868,-32.41696 18.95568,-43.68048 h 0.48076 V -5.08232 H 6.04384 V 0 Z"
         id="path858" />
      <path
        d="m 50.548507,0.82416 c 2.88456,0 4.18948,-1.64832 4.18948,-3.98344 v -0.89284 c 0,-2.33512 -1.30492,-3.98344 -4.18948,-3.98344 -2.88456,0 -4.18948,1.64832 -4.18948,3.98344 v 0.89284 c 0,2.33512 1.30492,3.98344 4.18948,3.98344 z"
        id="path860"/>
      <path
        d="m 81.660507,10.37068 17.92548,-61.19388 h -4.94496 l -17.92548,61.19388 z"
        id="path862"/>
      <path
        d="m 155.21675,-5.08232 h -25.20556 l 12.91184,-11.60692 c 6.11252,-5.4944 10.50804,-10.71408 10.50804,-18.13152 0,-8.17292 -5.35704,-13.94204 -14.69752,-13.94204 -9.2718,0 -13.52996,5.63176 -15.38432,11.26352 l 5.151,1.99172 c 1.30492,-4.53288 4.05212,-8.10424 9.9586,-8.10424 5.90648,0 8.85972,3.64004 8.85972,8.9284 v 0.82416 c 0,4.60156 -3.434,9.40916 -7.8982,13.52996 l -15.65904,14.4228 V 0 h 31.45544 z"
        id="path864"/>
      <path
        d="m 180.42234,0.82416 c 11.46956,0 16.4832,-9.13444 16.4832,-24.79348 0,-15.65904 -5.01364,-24.79348 -16.4832,-24.79348 -11.46956,0 -16.4832,9.13444 -16.4832,24.79348 0,15.65904 5.01364,24.79348 16.4832,24.79348 z m 0,-5.01364 c -7.48612,0 -10.43936,-6.59328 -10.43936,-15.86508 v -7.82952 c 0,-9.2718 2.95324,-15.86508 10.43936,-15.86508 7.48612,0 10.43936,6.59328 10.43936,15.86508 v 7.82952 c 0,9.2718 -2.95324,15.86508 -10.43936,15.86508 z"
        id="path866"/>
      <path
        d="m 221.63037,0.82416 c 11.46956,0 16.4832,-9.13444 16.4832,-24.79348 0,-15.65904 -5.01364,-24.79348 -16.4832,-24.79348 -11.46956,0 -16.4832,9.13444 -16.4832,24.79348 0,15.65904 5.01364,24.79348 16.4832,24.79348 z m 0,-5.01364 c -7.48612,0 -10.43936,-6.59328 -10.43936,-15.86508 v -7.82952 c 0,-9.2718 2.95324,-15.86508 10.43936,-15.86508 7.48612,0 10.43936,6.59328 10.43936,15.86508 v 7.82952 c 0,9.2718 -2.95324,15.86508 -10.43936,15.86508 z"
        id="path868"/>
      <path
        d="m 294.08779,0 v -5.08232 h -23.48856 v -16.62056 h 22.11496 v -5.08232 h -22.11496 v -16.07112 h 23.48856 v -5.08232 H 264.83011 V 0 Z"
        id="path870"/>
      <path
        d="m 304.52718,-47.93864 v 28.29616 c 0,13.94204 4.25816,20.46664 17.03264,20.46664 12.77448,0 17.44472,-6.5246 17.44472,-20.46664 v -28.29616 h -5.76912 v 29.66976 c 0,9.13444 -2.95324,13.94204 -11.46956,13.94204 -8.51632,0 -11.46956,-4.8076 -11.46956,-13.94204 v -29.66976 z"
        id="path872"/>
      <path
        d="m 357.2047,-20.604 h 11.19484 L 378.77022,0 h 6.5246 l -10.9888,-21.15344 c 6.24988,-1.44228 9.6152,-6.1812 9.6152,-13.18656 0,-8.72236 -5.01364,-13.59864 -13.3926,-13.59864 H 351.43558 V 0 h 5.76912 z m 0,-4.94496 v -17.30736 h 13.32392 c 4.53288,0 7.2114,2.47248 7.2114,6.868 v 3.57136 c 0,4.39552 -2.67852,6.868 -7.2114,6.868 z"
        id="path874"/></g>
    <path
      d="m 0,-3.4375 h 27.5 v 6.875 H 0 Z m 48.125,0 h 27.5 v 6.875 h -27.5 z m 48.125,0 h 26.484 v 7.89053 h -6.875 V 0 l 3.438,3.4375 H 96.25 Z m 26.484,28.5155 v 27.5 h -6.875 v -27.5 z m 0,48.125 v 27.5 h -6.875 v -27.5 z m 0,48.125 v 27.5 h -6.875 v -27.5 z m 0,48.125 v 27.5 h -6.875 v -27.5 z m 0,48.125 v 27.5 h -6.875 v -27.5 z m 0,48.125 v 27.5 h -6.875 v -27.5 z m 0,48.125 v 2.138 l -3.437,-3.438 h 25.362 v 6.875 h -28.8 v -5.575 z m 42.55,-1.3 h 27.5 v 6.875 h -27.5 z m 48.125,0 h 27.5 v 6.875 h -27.5 z m 48.125,0 h 27.5 v 6.875 h -27.5 z m 48.125,0 h 27.5 v 6.875 h -27.5 z m 48.125,0 h 27.5 v 6.875 h -27.5 z m 48.125,0 h 27.5 v 6.875 h -27.5 z m 48.125,0 h 27.5 v 6.875 h -27.5 z m 48.125,0 h 27.5 v 6.875 h -27.5 z m 48.125,0 h 27.5 v 6.875 h -27.5 z m 48.125,0 h 27.5 v 6.875 h -27.5 z m 48.125,0 h 27.5 v 6.875 h -27.5 z m -2.818,-22.484 46.658,25.922 -46.658,25.922 c -1.66,0.922 -3.753,0.324 -4.675,-1.336 -0.922,-1.66 -0.324,-3.752 1.336,-4.674 l 41.25,-22.917 v 6.01 l -41.25,-22.917 c -1.66,-0.922 -2.258,-3.015 -1.336,-4.674 0.922,-1.66 3.015,-2.258 4.675,-1.336 z"
      fill="rgba(currentColor, 0.2)"
      id="path73"
      transform="matrix(1,0,0,-1,2983.5,2708.47)"/>
    <path
      d="m 4270,2792 c 0,-28.72 23.28,-52 52,-52 h 493 c 28.72,0 52,23.28 52,52 v 208 c 0,28.72 -23.28,52 -52,52 h -493 c -28.72,0 -52,-23.28 -52,-52 z"
      fill="#f2f2f2"
      fill-rule="evenodd"
      id="path75"/>
    <g
      aria-label="0x56E117"
      transform="translate(4384.71,2920)"
      id="text77"
      style="font-size:68.68px;font-family:'IBM Plex Sans';-inkscape-font-specification:'IBM Plex Sans, Normal'"><path
         d="m 20.604,0.82416 c 11.46956,0 16.4832,-9.13444 16.4832,-24.79348 0,-15.65904 -5.01364,-24.79348 -16.4832,-24.79348 -11.46956,0 -16.4832,9.13444 -16.4832,24.79348 0,15.65904 5.01364,24.79348 16.4832,24.79348 z m 0,-5.01364 c -7.48612,0 -10.43936,-6.59328 -10.43936,-15.86508 v -7.82952 c 0,-9.2718 2.95324,-15.86508 10.43936,-15.86508 7.48612,0 10.43936,6.59328 10.43936,15.86508 v 7.82952 c 0,9.2718 -2.95324,15.86508 -10.43936,15.86508 z"
         id="path899" />
      <path
        d="m 42.650307,0 h 6.11252 l 9.9586,-13.87336 h 0.20604 L 68.130587,0 h 6.45592 l -12.77448,-18.26888 12.49976,-17.17 h -6.11252 l -9.34048,13.18656 h -0.20604 l -8.99708,-13.18656 h -6.45592 l 12.56844,17.58208 z"
        id="path901"/>
      <path
        d="M 110.23143,-47.93864 H 84.545106 l -1.717,26.37312 4.87628,0.6868 c 1.99172,-2.19776 4.18948,-4.05212 8.585,-4.05212 6.524604,0 10.027284,3.64004 10.027284,9.9586 v 0.6868 c 0,6.31856 -3.50268,9.9586 -10.027284,9.9586 -5.76912,0 -8.17292,-2.54116 -10.6454,-6.31856 l -4.32684,3.29664 c 2.88456,4.1208 7.00536,8.17292 14.97224,8.17292 10.095964,0 16.139804,-6.5246 16.139804,-15.86508 0,-9.2718 -6.04384,-14.83488 -14.285444,-14.83488 -5.01364,0 -7.5548,2.0604 -9.82124,5.28836 h -0.48076 l 1.3736,-18.26888 h 21.016084 z"
        id="path903"/>
      <path
        d="m 137.9095,0.82416 c 9.6152,0 15.93376,-6.45592 15.93376,-15.86508 0,-9.06576 -5.90648,-14.7662 -14.14808,-14.7662 -5.8378,0 -9.2718,2.95324 -11.53824,6.868 l -0.3434,-0.13736 c 2.60984,-11.12616 8.31028,-17.37604 18.5436,-24.86216 h -7.41744 c -7.69216,5.01364 -17.10132,16.1398 -17.10132,30.35656 0,11.40088 6.11252,18.40624 16.07112,18.40624 z m -0.0687,-5.01364 c -6.31856,0 -10.02728,-3.64004 -10.02728,-10.09596 v -0.54944 c 0,-6.45592 3.70872,-10.09596 10.02728,-10.09596 6.31856,0 10.02728,3.64004 10.02728,10.09596 v 0.54944 c 0,6.45592 -3.70872,10.09596 -10.02728,10.09596 z"
        id="path905"/>
      <path
        d="M 194.08976,0 V -5.08232 H 170.6012 v -16.62056 h 22.11496 V -26.7852 H 170.6012 v -16.07112 h 23.48856 v -5.08232 H 164.83208 V 0 Z"
        id="path907"/>
      <path
        d="m 207.82577,0.82416 c 2.88456,0 4.18948,-1.64832 4.18948,-3.98344 v -0.89284 c 0,-2.33512 -1.30492,-3.98344 -4.18948,-3.98344 -2.88456,0 -4.18948,1.64832 -4.18948,3.98344 v 0.89284 c 0,2.33512 1.30492,3.98344 4.18948,3.98344 z m 18.2002,0 c 2.88456,0 4.18948,-1.64832 4.18948,-3.98344 v -0.89284 c 0,-2.33512 -1.30492,-3.98344 -4.18948,-3.98344 -2.88456,0 -4.18948,1.64832 -4.18948,3.98344 v 0.89284 c 0,2.33512 1.30492,3.98344 4.18948,3.98344 z m 18.26888,0 c 2.88456,0 4.18948,-1.64832 4.18948,-3.98344 v -0.89284 c 0,-2.33512 -1.30492,-3.98344 -4.18948,-3.98344 -2.88456,0 -4.18948,1.64832 -4.18948,3.98344 v 0.89284 c 0,2.33512 1.30492,3.98344 4.18948,3.98344 z"
        id="path909"/>
      <path
        d="m 291.20326,0 v -5.08232 h -12.3624 v -42.85632 h -8.99708 l -12.7058,11.88164 3.36532,3.64004 12.08768,-11.26352 h 0.48076 v 38.59816 h -13.3926 V 0 Z"
        id="path911"/>
      <path
        d="m 332.41128,0 v -5.08232 h -12.3624 v -42.85632 h -8.99708 l -12.7058,11.88164 3.36532,3.64004 12.08768,-11.26352 h 0.48076 v 38.59816 h -13.3926 V 0 Z"
        id="path913"/>
      <path
        d="m 354.25156,0 17.99416,-42.85632 v -5.08232 h -31.45544 v 13.87336 h 5.151 v -8.9284 h 20.46664 L 348.07036,0 Z"
        id="path915"/></g>
    <path
      d="m 4622,3323 c 0,-28.72 23.28,-52 52,-52 h 494 c 28.72,0 52,23.28 52,52 v 208 c 0,28.72 -23.28,52 -52,52 h -494 c -28.72,0 -52,-23.28 -52,-52 z"
      fill="#f2f2f2"
      fill-rule="evenodd"
      id="path79"/>
    <g
      aria-label="0xd235D2"
      transform="translate(4732.08,3451)"
      id="text81"
      style="font-size:68.68px;font-family:'IBM Plex Sans';-inkscape-font-specification:'IBM Plex Sans, Normal'"><path
         d="m 20.604,0.82416 c 11.46956,0 16.4832,-9.13444 16.4832,-24.79348 0,-15.65904 -5.01364,-24.79348 -16.4832,-24.79348 -11.46956,0 -16.4832,9.13444 -16.4832,24.79348 0,15.65904 5.01364,24.79348 16.4832,24.79348 z m 0,-5.01364 c -7.48612,0 -10.43936,-6.59328 -10.43936,-15.86508 v -7.82952 c 0,-9.2718 2.95324,-15.86508 10.43936,-15.86508 7.48612,0 10.43936,6.59328 10.43936,15.86508 v 7.82952 c 0,9.2718 -2.95324,15.86508 -10.43936,15.86508 z"
         id="path938" />
      <path
        d="m 42.650307,0 h 6.11252 l 9.9586,-13.87336 h 0.20604 L 68.130587,0 h 6.45592 l -12.77448,-18.26888 12.49976,-17.17 h -6.11252 l -9.34048,13.18656 h -0.20604 l -8.99708,-13.18656 h -6.45592 l 12.56844,17.58208 z"
        id="path940"/>
      <path
        d="m 103.70688,0 h 5.4944 v -50.8232 h -5.4944 v 21.15344 h -0.27472 c -1.85436,-4.4642 -5.494399,-6.59328 -10.370679,-6.59328 -8.85972,0 -14.4228,7.2114 -14.4228,18.5436 0,11.3322 5.56308,18.5436 14.4228,18.5436 4.87628,0 8.241599,-2.19776 10.370679,-6.59328 h 0.27472 z m -9.134439,-4.1208 c -6.1812,0 -10.02728,-4.25816 -10.02728,-10.57672 v -6.04384 c 0,-6.31856 3.84608,-10.57672 10.02728,-10.57672 5.013641,0 9.134439,2.88456 9.134439,6.79932 v 13.18656 c 0,4.60156 -4.120798,7.2114 -9.134439,7.2114 z"
        id="path942"/>
      <path
        d="m 151.64552,-5.08232 h -25.20556 l 12.91184,-11.60692 c 6.11252,-5.4944 10.50804,-10.71408 10.50804,-18.13152 0,-8.17292 -5.35704,-13.94204 -14.69752,-13.94204 -9.2718,0 -13.52996,5.63176 -15.38432,11.26352 l 5.151,1.99172 c 1.30492,-4.53288 4.05212,-8.10424 9.9586,-8.10424 5.90648,0 8.85972,3.64004 8.85972,8.9284 v 0.82416 c 0,4.60156 -3.434,9.40916 -7.8982,13.52996 l -15.65904,14.4228 V 0 h 31.45544 z"
        id="path944"/>
      <path
        d="m 168.9529,-27.60936 v 5.01364 h 5.63176 c 6.73064,0 10.302,3.22796 10.302,8.85972 v 0.54944 c 0,5.63176 -3.57136,8.85972 -10.302,8.85972 -5.8378,0 -8.65368,-2.54116 -11.12616,-6.31856 l -4.32684,3.29664 c 2.95324,4.1208 7.2114,8.17292 15.52168,8.17292 9.75256,0 16.27716,-5.70044 16.27716,-13.94204 0,-7.2114 -4.94496,-11.05748 -10.09596,-12.08768 v -0.27472 c 5.08232,-1.30492 9.20312,-5.01364 9.20312,-11.19484 0,-7.76084 -6.45592,-12.08768 -14.56016,-12.08768 -7.69216,0 -11.88164,3.98344 -14.28544,7.82952 l 4.25816,3.29664 c 1.99172,-3.64004 4.94496,-5.97516 9.88992,-5.97516 5.08232,0 8.585,2.54116 8.585,7.5548 v 0.48076 c 0,4.60156 -3.29664,7.96688 -9.75256,7.96688 z"
        id="path946"/>
      <path
        d="m 206.79562,0.82416 c 2.88456,0 4.18948,-1.64832 4.18948,-3.98344 v -0.89284 c 0,-2.33512 -1.30492,-3.98344 -4.18948,-3.98344 -2.88456,0 -4.18948,1.64832 -4.18948,3.98344 v 0.89284 c 0,2.33512 1.30492,3.98344 4.18948,3.98344 z m 18.2002,0 c 2.88456,0 4.18948,-1.64832 4.18948,-3.98344 v -0.89284 c 0,-2.33512 -1.30492,-3.98344 -4.18948,-3.98344 -2.88456,0 -4.18948,1.64832 -4.18948,3.98344 v 0.89284 c 0,2.33512 1.30492,3.98344 4.18948,3.98344 z m 18.26888,0 c 2.88456,0 4.18948,-1.64832 4.18948,-3.98344 v -0.89284 c 0,-2.33512 -1.30492,-3.98344 -4.18948,-3.98344 -2.88456,0 -4.18948,1.64832 -4.18948,3.98344 v 0.89284 c 0,2.33512 1.30492,3.98344 4.18948,3.98344 z"
        id="path948"/>
      <path
        d="m 286.80777,-47.93864 h -25.68632 l -1.717,26.37312 4.87628,0.6868 c 1.99172,-2.19776 4.18948,-4.05212 8.585,-4.05212 6.5246,0 10.02728,3.64004 10.02728,9.9586 v 0.6868 c 0,6.31856 -3.50268,9.9586 -10.02728,9.9586 -5.76912,0 -8.17292,-2.54116 -10.6454,-6.31856 l -4.32684,3.29664 c 2.88456,4.1208 7.00536,8.17292 14.97224,8.17292 10.09596,0 16.1398,-6.5246 16.1398,-15.86508 0,-9.2718 -6.04384,-14.83488 -14.28544,-14.83488 -5.01364,0 -7.5548,2.0604 -9.82124,5.28836 h -0.48076 l 1.3736,-18.26888 h 21.01608 z"
        id="path950"/>
      <path
        d="m 300.20041,0 h 16.07112 c 11.95032,0 19.64248,-7.96688 19.64248,-23.96932 0,-16.00244 -7.69216,-23.96932 -19.64248,-23.96932 h -16.07112 z m 5.76912,-5.08232 v -37.774 h 10.302 c 7.8982,0 13.46128,5.4944 13.46128,14.97224 v 7.82952 c 0,9.47784 -5.56308,14.97224 -13.46128,14.97224 z"
        id="path952"/>
      <path
        d="m 376.50384,-5.08232 h -25.20556 l 12.91184,-11.60692 c 6.11252,-5.4944 10.50804,-10.71408 10.50804,-18.13152 0,-8.17292 -5.35704,-13.94204 -14.69752,-13.94204 -9.2718,0 -13.52996,5.63176 -15.38432,11.26352 l 5.151,1.99172 c 1.30492,-4.53288 4.05212,-8.10424 9.9586,-8.10424 5.90648,0 8.85972,3.64004 8.85972,8.9284 v 0.82416 c 0,4.60156 -3.434,9.40916 -7.8982,13.52996 L 345.0484,-5.90648 V 0 h 31.45544 z"
        id="path954"/></g>
    <path
      d="m 2983.5,2705.06 h 27.5 v 6.88 h -27.5 z m 48.12,0 h 27.5 v 6.88 h -27.5 z m 48.13,0 h 27.5 v 6.88 h -27.5 z m 48.13,0 h 27.5 v 6.88 h -27.5 z m 48.12,0 h 27.5 v 6.88 H 3176 Z m 48.12,0 h 27.5 v 6.88 h -27.5 z m 48.13,0 h 27.5 v 6.88 h -27.5 z m 48.13,0 h 27.5 v 6.88 h -27.5 z m 48.12,0 h 27.5 v 6.88 h -27.5 z m 45.62,9.38 v 27.5 h -6.87 v -27.5 z m 0,48.12 v 27.5 h -6.87 v -27.5 z m 0,48.13 v 27.5 h -6.87 v -27.5 z m 0,48.12 v 27.5 h -6.87 v -27.5 z m 7.18,34.08 h 27.5 v 6.87 h -27.5 z m 48.13,0 h 27.5 v 6.87 h -27.5 z m 48.12,0 h 27.5 v 6.87 h -27.5 z m 48.13,0 h 27.5 v 6.87 h -27.5 z m 48.12,0 h 27.5 v 6.87 h -27.5 z m 48.13,0 h 27.5 v 6.87 h -27.5 z m 48.12,0 h 27.5 v 6.87 h -27.5 z m 48.13,0 h 27.5 v 6.87 h -27.5 z m 48.12,0 h 27.5 v 6.87 h -27.5 z m 48.13,0 h 27.5 v 6.87 h -27.5 z m 48.12,0 h 27.5 v 6.87 h -27.5 z m 48.13,0 h 27.5 v 6.87 h -27.5 z m 48.12,0 h 27.5 v 6.87 h -27.5 z m 48.13,0 h 27.5 v 6.87 h -27.5 z m 48.12,0 h 27.5 v 6.87 h -27.5 z m 48.13,0 h 27.5 v 6.87 h -27.5 z m 48.12,0 h 27.5 v 6.87 h -27.5 z m 48.13,0 h 23.5 v 6.87 h -23.5 z m -16.08,-22.49 46.66,25.92 -46.66,25.93 c -1.66,0.92 -3.76,0.32 -4.68,-1.34 -0.92,-1.66 -0.32,-3.75 1.34,-4.67 l 41.25,-22.92 v 6.01 l -41.25,-22.92 c -1.66,-0.92 -2.26,-3.01 -1.34,-4.67 0.92,-1.66 3.02,-2.26 4.68,-1.34 z"
      fill="rgba(currentColor, 0.2)"
      id="path83"/>
    <path
      d="m 2983.5,2705.06 h 27.5 v 6.88 h -27.5 z m 48.12,0 h 27.5 v 6.88 h -27.5 z m 48.13,0 h 27.5 v 6.88 h -27.5 z m 48.13,0 h 27.5 v 6.88 h -27.5 z m 48.12,0 h 27.5 v 6.88 H 3176 Z m 48.12,0 h 27.5 v 6.88 h -27.5 z m 48.13,0 h 27.5 v 6.88 h -27.5 z m 48.13,0 h 27.5 v 6.88 h -27.5 z m 48.12,0 h 27.5 v 6.88 h -27.5 z m 45.23,9.77 v 27.5 h -6.88 v -27.5 z m 0,48.13 v 27.5 h -6.88 v -27.5 z m 0,48.12 v 27.5 h -6.88 v -27.5 z m 0,48.13 v 27.5 h -6.88 v -27.5 z m 0,48.12 v 27.5 h -6.88 v -27.5 z m 0,48.13 v 27.5 h -6.88 v -27.5 z m 0,48.12 v 27.5 h -6.88 v -27.5 z m 0,48.13 v 27.5 h -6.88 v -27.5 z m 0,48.12 v 27.5 h -6.88 v -27.5 z m 0,48.13 v 27.5 h -6.88 v -27.5 z m 0,48.12 v 27.5 h -6.88 v -27.5 z m 0,48.13 v 27.5 h -6.88 v -27.5 z m 0,48.12 v 27.5 h -6.88 v -27.5 z m 0,48.13 v 27.5 h -6.88 v -27.5 z m 0,48.12 v 27.5 h -6.88 v -27.5 z m 5.61,35.64 h 27.5 v 6.87 h -27.5 z m 48.13,0 h 27.5 v 6.87 h -27.5 z m 48.12,0 h 27.5 v 6.87 h -27.5 z m 48.13,0 h 27.5 v 6.87 h -27.5 z m 48.12,0 h 27.5 v 6.87 h -27.5 z m 48.13,0 h 27.5 v 6.87 h -27.5 z m 48.12,0 h 27.5 v 6.87 h -27.5 z m 48.13,0 h 27.5 v 6.87 h -27.5 z m 48.12,0 h 27.5 v 6.87 h -27.5 z m 48.13,0 h 27.5 v 6.87 h -27.5 z m 48.12,0 h 27.5 v 6.87 h -27.5 z m 48.13,0 h 27.5 v 6.87 h -27.5 z m 48.12,0 h 27.5 v 6.87 h -27.5 z m 48.13,0 h 27.5 v 6.87 h -27.5 z m 48.12,0 h 27.5 v 6.87 h -27.5 z m 48.13,0 h 27.5 v 6.87 h -27.5 z m 48.12,0 h 27.5 v 6.87 h -27.5 z m 48.13,0 h 27.5 v 6.87 h -27.5 z m 48.12,0 h 27.5 v 6.87 h -27.5 z m 48.13,0 h 27.5 v 6.87 h -27.5 z m 48.12,0 h 27.5 v 6.87 h -27.5 z m 48.13,0 h 27.5 v 6.87 h -27.5 z m 48.12,0 h 27.5 v 6.87 h -27.5 z m 48.13,0 h 27.5 v 6.87 h -27.5 z m 48.12,0 h 27.5 v 6.87 h -27.5 z m 1.79,-22.48 46.66,25.92 -46.66,25.92 c -1.66,0.92 -3.75,0.32 -4.67,-1.34 -0.92,-1.66 -0.33,-3.75 1.33,-4.67 l 41.25,-22.92 v 6.01 l -41.25,-22.91 c -1.66,-0.93 -2.25,-3.02 -1.33,-4.68 0.92,-1.66 3.01,-2.26 4.67,-1.33 z"
      fill="rgba(currentColor, 0.2)"
      id="path85"/>
    <g
      aria-label="2. / 100 USDC"
      transform="translate(3456.72,2853)"
      id="text87"
      style="font-size:68.68px;font-family:'IBM Plex Sans';-inkscape-font-specification:'IBM Plex Sans, Normal'"><path
         d="M 36.60644,-5.08232 H 11.40088 l 12.91184,-11.60692 c 6.11252,-5.4944 10.50804,-10.71408 10.50804,-18.13152 0,-8.17292 -5.35704,-13.94204 -14.69752,-13.94204 -9.2718,0 -13.52996,5.63176 -15.38432,11.26352 l 5.151,1.99172 c 1.30492,-4.53288 4.05212,-8.10424 9.9586,-8.10424 5.90648,0 8.85972,3.64004 8.85972,8.9284 v 0.82416 c 0,4.60156 -3.434,9.40916 -7.8982,13.52996 L 5.151,-5.90648 V 0 h 31.45544 z"
         id="path979" />
      <path
        d="m 50.548507,0.82416 c 2.88456,0 4.18948,-1.64832 4.18948,-3.98344 v -0.89284 c 0,-2.33512 -1.30492,-3.98344 -4.18948,-3.98344 -2.88456,0 -4.18948,1.64832 -4.18948,3.98344 v 0.89284 c 0,2.33512 1.30492,3.98344 4.18948,3.98344 z"
        id="path981"/>
      <path
        d="m 81.660507,10.37068 17.92548,-61.19388 h -4.94496 l -17.92548,61.19388 z"
        id="path983"/>
      <path
        d="m 156.17827,0 v -5.08232 h -12.3624 v -42.85632 h -8.99708 l -12.7058,11.88164 3.36532,3.64004 12.08768,-11.26352 h 0.48076 v 38.59816 h -13.3926 V 0 Z"
        id="path985"/>
      <path
        d="m 180.42234,0.82416 c 11.46956,0 16.4832,-9.13444 16.4832,-24.79348 0,-15.65904 -5.01364,-24.79348 -16.4832,-24.79348 -11.46956,0 -16.4832,9.13444 -16.4832,24.79348 0,15.65904 5.01364,24.79348 16.4832,24.79348 z m 0,-5.01364 c -7.48612,0 -10.43936,-6.59328 -10.43936,-15.86508 v -7.82952 c 0,-9.2718 2.95324,-15.86508 10.43936,-15.86508 7.48612,0 10.43936,6.59328 10.43936,15.86508 v 7.82952 c 0,9.2718 -2.95324,15.86508 -10.43936,15.86508 z"
        id="path987"/>
      <path
        d="m 221.63037,0.82416 c 11.46956,0 16.4832,-9.13444 16.4832,-24.79348 0,-15.65904 -5.01364,-24.79348 -16.4832,-24.79348 -11.46956,0 -16.4832,9.13444 -16.4832,24.79348 0,15.65904 5.01364,24.79348 16.4832,24.79348 z m 0,-5.01364 c -7.48612,0 -10.43936,-6.59328 -10.43936,-15.86508 v -7.82952 c 0,-9.2718 2.95324,-15.86508 10.43936,-15.86508 7.48612,0 10.43936,6.59328 10.43936,15.86508 v 7.82952 c 0,9.2718 -2.95324,15.86508 -10.43936,15.86508 z"
        id="path989"/>
      <path
        d="m 264.48671,-47.93864 v 28.29616 c 0,13.94204 4.25816,20.46664 17.03264,20.46664 12.77448,0 17.44472,-6.5246 17.44472,-20.46664 v -28.29616 h -5.76912 v 29.66976 c 0,9.13444 -2.95324,13.94204 -11.46956,13.94204 -8.51632,0 -11.46956,-4.8076 -11.46956,-13.94204 v -29.66976 z"
        id="path991"/>
      <path
        d="m 324.85639,0.82416 c 10.302,0 16.4832,-5.63176 16.4832,-14.4228 0,-7.14272 -4.05212,-11.26352 -13.3926,-13.3926 l -3.91476,-0.89284 c -6.04384,-1.3736 -8.99708,-3.434 -8.99708,-7.96688 0,-5.151 3.7774,-7.82952 9.88992,-7.82952 5.56308,0 9.20312,2.26644 11.81296,5.90648 l 4.32684,-3.15928 c -3.57136,-5.08232 -8.65368,-7.82952 -15.86508,-7.82952 -9.40916,0 -15.86508,4.60156 -15.86508,13.11788 0,7.34876 4.8076,11.19484 13.52996,13.18656 l 3.91476,0.89284 c 6.31856,1.44228 8.85972,3.70872 8.85972,8.2416 0,5.4944 -3.70872,9.06576 -10.57672,9.06576 -5.56308,0 -9.54652,-2.4038 -12.91184,-6.868 l -4.25816,3.57136 c 3.84608,5.21968 9.2718,8.37896 16.96396,8.37896 z"
        id="path993"/>
      <path
        d="m 351.29816,0 h 16.07112 c 11.95032,0 19.64248,-7.96688 19.64248,-23.96932 0,-16.00244 -7.69216,-23.96932 -19.64248,-23.96932 h -16.07112 z m 5.76912,-5.08232 v -37.774 h 10.302 c 7.8982,0 13.46128,5.4944 13.46128,14.97224 v 7.82952 c 0,9.47784 -5.56308,14.97224 -13.46128,14.97224 z"
        id="path995"/>
      <path
        d="m 414.2777,0.82416 c 7.96688,0 13.80468,-4.18948 16.8266,-10.92012 l -4.60156,-2.88456 c -1.92304,5.21968 -6.11252,8.65368 -12.22504,8.65368 -8.2416,0 -13.11788,-5.97516 -13.11788,-15.7964 v -7.14272 c 0,-9.82124 4.87628,-16.34584 13.11788,-16.34584 5.90648,0 9.88992,3.22796 11.81296,8.17292 l 4.67024,-2.81588 c -3.02192,-6.66196 -8.51632,-10.50804 -16.4832,-10.50804 -12.08768,0 -19.29908,9.06576 -19.29908,25.0682 0,16.00244 7.2114,24.51876 19.29908,24.51876 z"
        id="path997"/></g>
    <g
      aria-label="3. / 400 EUR"
      transform="translate(3456.72,3369)"
      id="text89"
      style="font-size:68.68px;font-family:'IBM Plex Sans';-inkscape-font-specification:'IBM Plex Sans, Normal'"><path
         d="m 12.7058,-27.60936 v 5.01364 h 5.63176 c 6.73064,0 10.302,3.22796 10.302,8.85972 v 0.54944 c 0,5.63176 -3.57136,8.85972 -10.302,8.85972 -5.8378,0 -8.65368,-2.54116 -11.12616,-6.31856 l -4.32684,3.29664 c 2.95324,4.1208 7.2114,8.17292 15.52168,8.17292 9.75256,0 16.27716,-5.70044 16.27716,-13.94204 0,-7.2114 -4.94496,-11.05748 -10.09596,-12.08768 v -0.27472 c 5.08232,-1.30492 9.20312,-5.01364 9.20312,-11.19484 0,-7.76084 -6.45592,-12.08768 -14.56016,-12.08768 -7.69216,0 -11.88164,3.98344 -14.28544,7.82952 l 4.25816,3.29664 c 1.99172,-3.64004 4.94496,-5.97516 9.88992,-5.97516 5.08232,0 8.585,2.54116 8.585,7.5548 v 0.48076 c 0,4.60156 -3.29664,7.96688 -9.75256,7.96688 z"
         id="path1020" />
      <path
        d="m 50.548507,0.82416 c 2.88456,0 4.18948,-1.64832 4.18948,-3.98344 v -0.89284 c 0,-2.33512 -1.30492,-3.98344 -4.18948,-3.98344 -2.88456,0 -4.18948,1.64832 -4.18948,3.98344 v 0.89284 c 0,2.33512 1.30492,3.98344 4.18948,3.98344 z"
        id="path1022"/>
      <path
        d="m 81.660507,10.37068 17.92548,-61.19388 h -4.94496 l -17.92548,61.19388 z"
        id="path1024"/>
      <path
        d="m 149.85971,0 v -9.40916 h 6.93668 v -4.8076 h -6.93668 v -33.72188 h -8.585 l -20.05456,33.44716 v 5.08232 h 23.14516 V 0 Z m -5.8378,-43.47444 h 0.3434 v 29.25768 h -17.71944 z"
        id="path1026"/>
      <path
        d="m 180.42234,0.82416 c 11.46956,0 16.4832,-9.13444 16.4832,-24.79348 0,-15.65904 -5.01364,-24.79348 -16.4832,-24.79348 -11.46956,0 -16.4832,9.13444 -16.4832,24.79348 0,15.65904 5.01364,24.79348 16.4832,24.79348 z m 0,-5.01364 c -7.48612,0 -10.43936,-6.59328 -10.43936,-15.86508 v -7.82952 c 0,-9.2718 2.95324,-15.86508 10.43936,-15.86508 7.48612,0 10.43936,6.59328 10.43936,15.86508 v 7.82952 c 0,9.2718 -2.95324,15.86508 -10.43936,15.86508 z"
        id="path1028"/>
      <path
        d="m 221.63037,0.82416 c 11.46956,0 16.4832,-9.13444 16.4832,-24.79348 0,-15.65904 -5.01364,-24.79348 -16.4832,-24.79348 -11.46956,0 -16.4832,9.13444 -16.4832,24.79348 0,15.65904 5.01364,24.79348 16.4832,24.79348 z m 0,-5.01364 c -7.48612,0 -10.43936,-6.59328 -10.43936,-15.86508 v -7.82952 c 0,-9.2718 2.95324,-15.86508 10.43936,-15.86508 7.48612,0 10.43936,6.59328 10.43936,15.86508 v 7.82952 c 0,9.2718 -2.95324,15.86508 -10.43936,15.86508 z"
        id="path1030"/>
      <path
        d="m 294.08779,0 v -5.08232 h -23.48856 v -16.62056 h 22.11496 v -5.08232 h -22.11496 v -16.07112 h 23.48856 v -5.08232 H 264.83011 V 0 Z"
        id="path1032"/>
      <path
        d="m 304.52718,-47.93864 v 28.29616 c 0,13.94204 4.25816,20.46664 17.03264,20.46664 12.77448,0 17.44472,-6.5246 17.44472,-20.46664 v -28.29616 h -5.76912 v 29.66976 c 0,9.13444 -2.95324,13.94204 -11.46956,13.94204 -8.51632,0 -11.46956,-4.8076 -11.46956,-13.94204 v -29.66976 z"
        id="path1034"/>
      <path
        d="m 357.2047,-20.604 h 11.19484 L 378.77022,0 h 6.5246 l -10.9888,-21.15344 c 6.24988,-1.44228 9.6152,-6.1812 9.6152,-13.18656 0,-8.72236 -5.01364,-13.59864 -13.3926,-13.59864 H 351.43558 V 0 h 5.76912 z m 0,-4.94496 v -17.30736 h 13.32392 c 4.53288,0 7.2114,2.47248 7.2114,6.868 v 3.57136 c 0,4.39552 -2.67852,6.868 -7.2114,6.868 z"
        id="path1036"/></g></g></svg>
