<?xml version="1.0" encoding="UTF-8" standalone="no"?>

<svg
        width="100%"
        height="100%"
        preserveAspectRatio="xMidYMid meet"
        viewBox="0 0 150 38"
        xmlns="http://www.w3.org/2000/svg"
        fill="currentColor"
>
    <path
            d="m 14.041571,37.926171 c -0.172344,-0.04092 -0.333812,-0.09952 -0.399264,-0.144871 -0.06044,-0.04187 -0.124227,-0.07617 -0.141746,-0.07617 -0.04063,0 -0.480492,-0.427249 -0.480492,-0.466709 0,-0.01631 -0.0308,-0.06701 -0.06844,-0.112827 -0.03765,-0.04576 -0.110553,-0.205224 -0.162017,-0.354282 l -0.09358,-0.271016 -5.56e-4,-4.810457 c -2.78e-4,-3.039574 -0.01141,-4.885286 -0.02996,-5.013704 -0.01614,-0.111785 -0.04847,-0.23772 -0.07179,-0.279853 -0.02332,-0.04218 -0.06947,-0.134003 -0.10257,-0.204161 -0.03308,-0.07017 -0.109883,-0.18896 -0.170656,-0.263999 -0.188404,-0.232619 -0.281896,-0.306374 -0.658478,-0.519457 -0.04216,-0.02388 -0.204406,-0.06396 -0.360541,-0.0891 -0.247572,-0.03987 -0.878382,-0.04587 -4.9311746,-0.04692 l -4.6472879,-0.0011 -0.3240358,-0.06754 c -0.2221055,-0.04629 -0.3600774,-0.09216 -0.43861438,-0.146059 -0.0630148,-0.04324 -0.13023859,-0.07859 -0.14938288,-0.07859 -0.0490337,0 -0.42127216,-0.372292 -0.47379534,-0.473862 C 0.3132361,24.459204 0.2606571,24.3727 0.2203403,24.313293 0.1800172,24.253853 0.1467529,24.177291 0.1464058,24.14309 0.14612702,24.1089 0.1129838,23.988131 0.07289207,23.874725 L 0,23.668568 2.4827189e-4,18.984782 4.9549178e-4,14.300986 0.07376726,14.071566 c 0.0403021,-0.126177 0.07327177,-0.250439 0.07327177,-0.276129 0,-0.05144 0.19883106,-0.37325 0.28824787,-0.466551 0.031055,-0.0324 0.0721566,-0.08879 0.0913451,-0.125199 0.019178,-0.0364 0.0522528,-0.06628 0.0734717,-0.06628 0.0212399,0 0.0638353,-0.02809 0.094701,-0.06249 0.0308657,-0.0344 0.12902459,-0.09889 0.21813316,-0.143524 0.0891149,-0.0446 0.20841374,-0.105947 0.26511964,-0.136381 0.099361,-0.05334 0.2836443,-0.05586 5.0814733,-0.07111 l 4.9783722,-0.01578 0.265042,-0.09668 c 0.28191,-0.10278 0.500302,-0.234028 0.654022,-0.392964 0.182074,-0.188234 0.29323,-0.334083 0.332451,-0.436201 0.02177,-0.0567 0.05848,-0.125325 0.08155,-0.152498 0.02307,-0.02714 0.05674,-0.100045 0.07482,-0.162018 0.02332,-0.07995 0.03754,-1.5587373 0.04894,-5.0938344 0.01197,-3.7096765 0.02477,-4.9917694 0.05017,-5.0225614 0.01876,-0.022723 0.05343,-0.1142471 0.07704,-0.2033515 0.04197,-0.15846265 0.185832,-0.40479886 0.331447,-0.56757475 0.0401,-0.0448152 0.07292,-0.091524 0.07292,-0.10372715 0,-0.0122032 0.04639,-0.0472348 0.103096,-0.0777428 0.0567,-0.030508 0.103107,-0.0653292 0.103107,-0.0772168 0,-0.0118876 0.113035,-0.0777428 0.251189,-0.1461543 0.185795,-0.09204996 0.306582,-0.1308477 0.463962,-0.14909989 0.326851,-0.03787198 15.920212,-0.03397959 16.223635,0.004208 0.137167,0.01725279 0.282634,0.04965438 0.323266,0.07206197 0.04063,0.0224076 0.14015,0.0726932 0.221159,0.11168027 0.218373,0.10509475 0.569571,0.44421732 0.651174,0.62873804 0.03692,0.0835288 0.08115,0.15645337 0.09829,0.16216571 0.01715,0.00526 0.05388,0.1032011 0.08164,0.2165961 0.04639,0.1895283 0.05122,0.5886464 0.05967,4.9341829 0.0081,4.159396 0.0037,4.765148 -0.03667,5.037037 -0.03375,0.227411 -0.06481,0.336408 -0.11761,0.412594 -0.03946,0.05691 -0.08643,0.14566 -0.10438,0.197145 -0.01795,0.05144 -0.06478,0.114678 -0.104074,0.140421 -0.03929,0.02577 -0.07144,0.06607 -0.07144,0.08953 0,0.02356 -0.03938,0.06312 -0.08751,0.08805 -0.04813,0.02493 -0.101612,0.07164 -0.118865,0.103832 -0.01725,0.03219 -0.04879,0.0586 -0.07009,0.0586 -0.02129,0 -0.09322,0.03945 -0.15981,0.08774 -0.08864,0.06417 -0.220898,0.111564 -0.493647,0.176746 l -0.37256,0.089 -7.987261,5.58e-4 c -8.662159,5.57e-4 -8.242086,-0.0074 -8.486987,0.158883 -0.06182,0.04198 -0.128294,0.07627 -0.147739,0.07627 -0.03808,0 -0.418308,0.371672 -0.555817,0.543305 -0.04613,0.05755 -0.101433,0.163008 -0.12288,0.234281 -0.02143,0.07122 -0.06324,0.174011 -0.09286,0.228326 -0.05159,0.09457 -0.05387,0.310834 -0.05387,5.107878 0,4.537274 0.0044,5.015945 0.04703,5.081474 0.02586,0.03976 0.06967,0.140925 0.09735,0.224738 0.02767,0.08385 0.07045,0.169088 0.09505,0.189507 0.02461,0.02041 0.06981,0.08626 0.100466,0.146376 0.05948,0.116593 0.310419,0.354639 0.454025,0.430709 0.04781,0.02535 0.104958,0.06407 0.127001,0.08616 0.02204,0.02209 0.115478,0.06133 0.207646,0.08732 0.09217,0.02598 0.224376,0.06596 0.2938,0.08868 0.106285,0.03482 0.874995,0.04134 4.865772,0.04134 3.087008,0 4.81989,0.01052 4.969978,0.0304 0.40802,0.05376 0.828937,0.313843 1.122053,0.693236 0.150479,0.194778 0.274311,0.494124 0.303851,0.734538 0.0182,0.148226 0.02586,2.022763 0.02063,5.052017 l -0.0083,4.816349 -0.117028,0.235668 c -0.06436,0.129617 -0.161603,0.295318 -0.21608,0.368221 -0.100434,0.134404 -0.40219,0.412405 -0.447648,0.412405 -0.01363,0 -0.0629,0.03209 -0.109458,0.07122 -0.05495,0.04618 -0.192671,0.09794 -0.392576,0.147258 L 23.728044,38 19.029522,37.9979 14.331003,37.9958 14.04163,37.9271 Z"
    />
    <path
            d="m 52.080738,31.732411 q -4.602076,0 -7.319493,-1.88466 -2.717417,-1.88466 -2.761246,-5.566321 l 3.988466,-0.964245 q 0,2.322953 1.665514,3.550174 1.709342,1.183391 4.645906,1.183391 2.366782,0 3.681661,-0.788928 1.314879,-0.788927 1.314879,-2.191465 0,-1.577854 -1.577855,-2.191465 -1.577855,-0.657439 -4.251442,-1.22722 -1.709343,-0.350634 -3.331027,-0.788927 -1.621684,-0.482123 -2.936563,-1.227221 -1.314879,-0.745098 -2.103806,-1.928489 -0.788928,-1.183391 -0.788928,-2.980392 0,-3.15571 2.454441,-5.0403699 2.49827,-1.8846599 6.793541,-1.8846599 4.076125,0 6.662054,1.8846599 2.585929,1.8408309 2.761246,5.3471749 l -4.076125,0.920415 q 0,-2.191465 -1.534025,-3.287197 -1.490197,-1.139562 -3.944637,-1.139562 -2.147636,0 -3.374857,0.788927 -1.22722,0.788928 -1.22722,2.147636 0,1.621684 1.665513,2.279123 1.665514,0.65744 4.251443,1.183392 1.665513,0.350634 3.243368,0.788927 1.621684,0.394464 2.936563,1.139562 1.314879,0.701268 2.059977,1.928489 0.788927,1.183391 0.788927,3.11188 0,3.287198 -2.585928,5.084199 -2.585929,1.753172 -7.100347,1.753172 z"
    />
    <path
            d="M 66.062256,38.000001 V 19.197231 8.3713941 h 4.207613 l -0.219146,6.4867369 0.569781,0.04383 q 1.490196,-7.1003468 7.626298,-7.1003468 4.38293,0 6.793541,3.2433678 2.454441,3.199539 2.454441,8.722031 0,5.478663 -2.410611,8.722031 -2.366783,3.243368 -6.574395,3.243368 -3.462515,0 -5.303346,-2.103806 -1.84083,-2.103807 -2.585928,-5.391004 h -0.65744 q 0.394464,2.103806 0.61361,4.076125 0.262976,1.972318 0.262976,3.681661 v 6.004614 z M 77.019581,27.700115 q 2.673588,0 4.119955,-2.191465 1.446366,-2.235294 1.446366,-5.741638 0,-3.550173 -1.490196,-5.697809 -1.446367,-2.147636 -4.076125,-2.147636 -2.016147,0 -3.418685,1.183392 -1.358708,1.139561 -2.059977,2.892733 -0.701269,1.709343 -0.701269,3.418686 v 0.569781 q 0,1.095732 0.350634,2.45444 0.394464,1.314879 1.139562,2.5421 0.788928,1.183391 1.928489,1.972318 1.183392,0.745098 2.761246,0.745098 z"
    />
    <path
            d="M 92.096854,31.16263 V 0.56977873 h 4.733564 V 31.16263 Z"
    />
    <path
            d="M 102.44057,31.16263 V 8.3713941 h 4.77739 V 31.16263 Z m 2.36678,-26.1222627 q -3.06805,0 -3.06805,-2.4982701 0,-2.542099366748 3.06805,-2.542099366748 3.11188,0 3.11188,2.542099366748 0,2.4982701 -3.11188,2.4982701 z"
    />
    <path
            d="m 120.54205,31.644752 q -3.50634,0 -5.12802,-1.928489 -1.57786,-1.972318 -1.57786,-5.478662 V 12.272202 h -3.15571 l 0.0438,-3.6816614 h 1.75317 q 1.35871,-0.087659 1.97232,-0.6574395 0.65744,-0.5697809 0.78893,-1.8408306 l 0.39446,-2.7612459 h 2.84891 v 5.0403695 h 6.1361 V 12.35986 h -6.1361 v 11.658594 q 0,1.840831 0.87658,2.5421 0.87659,0.701268 2.19147,0.701268 0.7451,0 1.57785,-0.219146 0.83276,-0.219147 1.57786,-0.701269 v 4.558247 q -1.22722,0.394464 -2.27913,0.569781 -1.00807,0.175317 -1.88466,0.175317 z"
            id="path1693"/>
    <path
            d="M 130.7981,31.16263 V 15.734717 h -3.81315 v -3.637832 l 5.96078,0.350634 v -0.61361 q -2.32295,-0.569781 -3.33103,-2.016148 -0.96424,-1.4901962 -0.96424,-3.3310268 0,-2.7612459 1.92849,-4.4705886 1.92849,-1.70934267 5.21569,-1.70934267 1.75317,0 3.19954,0.5259516 1.49019,0.48212227 2.49827,1.35870827 l -0.52596,4.4267593 q -2.14763,-1.8846599 -4.55824,-1.8846599 -1.4902,0 -2.41062,0.876586 -0.87658,0.876586 -0.87658,2.5420994 0,1.6216841 0.87658,2.5859284 0.92042,0.920416 2.19147,1.139562 h 4.95271 v 3.856979 h -5.65398 V 31.16263 Z"
    />
    <path
            d="M 144.86727,31.16263 V 8.3713941 h 4.77739 V 31.16263 Z m 2.36678,-26.1222627 q -3.06805,0 -3.06805,-2.4982701 0,-2.542099366748 3.06805,-2.542099366748 3.11188,0 3.11188,2.542099366748 0,2.4982701 -3.11188,2.4982701 z"
    />
</svg>
