<?xml version="1.0" encoding="UTF-8" standalone="no"?>
<!-- Created with Inkscape (http://www.inkscape.org/) -->

<svg
        width="100%"
        height="100%"
        preserveAspectRatio="xMidYMid meet"
        viewBox="0 0 121 40"
        version="1.1"
        id="svg5"
        xmlns="http://www.w3.org/2000/svg">
    <g
            id="layer1">
        <g
                aria-label="mutuals"
                id="text1353">
            <path
                    d="m 10.526325,11.789484 c 3.452635,0 5.010531,1.052633 5.010531,3.663161 h 4.589478 c -0.0421,-5.01053 -3.157898,-7.3263219 -9.600009,-7.3263219 -6.3157949,0 -9.68421895,2.6105289 -9.68421895,6.9052689 0,3.873688 2.40000215,5.894743 7.62105945,6.610533 l 3.1578975,0.421053 c 3.326319,0.463158 4.252635,1.178948 4.252635,3.157897 0,2.231581 -1.600001,3.157898 -5.136846,3.157898 -3.8736879,0 -5.6842159,-1.263159 -5.6842159,-4.336846 H 0.33684244 c 0,5.726321 3.66316116,8.000007 10.40000956,8.000007 6.863164,0 9.978956,-2.652634 9.978956,-7.073691 0,-4.29474 -2.021054,-6.147373 -7.873691,-6.947374 L 9.7263245,17.600016 C 6.5263217,17.136857 5.6421103,16.463173 5.6421103,14.610539 c 0,-1.852633 1.389475,-2.821055 4.8842147,-2.821055 z"
                    id="path1644"/>
            <path
                    d="m 38.73691,32.042134 c 6.442111,0 9.936851,-4.12632 9.936851,-11.9158 0,-7.831586 -3.49474,-12.0000109 -9.936851,-12.0000109 -3.410529,0 -6.105269,1.6421067 -7.747375,4.4631619 V 8.6315867 H 26.021109 V 40.000036 h 4.968426 V 27.621077 c 1.642106,2.77895 4.336846,4.421057 7.747375,4.421057 z M 37.38954,28.04213 c -4.252635,0 -6.400005,-2.610528 -6.400005,-7.915796 0,-5.347373 2.14737,-8.000007 6.400005,-8.000007 4.168425,0 6.147374,2.484212 6.147374,8.000007 0,5.389478 -1.978949,7.915796 -6.147374,7.915796 z"
                    id="path1646"/>
            <path
                    d="M 59.410582,31.578976 V 0 h -4.968426 v 31.578976 z"
                    id="path1648"/>
            <path
                    d="m 71.579015,0 h -5.094742 v 4.9263202 h 5.094742 z m -0.04211,8.6315867 H 66.568484 V 31.578976 h 4.968425 z"
                    id="path1650"/>
            <path
                    d="m 81.01061,27.031603 c 0,2.736845 1.810528,4.547373 4.547373,4.547373 h 7.578954 v -4.042109 h -5.810531 c -0.842106,0 -1.305265,-0.463159 -1.305265,-1.305265 V 12.63159 h 7.115796 V 8.6315867 H 86.021141 V 2.652634 H 82.063243 L 81.263242,8.6315867 H 75.326395 V 12.63159 h 5.684215 z"
                    id="path1652"/>
            <path
                    d="M 94.821205,8.6315867 V 12.63159 h 5.600005 v 18.947386 h 4.96843 V 12.63159 h 7.11579 V 8.6315867 h -7.11579 V 5.3473732 c 0,-0.9684219 0.50526,-1.4736855 1.43158,-1.4736855 h 7.03158 V 0 h -7.74737 c -3.41053,0 -5.68422,2.2736862 -5.68422,5.6842156 V 8.6315867 Z M 121.64228,0 h -5.09474 v 4.9263202 h 5.09474 z m -0.0421,8.6315867 h -4.96843 V 31.578976 h 4.96843 z"
                    id="path1654"/>
        </g>
    </g>
</svg>
