<?xml version="1.0" encoding="UTF-8" standalone="no"?>
<svg
        width="100%"
        height="100%"
        preserveAspectRatio="xMidYMid meet"
        viewBox="0 0 114 137"
        version="1.1"
        xmlns="http://www.w3.org/2000/svg"
>
    <defs>
        <linearGradient id="lgrad" x1="66.66%" y1="66.66%" x2="100%" y2="82%">
            <stop offset="0" stop-color="white" />
            <stop offset="01" stop-color="black" />
        </linearGradient>
        <mask id="splitfi-logo-mask" x="0" y="0" width="100%" height="100%">
            <rect x="0" y="0" width="100%" height="100%" fill="url(#lgrad)" />
        </mask>
    </defs>
    <g mask="url(#splitfi-logo-mask)">
        <path
                d="m 50.44727,136.25786 c -0.61918,-0.14705 -1.19929,-0.35756 -1.43444,-0.52051 -0.21714,-0.15048 -0.44631,-0.27361 -0.50925,-0.27361 -0.14596,0 -1.72627,-1.53495 -1.72627,-1.67673 0,-0.0584 -0.11065,-0.24082 -0.2459,-0.40536 -0.13525,-0.16454 -0.39718,-0.73731 -0.58208,-1.27284 l -0.33618,-0.97367 -0.002,-17.28258 c -0.001,-10.9203 -0.041,-17.55138 -0.10764,-18.01277 C 45.44551,95.43818 45.3294,94.98574 45.2456,94.83437 45.1618,94.683 44.99599,94.35292 44.87711,94.10086 44.75824,93.84879 44.48233,93.42199 44.26399,93.1524 43.58711,92.31666 43.25122,92.05168 41.89827,91.28615 41.7468,91.20045 41.1639,91.05646 40.60295,90.9662 39.7135,90.82307 37.44718,90.80151 22.88668,90.79766 L 6.19033,90.79366 5.02616,90.55115 C 4.2282,90.38492 3.73251,90.21986 3.45035,90.02639 3.22395,89.87116 2.98244,89.74415 2.91366,89.74415 2.7375,89.74415 1.40015,88.40661 1.21145,88.0417 1.12535,87.8753 0.93648,87.56451 0.79162,87.35105 0.64677,87.13759 0.52724,86.86244 0.52601,86.73959 0.52501,86.61674 0.40593,86.18286 0.26189,85.7754 L 0,85.03457 8.9e-4,68.20707 0.00178,51.37957 0.26501,50.55533 c 0.14478,-0.45333 0.26324,-0.89977 0.26324,-0.99207 0,-0.18474 0.71434,-1.34097 1.03559,-1.67619 0.11157,-0.11642 0.25925,-0.31882 0.32818,-0.44979 0.0689,-0.13097 0.18772,-0.23813 0.26396,-0.23813 0.0763,0 0.22935,-0.10098 0.34024,-0.2244 0.11089,-0.12342 0.46355,-0.35545 0.78369,-0.51562 0.32015,-0.16017 0.74877,-0.38066 0.9525,-0.48998 0.35699,-0.19154 1.01905,-0.2008 18.25625,-0.25541 l 17.88584,-0.0567 0.95222,-0.3473 c 1.01282,-0.36939 1.79744,-0.84082 2.34971,-1.4118 0.65414,-0.6763 1.05349,-1.20027 1.1944,-1.56715 0.0782,-0.20373 0.2101,-0.45028 0.293,-0.54789 0.0829,-0.0976 0.20387,-0.35955 0.26882,-0.58208 0.0838,-0.28715 0.13486,-5.60011 0.17581,-18.30067 0.043,-13.3277796 0.089,-17.9339696 0.18025,-18.0445796 0.0674,-0.0817 0.19195,-0.41047 0.27676,-0.73061 0.15082,-0.5693 0.66764,-1.4543 1.19079,-2.03912 0.14409,-0.16108 0.26199,-0.32885 0.26199,-0.37281 0,-0.044 0.16668,-0.16971 0.37041,-0.27942 0.20373,-0.10972 0.37042,-0.23459 0.37042,-0.2775 0,-0.0429 0.4061,-0.27919996 0.90245,-0.52506996 0.66751,-0.33067 1.10146,-0.47013 1.66688,-0.53567 1.17428,-0.13613 57.19668,-0.12226 58.28679,0.0144 0.4928,0.0618 1.01542,0.17828 1.1614,0.25886 0.14596,0.0806 0.50352,0.26113 0.79456,0.40123 0.78455,0.37766996 2.0463,1.59593996 2.33948,2.25885996 0.13264,0.29992 0.29154,0.5621 0.35312,0.58263 0.0616,0.0205 0.19358,0.3707 0.29332,0.77816 0.16669,0.68091 0.18402,2.11482 0.21437,17.7270796 0.029,14.9435 0.0132,17.11978 -0.13174,18.09661 -0.12125,0.81702 -0.23287,1.20862 -0.42254,1.48231 -0.14178,0.20458 -0.31053,0.52331 -0.37501,0.70829 -0.0645,0.18498 -0.23275,0.412 -0.37391,0.5045 -0.14117,0.0925 -0.25667,0.23729 -0.25667,0.32176 0,0.0845 -0.14147,0.22675 -0.31437,0.31616 -0.1729,0.0894 -0.36507,0.25732 -0.42705,0.37313 -0.062,0.11582 -0.17531,0.21058 -0.25184,0.21058 -0.0765,0 -0.33491,0.1418 -0.57415,0.31511 -0.31848,0.2307 -0.79362,0.40082 -1.77353,0.635 l -1.3385,0.31989 -28.6959,0.002 c -31.12061,0.002 -29.61141,-0.0263 -30.49127,0.57083 -0.22207,0.1507 -0.46092,0.274 -0.53078,0.274 -0.13683,0 -1.50286,1.33528 -1.99689,1.95193 -0.16575,0.20689 -0.36441,0.58565 -0.44147,0.84169 -0.077,0.25604 -0.22719,0.62518 -0.33363,0.82032 -0.18534,0.33978 -0.19354,1.11674 -0.19354,18.35113 0,16.30109 0.0159,18.02081 0.16897,18.25625 0.0929,0.14296 0.25032,0.50629 0.34975,0.80741 0.0994,0.30111 0.25311,0.60749 0.34149,0.68083 0.0884,0.0734 0.25079,0.31 0.36094,0.52589 0.21369,0.41888 1.11525,1.27413 1.63118,1.5474 0.17178,0.091 0.3771,0.23021 0.45628,0.30938 0.0792,0.0792 0.41488,0.22041 0.74601,0.31385 0.33113,0.0934 0.80612,0.23679 1.05554,0.31857 0.38185,0.12519 3.1436,0.14868 17.4813,0.14868 11.09072,0 17.31646,0.038 17.85568,0.10914 1.4659,0.19327 2.97813,1.12757 4.03121,2.49061 0.54063,0.69977 0.98552,1.77525 1.09165,2.639 0.0654,0.53251 0.0929,7.26717 0.0741,18.15041 l -0.0299,17.30375 -0.42045,0.84667 c -0.23125,0.46567 -0.58059,1.06098 -0.77631,1.32292 -0.36082,0.48288 -1.44495,1.48166 -1.60827,1.48166 -0.049,0 -0.22599,0.11515 -0.39325,0.25589 -0.19741,0.16611 -0.69221,0.35171 -1.41041,0.52905 l -1.10631,0.27318 -16.88042,-0.009 -16.88041,-0.009 -1.03963,-0.24692 z"
        />
    </g>

</svg>
