<?xml version="1.0" encoding="UTF-8" standalone="no"?>
<svg
   width="451.58899"
   height="130"
   viewBox="0 0 451.58899 130"
   version="1.1"
   id="svg1109"
   sodipodi:docname="mutuals-logo.svg"
   inkscape:version="1.2.1 (9c6d41e410, 2022-07-14)"
   xmlns:inkscape="http://www.inkscape.org/namespaces/inkscape"
   xmlns:sodipodi="http://sodipodi.sourceforge.net/DTD/sodipodi-0.dtd"
   xmlns="http://www.w3.org/2000/svg"
   xmlns:svg="http://www.w3.org/2000/svg">
  <defs
     id="defs1113" />
  <sodipodi:namedview
     id="namedview1111"
     pagecolor="#ffffff"
     bordercolor="#000000"
     borderopacity="0.25"
     inkscape:showpageshadow="2"
     inkscape:pageopacity="0.0"
     inkscape:pagecheckerboard="0"
     inkscape:deskcolor="#d1d1d1"
     showgrid="false"
     inkscape:zoom="0.80652799"
     inkscape:cx="148.16597"
     inkscape:cy="-112.20937"
     inkscape:window-width="1728"
     inkscape:window-height="992"
     inkscape:window-x="-8"
     inkscape:window-y="-8"
     inkscape:window-maximized="1"
     inkscape:current-layer="text2295" />
  <path
     fill="currentColor"
     d="m 305.02956,129.74815 c -0.5896,-0.14002 -1.142,-0.34048 -1.36592,-0.49564 -0.20676,-0.14329 -0.42498,-0.26054 -0.48492,-0.26054 -0.13898,0 -1.6438,-1.46162 -1.6438,-1.59662 0,-0.0556 -0.10536,-0.22932 -0.23415,-0.386 -0.12879,-0.15668 -0.3782,-0.70208 -0.55427,-1.21203 l -0.32012,-0.92715 -0.002,-16.4569 c -9.5e-4,-10.39859 -0.039,-16.712871 -0.1025,-17.152218 -0.0552,-0.382424 -0.16579,-0.813248 -0.24558,-0.957386 -0.0798,-0.144139 -0.23769,-0.458449 -0.35089,-0.698467 -0.11319,-0.240027 -0.37592,-0.646437 -0.58383,-0.903148 -0.64454,-0.795812 -0.96438,-1.048133 -2.2527,-1.777089 -0.14423,-0.0816 -0.69928,-0.218717 -1.23344,-0.304665 -0.84695,-0.136292 -3.005,-0.156822 -16.86988,-0.160488 l -15.8987,-0.0038 -1.10855,-0.230923 c -0.75984,-0.15829 -1.23185,-0.315463 -1.50053,-0.499691 -0.21559,-0.147814 -0.44556,-0.268755 -0.51105,-0.268755 -0.16775,0 -1.4412,-1.27364 -1.62089,-1.621116 -0.082,-0.158451 -0.26183,-0.454392 -0.39977,-0.657655 -0.13793,-0.203261 -0.25175,-0.465266 -0.25292,-0.582247 -9.6e-4,-0.116981 -0.11435,-0.530132 -0.2515,-0.918126 l -0.24938,-0.705436 8.4e-4,-16.023568 8.5e-4,-16.023568 0.25066,-0.784862 c 0.13786,-0.431672 0.25066,-0.856784 0.25066,-0.944673 0,-0.175915 0.68021,-1.276906 0.98612,-1.596111 0.10624,-0.110858 0.24686,-0.303588 0.3125,-0.428302 0.0656,-0.124712 0.17875,-0.226752 0.25135,-0.226752 0.0727,0 0.21839,-0.09616 0.32398,-0.21368 0.10559,-0.117523 0.44141,-0.338468 0.74625,-0.490986 0.30486,-0.152518 0.713,-0.362475 0.907,-0.466572 0.33993,-0.182388 0.97036,-0.191206 17.38407,-0.243207 l 17.03135,-0.05399 0.90673,-0.330709 c 0.96444,-0.351742 1.71157,-0.800649 2.23746,-1.34435 0.62289,-0.64399 1.00316,-1.142928 1.13733,-1.49228 0.0745,-0.193997 0.20007,-0.428768 0.27901,-0.521714 0.0789,-0.09293 0.19413,-0.342373 0.25598,-0.554272 0.0798,-0.273431 0.12841,-5.332565 0.16741,-17.426356 0.041,-12.6910468 0.0847,-17.0771765 0.17163,-17.1825021 0.0642,-0.077796 0.18278,-0.3908598 0.26354,-0.6957052 0.14362,-0.5421017 0.63575,-1.3848209 1.1339,-1.9417011 0.13721,-0.1533845 0.24948,-0.3131393 0.24948,-0.3549991 0,-0.041898 0.15871,-0.1616021 0.35271,-0.2660707 0.194,-0.1044782 0.35272,-0.2233825 0.35272,-0.2642424 0,-0.04085 0.3867,-0.26586129 0.85934,-0.49998487 0.63562,-0.31487226 1.04884,-0.44766957 1.58725,-0.5100784 1.11818,-0.12962641 54.46415,-0.11641904 55.50218,0.01371204 0.46925,0.0588475 0.96691,0.16976268 1.10592,0.24649298 0.13898,0.0767493 0.47946,0.24865453 0.75659,0.38206127 0.74707,0.35962688 1.94854,1.51969408 2.22771,2.15094308 0.12631,0.2855913 0.27762,0.5352457 0.33625,0.5547949 0.0587,0.01952 0.18434,0.3529899 0.27932,0.7409835 0.15872,0.6483796 0.17522,2.0137847 0.20412,16.8801701 0.0276,14.229575 0.0126,16.301884 -0.12545,17.232046 -0.11546,0.777987 -0.22174,1.150878 -0.40234,1.411492 -0.13501,0.194806 -0.29571,0.49831 -0.3571,0.674452 -0.0614,0.176143 -0.22163,0.392316 -0.35605,0.480397 -0.13442,0.08808 -0.24441,0.225954 -0.24441,0.306388 0,0.08047 -0.13471,0.215917 -0.29934,0.301056 -0.16465,0.08513 -0.34763,0.245027 -0.40665,0.355304 -0.0591,0.110286 -0.16694,0.200519 -0.23981,0.200519 -0.0728,0 -0.31891,0.135025 -0.54672,0.300056 -0.30327,0.219678 -0.75571,0.381671 -1.68881,0.604663 l -1.27454,0.304607 -27.32498,0.0019 c -29.63385,0.0019 -28.19675,-0.02504 -29.03458,0.543558 -0.21146,0.143501 -0.4389,0.26091 -0.50542,0.26091 -0.13029,0 -1.43106,1.271487 -1.90149,1.858676 -0.15783,0.197007 -0.347,0.557671 -0.42038,0.801479 -0.0733,0.243808 -0.21633,0.595312 -0.31769,0.781129 -0.17648,0.323547 -0.18429,1.063388 -0.18429,17.474406 0,15.522307 0.0151,17.159868 0.1609,17.384059 0.0885,0.136131 0.23836,0.482103 0.33304,0.768837 0.0947,0.286724 0.24101,0.578467 0.32517,0.648303 0.0842,0.06989 0.23881,0.29519 0.3437,0.500766 0.20348,0.398868 1.06197,1.213258 1.55325,1.473473 0.16357,0.08665 0.35908,0.219212 0.43448,0.294599 0.0754,0.07542 0.39506,0.209881 0.71037,0.298856 0.31531,0.08894 0.76761,0.225477 1.00511,0.303351 0.36361,0.119209 2.99342,0.141576 16.64615,0.141576 10.56087,0 16.48918,0.03619 17.00264,0.103926 1.39586,0.184037 2.83585,1.0737 3.83862,2.371622 0.5148,0.666338 0.93843,1.690437 1.03949,2.512921 0.0623,0.50707 0.0885,6.919982 0.0706,17.283271 l -0.0285,16.47706 -0.40036,0.80623 c -0.2202,0.44342 -0.55285,1.01029 -0.73922,1.25972 -0.34359,0.4598 -1.37592,1.41086 -1.53144,1.41086 -0.0466,0 -0.21519,0.10966 -0.37446,0.24367 -0.18798,0.15818 -0.65914,0.33491 -1.34303,0.50378 l -1.05336,0.2601 -16.07397,-0.009 -16.07396,-0.009 -0.98997,-0.23512 z"
     id="path1107"
     style="stroke-width:0.952225" />
  <g
     aria-label="split"
     id="text2295"
     style="font-size:160px;font-family:'Tw Cen MT';-inkscape-font-specification:'Tw Cen MT, Normal'"
     transform="matrix(0.9875378,0,0,0.98753713,261.6898,0)">
    <path
       d="m -221.00781,44.609375 -9.0625,7.96875 q -3.51563,-2.5 -6.09375,-3.75 Q -238.74219,47.5 -242.25781,47.5 q -8.28125,0 -8.28125,6.09375 0,4.375 10.46875,8.515625 10.54687,4.0625 15.15625,8.984375 4.60937,4.921875 4.60937,11.875 0,8.125 -6.64062,14.21875 -6.64063,6.01563 -15.625,6.01563 -13.67188,0 -22.42188,-12.656255 l 10.70313,-5.15625 q 5.625,5.46875 11.71875,5.46875 4.21875,0 7.34375,-2.265625 3.20312,-2.34375 3.20312,-5.390625 0,-5.390625 -11.09375,-9.6875 -11.09375,-4.296875 -15.39062,-8.671875 -4.21875,-4.453125 -4.21875,-10.9375 0,-8.046875 6.01562,-13.359375 6.09375,-5.390625 15.23438,-5.390625 9.14062,0 20.46875,9.453125 z"
       id="path2301" />
    <path
       d="m -191.39844,36.953125 v 12.96875 0 q 9.76563,-14.765625 25,-14.765625 12.5,0 21.48438,10 9.0625,9.921875 9.0625,23.75 0,13.984375 -9.14063,24.140625 -9.14062,10.156255 -21.5625,10.156255 -7.1875,0 -13.82812,-3.750005 -6.5625,-3.75 -10.85938,-10.859375 v 0 43.04687 h -13.59375 V 36.953125 Z m 41.32813,31.953125 q 0,-8.515625 -6.40625,-14.84375 -6.40625,-6.40625 -15.07813,-6.40625 -8.82812,0 -15.3125,6.328125 -6.40625,6.328125 -6.40625,14.921875 0,8.828125 6.32813,15.3125 6.40625,6.484375 15.07812,6.484375 8.98438,0 15.39063,-6.40625 6.40625,-6.40625 6.40625,-15.390625 z"
       id="path2303" />
    <path
       d="m -116.39844,0 h 13.59375 v 101.40625 h -13.59375 z"
       id="path2305" />
    <path
       d="m -85.773437,15.78125 q 0,-4.21875 3.125,-7.265625 3.125,-3.125 7.421875,-3.125 4.21875,0 7.265625,3.125 3.125,3.046875 3.125,7.265625 0,4.296875 -3.125,7.34375 -3.046875,3.046875 -7.265625,3.046875 -4.296875,0 -7.421875,-3.046875 -3.125,-3.046875 -3.125,-7.34375 z m 3.828125,21.171875 h 13.4375 v 64.453125 h -13.4375 z"
       id="path2307" />
    <path
       d="m -43.820312,0 h 13.59375 v 16.700722 h 13.4375 v 12.421875 h -13.4375 v 72.283653 h -13.59375 V 29.122597 H -54.523437 V 16.544472 h 10.703125 z"
       id="path2309"
       sodipodi:nodetypes="ccccccccccccc" />
  </g>
  <g
     aria-label="fi"
     id="text2299"
     style="font-size:160px;font-family:'Tw Cen MT';-inkscape-font-specification:'Tw Cen MT, Normal'"
     transform="matrix(0.98239342,0,0,0.98239275,253.20675,-1.3433264e-7)">
    <path
       d="M 169.12518,3.3593674 V 17.109367 q -5.9375,-3.984375 -10.23437,-3.984375 -3.59375,0 -5.625,2.65625 -2.03125,2.65625 -2.03125,7.421875 v 16.171875 h 17.89062 V 51.796867 H 151.23456 V 103.82812 H 137.64081 V 51.796867 h -11.875 V 39.374992 h 11.875 V 24.140617 q 0,-11.015625 5.625,-17.5781246 5.70312,-6.5625000293945 15.15625,-6.5625000293945 4.6875,0 10.70312,3.3593750293945 z"
       id="path2312" />
    <path
       d="m 181.00018,18.203117 q 0,-4.21875 3.125,-7.265625 3.125,-3.1249996 7.42188,-3.1249996 4.21875,0 7.26562,3.1249996 3.125,3.046875 3.125,7.265625 0,4.296875 -3.125,7.34375 -3.04687,3.046875 -7.26562,3.046875 -4.29688,0 -7.42188,-3.046875 -3.125,-3.046875 -3.125,-7.34375 z m 3.82813,21.171875 h 13.4375 v 64.453128 h -13.4375 z"
       id="path2314" />
  </g>
</svg>
