<?xml version="1.0" encoding="UTF-8" standalone="no"?>

<svg
        width="100%"
        height="100%"
        preserveAspectRatio="xMidYMid meet"
        viewBox="0 0 163 40"
        version="1.1"
        xmlns="http://www.w3.org/2000/svg">
    <g
            id="layer1">
        <g
                aria-label="mutuals"
        >
            <path
                    d="m 10.189483,11.789484 c 3.452635,0 5.010531,1.052633 5.010531,3.663161 h 4.589477 c -0.04211,-5.01053 -3.157897,-7.3263219 -9.600008,-7.3263219 -6.3157953,0 -9.68421937,2.6105289 -9.68421937,6.9052689 0,3.873688 2.40000217,5.894743 7.62105947,6.610533 l 3.1578979,0.421053 c 3.326318,0.463158 4.252635,1.178948 4.252635,3.157897 0,2.231581 -1.600001,3.157898 -5.136847,3.157898 -3.8736873,0 -5.6842153,-1.263159 -5.6842153,-4.336846 H 1.8119812e-8 C 1.8119812e-8,29.768448 3.6631612,32.042134 10.400009,32.042134 c 6.863164,0 9.978957,-2.652634 9.978957,-7.073691 0,-4.29474 -2.021055,-6.147373 -7.873692,-6.947374 L 9.3894821,17.600016 C 6.1894793,17.136857 5.3052679,16.463173 5.3052679,14.610539 c 0,-1.852633 1.389475,-2.821055 4.8842151,-2.821055 z"
                    id="path1024"/>
            <path
                    d="m 38.400067,32.042134 c 6.442112,0 9.936852,-4.12632 9.936852,-11.9158 0,-7.831586 -3.49474,-12.0000109 -9.936852,-12.0000109 -3.410529,0 -6.105268,1.6421067 -7.747375,4.4631619 V 8.6315867 H 25.684267 V 40.000036 h 4.968425 V 27.621077 c 1.642107,2.77895 4.336846,4.421057 7.747375,4.421057 z M 37.052698,28.04213 c -4.252636,0 -6.400006,-2.610528 -6.400006,-7.915796 0,-5.347373 2.14737,-8.000007 6.400006,-8.000007 4.168425,0 6.147374,2.484212 6.147374,8.000007 0,5.389478 -1.978949,7.915796 -6.147374,7.915796 z"
                    id="path1026"/>
            <path
                    d="M 59.073739,31.578976 V 0 h -4.968425 v 31.578976 z"
                    id="path1028"/>
            <path
                    d="m 71.242172,0 h -5.094741 v 4.9263202 h 5.094741 z m -0.0421,8.6315867 H 66.231641 V 31.578976 h 4.968426 z"
                    id="path1030"/>
            <path
                    d="m 80.673768,27.031603 c 0,2.736845 1.810528,4.547373 4.547373,4.547373 h 7.578954 v -4.042109 h -5.810532 c -0.842106,0 -1.305264,-0.463159 -1.305264,-1.305265 V 12.63159 h 7.115796 V 8.6315867 H 85.684299 V 2.652634 H 81.726401 L 80.9264,8.6315867 H 74.989552 V 12.63159 h 5.684216 z"
                    id="path1032"/>
            <path
                    d="M 136.153,8.6315867 V 12.63159 h 5.6 v 18.947386 h 4.96843 V 12.63159 h 7.11579 V 8.6315867 h -7.11579 V 5.3473732 c 0,-0.9684219 0.50526,-1.4736855 1.43158,-1.4736855 h 7.03158 V 0 h -7.74737 C 144.02669,0 141.753,2.2736862 141.753,5.6842156 V 8.6315867 Z M 162.97407,0 h -5.09474 v 4.9263202 h 5.09474 z m -0.0421,8.6315867 h -4.96843 V 31.578976 h 4.96843 z"
            />
        </g>
        <path
                fill="currentColor"
                d="m 113.27243,39.922463 c -0.18061,-0.0431 -0.3498,-0.104756 -0.4184,-0.152505 -0.0633,-0.0441 -0.13019,-0.08016 -0.14853,-0.08016 -0.0425,0 -0.50351,-0.449728 -0.50351,-0.491269 0,-0.0171 -0.0323,-0.07056 -0.0717,-0.118766 -0.0394,-0.0482 -0.11584,-0.216026 -0.16977,-0.372934 l -0.098,-0.285278 -5.7e-4,-5.063662 c -3e-4,-3.199564 -0.0119,-5.14242 -0.0314,-5.277602 -0.0169,-0.117669 -0.0509,-0.250231 -0.0751,-0.294581 -0.0245,-0.04435 -0.0728,-0.141062 -0.1075,-0.214913 -0.0347,-0.07385 -0.11513,-0.198903 -0.17882,-0.277892 -0.19742,-0.244865 -0.2954,-0.322502 -0.69001,-0.546796 -0.0443,-0.0251 -0.21419,-0.0673 -0.37781,-0.09374 -0.25943,-0.04194 -0.92046,-0.04825 -5.16735,-0.04938 l -4.86987,-0.0011 -0.33956,-0.07105 c -0.232742,-0.0487 -0.377316,-0.09706 -0.459621,-0.153751 -0.066,-0.04549 -0.136469,-0.0827 -0.156539,-0.0827 -0.05139,0 -0.441445,-0.391888 -0.496482,-0.498805 -0.0251,-0.0487 -0.08019,-0.139777 -0.122448,-0.20232 -0.04226,-0.06254 -0.0771,-0.143159 -0.07749,-0.179153 -2.9e-4,-0.03599 -0.03503,-0.163117 -0.07703,-0.2825 l -0.07657,-0.217137 2.59e-4,-4.930328 2.6e-4,-4.930328 0.07678,-0.241496 c 0.04223,-0.132823 0.07678,-0.263626 0.07678,-0.290669 0,-0.05413 0.208352,-0.392894 0.302053,-0.49111 0.03254,-0.03411 0.07561,-0.09342 0.09572,-0.131786 0.0201,-0.03837 0.05475,-0.06977 0.07699,-0.06977 0.02226,0 0.0669,-0.02959 0.09923,-0.06574 0.03234,-0.03617 0.135202,-0.104149 0.228585,-0.151073 0.09338,-0.04693 0.218391,-0.111531 0.277817,-0.14356 0.104119,-0.05612 0.297216,-0.05883 5.324846,-0.07484 l 5.21682,-0.01661 0.27773,-0.101756 c 0.29541,-0.108224 0.52426,-0.246354 0.68535,-0.413647 0.19078,-0.198151 0.30727,-0.351669 0.34836,-0.459162 0.0229,-0.05969 0.0613,-0.131929 0.0854,-0.160528 0.0243,-0.02859 0.0594,-0.105344 0.0784,-0.170545 0.0245,-0.08413 0.0393,-1.64079 0.0512,-5.3619555 0.0125,-3.9049375 0.026,-5.2545156 0.0526,-5.2869229 0.0196,-0.023941 0.0561,-0.120265 0.0808,-0.2140639 0.044,-0.1668003 0.19475,-0.42609814 0.34733,-0.59744634 0.042,-0.047196 0.0764,-0.096353 0.0764,-0.1092312 0,-0.01289 0.0486,-0.049721 0.10805,-0.081869 0.0594,-0.032147 0.10803,-0.068735 0.10803,-0.081303 0,-0.012569 0.11845,-0.081802 0.26322,-0.1538417 0.19469,-0.096884 0.32126,-0.1377438 0.48618,-0.1569469 0.3425,-0.039888 16.68269,-0.035823 17.00065,0.00421 0.14374,0.018106 0.29617,0.052235 0.33875,0.075844 0.0425,0.02362 0.14685,0.076509 0.23175,0.1175574 0.22884,0.1106487 0.59686,0.4675981 0.68236,0.6618279 0.0388,0.08787 0.085,0.16469184 0.10295,0.17070704 0.0179,0.00598 0.0564,0.1086112 0.0856,0.2279947 0.0486,0.199501 0.0537,0.6196259 0.0626,5.1938981 0.009,4.3783303 0.004,5.0159643 -0.0384,5.3021683 -0.0354,0.239379 -0.0678,0.354115 -0.12325,0.434305 -0.0413,0.05994 -0.0906,0.153325 -0.10936,0.207523 -0.0189,0.05419 -0.0678,0.120713 -0.10902,0.147815 -0.0412,0.0271 -0.0749,0.06952 -0.0749,0.09427 0,0.02476 -0.0412,0.06643 -0.0917,0.09263 -0.0504,0.02619 -0.1065,0.07539 -0.12457,0.10932 -0.0181,0.03393 -0.0511,0.0617 -0.0735,0.0617 -0.0223,0 -0.0977,0.04155 -0.16746,0.09232 -0.0929,0.06759 -0.23147,0.117437 -0.51729,0.18605 l -0.3904,0.09373 -8.36981,5.87e-4 c -9.07702,5.85e-4 -8.63682,-0.0078 -8.89346,0.167246 -0.0648,0.04415 -0.13443,0.08029 -0.15483,0.08029 -0.0399,0 -0.43833,0.391228 -0.58243,0.5719 -0.0483,0.06062 -0.10626,0.171593 -0.12877,0.246609 -0.0225,0.07501 -0.0663,0.183173 -0.0973,0.240349 -0.0541,0.09955 -0.0564,0.327195 -0.0564,5.37674 0,4.776093 0.004,5.279958 0.0492,5.34894 0.027,0.0419 0.073,0.148339 0.10197,0.236564 0.029,0.08823 0.0738,0.177992 0.0997,0.199478 0.0258,0.02151 0.0731,0.09083 0.10526,0.154082 0.0623,0.12273 0.3253,0.373312 0.47578,0.453376 0.0502,0.02667 0.11002,0.06745 0.13309,0.09065 0.023,0.02321 0.121,0.06458 0.21759,0.09196 0.0966,0.02736 0.23512,0.06938 0.30787,0.09334 0.11137,0.03669 0.9169,0.04356 5.09881,0.04356 3.23486,0 5.05073,0.01113 5.20802,0.03198 0.42757,0.05663 0.86863,0.330368 1.17578,0.729729 0.15769,0.205027 0.28745,0.520135 0.31842,0.773207 0.019,0.156021 0.027,2.129225 0.0216,5.31793 l -0.009,5.069866 -0.12264,0.248069 c -0.0675,0.136436 -0.16934,0.310857 -0.22643,0.387605 -0.10528,0.14148 -0.42145,0.434115 -0.46909,0.434115 -0.0144,0 -0.0658,0.03374 -0.1147,0.07496 -0.0576,0.04867 -0.2019,0.103052 -0.41137,0.155008 l -0.32266,0.08001 -4.92357,-0.0027 -4.92355,-0.0027 -0.30324,-0.07234 z"
        />
    </g>
</svg>
