<svg
  width="100%"
  height="100%"
  preserveAspectRatio="xMidYMid meet"
  viewBox="0 0 4893 1964"
  xmlns="http://www.w3.org/2000/svg" xmlns:xlink="http://www.w3.org/1999/xlink"
  xml:space="preserve" overflow="hidden"><defs><clipPath id="clip0"><rect x="327" y="258" width="4893" height="1964"/></clipPath></defs>
  <g clip-path="url(#clip0)" transform="translate(-327 -258)"><path d="M0-3.4375 27.5-3.4375 27.5 3.4375 0 3.4375ZM48.125-3.4375 75.625-3.4375 75.625 3.4375 48.125 3.4375ZM96.25-3.4375 123.75-3.4375 123.75 3.4375 96.25 3.4375ZM144.375-3.4375 171.875-3.4375 171.875 3.4375 144.375 3.4375ZM192.5-3.4375 220-3.4375 220 3.4375 192.5 3.4375ZM240.625-3.4375 268.125-3.4375 268.125 3.4375 240.625 3.4375ZM288.75-3.4375 316.25-3.4375 316.25 3.4375 288.75 3.4375ZM336.875-3.4375 364.375-3.4375 364.375 3.4375 336.875 3.4375ZM385-3.4375 412.5-3.4375 412.5 3.4375 385 3.4375ZM433.125-3.4375 460.625-3.4375 460.625 3.4375 433.125 3.4375ZM481.25-3.4375 508.75-3.4375 508.75 3.4375 481.25 3.4375ZM529.375-3.4375 556.875-3.4375 556.875 3.4375 529.375 3.4375ZM577.5-3.4375 605-3.4375 605 3.4375 577.5 3.4375ZM625.625-3.4375 653.125-3.4375 653.125 3.4375 625.625 3.4375ZM673.75-3.4375 701.25-3.4375 701.25 3.4375 673.75 3.4375ZM721.875-3.4375 749.375-3.4375 749.375 3.4375 721.875 3.4375ZM770-3.4375 797.5-3.4375 797.5 3.4375 770 3.4375ZM818.125-3.4375 845.625-3.4375 845.625 3.4375 818.125 3.4375ZM866.25-3.4375 893.75-3.4375 893.75 3.4375 866.25 3.4375ZM905.886 11.9268 905.886 39.4268 899.011 39.4268 899.011 11.9268ZM905.886 60.0518 905.886 87.5518 899.011 87.5518 899.011 60.0518ZM905.886 108.177 905.886 135.677 899.011 135.677 899.011 108.177ZM905.886 156.302 905.886 183.802 899.011 183.802 899.011 156.302ZM905.886 204.427 905.886 217.467 899.011 217.467 899.011 204.427ZM928.37 177.886 902.448 224.545 876.527 177.886C875.605 176.227 876.203 174.134 877.862 173.212 879.522 172.29 881.614 172.888 882.536 174.548L905.453 215.798 899.443 215.798 922.36 174.548C923.282 172.888 925.375 172.29 927.034 173.212 928.694 174.134 929.292 176.227 928.37 177.886Z" fill="#D9D9D9" transform="matrix(1.83697e-16 1 1 -1.83697e-16 626.5 569.5)"/>
    <path
      d="M327 309.834C327 281.207 350.207 258 378.834 258L872.166 258C900.793 258 924 281.207 924 309.834L924 517.166C924 545.793 900.793 569 872.166 569L378.834 569C350.207 569 327 545.793 327 517.166Z"
      fill="#F2F2F2" fill-rule="evenodd"/>
    <text font-family="Aptos,Aptos_MSFontService,sans-serif" font-weight="400" font-size="73"
          transform="matrix(1 0 0 1 555.627 437)">Pool</text>
    <path
      d="M1474 819.001C1474 790.282 1497.28 767 1526 767L2020 767C2048.72 767 2072 790.282 2072 819.001L2072 1027C2072 1055.72 2048.72 1079 2020 1079L1526 1079C1497.28 1079 1474 1055.72 1474 1027Z"
      fill="#F2F2F2" fill-rule="evenodd"/>
    <text font-family="Aptos,Aptos_MSFontService,sans-serif" font-weight="400" font-size="73"
          transform="matrix(1 0 0 1 1530.91 947)">doe@mail.com</text>
    <path d="M850 1472 928 1316 1370 1316 1448 1472 1370 1628 928 1628Z" fill="#F2F2F2" fill-rule="evenodd"/>
    <text font-family="Aptos,Aptos_MSFontService,sans-serif" font-weight="400" font-size="73"
          transform="matrix(1 0 0 1 1049.48 1496)">Group</text>
    <path
      d="M2421 1851C2421 1822.28 2444.28 1799 2473 1799L2967 1799C2995.72 1799 3019 1822.28 3019 1851L3019 2059C3019 2087.72 2995.72 2111 2967 2111L2473 2111C2444.28 2111 2421 2087.72 2421 2059Z"
      fill="#F2F2F2" fill-rule="evenodd"/>
    <text font-family="Aptos,Aptos_MSFontService,sans-serif" font-weight="400" font-size="73"
          transform="matrix(1 0 0 1 2570.82 1979)">555</text>
    <text font-family="Aptos,Aptos_MSFontService,sans-serif" font-weight="400" font-size="73"
          transform="matrix(1 0 0 1 2687.7 1979)">-</text>
    <text font-family="Aptos,Aptos_MSFontService,sans-serif" font-weight="400" font-size="73"
          transform="matrix(1 0 0 1 2712.91 1979)">3812</text>
    <path
      d="M924.5 410.063 952 410.063 952 416.938 924.5 416.938ZM972.625 410.063 1000.12 410.063 1000.12 416.938 972.625 416.938ZM1020.75 410.063 1048.25 410.063 1048.25 416.938 1020.75 416.938ZM1068.87 410.063 1096.37 410.063 1096.37 416.938 1068.87 416.938ZM1117 410.063 1144.5 410.063 1144.5 416.938 1117 416.938ZM1165.12 410.063 1192.62 410.063 1192.62 416.938 1165.12 416.938ZM1213.25 410.063 1240.75 410.063 1240.75 416.938 1213.25 416.938ZM1261.37 410.063 1288.87 410.063 1288.87 416.938 1261.37 416.938ZM1309.5 410.063 1337 410.063 1337 416.938 1309.5 416.938ZM1357.62 410.063 1385.12 410.063 1385.12 416.938 1357.62 416.938ZM1405.75 410.063 1433.25 410.063 1433.25 416.938 1405.75 416.938ZM1453.87 410.063 1481.37 410.063 1481.37 416.938 1453.87 416.938ZM1502 410.063 1529.5 410.063 1529.5 416.938 1502 416.938ZM1550.12 410.063 1577.62 410.063 1577.62 416.938 1550.12 416.938ZM1598.25 410.063 1599.94 410.063 1603.38 413.5 1603.38 439.307 1596.51 439.307 1596.51 413.5 1599.94 416.938 1598.25 416.938ZM1603.38 459.932 1603.38 487.432 1596.51 487.432 1596.51 459.932ZM1603.38 508.057 1603.38 535.557 1596.51 535.557 1596.51 508.057ZM1603.38 556.182 1603.38 569.406 1599.94 565.968 1614.22 565.968 1614.22 572.843 1599.94 572.843 1596.51 569.406 1596.51 556.182ZM1634.84 565.968 1662.34 565.968 1662.34 572.843 1634.84 572.843ZM1682.97 565.968 1710.47 565.968 1710.47 572.843 1682.97 572.843ZM1731.09 565.968 1758.59 565.968 1758.59 572.843 1731.09 572.843ZM1779.22 565.968 1806.72 565.968 1806.72 572.843 1779.22 572.843ZM1827.34 565.968 1854.84 565.968 1854.84 572.843 1827.34 572.843ZM1875.47 565.968 1902.97 565.968 1902.97 572.843 1875.47 572.843ZM1923.59 565.968 1951.09 565.968 1951.09 572.843 1923.59 572.843ZM1971.72 565.968 1999.22 565.968 1999.22 572.843 1971.72 572.843ZM2019.84 565.968 2047.34 565.968 2047.34 572.843 2019.84 572.843ZM2067.97 565.968 2095.47 565.968 2095.47 572.843 2067.97 572.843ZM2116.09 565.968 2143.59 565.968 2143.59 572.843 2116.09 572.843ZM2164.22 565.968 2191.72 565.968 2191.72 572.843 2164.22 572.843ZM2212.34 565.968 2239.84 565.968 2239.84 572.843 2212.34 572.843ZM2260.47 565.968 2268.31 565.968 2268.31 572.843 2260.47 572.843ZM2228.72 543.484 2275.38 569.406 2228.72 595.327C2227.06 596.249 2224.97 595.651 2224.05 593.992 2223.13 592.332 2223.73 590.239 2225.38 589.317L2266.63 566.401 2266.63 572.41 2225.38 549.494C2223.73 548.572 2223.13 546.479 2224.05 544.819 2224.97 543.16 2227.06 542.562 2228.72 543.484Z"
      fill="#D9D9D9"/>
    <path
      d="M924.5 410.063 952 410.063 952 416.938 924.5 416.938ZM972.625 410.063 1000.12 410.063 1000.12 416.938 972.625 416.938ZM1020.75 410.063 1048.25 410.063 1048.25 416.938 1020.75 416.938ZM1068.87 410.063 1096.37 410.063 1096.37 416.938 1068.87 416.938ZM1117 410.063 1144.5 410.063 1144.5 416.938 1117 416.938ZM1165.12 410.063 1192.62 410.063 1192.62 416.938 1165.12 416.938ZM1202.97 427.216 1202.97 454.716 1196.1 454.716 1196.1 427.216ZM1202.97 475.341 1202.97 502.841 1196.1 502.841 1196.1 475.341ZM1202.97 523.466 1202.97 550.966 1196.1 550.966 1196.1 523.466ZM1202.97 571.591 1202.97 599.091 1196.1 599.091 1196.1 571.591ZM1202.97 619.716 1202.97 647.216 1196.1 647.216 1196.1 619.716ZM1202.97 667.841 1202.97 695.341 1196.1 695.341 1196.1 667.841ZM1202.97 715.966 1202.97 743.466 1196.1 743.466 1196.1 715.966ZM1202.97 764.091 1202.97 791.591 1196.1 791.591 1196.1 764.091ZM1202.97 812.216 1202.97 839.716 1196.1 839.716 1196.1 812.216ZM1202.97 860.341 1202.97 887.841 1196.1 887.841 1196.1 860.341ZM1202.97 908.466 1202.97 922.929 1199.53 919.492 1212.57 919.492 1212.57 926.367 1196.1 926.367 1196.1 908.466ZM1233.2 919.492 1260.7 919.492 1260.7 926.367 1233.2 926.367ZM1281.32 919.492 1308.82 919.492 1308.82 926.367 1281.32 926.367ZM1329.45 919.492 1356.95 919.492 1356.95 926.367 1329.45 926.367ZM1377.57 919.492 1405.07 919.492 1405.07 926.367 1377.57 926.367ZM1425.7 919.492 1453.2 919.492 1453.2 926.367 1425.7 926.367ZM1427.91 897.008 1474.57 922.929 1427.91 948.851C1426.25 949.773 1424.15 949.175 1423.23 947.515 1422.31 945.856 1422.91 943.763 1424.57 942.841L1465.82 919.924 1465.82 925.934 1424.57 903.017C1422.91 902.095 1422.31 900.003 1423.23 898.343 1424.15 896.684 1426.25 896.086 1427.91 897.008Z"
      fill="#D9D9D9"/>
    <path
      d="M0-3.4375 27.5-3.4375 27.5 3.4375 0 3.4375ZM48.125-3.4375 75.625-3.4375 75.625 3.4375 48.125 3.4375ZM96.25-3.4375 123.75-3.4375 123.75 3.4375 96.25 3.4375ZM132.414 15.3988 132.414 42.8988 125.539 42.8988 125.539 15.3988ZM132.414 63.5238 132.414 91.0238 125.539 91.0238 125.539 63.5238ZM132.414 111.649 132.414 124.612 128.976 121.175 143.513 121.175 143.513 128.05 125.539 128.05 125.539 111.649ZM164.138 121.175 191.638 121.175 191.638 128.05 164.138 128.05ZM212.263 121.175 239.763 121.175 239.763 128.05 212.263 128.05ZM260.388 121.175 287.888 121.175 287.888 128.05 260.388 128.05ZM308.513 121.175 336.013 121.175 336.013 128.05 308.513 128.05ZM356.638 121.175 384.138 121.175 384.138 128.05 356.638 128.05ZM404.763 121.175 432.263 121.175 432.263 128.05 404.763 128.05ZM452.888 121.175 480.388 121.175 480.388 128.05 452.888 128.05ZM501.013 121.175 528.513 121.175 528.513 128.05 501.013 128.05ZM549.138 121.175 576.638 121.175 576.638 128.05 549.138 128.05ZM597.263 121.175 624.763 121.175 624.763 128.05 597.263 128.05ZM645.388 121.175 672.888 121.175 672.888 128.05 645.388 128.05ZM693.513 121.175 721.013 121.175 721.013 128.05 693.513 128.05ZM741.638 121.175 769.138 121.175 769.138 128.05 741.638 128.05ZM789.763 121.175 817.263 121.175 817.263 128.05 789.763 128.05ZM837.888 121.175 865.388 121.175 865.388 128.05 837.888 128.05ZM886.013 121.175 913.513 121.175 913.513 128.05 886.013 128.05ZM890.937 98.6906 937.596 124.612 890.937 150.534C889.277 151.456 887.185 150.858 886.263 149.198 885.341 147.539 885.939 145.446 887.598 144.524L928.848 121.607 928.848 127.617 887.598 104.7C885.939 103.778 885.341 101.686 886.263 100.026 887.185 98.3665 889.277 97.7686 890.937 98.6906Z"
      fill="#D9D9D9" transform="matrix(1 0 0 -1 1448.5 1472.11)"/>
    <path
      d="M1448.5 1469.06 1476 1469.06 1476 1475.94 1448.5 1475.94ZM1496.63 1469.06 1524.13 1469.06 1524.13 1475.94 1496.63 1475.94ZM1544.75 1469.06 1572.25 1469.06 1572.25 1475.94 1544.75 1475.94ZM1579.08 1489.74 1579.08 1517.24 1572.2 1517.24 1572.2 1489.74ZM1579.08 1537.86 1579.08 1565.36 1572.2 1565.36 1572.2 1537.86ZM1579.08 1585.99 1579.08 1613.49 1572.2 1613.49 1572.2 1585.99ZM1579.08 1634.11 1579.08 1661.61 1572.2 1661.61 1572.2 1634.11ZM1579.08 1682.24 1579.08 1709.74 1572.2 1709.74 1572.2 1682.24ZM1579.08 1730.36 1579.08 1757.86 1572.2 1757.86 1572.2 1730.36ZM1579.08 1778.49 1579.08 1805.99 1572.2 1805.99 1572.2 1778.49ZM1579.08 1826.61 1579.08 1854.11 1572.2 1854.11 1572.2 1826.61ZM1579.08 1874.74 1579.08 1902.24 1572.2 1902.24 1572.2 1874.74ZM1579.08 1922.86 1579.08 1950.36 1572.2 1950.36 1572.2 1922.86ZM1590.74 1952.45 1618.24 1952.45 1618.24 1959.32 1590.74 1959.32ZM1638.87 1952.45 1666.37 1952.45 1666.37 1959.32 1638.87 1959.32ZM1686.99 1952.45 1714.49 1952.45 1714.49 1959.32 1686.99 1959.32ZM1735.12 1952.45 1762.62 1952.45 1762.62 1959.32 1735.12 1959.32ZM1783.24 1952.45 1810.74 1952.45 1810.74 1959.32 1783.24 1959.32ZM1831.37 1952.45 1858.87 1952.45 1858.87 1959.32 1831.37 1959.32ZM1879.49 1952.45 1906.99 1952.45 1906.99 1959.32 1879.49 1959.32ZM1927.62 1952.45 1955.12 1952.45 1955.12 1959.32 1927.62 1959.32ZM1975.74 1952.45 2003.24 1952.45 2003.24 1959.32 1975.74 1959.32ZM2023.87 1952.45 2051.37 1952.45 2051.37 1959.32 2023.87 1959.32ZM2071.99 1952.45 2099.49 1952.45 2099.49 1959.32 2071.99 1959.32ZM2120.12 1952.45 2147.62 1952.45 2147.62 1959.32 2120.12 1959.32ZM2168.24 1952.45 2195.74 1952.45 2195.74 1959.32 2168.24 1959.32ZM2216.37 1952.45 2243.87 1952.45 2243.87 1959.32 2216.37 1959.32ZM2264.49 1952.45 2291.99 1952.45 2291.99 1959.32 2264.49 1959.32ZM2312.62 1952.45 2340.12 1952.45 2340.12 1959.32 2312.62 1959.32ZM2360.74 1952.45 2388.24 1952.45 2388.24 1959.32 2360.74 1959.32ZM2408.87 1952.45 2414.62 1952.45 2414.62 1959.32 2408.87 1959.32ZM2375.03 1929.96 2421.69 1955.88 2375.03 1981.81C2373.37 1982.73 2371.28 1982.13 2370.36 1980.47 2369.44 1978.81 2370.03 1976.72 2371.69 1975.8L2412.94 1952.88 2412.94 1958.89 2371.69 1935.97C2370.03 1935.05 2369.44 1932.96 2370.36 1931.3 2371.28 1929.64 2373.37 1929.04 2375.03 1929.96Z"
      fill="#D9D9D9"/>
    <text font-family="Aptos,Aptos_MSFontService,sans-serif" font-weight="400" font-size="64"
          transform="matrix(1 0 0 1 675.596 1041)">7</text>
    <text font-family="Aptos,Aptos_MSFontService,sans-serif" font-weight="400" font-size="64"
          transform="matrix(1 0 0 1 709.971 1041)">0%</text>
    <text font-family="Aptos,Aptos_MSFontService,sans-serif" font-weight="400" font-size="64"
          transform="matrix(1 0 0 1 1254.58 864)">20%</text>
    <path d="M2385 1347 2463 1191 2905 1191 2983 1347 2905 1503 2463 1503Z" fill="#F2F2F2" fill-rule="evenodd"/>
    <text font-family="Aptos,Aptos_MSFontService,sans-serif" font-weight="400" font-size="73"
          transform="matrix(1 0 0 1 2584.71 1371)">Group</text>
    <path
      d="M2275 465.001C2275 436.282 2298.28 413 2327 413L2821 413C2849.72 413 2873 436.282 2873 465.001L2873 672.999C2873 701.718 2849.72 725 2821 725L2327 725C2298.28 725 2275 701.718 2275 672.999Z"
      fill="#F2F2F2" fill-rule="evenodd"/>
    <text font-family="Aptos,Aptos_MSFontService,sans-serif" font-weight="400" font-size="73"
          transform="matrix(1 0 0 1 2438.25 593)">alice.eth</text>
    <text font-family="Aptos,Aptos_MSFontService,sans-serif" font-weight="400" font-size="64"
          transform="matrix(1 0 0 1 1336.23 378)">10%</text>
    <text font-family="Aptos,Aptos_MSFontService,sans-serif" font-weight="400" font-size="64"
          transform="matrix(1 0 0 1 1721.19 1917)">7d / 2000 USDT</text>
    <text font-family="Aptos,Aptos_MSFontService,sans-serif" font-weight="400" font-size="64"
          transform="matrix(1 0 0 1 1701.12 1305)">14d / 100 ETH</text>
    <path
      d="M3673 927.001C3673 898.282 3696.28 875 3725 875L4219 875C4247.72 875 4271 898.282 4271 927.001L4271 1135C4271 1163.72 4247.72 1187 4219 1187L3725 1187C3696.28 1187 3673 1163.72 3673 1135Z"
      fill="#F2F2F2" fill-rule="evenodd"/>
    <text font-family="Aptos,Aptos_MSFontService,sans-serif" font-weight="400" font-size="73"
          transform="matrix(1 0 0 1 3850.96 1055)">bob.eth</text>
    <text font-family="Aptos,Aptos_MSFontService,sans-serif" font-weight="400" font-size="64"
          transform="matrix(1 0 0 1 3196.78 996)">1. / 200 EUR</text>
    <path
      d="M0-3.4375 27.5-3.4375 27.5 3.4375 0 3.4375ZM48.125-3.4375 75.625-3.4375 75.625 3.4375 48.125 3.4375ZM96.25-3.4375 122.734-3.4375 122.734 4.45303 115.859 4.45303 115.859 0 119.297 3.4375 96.25 3.4375ZM122.734 25.078 122.734 52.578 115.859 52.578 115.859 25.078ZM122.734 73.203 122.734 100.703 115.859 100.703 115.859 73.203ZM122.734 121.328 122.734 148.828 115.859 148.828 115.859 121.328ZM122.734 169.453 122.734 196.953 115.859 196.953 115.859 169.453ZM122.734 217.578 122.734 245.078 115.859 245.078 115.859 217.578ZM122.734 265.703 122.734 293.203 115.859 293.203 115.859 265.703ZM122.734 313.828 122.734 315.966 119.297 312.528 144.659 312.528 144.659 319.403 115.859 319.403 115.859 313.828ZM165.284 312.528 192.784 312.528 192.784 319.403 165.284 319.403ZM213.409 312.528 240.909 312.528 240.909 319.403 213.409 319.403ZM261.534 312.528 289.034 312.528 289.034 319.403 261.534 319.403ZM309.659 312.528 337.159 312.528 337.159 319.403 309.659 319.403ZM357.784 312.528 385.284 312.528 385.284 319.403 357.784 319.403ZM405.909 312.528 433.409 312.528 433.409 319.403 405.909 319.403ZM454.034 312.528 481.534 312.528 481.534 319.403 454.034 319.403ZM502.159 312.528 529.659 312.528 529.659 319.403 502.159 319.403ZM550.284 312.528 577.784 312.528 577.784 319.403 550.284 319.403ZM598.409 312.528 625.909 312.528 625.909 319.403 598.409 319.403ZM646.534 312.528 674.034 312.528 674.034 319.403 646.534 319.403ZM643.716 290.044 690.374 315.966 643.716 341.888C642.056 342.81 639.963 342.212 639.041 340.552 638.119 338.892 638.717 336.8 640.377 335.878L681.627 312.961 681.627 318.971 640.377 296.054C638.717 295.132 638.119 293.039 639.041 291.38 639.963 289.72 642.056 289.122 643.716 290.044Z"
      fill="#D9D9D9" transform="matrix(1 0 0 -1 2983.5 1347.47)"/>
    <path
      d="M4270 1431C4270 1402.28 4293.28 1379 4322 1379L4815 1379C4843.72 1379 4867 1402.28 4867 1431L4867 1639C4867 1667.72 4843.72 1691 4815 1691L4322 1691C4293.28 1691 4270 1667.72 4270 1639Z"
      fill="#F2F2F2" fill-rule="evenodd"/>
    <text font-family="Aptos,Aptos_MSFontService,sans-serif" font-weight="400" font-size="73"
          transform="matrix(1 0 0 1 4384.71 1559)">0x56E…117</text>
    <path
      d="M4622 1962C4622 1933.28 4645.28 1910 4674 1910L5168 1910C5196.72 1910 5220 1933.28 5220 1962L5220 2170C5220 2198.72 5196.72 2222 5168 2222L4674 2222C4645.28 2222 4622 2198.72 4622 2170Z"
      fill="#F2F2F2" fill-rule="evenodd"/>
    <text font-family="Aptos,Aptos_MSFontService,sans-serif" font-weight="400" font-size="73"
          transform="matrix(1 0 0 1 4732.08 2090)">0xd23…5D2</text>
    <path
      d="M2983.5 1344.06 3011 1344.06 3011 1350.94 2983.5 1350.94ZM3031.62 1344.06 3059.12 1344.06 3059.12 1350.94 3031.62 1350.94ZM3079.75 1344.06 3107.25 1344.06 3107.25 1350.94 3079.75 1350.94ZM3127.88 1344.06 3155.38 1344.06 3155.38 1350.94 3127.88 1350.94ZM3176 1344.06 3203.5 1344.06 3203.5 1350.94 3176 1350.94ZM3224.12 1344.06 3251.62 1344.06 3251.62 1350.94 3224.12 1350.94ZM3272.25 1344.06 3299.75 1344.06 3299.75 1350.94 3272.25 1350.94ZM3320.38 1344.06 3347.88 1344.06 3347.88 1350.94 3320.38 1350.94ZM3368.5 1344.06 3396 1344.06 3396 1350.94 3368.5 1350.94ZM3414.12 1353.44 3414.12 1380.94 3407.25 1380.94 3407.25 1353.44ZM3414.12 1401.56 3414.12 1429.06 3407.25 1429.06 3407.25 1401.56ZM3414.12 1449.69 3414.12 1477.19 3407.25 1477.19 3407.25 1449.69ZM3414.12 1497.81 3414.12 1525.31 3407.25 1525.31 3407.25 1497.81ZM3421.3 1531.89 3448.8 1531.89 3448.8 1538.76 3421.3 1538.76ZM3469.43 1531.89 3496.93 1531.89 3496.93 1538.76 3469.43 1538.76ZM3517.55 1531.89 3545.05 1531.89 3545.05 1538.76 3517.55 1538.76ZM3565.68 1531.89 3593.18 1531.89 3593.18 1538.76 3565.68 1538.76ZM3613.8 1531.89 3641.3 1531.89 3641.3 1538.76 3613.8 1538.76ZM3661.93 1531.89 3689.43 1531.89 3689.43 1538.76 3661.93 1538.76ZM3710.05 1531.89 3737.55 1531.89 3737.55 1538.76 3710.05 1538.76ZM3758.18 1531.89 3785.68 1531.89 3785.68 1538.76 3758.18 1538.76ZM3806.3 1531.89 3833.8 1531.89 3833.8 1538.76 3806.3 1538.76ZM3854.43 1531.89 3881.93 1531.89 3881.93 1538.76 3854.43 1538.76ZM3902.55 1531.89 3930.05 1531.89 3930.05 1538.76 3902.55 1538.76ZM3950.68 1531.89 3978.18 1531.89 3978.18 1538.76 3950.68 1538.76ZM3998.8 1531.89 4026.3 1531.89 4026.3 1538.76 3998.8 1538.76ZM4046.93 1531.89 4074.43 1531.89 4074.43 1538.76 4046.93 1538.76ZM4095.05 1531.89 4122.55 1531.89 4122.55 1538.76 4095.05 1538.76ZM4143.18 1531.89 4170.68 1531.89 4170.68 1538.76 4143.18 1538.76ZM4191.3 1531.89 4218.8 1531.89 4218.8 1538.76 4191.3 1538.76ZM4239.43 1531.89 4262.93 1531.89 4262.93 1538.76 4239.43 1538.76ZM4223.35 1509.4 4270.01 1535.32 4223.35 1561.25C4221.69 1562.17 4219.59 1561.57 4218.67 1559.91 4217.75 1558.25 4218.35 1556.16 4220.01 1555.24L4261.26 1532.32 4261.26 1538.33 4220.01 1515.41C4218.35 1514.49 4217.75 1512.4 4218.67 1510.74 4219.59 1509.08 4221.69 1508.48 4223.35 1509.4Z"
      fill="#D9D9D9"/>
    <path
      d="M2983.5 1344.06 3011 1344.06 3011 1350.94 2983.5 1350.94ZM3031.62 1344.06 3059.12 1344.06 3059.12 1350.94 3031.62 1350.94ZM3079.75 1344.06 3107.25 1344.06 3107.25 1350.94 3079.75 1350.94ZM3127.88 1344.06 3155.38 1344.06 3155.38 1350.94 3127.88 1350.94ZM3176 1344.06 3203.5 1344.06 3203.5 1350.94 3176 1350.94ZM3224.12 1344.06 3251.62 1344.06 3251.62 1350.94 3224.12 1350.94ZM3272.25 1344.06 3299.75 1344.06 3299.75 1350.94 3272.25 1350.94ZM3320.38 1344.06 3347.88 1344.06 3347.88 1350.94 3320.38 1350.94ZM3368.5 1344.06 3396 1344.06 3396 1350.94 3368.5 1350.94ZM3413.73 1353.83 3413.73 1381.33 3406.85 1381.33 3406.85 1353.83ZM3413.73 1401.96 3413.73 1429.46 3406.85 1429.46 3406.85 1401.96ZM3413.73 1450.08 3413.73 1477.58 3406.85 1477.58 3406.85 1450.08ZM3413.73 1498.21 3413.73 1525.71 3406.85 1525.71 3406.85 1498.21ZM3413.73 1546.33 3413.73 1573.83 3406.85 1573.83 3406.85 1546.33ZM3413.73 1594.46 3413.73 1621.96 3406.85 1621.96 3406.85 1594.46ZM3413.73 1642.58 3413.73 1670.08 3406.85 1670.08 3406.85 1642.58ZM3413.73 1690.71 3413.73 1718.21 3406.85 1718.21 3406.85 1690.71ZM3413.73 1738.83 3413.73 1766.33 3406.85 1766.33 3406.85 1738.83ZM3413.73 1786.96 3413.73 1814.46 3406.85 1814.46 3406.85 1786.96ZM3413.73 1835.08 3413.73 1862.58 3406.85 1862.58 3406.85 1835.08ZM3413.73 1883.21 3413.73 1910.71 3406.85 1910.71 3406.85 1883.21ZM3413.73 1931.33 3413.73 1958.83 3406.85 1958.83 3406.85 1931.33ZM3413.73 1979.46 3413.73 2006.96 3406.85 2006.96 3406.85 1979.46ZM3413.73 2027.58 3413.73 2055.08 3406.85 2055.08 3406.85 2027.58ZM3419.34 2063.22 3446.84 2063.22 3446.84 2070.09 3419.34 2070.09ZM3467.47 2063.22 3494.97 2063.22 3494.97 2070.09 3467.47 2070.09ZM3515.59 2063.22 3543.09 2063.22 3543.09 2070.09 3515.59 2070.09ZM3563.72 2063.22 3591.22 2063.22 3591.22 2070.09 3563.72 2070.09ZM3611.84 2063.22 3639.34 2063.22 3639.34 2070.09 3611.84 2070.09ZM3659.97 2063.22 3687.47 2063.22 3687.47 2070.09 3659.97 2070.09ZM3708.09 2063.22 3735.59 2063.22 3735.59 2070.09 3708.09 2070.09ZM3756.22 2063.22 3783.72 2063.22 3783.72 2070.09 3756.22 2070.09ZM3804.34 2063.22 3831.84 2063.22 3831.84 2070.09 3804.34 2070.09ZM3852.47 2063.22 3879.97 2063.22 3879.97 2070.09 3852.47 2070.09ZM3900.59 2063.22 3928.09 2063.22 3928.09 2070.09 3900.59 2070.09ZM3948.72 2063.22 3976.22 2063.22 3976.22 2070.09 3948.72 2070.09ZM3996.84 2063.22 4024.34 2063.22 4024.34 2070.09 3996.84 2070.09ZM4044.97 2063.22 4072.47 2063.22 4072.47 2070.09 4044.97 2070.09ZM4093.09 2063.22 4120.59 2063.22 4120.59 2070.09 4093.09 2070.09ZM4141.22 2063.22 4168.72 2063.22 4168.72 2070.09 4141.22 2070.09ZM4189.34 2063.22 4216.84 2063.22 4216.84 2070.09 4189.34 2070.09ZM4237.47 2063.22 4264.97 2063.22 4264.97 2070.09 4237.47 2070.09ZM4285.59 2063.22 4313.09 2063.22 4313.09 2070.09 4285.59 2070.09ZM4333.72 2063.22 4361.22 2063.22 4361.22 2070.09 4333.72 2070.09ZM4381.84 2063.22 4409.34 2063.22 4409.34 2070.09 4381.84 2070.09ZM4429.97 2063.22 4457.47 2063.22 4457.47 2070.09 4429.97 2070.09ZM4478.09 2063.22 4505.59 2063.22 4505.59 2070.09 4478.09 2070.09ZM4526.22 2063.22 4553.72 2063.22 4553.72 2070.09 4526.22 2070.09ZM4574.34 2063.22 4601.84 2063.22 4601.84 2070.09 4574.34 2070.09ZM4576.13 2040.74 4622.79 2066.66 4576.13 2092.58C4574.47 2093.5 4572.38 2092.9 4571.46 2091.24 4570.54 2089.58 4571.13 2087.49 4572.79 2086.57L4614.04 2063.65 4614.04 2069.66 4572.79 2046.75C4571.13 2045.82 4570.54 2043.73 4571.46 2042.07 4572.38 2040.41 4574.47 2039.81 4576.13 2040.74Z"
      fill="#D9D9D9"/>
    <text font-family="Aptos,Aptos_MSFontService,sans-serif" font-weight="400" font-size="64"
          transform="matrix(1 0 0 1 3456.72 1492)">2. / 100 USDC</text>
    <text font-family="Aptos,Aptos_MSFontService,sans-serif" font-weight="400" font-size="64"
          transform="matrix(1 0 0 1 3456.72 2008)">3. / 400 EUR</text></g></svg>
