<svg
  width="100%"
  height="100%"
  preserveAspectRatio="xMidYMid meet"
  viewBox="0 0 2106 4014"
  xmlns="http://www.w3.org/2000/svg" xmlns:xlink="http://www.w3.org/1999/xlink"
  xml:space="preserve" overflow="hidden"><defs><clipPath id="clip0"><rect x="172" y="190" width="2106" height="4014"/></clipPath></defs>
  <g clip-path="url(#clip0)" transform="translate(-172 -190)"><path d="M0-3.4375 27.5-3.4375 27.5 3.4375 0 3.4375ZM48.125-3.4375 75.625-3.4375 75.625 3.4375 48.125 3.4375ZM96.25-3.4375 123.75-3.4375 123.75 3.4375 96.25 3.4375ZM144.375-3.4375 171.875-3.4375 171.875 3.4375 144.375 3.4375ZM192.5-3.4375 220-3.4375 220 3.4375 192.5 3.4375ZM240.625-3.4375 268.125-3.4375 268.125 3.4375 240.625 3.4375ZM288.75-3.4375 316.25-3.4375 316.25 3.4375 288.75 3.4375ZM334.583-1.14511 362.083-1.14511 362.083 5.72989 334.583 5.72989ZM382.708-1.14511 410.208-1.14511 410.208 5.72989 382.708 5.72989ZM430.833-1.14511 458.333-1.14511 458.333 5.72989 430.833 5.72989ZM478.958-1.14511 506.458-1.14511 506.458 5.72989 478.958 5.72989ZM527.083-1.14511 554.583-1.14511 554.583 5.72989 527.083 5.72989ZM575.208-1.14511 602.708-1.14511 602.708 5.72989 575.208 5.72989ZM623.333-1.14511 643.543-1.14511 643.543 5.72989 623.333 5.72989ZM603.963-23.6292 650.622 2.29239 603.963 28.214C602.303 29.136 600.211 28.538 599.289 26.8785 598.367 25.2189 598.965 23.1261 600.624 22.2041L641.874-0.712527 641.874 5.2973 600.624-17.6194C598.965-18.5413 598.367-20.6341 599.289-22.2937 600.211-23.9532 602.303-24.5512 603.963-23.6292Z" fill="#D9D9D9" transform="matrix(1.83697e-16 1 1 -1.83697e-16 473.5 502.5)"/>
    <path
      d="M174 242.001C174 213.282 197.281 190 226.001 190L719.999 190C748.719 190 772 213.282 772 242.001L772 449.999C772 478.718 748.719 502 719.999 502L226.001 502C197.281 502 174 478.718 174 449.999Z"
      fill="#F2F2F2" fill-rule="evenodd"/>
    <text font-family="Aptos,Aptos_MSFontService,sans-serif" font-weight="400" font-size="73"
          transform="matrix(1 0 0 1 403.319 370)">Pool</text>
    <path
      d="M1680 856.001C1680 827.282 1703.28 804 1732 804L2226 804C2254.72 804 2278 827.282 2278 856.001L2278 1064C2278 1092.72 2254.72 1116 2226 1116L1732 1116C1703.28 1116 1680 1092.72 1680 1064Z"
      fill="#F2F2F2" fill-rule="evenodd"/>
    <text font-family="Aptos,Aptos_MSFontService,sans-serif" font-weight="400" font-size="73"
          transform="matrix(1 0 0 1 1736.78 984)">doe@mail.com</text>
    <path
      d="M174 2012C174 1983.28 197.281 1960 226.001 1960L719.999 1960C748.719 1960 772 1983.28 772 2012L772 2220C772 2248.72 748.719 2272 719.999 2272L226.001 2272C197.281 2272 174 2248.72 174 2220Z"
      fill="#F2F2F2" fill-rule="evenodd"/>
    <text font-family="Aptos,Aptos_MSFontService,sans-serif" font-weight="400" font-size="73"
          transform="matrix(1 0 0 1 324.314 2140)">555</text>
    <text font-family="Aptos,Aptos_MSFontService,sans-serif" font-weight="400" font-size="73"
          transform="matrix(1 0 0 1 441.189 2140)">-</text>
    <text font-family="Aptos,Aptos_MSFontService,sans-serif" font-weight="400" font-size="73"
          transform="matrix(1 0 0 1 466.397 2140)">3812</text>
    <path
      d="M772.5 343.062 800 343.062 800 349.938 772.5 349.938ZM820.625 343.062 848.125 343.062 848.125 349.938 820.625 349.938ZM868.75 343.062 896.25 343.062 896.25 349.938 868.75 349.938ZM916.875 343.062 944.375 343.062 944.375 349.938 916.875 349.938ZM965 343.062 992.5 343.062 992.5 349.938 965 349.938ZM997.326 365.736 997.326 393.236 990.451 393.236 990.451 365.736ZM997.326 413.861 997.326 434.506 993.888 431.068 1000.74 431.068 1000.74 437.943 993.888 437.943 990.451 434.506 990.451 413.861ZM1021.37 431.068 1048.87 431.068 1048.87 437.943 1021.37 437.943ZM1069.49 431.068 1096.99 431.068 1096.99 437.943 1069.49 437.943ZM1117.62 431.068 1145.12 431.068 1145.12 437.943 1117.62 437.943ZM1165.74 431.068 1193.24 431.068 1193.24 437.943 1165.74 437.943ZM1213.87 431.068 1241.37 431.068 1241.37 437.943 1213.87 437.943ZM1261.99 431.068 1289.49 431.068 1289.49 437.943 1261.99 437.943ZM1310.12 431.068 1337.62 431.068 1337.62 437.943 1310.12 437.943ZM1358.24 431.068 1358.72 431.068 1358.72 437.943 1358.24 437.943ZM1319.14 408.584 1365.79 434.506 1319.14 460.427C1317.48 461.349 1315.38 460.751 1314.46 459.092 1313.54 457.432 1314.14 455.34 1315.8 454.418L1357.05 431.501 1357.05 437.511 1315.8 414.594C1314.14 413.672 1313.54 411.579 1314.46 409.92 1315.38 408.26 1317.48 407.662 1319.14 408.584Z"
      fill="#D9D9D9"/>
    <path
      d="M772.5 343.062 800 343.062 800 349.938 772.5 349.938ZM820.625 343.062 848.125 343.062 848.125 349.938 820.625 349.938ZM868.75 343.062 896.25 343.062 896.25 349.938 868.75 349.938ZM916.875 343.062 944.375 343.062 944.375 349.938 916.875 349.938ZM965 343.062 993.709 343.062 993.709 348.728 986.834 348.728 986.834 346.5 990.272 349.938 965 349.938ZM993.709 369.353 993.709 396.853 986.834 396.853 986.834 369.353ZM993.709 417.478 993.709 444.978 986.834 444.978 986.834 417.478ZM993.709 465.603 993.709 493.103 986.834 493.103 986.834 465.603ZM993.709 513.728 993.709 541.228 986.834 541.228 986.834 513.728ZM993.709 561.853 993.709 589.353 986.834 589.353 986.834 561.853ZM993.709 609.978 993.709 637.478 986.834 637.478 986.834 609.978ZM993.709 658.103 993.709 685.603 986.834 685.603 986.834 658.103ZM993.709 706.228 993.709 733.728 986.834 733.728 986.834 706.228ZM993.709 754.353 993.709 781.853 986.834 781.853 986.834 754.353ZM993.709 802.478 993.709 829.978 986.834 829.978 986.834 802.478ZM993.709 850.603 993.709 878.103 986.834 878.103 986.834 850.603ZM993.709 898.728 993.709 926.228 986.834 926.228 986.834 898.728ZM993.709 946.853 993.709 960.548 990.272 957.11 1004.08 957.11 1004.08 963.985 986.834 963.985 986.834 946.853ZM1024.7 957.11 1052.2 957.11 1052.2 963.985 1024.7 963.985ZM1072.83 957.11 1100.33 957.11 1100.33 963.985 1072.83 963.985ZM1120.95 957.11 1148.45 957.11 1148.45 963.985 1120.95 963.985ZM1169.08 957.11 1196.58 957.11 1196.58 963.985 1169.08 963.985ZM1217.2 957.11 1244.7 957.11 1244.7 963.985 1217.2 963.985ZM1265.33 957.11 1292.83 957.11 1292.83 963.985 1265.33 963.985ZM1313.45 957.11 1340.95 957.11 1340.95 963.985 1313.45 963.985ZM1361.58 957.11 1389.08 957.11 1389.08 963.985 1361.58 963.985ZM1409.7 957.11 1437.2 957.11 1437.2 963.985 1409.7 963.985ZM1457.83 957.11 1485.33 957.11 1485.33 963.985 1457.83 963.985ZM1505.95 957.11 1533.45 957.11 1533.45 963.985 1505.95 963.985ZM1554.08 957.11 1581.58 957.11 1581.58 963.985 1554.08 963.985ZM1602.2 957.11 1629.7 957.11 1629.7 963.985 1602.2 963.985ZM1650.33 957.11 1673.68 957.11 1673.68 963.985 1650.33 963.985ZM1634.09 934.626 1680.75 960.548 1634.09 986.469C1632.43 987.391 1630.34 986.793 1629.42 985.134 1628.49 983.474 1629.09 981.381 1630.75 980.459L1672 957.543 1672 963.552 1630.75 940.636C1629.09 939.714 1628.49 937.621 1629.42 935.961 1630.34 934.302 1632.43 933.704 1634.09 934.626Z"
      fill="#D9D9D9"/>
    <path
      d="M745.5 1323.06 773 1323.06 773 1329.94 745.5 1329.94ZM793.625 1323.06 821.125 1323.06 821.125 1329.94 793.625 1329.94ZM841.75 1323.06 869.25 1323.06 869.25 1329.94 841.75 1329.94ZM889.875 1323.06 917.375 1323.06 917.375 1329.94 889.875 1329.94ZM938 1323.06 965.5 1323.06 965.5 1329.94 938 1329.94ZM986.125 1323.06 1013.63 1323.06 1013.63 1329.94 986.125 1329.94ZM1034.25 1323.06 1061.75 1323.06 1061.75 1329.94 1034.25 1329.94ZM1082.38 1323.06 1109.88 1323.06 1109.88 1329.94 1082.38 1329.94ZM1130.5 1323.06 1158 1323.06 1158 1329.94 1130.5 1329.94ZM1178.63 1323.06 1206.13 1323.06 1206.13 1329.94 1178.63 1329.94ZM1226.75 1323.06 1254.25 1323.06 1254.25 1329.94 1226.75 1329.94ZM1274.88 1323.06 1302.38 1323.06 1302.38 1329.94 1274.88 1329.94ZM1323 1323.06 1350.5 1323.06 1350.5 1329.94 1323 1329.94ZM1371.13 1323.06 1398.63 1323.06 1398.63 1329.94 1371.13 1329.94ZM1419.25 1323.06 1446.75 1323.06 1446.75 1329.94 1419.25 1329.94ZM1467.38 1323.06 1494.88 1323.06 1494.88 1329.94 1467.38 1329.94ZM1515.5 1323.06 1543 1323.06 1543 1329.94 1515.5 1329.94ZM1563.63 1323.06 1591.13 1323.06 1591.13 1329.94 1563.63 1329.94ZM1611.75 1323.06 1639.25 1323.06 1639.25 1329.94 1611.75 1329.94ZM1659.88 1323.06 1687.38 1323.06 1687.38 1329.94 1659.88 1329.94ZM1708 1323.06 1735.5 1323.06 1735.5 1329.94 1708 1329.94ZM1756.13 1323.06 1783.63 1323.06 1783.63 1329.94 1756.13 1329.94ZM1804.25 1323.06 1831.75 1323.06 1831.75 1329.94 1804.25 1329.94ZM1852.38 1323.06 1879.88 1323.06 1879.88 1329.94 1852.38 1329.94ZM1900.5 1323.06 1928 1323.06 1928 1329.94 1900.5 1329.94ZM1948.63 1323.06 1976.13 1323.06 1976.13 1329.94 1948.63 1329.94ZM1987.48 1339.21 1987.48 1366.71 1980.6 1366.71 1980.6 1339.21ZM1987.48 1387.33 1987.48 1414.83 1980.6 1414.83 1980.6 1387.33ZM1987.48 1435.46 1987.48 1462.96 1980.6 1462.96 1980.6 1435.46ZM1987.48 1483.58 1987.48 1511.08 1980.6 1511.08 1980.6 1483.58ZM1987.48 1531.71 1987.48 1559.21 1980.6 1559.21 1980.6 1531.71ZM1987.48 1579.83 1987.48 1607.33 1980.6 1607.33 1980.6 1579.83ZM1987.48 1627.96 1987.48 1655.46 1980.6 1655.46 1980.6 1627.96ZM1987.48 1676.08 1987.48 1703.58 1980.6 1703.58 1980.6 1676.08ZM1987.48 1724.21 1987.48 1751.71 1980.6 1751.71 1980.6 1724.21ZM1987.48 1772.33 1987.48 1799.83 1980.6 1799.83 1980.6 1772.33ZM1987.48 1820.46 1987.48 1847.96 1980.6 1847.96 1980.6 1820.46ZM1987.48 1868.58 1987.48 1896.08 1980.6 1896.08 1980.6 1868.58ZM1987.48 1916.71 1987.48 1944.21 1980.6 1944.21 1980.6 1916.71ZM1987.48 1964.83 1987.48 1992.33 1980.6 1992.33 1980.6 1964.83ZM1987.48 2012.96 1987.48 2040.46 1980.6 2040.46 1980.6 2012.96ZM1987.48 2061.08 1987.48 2088.58 1980.6 2088.58 1980.6 2061.08ZM1987.48 2109.21 1987.48 2136.71 1980.6 2136.71 1980.6 2109.21ZM1987.48 2157.33 1987.48 2184.83 1980.6 2184.83 1980.6 2157.33ZM1987.48 2205.46 1987.48 2232.96 1980.6 2232.96 1980.6 2205.46ZM1987.48 2253.58 1987.48 2281.08 1980.6 2281.08 1980.6 2253.58ZM1987.48 2301.71 1987.48 2329.21 1980.6 2329.21 1980.6 2301.71ZM1987.48 2349.83 1987.48 2377.33 1980.6 2377.33 1980.6 2349.83ZM1987.48 2397.96 1987.48 2425.46 1980.6 2425.46 1980.6 2397.96ZM1987.48 2446.08 1987.48 2473.58 1980.6 2473.58 1980.6 2446.08ZM1987.48 2494.21 1987.48 2521.71 1980.6 2521.71 1980.6 2494.21ZM2009.55 2486.59 1984.12 2533.52 1957.71 2487.13C1956.77 2485.48 1957.34 2483.38 1958.99 2482.44 1960.64 2481.5 1962.74 2482.08 1963.68 2483.73L1987.03 2524.74 1981.02 2524.8 2003.5 2483.31C2004.41 2481.64 2006.49 2481.02 2008.16 2481.93 2009.83 2482.83 2010.45 2484.92 2009.55 2486.59Z"
      fill="#D9D9D9"/>
    <path
      d="M0-3.4375 27.5-3.4375 27.5 3.4375 0 3.4375ZM48.125-3.4375 75.625-3.4375 75.625 3.4375 48.125 3.4375ZM96.25-3.4375 123.75-3.4375 123.75 3.4375 96.25 3.4375ZM144.375-3.4375 171.875-3.4375 171.875 3.4375 144.375 3.4375ZM192.5-3.4375 220-3.4375 220 3.4375 192.5 3.4375ZM240.625-3.4375 268.125-3.4375 268.125 3.4375 240.625 3.4375ZM291.798 0.389403 291.798 2.01089 288.361-1.42661 314.239-1.42661 314.239 5.44839 284.923 5.44839 284.923 0.389403ZM334.864-1.42661 362.364-1.42661 362.364 5.44839 334.864 5.44839ZM382.989-1.42661 410.489-1.42661 410.489 5.44839 382.989 5.44839ZM431.114-1.42661 458.614-1.42661 458.614 5.44839 431.114 5.44839ZM479.239-1.42661 506.739-1.42661 506.739 5.44839 479.239 5.44839ZM527.364-1.42661 554.864-1.42661 554.864 5.44839 527.364 5.44839ZM530.059-23.9107 576.718 2.01089 530.059 27.9325C528.4 28.8545 526.307 28.2565 525.385 26.597 524.463 24.9374 525.061 22.8446 526.721 21.9226L567.971-0.994023 567.971 5.01581 526.721-17.9009C525.061-18.8228 524.463-20.9156 525.385-22.5752 526.307-24.2347 528.4-24.8327 530.059-23.9107Z"
      fill="#D9D9D9" transform="matrix(1.83697e-16 1 1 -1.83697e-16 471.5 1383.5)"/>
    <text font-family="Aptos,Aptos_MSFontService,sans-serif" font-weight="400" font-size="64"
          transform="matrix(1 0 0 1 521.277 804)">70%</text>
    <text font-family="Aptos,Aptos_MSFontService,sans-serif" font-weight="400" font-size="64"
          transform="matrix(1 0 0 1 1115.71 925)">20%</text>
    <path d="M1680 2693 1758 2537 2200 2537 2278 2693 2200 2849 1758 2849Z" fill="#F2F2F2" fill-rule="evenodd"/>
    <text font-family="Aptos,Aptos_MSFontService,sans-serif" font-weight="400" font-size="73"
          transform="matrix(1 0 0 1 1879.69 2717)">Group</text>
    <path
      d="M1365 330.001C1365 301.282 1388.28 278 1417 278L1911 278C1939.72 278 1963 301.282 1963 330.001L1963 537.999C1963 566.718 1939.72 590 1911 590L1417 590C1388.28 590 1365 566.718 1365 537.999Z"
      fill="#F2F2F2" fill-rule="evenodd"/>
    <text font-family="Aptos,Aptos_MSFontService,sans-serif" font-weight="400" font-size="73"
          transform="matrix(1 0 0 1 1528.36 458)">alice.eth</text>
    <text font-family="Aptos,Aptos_MSFontService,sans-serif" font-weight="400" font-size="64"
          transform="matrix(1 0 0 1 1110.95 398)">10%</text>
    <text font-family="Aptos,Aptos_MSFontService,sans-serif" font-weight="400" font-size="64"
          transform="matrix(1 0 0 1 523.75 1694)">7d / 2000 USDT</text>
    <text font-family="Aptos,Aptos_MSFontService,sans-serif" font-weight="400" font-size="64"
          transform="matrix(1 0 0 1 780.667 1281)">14d / 100 ETH</text>
    <path
      d="M177 3944C177 3915.28 200.282 3892 229.001 3892L721.999 3892C750.718 3892 774 3915.28 774 3944L774 4152C774 4180.72 750.718 4204 721.999 4204L229.001 4204C200.282 4204 177 4180.72 177 4152Z"
      fill="#F2F2F2" fill-rule="evenodd"/>
    <text font-family="Aptos,Aptos_MSFontService,sans-serif" font-weight="400" font-size="73"
          transform="matrix(1 0 0 1 286.525 4072)">0xd23…5D2</text>
    <text font-family="Aptos,Aptos_MSFontService,sans-serif" font-weight="400" font-size="64"
          transform="matrix(1 0 0 1 1447.43 2575)">1. / </text>
    <text font-family="Aptos,Aptos_MSFontService,sans-serif" font-weight="400" font-size="64"
          transform="matrix(1 0 0 1 1380.68 2652)">200 </text>
    <text font-family="Aptos,Aptos_MSFontService,sans-serif" font-weight="400" font-size="64"
          transform="matrix(1 0 0 1 1496.98 2652)">EUR</text>
    <path
      d="M0-3.4375 27.5-3.4375 27.5 3.4375 0 3.4375ZM48.125-3.4375 75.625-3.4375 75.625 3.4375 48.125 3.4375ZM96.25-3.4375 123.75-3.4375 123.75 3.4375 96.25 3.4375ZM144.375-3.4375 171.875-3.4375 171.875 3.4375 144.375 3.4375ZM192.5-3.4375 220-3.4375 220 3.4375 192.5 3.4375ZM240.625-3.4375 268.125-3.4375 268.125 3.4375 240.625 3.4375ZM288.75-3.4375 316.25-3.4375 316.25 3.4375 288.75 3.4375ZM336.875-3.4375 364.375-3.4375 364.375 3.4375 336.875 3.4375ZM385-3.4375 412.5-3.4375 412.5 3.4375 385 3.4375ZM433.125-3.4375 460.625-3.4375 460.625 3.4375 433.125 3.4375ZM481.25-3.4375 508.75-3.4375 508.75 3.4375 481.25 3.4375ZM529.375-3.4375 556.875-3.4375 556.875 3.4375 529.375 3.4375ZM577.5-3.4375 605-3.4375 605 3.4375 577.5 3.4375ZM625.625-3.4375 653.125-3.4375 653.125 3.4375 625.625 3.4375ZM673.75-3.4375 701.25-3.4375 701.25 3.4375 673.75 3.4375ZM721.875-3.4375 749.375-3.4375 749.375 3.4375 721.875 3.4375ZM770-3.4375 797.5-3.4375 797.5 3.4375 770 3.4375ZM818.125-3.4375 845.625-3.4375 845.625 3.4375 818.125 3.4375ZM866.25-3.4375 893.75-3.4375 893.75 3.4375 866.25 3.4375ZM914.375-3.4375 941.875-3.4375 941.875 3.4375 914.375 3.4375ZM962.5-3.4375 990-3.4375 990 3.4375 962.5 3.4375ZM1010.62-3.4375 1038.12-3.4375 1038.12 3.4375 1010.62 3.4375ZM1058.75-3.4375 1086.25-3.4375 1086.25 3.4375 1058.75 3.4375ZM1106.88-3.4375 1134.38-3.4375 1134.38 3.4375 1106.88 3.4375ZM1155-3.4375 1182.5-3.4375 1182.5 3.4375 1155 3.4375ZM1203.12-3.4375 1208.22-3.4375 1208.22 25.8453 1201.34 25.8453 1201.34 0 1204.78 3.4375 1203.12 3.4375ZM1208.22 46.4703 1208.22 73.9703 1201.34 73.9703 1201.34 46.4703ZM1208.22 94.5953 1208.22 122.095 1201.34 122.095 1201.34 94.5953ZM1208.22 142.72 1208.22 170.22 1201.34 170.22 1201.34 142.72ZM1208.22 190.845 1208.22 218.345 1201.34 218.345 1201.34 190.845ZM1208.22 238.97 1208.22 266.47 1201.34 266.47 1201.34 238.97ZM1208.22 287.095 1208.22 314.595 1201.34 314.595 1201.34 287.095ZM1208.22 335.22 1208.22 362.72 1201.34 362.72 1201.34 335.22ZM1208.22 383.345 1208.22 410.845 1201.34 410.845 1201.34 383.345ZM1208.22 431.47 1208.22 458.97 1201.34 458.97 1201.34 431.47ZM1208.22 479.595 1208.22 507.095 1201.34 507.095 1201.34 479.595ZM1208.22 527.72 1208.22 555.22 1201.34 555.22 1201.34 527.72ZM1208.22 575.845 1208.22 603.345 1201.34 603.345 1201.34 575.845ZM1208.22 623.97 1208.22 651.47 1201.34 651.47 1201.34 623.97ZM1208.22 672.095 1208.22 699.595 1201.34 699.595 1201.34 672.095ZM1208.22 720.22 1208.22 747.72 1201.34 747.72 1201.34 720.22ZM1208.22 768.345 1208.22 795.845 1201.34 795.845 1201.34 768.345ZM1208.22 816.47 1208.22 843.97 1201.34 843.97 1201.34 816.47ZM1208.22 864.595 1208.22 892.095 1201.34 892.095 1201.34 864.595ZM1208.22 912.72 1208.22 940.22 1201.34 940.22 1201.34 912.72ZM1208.22 960.845 1208.22 988.345 1201.34 988.345 1201.34 960.845ZM1208.22 1008.97 1208.22 1036.47 1201.34 1036.47 1201.34 1008.97ZM1208.22 1057.1 1208.22 1084.6 1201.34 1084.6 1201.34 1057.1ZM1208.22 1105.22 1208.22 1132.72 1201.34 1132.72 1201.34 1105.22ZM1208.22 1153.35 1208.22 1180.85 1201.34 1180.85 1201.34 1153.35ZM1230.7 1152.43 1204.78 1199.09 1178.86 1152.43C1177.94 1150.77 1178.53 1148.68 1180.19 1147.76 1181.85 1146.83 1183.95 1147.43 1184.87 1149.09L1207.78 1190.34 1201.77 1190.34 1224.69 1149.09C1225.61 1147.43 1227.71 1146.83 1229.37 1147.76 1231.03 1148.68 1231.62 1150.77 1230.7 1152.43Z"
      fill="#D9D9D9" transform="matrix(-1 1.22465e-16 1.22465e-16 1 1681.28 2693.5)"/>
    <path
      d="M693 3482C693 3453.28 716.281 3430 745.001 3430L1239 3430C1267.72 3430 1291 3453.28 1291 3482L1291 3690C1291 3718.72 1267.72 3742 1239 3742L745.001 3742C716.281 3742 693 3718.72 693 3690Z"
      fill="#F2F2F2" fill-rule="evenodd"/>
    <text font-family="Aptos,Aptos_MSFontService,sans-serif" font-weight="400" font-size="73"
          transform="matrix(1 0 0 1 808.523 3610)">0x56E…117</text>
    <path
      d="M1199 3044C1199 3015.28 1222.28 2992 1251 2992L1745 2992C1773.72 2992 1797 3015.28 1797 3044L1797 3252C1797 3280.72 1773.72 3304 1745 3304L1251 3304C1222.28 3304 1199 3280.72 1199 3252Z"
      fill="#F2F2F2" fill-rule="evenodd"/>
    <text font-family="Aptos,Aptos_MSFontService,sans-serif" font-weight="400" font-size="73"
          transform="matrix(1 0 0 1 1376.6 3172)">b</text>
    <text font-family="Aptos,Aptos_MSFontService,sans-serif" font-weight="400" font-size="73"
          transform="matrix(1 0 0 1 1417.85 3172)">ob.eth</text>
    <path
      d="M0-3.4375 27.5-3.4375 27.5 3.4375 0 3.4375ZM48.125-3.4375 75.625-3.4375 75.625 3.4375 48.125 3.4375ZM96.25-3.4375 123.75-3.4375 123.75 3.4375 96.25 3.4375ZM144.375-3.4375 171.875-3.4375 171.875 3.4375 144.375 3.4375ZM192.5-3.4375 220-3.4375 220 3.4375 192.5 3.4375ZM240.625-3.4375 268.125-3.4375 268.125 3.4375 240.625 3.4375ZM288.75-3.4375 316.25-3.4375 316.25 3.4375 288.75 3.4375ZM336.875-3.4375 364.375-3.4375 364.375 3.4375 336.875 3.4375ZM385-3.4375 412.5-3.4375 412.5 3.4375 385 3.4375ZM433.125-3.4375 460.625-3.4375 460.625 3.4375 433.125 3.4375ZM481.25-3.4375 508.75-3.4375 508.75 3.4375 481.25 3.4375ZM529.375-3.4375 556.875-3.4375 556.875 3.4375 529.375 3.4375ZM577.5-3.4375 605-3.4375 605 3.4375 577.5 3.4375ZM625.625-3.4375 653.125-3.4375 653.125 3.4375 625.625 3.4375ZM673.75-3.4375 691.639-3.4375 691.639 13.0488 684.764 13.0488 684.764 0 688.201 3.4375 673.75 3.4375ZM691.639 33.6738 691.639 61.1738 684.764 61.1738 684.764 33.6738ZM691.639 81.7988 691.639 109.299 684.764 109.299 684.764 81.7988ZM691.639 129.924 691.639 157.424 684.764 157.424 684.764 129.924ZM691.639 178.049 691.639 205.549 684.764 205.549 684.764 178.049ZM691.639 226.174 691.639 253.674 684.764 253.674 684.764 226.174ZM691.639 274.299 691.639 301.799 684.764 301.799 684.764 274.299ZM691.639 322.424 691.639 349.924 684.764 349.924 684.764 322.424ZM691.639 370.549 691.639 398.049 684.764 398.049 684.764 370.549ZM691.639 418.674 691.639 446.174 684.764 446.174 684.764 418.674ZM691.639 466.799 691.639 494.299 684.764 494.299 684.764 466.799ZM691.639 514.924 691.639 542.424 684.764 542.424 684.764 514.924ZM691.639 563.049 691.639 590.549 684.764 590.549 684.764 563.049ZM691.639 611.174 691.639 638.674 684.764 638.674 684.764 611.174ZM691.639 659.299 691.639 686.799 684.764 686.799 684.764 659.299ZM691.639 707.424 691.639 730.015 684.764 730.015 684.764 707.424ZM714.123 690.435 688.201 737.094 662.28 690.435C661.358 688.775 661.956 686.683 663.615 685.761 665.275 684.839 667.367 685.437 668.289 687.096L691.206 728.346 685.196 728.346 708.113 687.096C709.035 685.437 711.128 684.839 712.787 685.761 714.447 686.683 715.045 688.775 714.123 690.435Z"
      fill="#D9D9D9" transform="matrix(-1 1.22465e-16 1.22465e-16 1 1680.7 2693.5)"/>
    <path
      d="M0-3.4375 27.5-3.4375 27.5 3.4375 0 3.4375ZM48.125-3.4375 75.625-3.4375 75.625 3.4375 48.125 3.4375ZM96.25-3.4375 123.75-3.4375 123.75 3.4375 96.25 3.4375ZM144.375-3.4375 171.875-3.4375 171.875 3.4375 144.375 3.4375ZM185.941 9.99636 185.941 37.4964 179.066 37.4964 179.066 9.99636ZM185.941 58.1214 185.941 85.6214 179.066 85.6214 179.066 58.1214ZM185.941 106.246 185.941 133.746 179.066 133.746 179.066 106.246ZM185.941 154.371 185.941 181.871 179.066 181.871 179.066 154.371ZM185.941 202.496 185.941 229.996 179.066 229.996 179.066 202.496ZM185.941 250.621 185.941 278.121 179.066 278.121 179.066 250.621ZM208.425 252.34 182.504 298.999 156.582 252.34C155.66 250.68 156.258 248.587 157.918 247.665 159.577 246.743 161.67 247.341 162.592 249.001L185.509 290.251 179.499 290.251 202.415 249.001C203.337 247.341 205.43 246.743 207.09 247.665 208.749 248.587 209.347 250.68 208.425 252.34Z"
      fill="#D9D9D9" transform="matrix(-1 1.22465e-16 1.22465e-16 1 1681 2693.5)"/>
    <text font-family="Aptos,Aptos_MSFontService,sans-serif" font-weight="400" font-size="64"
          transform="matrix(1 0 0 1 941.737 2580)">2. / </text>
    <text font-family="Aptos,Aptos_MSFontService,sans-serif" font-weight="400" font-size="64"
          transform="matrix(1 0 0 1 849.773 2657)">100 </text>
    <text font-family="Aptos,Aptos_MSFontService,sans-serif" font-weight="400" font-size="64"
          transform="matrix(1 0 0 1 966.075 2657)">USDC</text>
    <text font-family="Aptos,Aptos_MSFontService,sans-serif" font-weight="400" font-size="64"
          transform="matrix(1 0 0 1 440.345 2575)">3. </text>
    <text font-family="Aptos,Aptos_MSFontService,sans-serif" font-weight="400" font-size="64"
          transform="matrix(1 0 0 1 506.23 2575)">/ </text>
    <text font-family="Aptos,Aptos_MSFontService,sans-serif" font-weight="400" font-size="64"
          transform="matrix(1 0 0 1 373.588 2652)">400 </text>
    <text font-family="Aptos,Aptos_MSFontService,sans-serif" font-weight="400" font-size="64"
          transform="matrix(1 0 0 1 489.89 2652)">EUR</text>
    <path d="M172 1321 250 1165 692 1165 770 1321 692 1477 250 1477Z" fill="#F2F2F2" fill-rule="evenodd"/>
    <text font-family="Aptos,Aptos_MSFontService,sans-serif" font-weight="400" font-size="73"
          transform="matrix(1 0 0 1 371.792 1345)">Group</text></g></svg>
