<svg width="4893" height="1964" xmlns="http://www.w3.org/2000/svg" xmlns:xlink="http://www.w3.org/1999/xlink" xml:space="preserve" overflow="hidden"><defs><clipPath id="clip0"><rect x="327" y="1619" width="4893" height="1964"/></clipPath></defs><g clip-path="url(#clip0)" transform="translate(-327 -1619)"><path d="M0-3.4375 27.5-3.4375 27.5 3.4375 0 3.4375ZM48.125-3.4375 75.625-3.4375 75.625 3.4375 48.125 3.4375ZM96.25-3.4375 123.75-3.4375 123.75 3.4375 96.25 3.4375ZM144.375-3.4375 171.875-3.4375 171.875 3.4375 144.375 3.4375ZM192.5-3.4375 220-3.4375 220 3.4375 192.5 3.4375ZM240.625-3.4375 268.125-3.4375 268.125 3.4375 240.625 3.4375ZM288.75-3.4375 316.25-3.4375 316.25 3.4375 288.75 3.4375ZM336.875-3.4375 364.375-3.4375 364.375 3.4375 336.875 3.4375ZM385-3.4375 412.5-3.4375 412.5 3.4375 385 3.4375ZM433.125-3.4375 460.625-3.4375 460.625 3.4375 433.125 3.4375ZM481.25-3.4375 508.75-3.4375 508.75 3.4375 481.25 3.4375ZM529.375-3.4375 556.875-3.4375 556.875 3.4375 529.375 3.4375ZM577.5-3.4375 605-3.4375 605 3.4375 577.5 3.4375ZM625.625-3.4375 653.125-3.4375 653.125 3.4375 625.625 3.4375ZM673.75-3.4375 701.25-3.4375 701.25 3.4375 673.75 3.4375ZM721.875-3.4375 749.375-3.4375 749.375 3.4375 721.875 3.4375ZM770-3.4375 797.5-3.4375 797.5 3.4375 770 3.4375ZM818.125-3.4375 845.625-3.4375 845.625 3.4375 818.125 3.4375ZM866.25-3.4375 893.75-3.4375 893.75 3.4375 866.25 3.4375ZM905.886 11.9268 905.886 39.4268 899.011 39.4268 899.011 11.9268ZM905.886 60.0518 905.886 87.5518 899.011 87.5518 899.011 60.0518ZM905.886 108.177 905.886 135.677 899.011 135.677 899.011 108.177ZM905.886 156.302 905.886 183.802 899.011 183.802 899.011 156.302ZM905.886 204.427 905.886 217.467 899.011 217.467 899.011 204.427ZM928.37 177.886 902.448 224.545 876.527 177.886C875.605 176.227 876.203 174.134 877.862 173.212 879.522 172.29 881.614 172.888 882.536 174.548L905.453 215.798 899.443 215.798 922.36 174.548C923.282 172.888 925.375 172.29 927.034 173.212 928.694 174.134 929.292 176.227 928.37 177.886Z" fill="#AEAEAE" transform="matrix(1.83697e-16 1 1 -1.83697e-16 626.5 1930.5)"/><path d="M327 1670.83C327 1642.21 350.207 1619 378.834 1619L872.166 1619C900.793 1619 924 1642.21 924 1670.83L924 1878.17C924 1906.79 900.793 1930 872.166 1930L378.834 1930C350.207 1930 327 1906.79 327 1878.17Z" fill="#F2F2F2" fill-rule="evenodd"/><text font-family="Aptos,Aptos_MSFontService,sans-serif" font-weight="400" font-size="73" transform="matrix(1 0 0 1 555.627 1798)">Pool</text><path d="M1474 2180C1474 2151.28 1497.28 2128 1526 2128L2020 2128C2048.72 2128 2072 2151.28 2072 2180L2072 2388C2072 2416.72 2048.72 2440 2020 2440L1526 2440C1497.28 2440 1474 2416.72 1474 2388Z" fill="#F2F2F2" fill-rule="evenodd"/><text font-family="Aptos,Aptos_MSFontService,sans-serif" font-weight="400" font-size="73" transform="matrix(1 0 0 1 1530.91 2308)">doe@mail.com</text><path d="M850 2833 928 2677 1370 2677 1448 2833 1370 2989 928 2989Z" fill="#F2F2F2" fill-rule="evenodd"/><text font-family="Aptos,Aptos_MSFontService,sans-serif" font-weight="400" font-size="73" transform="matrix(1 0 0 1 1049.48 2857)">Group</text><path d="M2421 3212C2421 3183.28 2444.28 3160 2473 3160L2967 3160C2995.72 3160 3019 3183.28 3019 3212L3019 3420C3019 3448.72 2995.72 3472 2967 3472L2473 3472C2444.28 3472 2421 3448.72 2421 3420Z" fill="#F2F2F2" fill-rule="evenodd"/><text font-family="Aptos,Aptos_MSFontService,sans-serif" font-weight="400" font-size="73" transform="matrix(1 0 0 1 2570.82 3340)">555</text><text font-family="Aptos,Aptos_MSFontService,sans-serif" font-weight="400" font-size="73" transform="matrix(1 0 0 1 2687.7 3340)">-</text><text font-family="Aptos,Aptos_MSFontService,sans-serif" font-weight="400" font-size="73" transform="matrix(1 0 0 1 2712.91 3340)">3812</text><path d="M924.5 1771.06 952 1771.06 952 1777.94 924.5 1777.94ZM972.625 1771.06 1000.12 1771.06 1000.12 1777.94 972.625 1777.94ZM1020.75 1771.06 1048.25 1771.06 1048.25 1777.94 1020.75 1777.94ZM1068.87 1771.06 1096.37 1771.06 1096.37 1777.94 1068.87 1777.94ZM1117 1771.06 1144.5 1771.06 1144.5 1777.94 1117 1777.94ZM1165.12 1771.06 1192.62 1771.06 1192.62 1777.94 1165.12 1777.94ZM1213.25 1771.06 1240.75 1771.06 1240.75 1777.94 1213.25 1777.94ZM1261.37 1771.06 1288.87 1771.06 1288.87 1777.94 1261.37 1777.94ZM1309.5 1771.06 1337 1771.06 1337 1777.94 1309.5 1777.94ZM1357.62 1771.06 1385.12 1771.06 1385.12 1777.94 1357.62 1777.94ZM1405.75 1771.06 1433.25 1771.06 1433.25 1777.94 1405.75 1777.94ZM1453.87 1771.06 1481.37 1771.06 1481.37 1777.94 1453.87 1777.94ZM1502 1771.06 1529.5 1771.06 1529.5 1777.94 1502 1777.94ZM1550.12 1771.06 1577.62 1771.06 1577.62 1777.94 1550.12 1777.94ZM1598.25 1771.06 1599.94 1771.06 1603.38 1774.5 1603.38 1800.31 1596.51 1800.31 1596.51 1774.5 1599.94 1777.94 1598.25 1777.94ZM1603.38 1820.93 1603.38 1848.43 1596.51 1848.43 1596.51 1820.93ZM1603.38 1869.06 1603.38 1896.56 1596.51 1896.56 1596.51 1869.06ZM1603.38 1917.18 1603.38 1930.41 1599.94 1926.97 1614.22 1926.97 1614.22 1933.84 1599.94 1933.84 1596.51 1930.41 1596.51 1917.18ZM1634.84 1926.97 1662.34 1926.97 1662.34 1933.84 1634.84 1933.84ZM1682.97 1926.97 1710.47 1926.97 1710.47 1933.84 1682.97 1933.84ZM1731.09 1926.97 1758.59 1926.97 1758.59 1933.84 1731.09 1933.84ZM1779.22 1926.97 1806.72 1926.97 1806.72 1933.84 1779.22 1933.84ZM1827.34 1926.97 1854.84 1926.97 1854.84 1933.84 1827.34 1933.84ZM1875.47 1926.97 1902.97 1926.97 1902.97 1933.84 1875.47 1933.84ZM1923.59 1926.97 1951.09 1926.97 1951.09 1933.84 1923.59 1933.84ZM1971.72 1926.97 1999.22 1926.97 1999.22 1933.84 1971.72 1933.84ZM2019.84 1926.97 2047.34 1926.97 2047.34 1933.84 2019.84 1933.84ZM2067.97 1926.97 2095.47 1926.97 2095.47 1933.84 2067.97 1933.84ZM2116.09 1926.97 2143.59 1926.97 2143.59 1933.84 2116.09 1933.84ZM2164.22 1926.97 2191.72 1926.97 2191.72 1933.84 2164.22 1933.84ZM2212.34 1926.97 2239.84 1926.97 2239.84 1933.84 2212.34 1933.84ZM2260.47 1926.97 2268.31 1926.97 2268.31 1933.84 2260.47 1933.84ZM2228.72 1904.48 2275.38 1930.41 2228.72 1956.33C2227.06 1957.25 2224.97 1956.65 2224.05 1954.99 2223.13 1953.33 2223.73 1951.24 2225.38 1950.32L2266.63 1927.4 2266.63 1933.41 2225.38 1910.49C2223.73 1909.57 2223.13 1907.48 2224.05 1905.82 2224.97 1904.16 2227.06 1903.56 2228.72 1904.48Z" fill="#AEAEAE"/><path d="M924.5 1771.06 952 1771.06 952 1777.94 924.5 1777.94ZM972.625 1771.06 1000.12 1771.06 1000.12 1777.94 972.625 1777.94ZM1020.75 1771.06 1048.25 1771.06 1048.25 1777.94 1020.75 1777.94ZM1068.87 1771.06 1096.37 1771.06 1096.37 1777.94 1068.87 1777.94ZM1117 1771.06 1144.5 1771.06 1144.5 1777.94 1117 1777.94ZM1165.12 1771.06 1192.62 1771.06 1192.62 1777.94 1165.12 1777.94ZM1202.97 1788.22 1202.97 1815.72 1196.1 1815.72 1196.1 1788.22ZM1202.97 1836.34 1202.97 1863.84 1196.1 1863.84 1196.1 1836.34ZM1202.97 1884.47 1202.97 1911.97 1196.1 1911.97 1196.1 1884.47ZM1202.97 1932.59 1202.97 1960.09 1196.1 1960.09 1196.1 1932.59ZM1202.97 1980.72 1202.97 2008.22 1196.1 2008.22 1196.1 1980.72ZM1202.97 2028.84 1202.97 2056.34 1196.1 2056.34 1196.1 2028.84ZM1202.97 2076.97 1202.97 2104.47 1196.1 2104.47 1196.1 2076.97ZM1202.97 2125.09 1202.97 2152.59 1196.1 2152.59 1196.1 2125.09ZM1202.97 2173.22 1202.97 2200.72 1196.1 2200.72 1196.1 2173.22ZM1202.97 2221.34 1202.97 2248.84 1196.1 2248.84 1196.1 2221.34ZM1202.97 2269.47 1202.97 2283.93 1199.53 2280.49 1212.57 2280.49 1212.57 2287.37 1196.1 2287.37 1196.1 2269.47ZM1233.2 2280.49 1260.7 2280.49 1260.7 2287.37 1233.2 2287.37ZM1281.32 2280.49 1308.82 2280.49 1308.82 2287.37 1281.32 2287.37ZM1329.45 2280.49 1356.95 2280.49 1356.95 2287.37 1329.45 2287.37ZM1377.57 2280.49 1405.07 2280.49 1405.07 2287.37 1377.57 2287.37ZM1425.7 2280.49 1453.2 2280.49 1453.2 2287.37 1425.7 2287.37ZM1427.91 2258.01 1474.57 2283.93 1427.91 2309.85C1426.25 2310.77 1424.15 2310.17 1423.23 2308.52 1422.31 2306.86 1422.91 2304.76 1424.57 2303.84L1465.82 2280.92 1465.82 2286.93 1424.57 2264.02C1422.91 2263.1 1422.31 2261 1423.23 2259.34 1424.15 2257.68 1426.25 2257.09 1427.91 2258.01Z" fill="#AEAEAE"/><path d="M0-3.4375 27.5-3.4375 27.5 3.4375 0 3.4375ZM48.125-3.4375 75.625-3.4375 75.625 3.4375 48.125 3.4375ZM96.25-3.4375 123.75-3.4375 123.75 3.4375 96.25 3.4375ZM132.414 15.3988 132.414 42.8988 125.539 42.8988 125.539 15.3988ZM132.414 63.5238 132.414 91.0238 125.539 91.0238 125.539 63.5238ZM132.414 111.649 132.414 124.612 128.976 121.175 143.513 121.175 143.513 128.05 125.539 128.05 125.539 111.649ZM164.138 121.175 191.638 121.175 191.638 128.05 164.138 128.05ZM212.263 121.175 239.763 121.175 239.763 128.05 212.263 128.05ZM260.388 121.175 287.888 121.175 287.888 128.05 260.388 128.05ZM308.513 121.175 336.013 121.175 336.013 128.05 308.513 128.05ZM356.638 121.175 384.138 121.175 384.138 128.05 356.638 128.05ZM404.763 121.175 432.263 121.175 432.263 128.05 404.763 128.05ZM452.888 121.175 480.388 121.175 480.388 128.05 452.888 128.05ZM501.013 121.175 528.513 121.175 528.513 128.05 501.013 128.05ZM549.138 121.175 576.638 121.175 576.638 128.05 549.138 128.05ZM597.263 121.175 624.763 121.175 624.763 128.05 597.263 128.05ZM645.388 121.175 672.888 121.175 672.888 128.05 645.388 128.05ZM693.513 121.175 721.013 121.175 721.013 128.05 693.513 128.05ZM741.638 121.175 769.138 121.175 769.138 128.05 741.638 128.05ZM789.763 121.175 817.263 121.175 817.263 128.05 789.763 128.05ZM837.888 121.175 865.388 121.175 865.388 128.05 837.888 128.05ZM886.013 121.175 913.513 121.175 913.513 128.05 886.013 128.05ZM890.937 98.6906 937.596 124.612 890.937 150.534C889.277 151.456 887.185 150.858 886.263 149.198 885.341 147.539 885.939 145.446 887.598 144.524L928.848 121.607 928.848 127.617 887.598 104.7C885.939 103.778 885.341 101.686 886.263 100.026 887.185 98.3665 889.277 97.7686 890.937 98.6906Z" fill="#AEAEAE" transform="matrix(1 0 0 -1 1448.5 2833.11)"/><path d="M1448.5 2830.06 1476 2830.06 1476 2836.94 1448.5 2836.94ZM1496.63 2830.06 1524.13 2830.06 1524.13 2836.94 1496.63 2836.94ZM1544.75 2830.06 1572.25 2830.06 1572.25 2836.94 1544.75 2836.94ZM1579.08 2850.74 1579.08 2878.24 1572.2 2878.24 1572.2 2850.74ZM1579.08 2898.86 1579.08 2926.36 1572.2 2926.36 1572.2 2898.86ZM1579.08 2946.99 1579.08 2974.49 1572.2 2974.49 1572.2 2946.99ZM1579.08 2995.11 1579.08 3022.61 1572.2 3022.61 1572.2 2995.11ZM1579.08 3043.24 1579.08 3070.74 1572.2 3070.74 1572.2 3043.24ZM1579.08 3091.36 1579.08 3118.86 1572.2 3118.86 1572.2 3091.36ZM1579.08 3139.49 1579.08 3166.99 1572.2 3166.99 1572.2 3139.49ZM1579.08 3187.61 1579.08 3215.11 1572.2 3215.11 1572.2 3187.61ZM1579.08 3235.74 1579.08 3263.24 1572.2 3263.24 1572.2 3235.74ZM1579.08 3283.86 1579.08 3311.36 1572.2 3311.36 1572.2 3283.86ZM1590.74 3313.45 1618.24 3313.45 1618.24 3320.32 1590.74 3320.32ZM1638.87 3313.45 1666.37 3313.45 1666.37 3320.32 1638.87 3320.32ZM1686.99 3313.45 1714.49 3313.45 1714.49 3320.32 1686.99 3320.32ZM1735.12 3313.45 1762.62 3313.45 1762.62 3320.32 1735.12 3320.32ZM1783.24 3313.45 1810.74 3313.45 1810.74 3320.32 1783.24 3320.32ZM1831.37 3313.45 1858.87 3313.45 1858.87 3320.32 1831.37 3320.32ZM1879.49 3313.45 1906.99 3313.45 1906.99 3320.32 1879.49 3320.32ZM1927.62 3313.45 1955.12 3313.45 1955.12 3320.32 1927.62 3320.32ZM1975.74 3313.45 2003.24 3313.45 2003.24 3320.32 1975.74 3320.32ZM2023.87 3313.45 2051.37 3313.45 2051.37 3320.32 2023.87 3320.32ZM2071.99 3313.45 2099.49 3313.45 2099.49 3320.32 2071.99 3320.32ZM2120.12 3313.45 2147.62 3313.45 2147.62 3320.32 2120.12 3320.32ZM2168.24 3313.45 2195.74 3313.45 2195.74 3320.32 2168.24 3320.32ZM2216.37 3313.45 2243.87 3313.45 2243.87 3320.32 2216.37 3320.32ZM2264.49 3313.45 2291.99 3313.45 2291.99 3320.32 2264.49 3320.32ZM2312.62 3313.45 2340.12 3313.45 2340.12 3320.32 2312.62 3320.32ZM2360.74 3313.45 2388.24 3313.45 2388.24 3320.32 2360.74 3320.32ZM2408.87 3313.45 2414.62 3313.45 2414.62 3320.32 2408.87 3320.32ZM2375.03 3290.96 2421.69 3316.88 2375.03 3342.81C2373.37 3343.73 2371.28 3343.13 2370.36 3341.47 2369.44 3339.81 2370.03 3337.72 2371.69 3336.8L2412.94 3313.88 2412.94 3319.89 2371.69 3296.97C2370.03 3296.05 2369.44 3293.96 2370.36 3292.3 2371.28 3290.64 2373.37 3290.04 2375.03 3290.96Z" fill="#AEAEAE"/><text font-family="Aptos,Aptos_MSFontService,sans-serif" font-weight="400" font-size="64" transform="matrix(1 0 0 1 675.596 2402)">70%</text><text font-family="Aptos,Aptos_MSFontService,sans-serif" font-weight="400" font-size="64" transform="matrix(1 0 0 1 1254.58 2225)">20%</text><path d="M2385 2708 2463 2552 2905 2552 2983 2708 2905 2864 2463 2864Z" fill="#F2F2F2" fill-rule="evenodd"/><text font-family="Aptos,Aptos_MSFontService,sans-serif" font-weight="400" font-size="73" transform="matrix(1 0 0 1 2584.71 2732)">Group</text><path d="M2275 1826C2275 1797.28 2298.28 1774 2327 1774L2821 1774C2849.72 1774 2873 1797.28 2873 1826L2873 2034C2873 2062.72 2849.72 2086 2821 2086L2327 2086C2298.28 2086 2275 2062.72 2275 2034Z" fill="#F2F2F2" fill-rule="evenodd"/><text font-family="Aptos,Aptos_MSFontService,sans-serif" font-weight="400" font-size="73" transform="matrix(1 0 0 1 2438.25 1954)">alice.eth</text><text font-family="Aptos,Aptos_MSFontService,sans-serif" font-weight="400" font-size="64" transform="matrix(1 0 0 1 1336.23 1739)">10%</text><text font-family="Aptos,Aptos_MSFontService,sans-serif" font-weight="400" font-size="64" transform="matrix(1 0 0 1 1721.19 3278)">7d / 2000 USDT</text><text font-family="Aptos,Aptos_MSFontService,sans-serif" font-weight="400" font-size="64" transform="matrix(1 0 0 1 1701.12 2666)">14d / 100 ETH</text><path d="M3673 2288C3673 2259.28 3696.28 2236 3725 2236L4219 2236C4247.72 2236 4271 2259.28 4271 2288L4271 2496C4271 2524.72 4247.72 2548 4219 2548L3725 2548C3696.28 2548 3673 2524.72 3673 2496Z" fill="#F2F2F2" fill-rule="evenodd"/><text font-family="Aptos,Aptos_MSFontService,sans-serif" font-weight="400" font-size="73" transform="matrix(1 0 0 1 3850.96 2416)">bob.eth</text><text font-family="Aptos,Aptos_MSFontService,sans-serif" font-weight="400" font-size="64" transform="matrix(1 0 0 1 3196.78 2357)">1. / 200 EUR</text><path d="M0-3.4375 27.5-3.4375 27.5 3.4375 0 3.4375ZM48.125-3.4375 75.625-3.4375 75.625 3.4375 48.125 3.4375ZM96.25-3.4375 122.734-3.4375 122.734 4.45303 115.859 4.45303 115.859 0 119.297 3.4375 96.25 3.4375ZM122.734 25.078 122.734 52.578 115.859 52.578 115.859 25.078ZM122.734 73.203 122.734 100.703 115.859 100.703 115.859 73.203ZM122.734 121.328 122.734 148.828 115.859 148.828 115.859 121.328ZM122.734 169.453 122.734 196.953 115.859 196.953 115.859 169.453ZM122.734 217.578 122.734 245.078 115.859 245.078 115.859 217.578ZM122.734 265.703 122.734 293.203 115.859 293.203 115.859 265.703ZM122.734 313.828 122.734 315.966 119.297 312.528 144.659 312.528 144.659 319.403 115.859 319.403 115.859 313.828ZM165.284 312.528 192.784 312.528 192.784 319.403 165.284 319.403ZM213.409 312.528 240.909 312.528 240.909 319.403 213.409 319.403ZM261.534 312.528 289.034 312.528 289.034 319.403 261.534 319.403ZM309.659 312.528 337.159 312.528 337.159 319.403 309.659 319.403ZM357.784 312.528 385.284 312.528 385.284 319.403 357.784 319.403ZM405.909 312.528 433.409 312.528 433.409 319.403 405.909 319.403ZM454.034 312.528 481.534 312.528 481.534 319.403 454.034 319.403ZM502.159 312.528 529.659 312.528 529.659 319.403 502.159 319.403ZM550.284 312.528 577.784 312.528 577.784 319.403 550.284 319.403ZM598.409 312.528 625.909 312.528 625.909 319.403 598.409 319.403ZM646.534 312.528 674.034 312.528 674.034 319.403 646.534 319.403ZM643.716 290.044 690.374 315.966 643.716 341.888C642.056 342.81 639.963 342.212 639.041 340.552 638.119 338.892 638.717 336.8 640.377 335.878L681.627 312.961 681.627 318.971 640.377 296.054C638.717 295.132 638.119 293.039 639.041 291.38 639.963 289.72 642.056 289.122 643.716 290.044Z" fill="#AEAEAE" transform="matrix(1 0 0 -1 2983.5 2708.47)"/><path d="M4270 2792C4270 2763.28 4293.28 2740 4322 2740L4815 2740C4843.72 2740 4867 2763.28 4867 2792L4867 3000C4867 3028.72 4843.72 3052 4815 3052L4322 3052C4293.28 3052 4270 3028.72 4270 3000Z" fill="#F2F2F2" fill-rule="evenodd"/><text font-family="Aptos,Aptos_MSFontService,sans-serif" font-weight="400" font-size="73" transform="matrix(1 0 0 1 4384.71 2920)">0x56E…117</text><path d="M4622 3323C4622 3294.28 4645.28 3271 4674 3271L5168 3271C5196.72 3271 5220 3294.28 5220 3323L5220 3531C5220 3559.72 5196.72 3583 5168 3583L4674 3583C4645.28 3583 4622 3559.72 4622 3531Z" fill="#F2F2F2" fill-rule="evenodd"/><text font-family="Aptos,Aptos_MSFontService,sans-serif" font-weight="400" font-size="73" transform="matrix(1 0 0 1 4732.08 3451)">0xd23…5D2</text><path d="M2983.5 2705.06 3011 2705.06 3011 2711.94 2983.5 2711.94ZM3031.62 2705.06 3059.12 2705.06 3059.12 2711.94 3031.62 2711.94ZM3079.75 2705.06 3107.25 2705.06 3107.25 2711.94 3079.75 2711.94ZM3127.88 2705.06 3155.38 2705.06 3155.38 2711.94 3127.88 2711.94ZM3176 2705.06 3203.5 2705.06 3203.5 2711.94 3176 2711.94ZM3224.12 2705.06 3251.62 2705.06 3251.62 2711.94 3224.12 2711.94ZM3272.25 2705.06 3299.75 2705.06 3299.75 2711.94 3272.25 2711.94ZM3320.38 2705.06 3347.88 2705.06 3347.88 2711.94 3320.38 2711.94ZM3368.5 2705.06 3396 2705.06 3396 2711.94 3368.5 2711.94ZM3414.12 2714.44 3414.12 2741.94 3407.25 2741.94 3407.25 2714.44ZM3414.12 2762.56 3414.12 2790.06 3407.25 2790.06 3407.25 2762.56ZM3414.12 2810.69 3414.12 2838.19 3407.25 2838.19 3407.25 2810.69ZM3414.12 2858.81 3414.12 2886.31 3407.25 2886.31 3407.25 2858.81ZM3421.3 2892.89 3448.8 2892.89 3448.8 2899.76 3421.3 2899.76ZM3469.43 2892.89 3496.93 2892.89 3496.93 2899.76 3469.43 2899.76ZM3517.55 2892.89 3545.05 2892.89 3545.05 2899.76 3517.55 2899.76ZM3565.68 2892.89 3593.18 2892.89 3593.18 2899.76 3565.68 2899.76ZM3613.8 2892.89 3641.3 2892.89 3641.3 2899.76 3613.8 2899.76ZM3661.93 2892.89 3689.43 2892.89 3689.43 2899.76 3661.93 2899.76ZM3710.05 2892.89 3737.55 2892.89 3737.55 2899.76 3710.05 2899.76ZM3758.18 2892.89 3785.68 2892.89 3785.68 2899.76 3758.18 2899.76ZM3806.3 2892.89 3833.8 2892.89 3833.8 2899.76 3806.3 2899.76ZM3854.43 2892.89 3881.93 2892.89 3881.93 2899.76 3854.43 2899.76ZM3902.55 2892.89 3930.05 2892.89 3930.05 2899.76 3902.55 2899.76ZM3950.68 2892.89 3978.18 2892.89 3978.18 2899.76 3950.68 2899.76ZM3998.8 2892.89 4026.3 2892.89 4026.3 2899.76 3998.8 2899.76ZM4046.93 2892.89 4074.43 2892.89 4074.43 2899.76 4046.93 2899.76ZM4095.05 2892.89 4122.55 2892.89 4122.55 2899.76 4095.05 2899.76ZM4143.18 2892.89 4170.68 2892.89 4170.68 2899.76 4143.18 2899.76ZM4191.3 2892.89 4218.8 2892.89 4218.8 2899.76 4191.3 2899.76ZM4239.43 2892.89 4262.93 2892.89 4262.93 2899.76 4239.43 2899.76ZM4223.35 2870.4 4270.01 2896.32 4223.35 2922.25C4221.69 2923.17 4219.59 2922.57 4218.67 2920.91 4217.75 2919.25 4218.35 2917.16 4220.01 2916.24L4261.26 2893.32 4261.26 2899.33 4220.01 2876.41C4218.35 2875.49 4217.75 2873.4 4218.67 2871.74 4219.59 2870.08 4221.69 2869.48 4223.35 2870.4Z" fill="#AEAEAE"/><path d="M2983.5 2705.06 3011 2705.06 3011 2711.94 2983.5 2711.94ZM3031.62 2705.06 3059.12 2705.06 3059.12 2711.94 3031.62 2711.94ZM3079.75 2705.06 3107.25 2705.06 3107.25 2711.94 3079.75 2711.94ZM3127.88 2705.06 3155.38 2705.06 3155.38 2711.94 3127.88 2711.94ZM3176 2705.06 3203.5 2705.06 3203.5 2711.94 3176 2711.94ZM3224.12 2705.06 3251.62 2705.06 3251.62 2711.94 3224.12 2711.94ZM3272.25 2705.06 3299.75 2705.06 3299.75 2711.94 3272.25 2711.94ZM3320.38 2705.06 3347.88 2705.06 3347.88 2711.94 3320.38 2711.94ZM3368.5 2705.06 3396 2705.06 3396 2711.94 3368.5 2711.94ZM3413.73 2714.83 3413.73 2742.33 3406.85 2742.33 3406.85 2714.83ZM3413.73 2762.96 3413.73 2790.46 3406.85 2790.46 3406.85 2762.96ZM3413.73 2811.08 3413.73 2838.58 3406.85 2838.58 3406.85 2811.08ZM3413.73 2859.21 3413.73 2886.71 3406.85 2886.71 3406.85 2859.21ZM3413.73 2907.33 3413.73 2934.83 3406.85 2934.83 3406.85 2907.33ZM3413.73 2955.46 3413.73 2982.96 3406.85 2982.96 3406.85 2955.46ZM3413.73 3003.58 3413.73 3031.08 3406.85 3031.08 3406.85 3003.58ZM3413.73 3051.71 3413.73 3079.21 3406.85 3079.21 3406.85 3051.71ZM3413.73 3099.83 3413.73 3127.33 3406.85 3127.33 3406.85 3099.83ZM3413.73 3147.96 3413.73 3175.46 3406.85 3175.46 3406.85 3147.96ZM3413.73 3196.08 3413.73 3223.58 3406.85 3223.58 3406.85 3196.08ZM3413.73 3244.21 3413.73 3271.71 3406.85 3271.71 3406.85 3244.21ZM3413.73 3292.33 3413.73 3319.83 3406.85 3319.83 3406.85 3292.33ZM3413.73 3340.46 3413.73 3367.96 3406.85 3367.96 3406.85 3340.46ZM3413.73 3388.58 3413.73 3416.08 3406.85 3416.08 3406.85 3388.58ZM3419.34 3424.22 3446.84 3424.22 3446.84 3431.09 3419.34 3431.09ZM3467.47 3424.22 3494.97 3424.22 3494.97 3431.09 3467.47 3431.09ZM3515.59 3424.22 3543.09 3424.22 3543.09 3431.09 3515.59 3431.09ZM3563.72 3424.22 3591.22 3424.22 3591.22 3431.09 3563.72 3431.09ZM3611.84 3424.22 3639.34 3424.22 3639.34 3431.09 3611.84 3431.09ZM3659.97 3424.22 3687.47 3424.22 3687.47 3431.09 3659.97 3431.09ZM3708.09 3424.22 3735.59 3424.22 3735.59 3431.09 3708.09 3431.09ZM3756.22 3424.22 3783.72 3424.22 3783.72 3431.09 3756.22 3431.09ZM3804.34 3424.22 3831.84 3424.22 3831.84 3431.09 3804.34 3431.09ZM3852.47 3424.22 3879.97 3424.22 3879.97 3431.09 3852.47 3431.09ZM3900.59 3424.22 3928.09 3424.22 3928.09 3431.09 3900.59 3431.09ZM3948.72 3424.22 3976.22 3424.22 3976.22 3431.09 3948.72 3431.09ZM3996.84 3424.22 4024.34 3424.22 4024.34 3431.09 3996.84 3431.09ZM4044.97 3424.22 4072.47 3424.22 4072.47 3431.09 4044.97 3431.09ZM4093.09 3424.22 4120.59 3424.22 4120.59 3431.09 4093.09 3431.09ZM4141.22 3424.22 4168.72 3424.22 4168.72 3431.09 4141.22 3431.09ZM4189.34 3424.22 4216.84 3424.22 4216.84 3431.09 4189.34 3431.09ZM4237.47 3424.22 4264.97 3424.22 4264.97 3431.09 4237.47 3431.09ZM4285.59 3424.22 4313.09 3424.22 4313.09 3431.09 4285.59 3431.09ZM4333.72 3424.22 4361.22 3424.22 4361.22 3431.09 4333.72 3431.09ZM4381.84 3424.22 4409.34 3424.22 4409.34 3431.09 4381.84 3431.09ZM4429.97 3424.22 4457.47 3424.22 4457.47 3431.09 4429.97 3431.09ZM4478.09 3424.22 4505.59 3424.22 4505.59 3431.09 4478.09 3431.09ZM4526.22 3424.22 4553.72 3424.22 4553.72 3431.09 4526.22 3431.09ZM4574.34 3424.22 4601.84 3424.22 4601.84 3431.09 4574.34 3431.09ZM4576.13 3401.74 4622.79 3427.66 4576.13 3453.58C4574.47 3454.5 4572.38 3453.9 4571.46 3452.24 4570.54 3450.58 4571.13 3448.49 4572.79 3447.57L4614.04 3424.65 4614.04 3430.66 4572.79 3407.75C4571.13 3406.82 4570.54 3404.73 4571.46 3403.07 4572.38 3401.41 4574.47 3400.81 4576.13 3401.74Z" fill="#AEAEAE"/><text font-family="Aptos,Aptos_MSFontService,sans-serif" font-weight="400" font-size="64" transform="matrix(1 0 0 1 3456.72 2853)">2. / 100 USDC</text><text font-family="Aptos,Aptos_MSFontService,sans-serif" font-weight="400" font-size="64" transform="matrix(1 0 0 1 3456.72 3369)">3. / 400 EUR</text></g></svg>