<svg width="2114" height="3028" xmlns="http://www.w3.org/2000/svg" xmlns:xlink="http://www.w3.org/1999/xlink" xml:space="preserve" overflow="hidden"><defs><clipPath id="clip0"><rect x="174" y="190" width="2114" height="3028"/></clipPath></defs><g clip-path="url(#clip0)" transform="translate(-174 -190)"><path d="M0-3.4375 27.5-3.4375 27.5 3.4375 0 3.4375ZM48.125-3.4375 75.625-3.4375 75.625 3.4375 48.125 3.4375ZM96.25-3.4375 123.75-3.4375 123.75 3.4375 96.25 3.4375ZM144.375-3.4375 171.875-3.4375 171.875 3.4375 144.375 3.4375ZM192.5-3.4375 220-3.4375 220 3.4375 192.5 3.4375ZM240.625-3.4375 268.125-3.4375 268.125 3.4375 240.625 3.4375ZM288.75-3.4375 316.25-3.4375 316.25 3.4375 288.75 3.4375ZM336.875-3.4375 364.375-3.4375 364.375 3.4375 336.875 3.4375ZM385-3.4375 412.5-3.4375 412.5 3.4375 385 3.4375ZM433.125-3.4375 460.625-3.4375 460.625 3.4375 433.125 3.4375ZM481.25-3.4375 508.75-3.4375 508.75 3.4375 481.25 3.4375ZM529.375-3.4375 556.875-3.4375 556.875 3.4375 529.375 3.4375ZM577.5-3.4375 605-3.4375 605 3.4375 577.5 3.4375ZM625.625-3.4375 653.125-3.4375 653.125 3.4375 625.625 3.4375ZM673.75-3.4375 701.25-3.4375 701.25 3.4375 673.75 3.4375ZM721.875-3.4375 749.375-3.4375 749.375 3.4375 721.875 3.4375ZM770-3.4375 798.734-3.4375 798.734 2.20361 791.859 2.20361 791.859 0 795.296 3.4375 770 3.4375ZM798.734 22.8286 798.734 50.3286 791.859 50.3286 791.859 22.8286ZM798.734 70.9536 798.734 98.4536 791.859 98.4536 791.859 70.9536ZM798.734 119.079 798.734 146.579 791.859 146.579 791.859 119.079ZM798.734 167.204 798.734 194.704 791.859 194.704 791.859 167.204ZM798.734 215.329 798.734 242.829 791.859 242.829 791.859 215.329ZM798.734 263.454 798.734 290.954 791.859 290.954 791.859 263.454ZM798.734 311.579 798.734 339.079 791.859 339.079 791.859 311.579ZM798.734 359.704 798.734 387.204 791.859 387.204 791.859 359.704ZM798.734 407.829 798.734 435.329 791.859 435.329 791.859 407.829ZM798.734 455.954 798.734 483.454 791.859 483.454 791.859 455.954ZM798.734 504.079 798.734 531.579 791.859 531.579 791.859 504.079ZM798.734 552.204 798.734 579.704 791.859 579.704 791.859 552.204ZM798.734 600.329 798.734 627.829 791.859 627.829 791.859 600.329ZM798.734 648.454 798.734 675.954 791.859 675.954 791.859 648.454ZM798.734 696.579 798.734 724.079 791.859 724.079 791.859 696.579ZM798.734 744.704 798.734 758.988 791.859 758.988 791.859 744.704ZM821.218 719.406 795.296 766.065 769.375 719.406C768.453 717.746 769.051 715.654 770.71 714.732 772.37 713.81 774.463 714.408 775.385 716.067L798.301 757.317 792.292 757.317 815.208 716.067C816.13 714.408 818.223 713.81 819.882 714.732 821.542 715.654 822.14 717.746 821.218 719.406Z" fill="#AEAEAE" transform="matrix(-1 1.22465e-16 1.22465e-16 1 1977.8 2140.5)"/><path d="M0-3.4375 27.5-3.4375 27.5 3.4375 0 3.4375ZM48.125-3.4375 75.625-3.4375 75.625 3.4375 48.125 3.4375ZM96.25-3.4375 123.75-3.4375 123.75 3.4375 96.25 3.4375ZM144.375-3.4375 171.875-3.4375 171.875 3.4375 144.375 3.4375ZM192.5-3.4375 220-3.4375 220 3.4375 192.5 3.4375ZM240.625-3.4375 268.125-3.4375 268.125 3.4375 240.625 3.4375ZM288.75-3.4375 316.25-3.4375 316.25 3.4375 288.75 3.4375ZM336.875-3.4375 351.475-3.4375 351.475 2.29203 348.037-1.14547 362.083-1.14547 362.083 5.72953 344.6 5.72953 344.6 0 348.037 3.4375 336.875 3.4375ZM382.708-1.14547 410.208-1.14547 410.208 5.72953 382.708 5.72953ZM430.833-1.14547 458.333-1.14547 458.333 5.72953 430.833 5.72953ZM478.958-1.14547 506.458-1.14547 506.458 5.72953 478.958 5.72953ZM527.083-1.14547 554.583-1.14547 554.583 5.72953 527.083 5.72953ZM575.208-1.14547 602.708-1.14547 602.708 5.72953 575.208 5.72953ZM623.333-1.14547 650.833-1.14547 650.833 5.72953 623.333 5.72953ZM671.458-1.14547 688.993-1.14547 688.993 5.72953 671.458 5.72953ZM649.412-23.6296 696.071 2.29203 649.412 28.2136C647.753 29.1356 645.66 28.5377 644.738 26.8781 643.816 25.2185 644.414 23.1258 646.073 22.2038L687.323-0.712888 687.323 5.29694 646.073-17.6197C644.414-18.5417 643.816-20.6345 644.738-22.294 645.66-23.9536 647.753-24.5515 649.412-23.6296Z" fill="#AEAEAE" transform="matrix(1.83697e-16 1 1 -1.83697e-16 473.5 502.5)"/><path d="M174 242.001C174 213.282 197.281 190 226.001 190L719.999 190C748.719 190 772 213.282 772 242.001L772 449.999C772 478.718 748.719 502 719.999 502L226.001 502C197.281 502 174 478.718 174 449.999Z" fill="#F2F2F2" fill-rule="evenodd"/><text font-family="Geist Mono,Geist Mono_MSFontService,sans-serif" font-weight="400" font-size="73" transform="matrix(1 0 0 1 385.043 370)">Pool</text><path d="M1680 938C1680 909.281 1703.28 886 1732 886L2226 886C2254.72 886 2278 909.281 2278 938L2278 1146C2278 1174.72 2254.72 1198 2226 1198L1732 1198C1703.28 1198 1680 1174.72 1680 1146Z" fill="#F2F2F2" fill-rule="evenodd"/><text font-family="Geist Mono,Geist Mono_MSFontService,sans-serif" font-weight="400" font-size="73" transform="matrix(1 0 0 1 1714.48 1066)">doe@mail.com</text><path d="M177 2189.83C177 2161.21 200.207 2138 228.834 2138L722.166 2138C750.793 2138 774 2161.21 774 2189.83L774 2397.17C774 2425.79 750.793 2449 722.166 2449L228.834 2449C200.207 2449 177 2425.79 177 2397.17Z" fill="#F2F2F2" fill-rule="evenodd"/><text font-family="Geist Mono,Geist Mono_MSFontService,sans-serif" font-weight="400" font-size="73" transform="matrix(1 0 0 1 299.106 2318)">555</text><text font-family="Geist Mono,Geist Mono_MSFontService,sans-serif" font-weight="400" font-size="73" transform="matrix(1 0 0 1 431.45 2318)">-</text><text font-family="Geist Mono,Geist Mono_MSFontService,sans-serif" font-weight="400" font-size="73" transform="matrix(1 0 0 1 475.564 2318)">3812</text><path d="M772.5 343.062 800 343.062 800 349.938 772.5 349.938ZM820.625 343.062 848.125 343.062 848.125 349.938 820.625 349.938ZM868.75 343.062 896.25 343.062 896.25 349.938 868.75 349.938ZM916.875 343.062 944.375 343.062 944.375 349.938 916.875 349.938ZM965 343.062 992.5 343.062 992.5 349.938 965 349.938ZM1013.12 343.062 1040.62 343.062 1040.62 349.938 1013.12 349.938ZM1061.25 343.062 1088.75 343.062 1088.75 349.938 1061.25 349.938ZM1109.37 343.062 1113.1 343.062 1116.53 346.5 1116.53 347.514 1113.1 344.077 1135.86 344.077 1135.86 350.952 1113.1 350.952 1109.66 347.514 1109.66 346.5 1113.1 349.938 1109.37 349.938ZM1156.49 344.077 1183.99 344.077 1183.99 350.952 1156.49 350.952ZM1204.61 344.077 1232.11 344.077 1232.11 350.952 1204.61 350.952ZM1252.74 344.077 1280.24 344.077 1280.24 350.952 1252.74 350.952ZM1300.86 344.077 1328.36 344.077 1328.36 350.952 1300.86 350.952ZM1348.99 344.077 1376.49 344.077 1376.49 350.952 1348.99 350.952ZM1397.11 344.077 1424.61 344.077 1424.61 350.952 1397.11 350.952ZM1445.24 344.077 1446.61 344.077 1446.61 350.952 1445.24 350.952ZM1407.03 321.593 1453.69 347.514 1407.03 373.436C1405.37 374.358 1403.28 373.76 1402.36 372.1 1401.43 370.441 1402.03 368.348 1403.69 367.426L1444.94 344.509 1444.94 350.519 1403.69 327.602C1402.03 326.68 1401.43 324.588 1402.36 322.928 1403.28 321.268 1405.37 320.671 1407.03 321.593Z" fill="#AEAEAE"/><path d="M772.5 343.062 800 343.062 800 349.938 772.5 349.938ZM820.625 343.062 848.125 343.062 848.125 349.938 820.625 349.938ZM868.75 343.062 896.25 343.062 896.25 349.938 868.75 349.938ZM916.875 343.062 944.375 343.062 944.375 349.938 916.875 349.938ZM965 343.062 992.5 343.062 992.5 349.938 965 349.938ZM1013.12 343.062 1040.62 343.062 1040.62 349.938 1013.12 349.938ZM1061.25 343.062 1088.75 343.062 1088.75 349.938 1061.25 349.938ZM1109.37 343.062 1136.87 343.062 1136.87 349.938 1109.37 349.938ZM1157.5 343.062 1185 343.062 1185 349.938 1157.5 349.938ZM1205.62 343.062 1230.06 343.062 1230.06 352.999 1223.19 352.999 1223.19 346.5 1226.63 349.938 1205.62 349.938ZM1230.06 373.624 1230.06 401.124 1223.19 401.124 1223.19 373.624ZM1230.06 421.749 1230.06 449.249 1223.19 449.249 1223.19 421.749ZM1230.06 469.874 1230.06 497.374 1223.19 497.374 1223.19 469.874ZM1230.06 517.999 1230.06 545.499 1223.19 545.499 1223.19 517.999ZM1230.06 566.124 1230.06 593.624 1223.19 593.624 1223.19 566.124ZM1230.06 614.249 1230.06 641.749 1223.19 641.749 1223.19 614.249ZM1230.06 662.374 1230.06 689.874 1223.19 689.874 1223.19 662.374ZM1230.06 710.499 1230.06 737.999 1223.19 737.999 1223.19 710.499ZM1230.06 758.624 1230.06 786.124 1223.19 786.124 1223.19 758.624ZM1230.06 806.749 1230.06 834.249 1223.19 834.249 1223.19 806.749ZM1230.06 854.874 1230.06 882.374 1223.19 882.374 1223.19 854.874ZM1230.06 902.999 1230.06 930.499 1223.19 930.499 1223.19 902.999ZM1230.06 951.124 1230.06 978.624 1223.19 978.624 1223.19 951.124ZM1230.06 999.249 1230.06 1026.75 1223.19 1026.75 1223.19 999.249ZM1231.43 1039.14 1258.93 1039.14 1258.93 1046.01 1231.43 1046.01ZM1279.55 1039.14 1307.05 1039.14 1307.05 1046.01 1279.55 1046.01ZM1327.68 1039.14 1355.18 1039.14 1355.18 1046.01 1327.68 1046.01ZM1375.8 1039.14 1403.3 1039.14 1403.3 1046.01 1375.8 1046.01ZM1423.93 1039.14 1451.43 1039.14 1451.43 1046.01 1423.93 1046.01ZM1472.05 1039.14 1499.55 1039.14 1499.55 1046.01 1472.05 1046.01ZM1520.18 1039.14 1547.68 1039.14 1547.68 1046.01 1520.18 1046.01ZM1568.3 1039.14 1595.8 1039.14 1595.8 1046.01 1568.3 1046.01ZM1616.43 1039.14 1643.93 1039.14 1643.93 1046.01 1616.43 1046.01ZM1664.55 1039.14 1673.67 1039.14 1673.67 1046.01 1664.55 1046.01ZM1634.09 1016.65 1680.75 1042.57 1634.09 1068.5C1632.43 1069.42 1630.34 1068.82 1629.42 1067.16 1628.49 1065.5 1629.09 1063.41 1630.75 1062.49L1672 1039.57 1672 1045.58 1630.75 1022.66C1629.09 1021.74 1628.49 1019.65 1629.42 1017.99 1630.34 1016.33 1632.43 1015.73 1634.09 1016.65Z" fill="#AEAEAE"/><path d="M773.5 1351.06 801 1351.06 801 1357.94 773.5 1357.94ZM821.625 1351.06 849.125 1351.06 849.125 1357.94 821.625 1357.94ZM869.75 1351.06 897.25 1351.06 897.25 1357.94 869.75 1357.94ZM917.875 1351.06 945.375 1351.06 945.375 1357.94 917.875 1357.94ZM966 1351.06 993.5 1351.06 993.5 1357.94 966 1357.94ZM1014.12 1351.06 1041.62 1351.06 1041.62 1357.94 1014.12 1357.94ZM1062.25 1351.06 1089.75 1351.06 1089.75 1357.94 1062.25 1357.94ZM1110.38 1351.06 1137.88 1351.06 1137.88 1357.94 1110.38 1357.94ZM1158.5 1351.06 1186 1351.06 1186 1357.94 1158.5 1357.94ZM1206.62 1351.06 1234.12 1351.06 1234.12 1357.94 1206.62 1357.94ZM1254.75 1351.06 1282.25 1351.06 1282.25 1357.94 1254.75 1357.94ZM1302.88 1351.06 1330.38 1351.06 1330.38 1357.94 1302.88 1357.94ZM1351 1351.06 1365.47 1351.06 1365.47 1370.97 1358.6 1370.97 1358.6 1354.5 1362.03 1357.94 1351 1357.94ZM1365.47 1391.59 1365.47 1419.09 1358.6 1419.09 1358.6 1391.59ZM1365.47 1439.72 1365.47 1467.22 1358.6 1467.22 1358.6 1439.72ZM1365.47 1487.84 1365.47 1515.34 1358.6 1515.34 1358.6 1487.84ZM1365.47 1535.97 1365.47 1563.47 1358.6 1563.47 1358.6 1535.97ZM1365.47 1584.09 1365.47 1611.59 1358.6 1611.59 1358.6 1584.09ZM1365.47 1632.22 1365.47 1659.72 1358.6 1659.72 1358.6 1632.22ZM1365.47 1680.34 1365.47 1707.84 1358.6 1707.84 1358.6 1680.34ZM1365.47 1728.47 1365.47 1755.97 1358.6 1755.97 1358.6 1728.47ZM1365.47 1776.59 1365.47 1804.09 1358.6 1804.09 1358.6 1776.59ZM1365.47 1824.72 1365.47 1830.79 1362.03 1827.35 1383.46 1827.35 1383.46 1834.22 1358.6 1834.22 1358.6 1824.72ZM1404.09 1827.35 1431.59 1827.35 1431.59 1834.22 1404.09 1834.22ZM1452.21 1827.35 1479.71 1827.35 1479.71 1834.22 1452.21 1834.22ZM1500.34 1827.35 1527.84 1827.35 1527.84 1834.22 1500.34 1834.22ZM1548.46 1827.35 1575.96 1827.35 1575.96 1834.22 1548.46 1834.22ZM1596.59 1827.35 1624.09 1827.35 1624.09 1834.22 1596.59 1834.22ZM1644.71 1827.35 1672.21 1827.35 1672.21 1834.22 1644.71 1834.22ZM1634.51 1804.87 1681.17 1830.79 1634.51 1856.71C1632.85 1857.63 1630.76 1857.03 1629.83 1855.37 1628.91 1853.71 1629.51 1851.62 1631.17 1850.7L1672.42 1827.78 1672.42 1833.79 1631.17 1810.88C1629.51 1809.95 1628.91 1807.86 1629.83 1806.2 1630.76 1804.54 1632.85 1803.94 1634.51 1804.87Z" fill="#AEAEAE"/><text font-family="Geist Mono,Geist Mono_MSFontService,sans-serif" font-weight="400" font-size="64" transform="matrix(1 0 0 1 506.194 850)">40%</text><text font-family="Geist Mono,Geist Mono_MSFontService,sans-serif" font-weight="400" font-size="64" transform="matrix(1 0 0 1 1391.35 1006)">20%</text><path d="M1680 1830 1758 1674 2200 1674 2278 1830 2200 1986 1758 1986Z" fill="#F2F2F2" fill-rule="evenodd"/><text font-family="Geist Mono,Geist Mono_MSFontService,sans-serif" font-weight="400" font-size="73" transform="matrix(1 0 0 1 1868.88 1854)">Group</text><path d="M1453 243.001C1453 214.282 1476.28 191 1505 191L1999 191C2027.72 191 2051 214.282 2051 243.001L2051 450.999C2051 479.718 2027.72 503 1999 503L1505 503C1476.28 503 1453 479.718 1453 450.999Z" fill="#F2F2F2" fill-rule="evenodd"/><text font-family="Geist Mono,Geist Mono_MSFontService,sans-serif" font-weight="400" font-size="73" transform="matrix(1 0 0 1 1553.59 327)">Liquidity</text><text font-family="Geist Mono,Geist Mono_MSFontService,sans-serif" font-weight="400" font-size="73" transform="matrix(1 0 0 1 1663.89 415)">Pool</text><text font-family="Geist Mono,Geist Mono_MSFontService,sans-serif" font-weight="400" font-size="64" transform="matrix(1 0 0 1 942.374 307)">40%</text><text font-family="Geist Mono,Geist Mono_MSFontService,sans-serif" font-weight="400" font-size="64" transform="matrix(1 0 0 1 513.824 1845)">7d / 2000 USDT</text><text font-family="Geist Mono,Geist Mono_MSFontService,sans-serif" font-weight="400" font-size="64" transform="matrix(1 0 0 1 807.383 1311)">14d / 100 ETH</text><text font-family="Geist Mono,Geist Mono_MSFontService,sans-serif" font-weight="400" font-size="64" transform="matrix(1 0 0 1 1453.04 2358)">1. / 200 EUR</text><path d="M883 2958C883 2929.28 906.282 2906 935.001 2906L1428 2906C1456.72 2906 1480 2929.28 1480 2958L1480 3166C1480 3194.72 1456.72 3218 1428 3218L935.001 3218C906.282 3218 883 3194.72 883 3166Z" fill="#F2F2F2" fill-rule="evenodd"/><text font-family="Geist Mono,Geist Mono_MSFontService,sans-serif" font-weight="400" font-size="73" transform="matrix(1 0 0 1 983.059 3086)">0x56E…117</text><path d="M1680 2565.83C1680 2537.21 1703.21 2514 1731.83 2514L2226.17 2514C2254.79 2514 2278 2537.21 2278 2565.83L2278 2773.17C2278 2801.79 2254.79 2825 2226.17 2825L1731.83 2825C1703.21 2825 1680 2801.79 1680 2773.17Z" fill="#F2F2F2" fill-rule="evenodd"/><text font-family="Geist Mono,Geist Mono_MSFontService,sans-serif" font-weight="400" font-size="73" transform="matrix(1 0 0 1 1780.65 2694)">alice.eth</text><path d="M0-3.4375 27.5-3.4375 27.5 3.4375 0 3.4375ZM48.125-3.4375 75.625-3.4375 75.625 3.4375 48.125 3.4375ZM96.25-3.4375 123.75-3.4375 123.75 3.4375 96.25 3.4375ZM144.375-3.4375 171.875-3.4375 171.875 3.4375 144.375 3.4375ZM192.5-3.4375 220-3.4375 220 3.4375 192.5 3.4375ZM240.625-3.4375 268.125-3.4375 268.125 3.4375 240.625 3.4375ZM286.458-1.14583 313.958-1.14583 313.958 5.72917 286.458 5.72917ZM334.583-1.14583 362.083-1.14583 362.083 5.72917 334.583 5.72917ZM382.708-1.14583 410.208-1.14583 410.208 5.72917 382.708 5.72917ZM430.833-1.14583 458.333-1.14583 458.333 5.72917 430.833 5.72917ZM478.958-1.14583 506.458-1.14583 506.458 5.72917 478.958 5.72917ZM527.083-1.14583 536.705-1.14583 536.705 5.72917 527.083 5.72917ZM497.124-23.6299 543.782 2.29167 497.124 28.2132C495.464 29.1352 493.371 28.5373 492.449 26.8777 491.527 25.2182 492.125 23.1254 493.785 22.2034L535.035-0.713249 535.035 5.29658 493.785-17.6201C492.125-18.5421 491.527-20.6348 492.449-22.2944 493.371-23.954 495.464-24.5519 497.124-23.6299Z" fill="#AEAEAE" transform="matrix(1.83697e-16 1 1 -1.83697e-16 1977.5 1970.5)"/><text font-family="Geist Mono,Geist Mono_MSFontService,sans-serif" font-weight="400" font-size="64" transform="matrix(1 0 0 1 1326.96 2100)">2. / 400 USDC</text><path d="M481.521 1499.5 481.521 1527 474.646 1527 474.646 1499.5ZM481.521 1547.62 481.521 1575.12 474.646 1575.12 474.646 1547.62ZM481.521 1595.75 481.521 1623.25 474.646 1623.25 474.646 1595.75ZM481.521 1643.87 481.521 1671.37 474.646 1671.37 474.646 1643.87ZM481.521 1692 481.521 1719.5 474.646 1719.5 474.646 1692ZM481.521 1740.12 481.521 1767.62 474.646 1767.62 474.646 1740.12ZM481.521 1788.25 481.521 1815.75 474.646 1815.75 474.646 1788.25ZM476.937 1831.79 476.937 1859.29 470.062 1859.29 470.062 1831.79ZM476.937 1879.92 476.937 1907.42 470.062 1907.42 470.062 1879.92ZM476.937 1928.04 476.937 1955.54 470.062 1955.54 470.062 1928.04ZM476.937 1976.17 476.937 2003.67 470.062 2003.67 470.062 1976.17ZM476.937 2024.29 476.937 2051.79 470.062 2051.79 470.062 2024.29ZM476.937 2072.42 476.937 2099.92 470.062 2099.92 470.062 2072.42ZM476.937 2120.54 476.937 2133.31 470.062 2133.31 470.062 2120.54ZM499.421 2093.73 473.5 2140.38 447.578 2093.73C446.656 2092.07 447.254 2089.97 448.914 2089.05 450.573 2088.13 452.666 2088.73 453.588 2090.39L476.505 2131.64 470.495 2131.64 493.412 2090.39C494.334 2088.73 496.426 2088.13 498.086 2089.05 499.745 2089.97 500.343 2092.07 499.421 2093.73Z" fill="#AEAEAE"/><path d="M175 1354 253 1198 695 1198 773 1354 695 1510 253 1510Z" fill="#F2F2F2" fill-rule="evenodd"/><text font-family="Geist Mono,Geist Mono_MSFontService,sans-serif" font-weight="400" font-size="73" transform="matrix(1 0 0 1 363.568 1378)">Group</text></g></svg>