<svg width="2210" height="2564" xmlns="http://www.w3.org/2000/svg" xmlns:xlink="http://www.w3.org/1999/xlink" xml:space="preserve" overflow="hidden"><defs><clipPath id="clip0"><rect x="174" y="190" width="2210" height="2564"/></clipPath></defs><g clip-path="url(#clip0)" transform="translate(-174 -190)"><path d="M1980.36 1605.5 1980.36 1633 1973.49 1633 1973.49 1605.5ZM1980.36 1653.63 1980.36 1681.13 1973.49 1681.13 1973.49 1653.63ZM1980.36 1701.75 1980.36 1729.25 1973.49 1729.25 1973.49 1701.75ZM1980.36 1749.88 1980.36 1777.38 1973.49 1777.38 1973.49 1749.88ZM1980.36 1798 1980.36 1816.65 1964.63 1816.65 1964.63 1809.77 1976.93 1809.77 1973.49 1813.21 1973.49 1798ZM1944.01 1816.65 1916.51 1816.65 1916.51 1809.77 1944.01 1809.77ZM1895.88 1816.65 1868.38 1816.65 1868.38 1809.77 1895.88 1809.77ZM1847.76 1816.65 1820.26 1816.65 1820.26 1809.77 1847.76 1809.77ZM1799.63 1816.65 1772.13 1816.65 1772.13 1809.77 1799.63 1809.77ZM1751.51 1816.65 1724.01 1816.65 1724.01 1809.77 1751.51 1809.77ZM1703.38 1816.65 1675.88 1816.65 1675.88 1809.77 1703.38 1809.77ZM1655.26 1816.65 1627.76 1816.65 1627.76 1809.77 1655.26 1809.77ZM1607.13 1816.65 1579.63 1816.65 1579.63 1809.77 1607.13 1809.77ZM1559.01 1816.65 1531.51 1816.65 1531.51 1809.77 1559.01 1809.77ZM1510.88 1816.65 1483.38 1816.65 1483.38 1809.77 1510.88 1809.77ZM1462.76 1816.65 1435.26 1816.65 1435.26 1809.77 1462.76 1809.77ZM1414.63 1816.65 1387.13 1816.65 1387.13 1809.77 1414.63 1809.77ZM1366.51 1816.65 1339.01 1816.65 1339.01 1809.77 1366.51 1809.77ZM1318.38 1816.65 1290.88 1816.65 1290.88 1809.77 1318.38 1809.77ZM1270.26 1816.65 1242.76 1816.65 1242.76 1809.77 1270.26 1809.77ZM1222.13 1816.65 1194.63 1816.65 1194.63 1809.77 1222.13 1809.77ZM1185.94 1821.7 1185.94 1849.2 1179.06 1849.2 1179.06 1821.7ZM1185.94 1869.82 1185.94 1897.32 1179.06 1897.32 1179.06 1869.82ZM1185.94 1917.95 1185.94 1945.45 1179.06 1945.45 1179.06 1917.95ZM1185.94 1966.07 1185.94 1993.57 1179.06 1993.57 1179.06 1966.07ZM1185.94 2014.2 1185.94 2041.7 1179.06 2041.7 1179.06 2014.2ZM1185.94 2062.32 1185.94 2089.82 1179.06 2089.82 1179.06 2062.32ZM1185.94 2110.45 1185.94 2137.95 1179.06 2137.95 1179.06 2110.45ZM1185.94 2158.57 1185.94 2186.07 1179.06 2186.07 1179.06 2158.57ZM1185.94 2206.7 1185.94 2234.2 1179.06 2234.2 1179.06 2206.7ZM1185.94 2254.82 1185.94 2282.32 1179.06 2282.32 1179.06 2254.82ZM1185.94 2302.95 1185.94 2330.45 1179.06 2330.45 1179.06 2302.95ZM1185.94 2351.07 1185.94 2378.57 1179.06 2378.57 1179.06 2351.07ZM1185.94 2399.2 1185.94 2426.7 1179.06 2426.7 1179.06 2399.2ZM1208.42 2396.57 1182.5 2443.23 1156.58 2396.57C1155.66 2394.91 1156.25 2392.82 1157.91 2391.9 1159.57 2390.98 1161.67 2391.57 1162.59 2393.23L1185.5 2434.48 1179.5 2434.48 1202.41 2393.23C1203.33 2391.57 1205.43 2390.98 1207.09 2391.9 1208.75 2392.82 1209.34 2394.91 1208.42 2396.57Z" fill="#AEAEAE"/><path d="M0-3.4375 27.5-3.4375 27.5 3.4375 0 3.4375ZM48.125-3.4375 75.625-3.4375 75.625 3.4375 48.125 3.4375ZM96.25-3.4375 123.75-3.4375 123.75 3.4375 96.25 3.4375ZM144.375-3.4375 171.875-3.4375 171.875 3.4375 144.375 3.4375ZM192.5-3.4375 220-3.4375 220 3.4375 192.5 3.4375ZM239.46-2.27254 266.96-2.27254 266.96 4.60246 239.46 4.60246ZM287.585-2.27254 315.085-2.27254 315.085 4.60246 287.585 4.60246ZM335.71-2.27254 363.21-2.27254 363.21 4.60246 335.71 4.60246ZM383.835-2.27254 411.335-2.27254 411.335 4.60246 383.835 4.60246ZM431.96-2.27254 459.46-2.27254 459.46 4.60246 431.96 4.60246ZM424.679-24.7566 471.338 1.16496 424.679 27.0865C423.019 28.0085 420.926 27.4106 420.004 25.751 419.082 24.0915 419.68 21.9987 421.34 21.0767L462.59-1.83996 462.59 4.16988 421.34-18.7468C419.68-19.6688 419.082-21.7615 420.004-23.4211 420.926-25.0807 423.019-25.6786 424.679-24.7566Z" fill="#AEAEAE" transform="matrix(1.83697e-16 1 1 -1.83697e-16 473.5 502.5)"/><path d="M174 242.001C174 213.282 197.281 190 226.001 190L719.999 190C748.719 190 772 213.282 772 242.001L772 449.999C772 478.718 748.719 502 719.999 502L226.001 502C197.281 502 174 478.718 174 449.999Z" fill="#F2F2F2" fill-rule="evenodd"/><text font-family="Aptos,Aptos_MSFontService,sans-serif" font-weight="400" font-size="73" transform="matrix(1 0 0 1 403.319 370)">Pool</text><path d="M1680 803.835C1680 775.207 1703.21 752 1731.83 752L2226.17 752C2254.79 752 2278 775.207 2278 803.835L2278 1011.17C2278 1039.79 2254.79 1063 2226.17 1063L1731.83 1063C1703.21 1063 1680 1039.79 1680 1011.17Z" fill="#F2F2F2" fill-rule="evenodd"/><text font-family="Aptos,Aptos_MSFontService,sans-serif" font-weight="400" font-size="73" transform="matrix(1 0 0 1 1736.78 931)">doe@mail.com</text><path d="M177 1806C177 1777.28 200.282 1754 229.001 1754L721.999 1754C750.718 1754 774 1777.28 774 1806L774 2014C774 2042.72 750.718 2066 721.999 2066L229.001 2066C200.282 2066 177 2042.72 177 2014Z" fill="#F2F2F2" fill-rule="evenodd"/><text font-family="Aptos,Aptos_MSFontService,sans-serif" font-weight="400" font-size="73" transform="matrix(1 0 0 1 326.606 1934)">555</text><text font-family="Aptos,Aptos_MSFontService,sans-serif" font-weight="400" font-size="73" transform="matrix(1 0 0 1 443.481 1934)">-</text><text font-family="Aptos,Aptos_MSFontService,sans-serif" font-weight="400" font-size="73" transform="matrix(1 0 0 1 468.689 1934)">3812</text><path d="M772.5 343.062 800 343.062 800 349.938 772.5 349.938ZM820.625 343.062 848.125 343.062 848.125 349.938 820.625 349.938ZM868.75 343.062 896.25 343.062 896.25 349.938 868.75 349.938ZM916.875 343.062 944.375 343.062 944.375 349.938 916.875 349.938ZM965 343.062 992.5 343.062 992.5 349.938 965 349.938ZM997.326 365.736 997.326 393.236 990.451 393.236 990.451 365.736ZM997.326 413.861 997.326 434.506 993.888 431.068 1000.74 431.068 1000.74 437.943 993.888 437.943 990.451 434.506 990.451 413.861ZM1021.37 431.068 1048.87 431.068 1048.87 437.943 1021.37 437.943ZM1069.49 431.068 1096.99 431.068 1096.99 437.943 1069.49 437.943ZM1117.62 431.068 1145.12 431.068 1145.12 437.943 1117.62 437.943ZM1165.74 431.068 1193.24 431.068 1193.24 437.943 1165.74 437.943ZM1213.87 431.068 1241.37 431.068 1241.37 437.943 1213.87 437.943ZM1261.99 431.068 1289.49 431.068 1289.49 437.943 1261.99 437.943ZM1310.12 431.068 1337.62 431.068 1337.62 437.943 1310.12 437.943ZM1358.24 431.068 1358.72 431.068 1358.72 437.943 1358.24 437.943ZM1319.14 408.584 1365.79 434.506 1319.14 460.427C1317.48 461.349 1315.38 460.751 1314.46 459.092 1313.54 457.432 1314.14 455.34 1315.8 454.418L1357.05 431.501 1357.05 437.511 1315.8 414.594C1314.14 413.672 1313.54 411.579 1314.46 409.92 1315.38 408.26 1317.48 407.662 1319.14 408.584Z" fill="#AEAEAE"/><path d="M772.5 343.062 800 343.062 800 349.938 772.5 349.938ZM820.625 343.062 848.125 343.062 848.125 349.938 820.625 349.938ZM868.75 343.062 896.25 343.062 896.25 349.938 868.75 349.938ZM916.875 343.062 944.375 343.062 944.375 349.938 916.875 349.938ZM965 343.062 994.582 343.062 994.582 347.856 987.707 347.856 987.707 346.5 991.144 349.938 965 349.938ZM994.582 368.481 994.582 395.981 987.707 395.981 987.707 368.481ZM994.582 416.606 994.582 444.106 987.707 444.106 987.707 416.606ZM994.582 464.731 994.582 492.231 987.707 492.231 987.707 464.731ZM994.582 512.856 994.582 540.356 987.707 540.356 987.707 512.856ZM994.582 560.981 994.582 588.481 987.707 588.481 987.707 560.981ZM994.582 609.106 994.582 636.606 987.707 636.606 987.707 609.106ZM994.582 657.231 994.582 684.731 987.707 684.731 987.707 657.231ZM994.582 705.356 994.582 732.856 987.707 732.856 987.707 705.356ZM994.582 753.481 994.582 780.981 987.707 780.981 987.707 753.481ZM994.582 801.606 994.582 829.106 987.707 829.106 987.707 801.606ZM994.582 849.731 994.582 877.231 987.707 877.231 987.707 849.731ZM994.582 897.856 994.582 908.328 991.144 904.89 1008.17 904.89 1008.17 911.765 987.707 911.765 987.707 897.856ZM1028.8 904.89 1056.3 904.89 1056.3 911.765 1028.8 911.765ZM1076.92 904.89 1104.42 904.89 1104.42 911.765 1076.92 911.765ZM1125.05 904.89 1152.55 904.89 1152.55 911.765 1125.05 911.765ZM1173.17 904.89 1200.67 904.89 1200.67 911.765 1173.17 911.765ZM1221.3 904.89 1248.8 904.89 1248.8 911.765 1221.3 911.765ZM1269.42 904.89 1296.92 904.89 1296.92 911.765 1269.42 911.765ZM1317.55 904.89 1345.05 904.89 1345.05 911.765 1317.55 911.765ZM1365.67 904.89 1393.17 904.89 1393.17 911.765 1365.67 911.765ZM1413.8 904.89 1441.3 904.89 1441.3 911.765 1413.8 911.765ZM1461.92 904.89 1489.42 904.89 1489.42 911.765 1461.92 911.765ZM1510.05 904.89 1537.55 904.89 1537.55 911.765 1510.05 911.765ZM1558.17 904.89 1585.67 904.89 1585.67 911.765 1558.17 911.765ZM1606.3 904.89 1633.8 904.89 1633.8 911.765 1606.3 911.765ZM1654.42 904.89 1673.67 904.89 1673.67 911.765 1654.42 911.765ZM1634.09 882.406 1680.75 908.328 1634.09 934.249C1632.43 935.171 1630.34 934.573 1629.42 932.914 1628.49 931.254 1629.09 929.162 1630.75 928.24L1672 905.323 1672 911.333 1630.75 888.416C1629.09 887.494 1628.49 885.401 1629.42 883.742 1630.34 882.082 1632.43 881.484 1634.09 882.406Z" fill="#AEAEAE"/><path d="M773.5 1124.06 801 1124.06 801 1130.94 773.5 1130.94ZM821.625 1124.06 849.125 1124.06 849.125 1130.94 821.625 1130.94ZM869.75 1124.06 897.25 1124.06 897.25 1130.94 869.75 1130.94ZM917.875 1124.06 945.375 1124.06 945.375 1130.94 917.875 1130.94ZM966 1124.06 993.5 1124.06 993.5 1130.94 966 1130.94ZM1014.12 1124.06 1041.62 1124.06 1041.62 1130.94 1014.12 1130.94ZM1062.25 1124.06 1089.75 1124.06 1089.75 1130.94 1062.25 1130.94ZM1110.38 1124.06 1137.88 1124.06 1137.88 1130.94 1110.38 1130.94ZM1158.5 1124.06 1186 1124.06 1186 1130.94 1158.5 1130.94ZM1206.62 1124.06 1230.77 1124.06 1230.77 1134.29 1223.9 1134.29 1223.9 1127.5 1227.34 1130.94 1206.62 1130.94ZM1230.77 1154.91 1230.77 1182.41 1223.9 1182.41 1223.9 1154.91ZM1230.77 1203.04 1230.77 1230.54 1223.9 1230.54 1223.9 1203.04ZM1230.77 1251.16 1230.77 1278.66 1223.9 1278.66 1223.9 1251.16ZM1230.77 1299.29 1230.77 1326.79 1223.9 1326.79 1223.9 1299.29ZM1230.77 1347.41 1230.77 1374.91 1223.9 1374.91 1223.9 1347.41ZM1230.77 1395.54 1230.77 1423.04 1223.9 1423.04 1223.9 1395.54ZM1230.77 1443.66 1230.77 1471.16 1223.9 1471.16 1223.9 1443.66ZM1230.77 1491.79 1230.77 1519.08 1227.34 1515.64 1227.55 1515.64 1227.55 1522.51 1223.9 1522.51 1223.9 1491.79ZM1248.17 1515.64 1275.67 1515.64 1275.67 1522.51 1248.17 1522.51ZM1296.3 1515.64 1323.8 1515.64 1323.8 1522.51 1296.3 1522.51ZM1344.42 1515.64 1371.92 1515.64 1371.92 1522.51 1344.42 1522.51ZM1392.55 1515.64 1420.05 1515.64 1420.05 1522.51 1392.55 1522.51ZM1440.67 1515.64 1468.17 1515.64 1468.17 1522.51 1440.67 1522.51ZM1488.8 1515.64 1516.3 1515.64 1516.3 1522.51 1488.8 1522.51ZM1536.92 1515.64 1564.42 1515.64 1564.42 1522.51 1536.92 1522.51ZM1585.05 1515.64 1612.55 1515.64 1612.55 1522.51 1585.05 1522.51ZM1633.17 1515.64 1660.67 1515.64 1660.67 1522.51 1633.17 1522.51ZM1634.51 1493.15 1681.17 1519.08 1634.51 1545C1632.85 1545.92 1630.76 1545.32 1629.83 1543.66 1628.91 1542 1629.51 1539.91 1631.17 1538.99L1672.42 1516.07 1672.42 1522.08 1631.17 1499.16C1629.51 1498.24 1628.91 1496.15 1629.83 1494.49 1630.76 1492.83 1632.85 1492.23 1634.51 1493.15Z" fill="#AEAEAE"/><text font-family="Aptos,Aptos_MSFontService,sans-serif" font-weight="400" font-size="64" transform="matrix(1 0 0 1 521.277 804)">70%</text><text font-family="Aptos,Aptos_MSFontService,sans-serif" font-weight="400" font-size="64" transform="matrix(1 0 0 1 1025.14 859)">20%</text><path d="M1680 1519 1758 1363 2200 1363 2278 1519 2200 1675 1758 1675Z" fill="#F2F2F2" fill-rule="evenodd"/><text font-family="Aptos,Aptos_MSFontService,sans-serif" font-weight="400" font-size="73" transform="matrix(1 0 0 1 1879.69 1543)">Group</text><path d="M1365 330.001C1365 301.282 1388.28 278 1417 278L1911 278C1939.72 278 1963 301.282 1963 330.001L1963 537.999C1963 566.718 1939.72 590 1911 590L1417 590C1388.28 590 1365 566.718 1365 537.999Z" fill="#F2F2F2" fill-rule="evenodd"/><text font-family="Aptos,Aptos_MSFontService,sans-serif" font-weight="400" font-size="73" transform="matrix(1 0 0 1 1528.36 458)">alice.eth</text><text font-family="Aptos,Aptos_MSFontService,sans-serif" font-weight="400" font-size="64" transform="matrix(1 0 0 1 1025.14 401)">10%</text><text font-family="Aptos,Aptos_MSFontService,sans-serif" font-weight="400" font-size="64" transform="matrix(1 0 0 1 521.235 1532)">7d / 2000 USDT</text><text font-family="Aptos,Aptos_MSFontService,sans-serif" font-weight="400" font-size="64" transform="matrix(1 0 0 1 799.465 1083)">14d / 100 ETH</text><text font-family="Aptos,Aptos_MSFontService,sans-serif" font-weight="400" font-size="64" transform="matrix(1 0 0 1 2009.44 1904)">1. / </text><text font-family="Aptos,Aptos_MSFontService,sans-serif" font-weight="400" font-size="64" transform="matrix(1 0 0 1 2110.27 1904)">200 </text><text font-family="Aptos,Aptos_MSFontService,sans-serif" font-weight="400" font-size="64" transform="matrix(1 0 0 1 2226.57 1904)">EUR</text><path d="M883 2494.83C883 2466.21 906.207 2443 934.835 2443L1428.17 2443C1456.79 2443 1480 2466.21 1480 2494.83L1480 2702.17C1480 2730.79 1456.79 2754 1428.17 2754L934.835 2754C906.207 2754 883 2730.79 883 2702.17Z" fill="#F2F2F2" fill-rule="evenodd"/><text font-family="Aptos,Aptos_MSFontService,sans-serif" font-weight="400" font-size="73" transform="matrix(1 0 0 1 997.955 2622)">0x56E…117</text><path d="M1680 2157C1680 2128.28 1703.28 2105 1732 2105L2226 2105C2254.72 2105 2278 2128.28 2278 2157L2278 2365C2278 2393.72 2254.72 2417 2226 2417L1732 2417C1703.28 2417 1680 2393.72 1680 2365Z" fill="#F2F2F2" fill-rule="evenodd"/><text font-family="Aptos,Aptos_MSFontService,sans-serif" font-weight="400" font-size="73" transform="matrix(1 0 0 1 1857.92 2285)">bob.eth</text><path d="M0-3.4375 27.5-3.4375 27.5 3.4375 0 3.4375ZM48.125-3.4375 75.625-3.4375 75.625 3.4375 48.125 3.4375ZM96.25-3.4375 123.75-3.4375 123.75 3.4375 96.25 3.4375ZM141.648-0.710597 169.148-0.710597 169.148 6.1644 141.648 6.1644ZM189.773-0.710597 217.273-0.710597 217.273 6.1644 189.773 6.1644ZM237.898-0.710597 265.398-0.710597 265.398 6.1644 237.898 6.1644ZM230.25-23.1947 276.909 2.7269 230.25 28.6485C228.591 29.5705 226.498 28.9725 225.576 27.313 224.654 25.6534 225.252 23.5606 226.911 22.6387L268.161-0.278013 268.161 5.73182 226.911-17.1848C225.252-18.1068 224.654-20.1996 225.576-21.8592 226.498-23.5187 228.591-24.1167 230.25-23.1947Z" fill="#AEAEAE" transform="matrix(1.83697e-16 1 1 -1.83697e-16 1976.5 1828.5)"/><text font-family="Aptos,Aptos_MSFontService,sans-serif" font-weight="400" font-size="64" transform="matrix(1 0 0 1 1214.57 1904)">2. / </text><text font-family="Aptos,Aptos_MSFontService,sans-serif" font-weight="400" font-size="64" transform="matrix(1 0 0 1 1315.41 1904)">4</text><text font-family="Aptos,Aptos_MSFontService,sans-serif" font-weight="400" font-size="64" transform="matrix(1 0 0 1 1349.78 1904)">00 </text><text font-family="Aptos,Aptos_MSFontService,sans-serif" font-weight="400" font-size="64" transform="matrix(1 0 0 1 1431.71 1904)">USDC</text><path d="M175 1127 253 971 695 971 773 1127 695 1283 253 1283Z" fill="#F2F2F2" fill-rule="evenodd"/><text font-family="Aptos,Aptos_MSFontService,sans-serif" font-weight="400" font-size="73" transform="matrix(1 0 0 1 374.385 1151)">Group</text><path d="M0-3.4375 27.5-3.4375 27.5 3.4375 0 3.4375ZM48.125-3.4375 75.625-3.4375 75.625 3.4375 48.125 3.4375ZM96.25-3.4375 123.75-3.4375 123.75 3.4375 96.25 3.4375ZM144.375-3.4375 171.875-3.4375 171.875 3.4375 144.375 3.4375ZM192.5-3.4375 220-3.4375 220 3.4375 192.5 3.4375ZM238.915-1.72759 266.415-1.72759 266.415 5.14741 238.915 5.14741ZM287.04-1.72759 314.54-1.72759 314.54 5.14741 287.04 5.14741ZM335.165-1.72759 362.665-1.72759 362.665 5.14741 335.165 5.14741ZM383.29-1.72759 410.79-1.72759 410.79 5.14741 383.29 5.14741ZM431.415-1.72759 458.915-1.72759 458.915 5.14741 431.415 5.14741ZM424.679-24.2117 471.338 1.70991 424.679 27.6315C423.019 28.5535 420.926 27.9555 420.004 26.296 419.082 24.6364 419.68 22.5436 421.34 21.6217L462.59-1.29501 462.59 4.71482 421.34-18.2018C419.68-19.1238 419.082-21.2166 420.004-22.8762 420.926-24.5357 423.019-25.1337 424.679-24.2117Z" fill="#AEAEAE" transform="matrix(1.83697e-16 1 1 -1.83697e-16 474.5 1283.5)"/></g></svg>