<?xml version="1.0" encoding="UTF-8" standalone="no"?>
<svg
   width="2114"
   height="3028"
   xml:space="preserve"
   overflow="hidden"
   version="1.1"
   id="svg75"
   xmlns="http://www.w3.org/2000/svg"
   xmlns:svg="http://www.w3.org/2000/svg"><defs
     id="defs5"><clipPath
       id="clip0"><rect
         x="174"
         y="190"
         width="2114"
         height="3028"
         id="rect2" /></clipPath></defs><g
     clip-path="url(#clip0)"
     transform="translate(-174,-190)"
     id="g73"><path
       d="m 0,-3.4375 h 27.5 v 6.875 H 0 Z m 48.125,0 h 27.5 v 6.875 h -27.5 z m 48.125,0 h 27.5 v 6.875 h -27.5 z m 48.125,0 h 27.5 v 6.875 h -27.5 z m 48.125,0 H 220 v 6.875 h -27.5 z m 48.125,0 h 27.5 v 6.875 h -27.5 z m 48.125,0 h 27.5 v 6.875 h -27.5 z m 48.125,0 h 27.5 v 6.875 h -27.5 z m 48.125,0 h 27.5 v 6.875 H 385 Z m 48.125,0 h 27.5 v 6.875 h -27.5 z m 48.125,0 h 27.5 v 6.875 h -27.5 z m 48.125,0 h 27.5 v 6.875 h -27.5 z m 48.125,0 H 605 v 6.875 h -27.5 z m 48.125,0 h 27.5 v 6.875 h -27.5 z m 48.125,0 h 27.5 v 6.875 h -27.5 z m 48.125,0 h 27.5 v 6.875 h -27.5 z m 48.125,0 h 28.734 v 5.64111 h -6.875 V 0 l 3.437,3.4375 H 770 Z m 28.734,26.2661 v 27.5 h -6.875 v -27.5 z m 0,48.125 v 27.5 h -6.875 v -27.5 z m 0,48.1254 v 27.5 h -6.875 v -27.5 z m 0,48.125 v 27.5 h -6.875 v -27.5 z m 0,48.125 v 27.5 h -6.875 v -27.5 z m 0,48.125 v 27.5 h -6.875 v -27.5 z m 0,48.125 v 27.5 h -6.875 v -27.5 z m 0,48.125 v 27.5 h -6.875 v -27.5 z m 0,48.125 v 27.5 h -6.875 v -27.5 z m 0,48.125 v 27.5 h -6.875 v -27.5 z m 0,48.125 v 27.5 h -6.875 v -27.5 z m 0,48.125 v 27.5 h -6.875 v -27.5 z m 0,48.125 v 27.5 h -6.875 v -27.5 z m 0,48.125 v 27.5 h -6.875 v -27.5 z m 0,48.125 v 27.5 h -6.875 v -27.5 z m 0,48.125 v 14.284 h -6.875 v -14.284 z m 22.484,-25.298 -25.922,46.659 -25.921,-46.659 c -0.922,-1.66 -0.324,-3.752 1.335,-4.674 1.66,-0.922 3.753,-0.324 4.675,1.335 l 22.916,41.25 h -6.009 l 22.916,-41.25 c 0.922,-1.659 3.015,-2.257 4.674,-1.335 1.66,0.922 2.258,3.014 1.336,4.674 z"
       fill="#27272a"
       transform="matrix(-1,0,0,1,1977.8,2140.5)"
       id="path7" /><path
       d="m 0,-3.4375 h 27.5 v 6.875 H 0 Z m 48.125,0 h 27.5 v 6.875 h -27.5 z m 48.125,0 h 27.5 v 6.875 h -27.5 z m 48.125,0 h 27.5 v 6.875 h -27.5 z m 48.125,0 H 220 v 6.875 h -27.5 z m 48.125,0 h 27.5 v 6.875 h -27.5 z m 48.125,0 h 27.5 v 6.875 h -27.5 z m 48.125,0 h 14.6 v 5.72953 l -3.438,-3.4375 h 14.046 v 6.875 H 344.6 V 0 l 3.437,3.4375 h -11.162 z m 45.833,2.29203 h 27.5 v 6.875 h -27.5 z m 48.125,0 h 27.5 v 6.875 h -27.5 z m 48.125,0 h 27.5 v 6.875 h -27.5 z m 48.125,0 h 27.5 v 6.875 h -27.5 z m 48.125,0 h 27.5 v 6.875 h -27.5 z m 48.125,0 h 27.5 v 6.875 h -27.5 z m 48.125,0 h 17.535 v 6.875 H 671.458 Z M 649.412,-23.6296 696.071,2.29203 649.412,28.2136 c -1.659,0.922 -3.752,0.3241 -4.674,-1.3355 -0.922,-1.6596 -0.324,-3.7523 1.335,-4.6743 l 41.25,-22.916688 V 5.29694 l -41.25,-22.91664 c -1.659,-0.922 -2.257,-3.0148 -1.335,-4.6743 0.922,-1.6596 3.015,-2.2575 4.674,-1.3356 z"
       fill="#27272a"
       transform="matrix(0,1,1,0,473.5,502.5)"
       id="path9" /><path
       d="M 174,242.001 C 174,213.282 197.281,190 226.001,190 H 719.999 C 748.719,190 772,213.282 772,242.001 V 449.999 C 772,478.718 748.719,502 719.999,502 H 226.001 C 197.281,502 174,478.718 174,449.999 Z"
       fill="#18181b"
       fill-rule="evenodd"
       id="path11" /><g
       aria-label="Pool"
       transform="translate(385.043,370)"
       id="text13"
       style="font-size:73px;font-family:'Geist Mono', 'Geist Mono_MSFontService', sans-serif;fill:#ffffff"><path
         d="m 6.57,0 v -51.83 h 15.768 q 8.103,0 12.921,4.234 4.891,4.161 4.891,11.607 0,7.446 -4.891,11.68 -4.818,4.161 -12.921,4.161 h -9.49 V 0 Z m 6.278,-26.28 h 8.76 q 6.132,0 9.052,-2.482 2.92,-2.555 2.92,-7.227 0,-4.745 -2.92,-7.227 -2.92,-2.482 -9.052,-2.482 h -8.76 z"
         id="path306" /><path
         d="m 65.700026,0.876 q -5.329,0 -9.344,-2.482 -3.942,-2.482 -6.132,-7.008 -2.19,-4.599 -2.19,-10.731 0,-6.205 2.19,-10.731 2.19,-4.526 6.132,-7.008 4.015,-2.482 9.344,-2.482 5.329,0 9.271,2.482 4.015,2.482 6.205,7.008 2.19,4.526 2.19,10.731 0,6.132 -2.19,10.731 -2.19,4.526 -6.205,7.008 -3.942,2.482 -9.271,2.482 z m 0,-5.84 q 5.329,0 8.249,-3.796 2.993,-3.869 2.993,-10.585 0,-6.716 -2.993,-10.512 -2.92,-3.869 -8.249,-3.869 -5.329,0 -8.322,3.869 -2.92,3.796 -2.92,10.512 0,6.716 2.92,10.585 2.993,3.796 8.322,3.796 z"
         id="path308" /><path
         d="m 109.50005,0.876 q -5.329,0 -9.344,-2.482 -3.941998,-2.482 -6.131998,-7.008 -2.19,-4.599 -2.19,-10.731 0,-6.205 2.19,-10.731 2.19,-4.526 6.131998,-7.008 4.015,-2.482 9.344,-2.482 5.329,0 9.271,2.482 4.015,2.482 6.205,7.008 2.19,4.526 2.19,10.731 0,6.132 -2.19,10.731 -2.19,4.526 -6.205,7.008 -3.942,2.482 -9.271,2.482 z m 0,-5.84 q 5.329,0 8.249,-3.796 2.993,-3.869 2.993,-10.585 0,-6.716 -2.993,-10.512 -2.92,-3.869 -8.249,-3.869 -5.329,0 -8.322,3.869 -2.919998,3.796 -2.919998,10.512 0,6.716 2.919998,10.585 2.993,3.796 8.322,3.796 z"
         id="path310" /><path
         d="m 135.78009,0 v -5.402 h 15.549 v -36.062 q 0,-2.336 -1.314,-3.65 -1.314,-1.314 -3.65,-1.314 h -9.125 v -5.402 h 9.417 q 10.804,0 10.804,10.804 v 35.624 h 13.359 V 0 Z"
         id="path312" /></g><path
       d="m 1680,938 c 0,-28.719 23.28,-52 52,-52 h 494 c 28.72,0 52,23.281 52,52 v 208 c 0,28.72 -23.28,52 -52,52 h -494 c -28.72,0 -52,-23.28 -52,-52 z"
       fill="#18181b"
       fill-rule="evenodd"
       id="path15" /><g
       aria-label="doe@mail.com"
       transform="translate(1714.48,1066)"
       id="text17"
       style="font-size:73px;font-family:'Geist Mono', 'Geist Mono_MSFontService', sans-serif;fill:#ffffff"><path
         d="m 19.491,0.876 q -5.11,0 -8.833,-2.482 Q 6.935,-4.088 4.891,-8.614 2.92,-13.14 2.92,-19.345 q 0,-6.205 1.971,-10.731 2.044,-4.526 5.767,-7.008 3.723,-2.482 8.833,-2.482 4.088,0 7.154,1.971 3.066,1.898 4.453,4.307 V -51.83 H 37.23 V 0 h -5.548 l -0.219,-5.767 q -1.679,3.139 -4.818,4.891 -3.139,1.752 -7.154,1.752 z m 0.365,-5.84 q 5.256,0 8.249,-3.869 2.993,-3.869 2.993,-10.512 0,-6.716 -2.993,-10.512 -2.993,-3.869 -8.395,-3.869 -4.745,0 -7.592,3.869 -2.774,3.796 -2.774,10.512 0,6.643 2.774,10.512 2.847,3.869 7.738,3.869 z"
         id="path315" /><path
         d="m 65.700026,0.876 q -5.329,0 -9.344,-2.482 -3.942,-2.482 -6.132,-7.008 -2.19,-4.599 -2.19,-10.731 0,-6.205 2.19,-10.731 2.19,-4.526 6.132,-7.008 4.015,-2.482 9.344,-2.482 5.329,0 9.271,2.482 4.015,2.482 6.205,7.008 2.19,4.526 2.19,10.731 0,6.132 -2.19,10.731 -2.19,4.526 -6.205,7.008 -3.942,2.482 -9.271,2.482 z m 0,-5.84 q 5.329,0 8.249,-3.796 2.993,-3.869 2.993,-10.585 0,-6.716 -2.993,-10.512 -2.92,-3.869 -8.249,-3.869 -5.329,0 -8.322,3.869 -2.92,3.796 -2.92,10.512 0,6.716 2.92,10.585 2.993,3.796 8.322,3.796 z"
         id="path317" /><path
         d="m 109.93805,0.876 q -5.475,0 -9.49,-2.482 -3.941998,-2.482 -6.131998,-7.008 -2.117,-4.599 -2.117,-10.731 0,-6.132 2.117,-10.658 2.19,-4.526 6.058998,-7.008 3.942,-2.555 9.271,-2.555 5.037,0 8.906,2.409 3.869,2.336 6.059,6.862 2.19,4.526 2.19,11.023 v 1.825 H 98.623052 q 0.365,6.205 3.284998,9.344 2.993,3.139 8.03,3.139 3.796,0 6.205,-1.752 2.482,-1.825 3.431,-4.745 l 6.57,0.511 q -1.533,5.183 -5.84,8.541 -4.234,3.285 -10.366,3.285 z M 98.623052,-22.849 h 21.461998 q -0.438,-5.621 -3.285,-8.249 -2.847,-2.628 -7.154,-2.628 -4.453,0 -7.373,2.774 -2.846998,2.701 -3.649998,8.103 z"
         id="path319" /><path
         d="m 162.64409,5.11 q -5.767,2.92 -11.242,2.92 -5.402,0 -9.636,-2.701 -4.161,-2.628 -6.57,-8.322 -2.336,-5.767 -2.336,-14.892 0,-11.315 2.92,-18.834 2.993,-7.519 8.103,-11.315 5.183,-3.796 11.607,-3.796 5.986,0 10.001,3.066 4.088,3.066 6.132,8.468 2.117,5.329 2.117,12.41 0,8.833 -1.387,13.724 -1.387,4.818 -3.723,6.716 -2.336,1.898 -5.256,1.898 -2.19,0 -3.796,-1.752 -1.606,-1.752 -2.336,-4.599 -1.095,2.92 -3.139,4.526 -1.971,1.533 -4.453,1.533 -3.65,0 -5.694,-3.358 -2.044,-3.431 -2.044,-9.198 0,-4.818 1.46,-8.906 1.46,-4.161 3.869,-6.716 2.482,-2.555 5.548,-2.555 1.898,0 3.212,0.949 1.387,0.876 2.044,2.409 l 0.073,0.292 0.438,-3.577 h 5.11 q -0.803,7.665 -1.387,12.775 -0.511,5.037 -0.511,7.811 0,2.701 0.73,4.088 0.73,1.314 1.752,1.314 1.314,0 2.263,-1.606 1.022,-1.606 1.533,-5.329 0.584,-3.723 0.584,-10.074 0,-8.906 -3.212,-14.016 -3.139,-5.183 -10.22,-5.183 -4.818,0 -8.76,3.139 -3.869,3.139 -6.205,9.563 -2.263,6.351 -2.263,16.06 0,10.95 3.65,15.987 3.65,5.037 9.928,5.037 4.307,0 9.198,-2.774 z m -11.242,-15.476 q 1.606,0 2.92,-1.971 1.314,-1.971 2.117,-5.183 0.876,-3.212 0.876,-6.862 0,-7.227 -3.869,-7.227 -1.606,0 -2.92,1.825 -1.314,1.752 -2.117,4.672 -0.803,2.847 -0.803,6.132 0,3.942 0.949,6.278 1.022,2.336 2.847,2.336 z"
         id="path321" /><path
         d="m 178.1201,0 v -38.69 h 5.621 l 0.146,5.694 q 1.022,-3.066 2.92,-4.818 1.971,-1.752 4.745,-1.752 5.767,0 7.227,7.227 l 0.073,0.438 q 0.949,-3.577 3.066,-5.621 2.19,-2.044 5.256,-2.044 4.672,0 6.789,3.212 2.117,3.212 2.117,10.658 V 0 h -6.132 v -24.82 q 0,-5.183 -1.095,-7.227 -1.095,-2.117 -3.431,-2.117 -2.263,0 -3.796,2.263 -1.46,2.263 -1.46,7.227 V 0 h -6.132 v -24.82 q 0,-4.964 -1.095,-7.154 -1.022,-2.19 -3.431,-2.19 -2.263,0 -3.796,2.263 -1.46,2.263 -1.46,7.227 V 0 Z"
         id="path323" /><path
         d="m 235.79012,0.876 q -3.65,0 -6.57,-1.314 -2.92,-1.314 -4.599,-3.65 -1.679,-2.409 -1.679,-5.548 0,-4.964 2.92,-7.665 2.993,-2.774 9.344,-4.015 l 12.994,-2.628 q 0,-4.964 -2.263,-7.373 -2.19,-2.409 -6.351,-2.409 -4.015,0 -6.278,1.825 -2.263,1.752 -3.139,5.11 l -6.497,-0.511 q 1.095,-5.475 5.183,-8.833 4.161,-3.431 10.731,-3.431 7.008,0 10.877,4.234 3.869,4.161 3.869,11.534 v 16.06 q 0,1.314 0.584,1.825 0.584,0.511 1.752,0.511 h 2.482 V 0 q -1.168,0.146 -3.212,0.146 -3.066,0 -4.964,-1.241 -1.825,-1.241 -2.482,-4.015 l -0.073,-0.365 q -1.533,2.847 -5.037,4.599 -3.431,1.752 -7.592,1.752 z m 0.584,-5.402 q 5.913,0 8.833,-2.993 2.993,-2.993 2.993,-7.811 v -3.358 l -11.826,2.336 q -3.942,0.73 -5.475,2.263 -1.533,1.46 -1.533,3.869 0,2.701 1.825,4.234 1.898,1.46 5.183,1.46 z"
         id="path325" /><path
         d="m 268.64017,0 v -5.402 h 15.549 v -27.886 h -14.819 v -5.402 h 20.951 v 33.288 h 13.359 V 0 Z m 14.965,-44.749 v -7.154 h 6.424 v 7.154 z"
         id="path327" /><path
         d="m 310.98019,0 v -5.402 h 15.549 v -36.062 q 0,-2.336 -1.314,-3.65 -1.314,-1.314 -3.65,-1.314 h -9.125 v -5.402 h 9.417 q 10.804,0 10.804,10.804 v 35.624 h 13.359 V 0 Z"
         id="path329" /><path
         d="m 367.77421,0 v -8.906 h 9.052 V 0 Z"
         id="path331" /><path
         d="m 417.12223,0.876 q -5.402,0 -9.417,-2.482 -4.015,-2.482 -6.205,-7.008 -2.19,-4.599 -2.19,-10.731 0,-6.132 2.19,-10.658 2.19,-4.526 6.205,-7.008 4.015,-2.555 9.417,-2.555 6.497,0 10.731,3.504 4.307,3.431 5.475,9.928 l -6.424,0.438 q -0.876,-3.869 -3.504,-5.913 -2.555,-2.117 -6.278,-2.117 -5.329,0 -8.395,3.869 -2.993,3.796 -2.993,10.512 0,6.716 2.993,10.585 3.066,3.796 8.395,3.796 3.723,0 6.424,-2.19 2.774,-2.19 3.65,-6.57 l 6.424,0.438 q -1.168,6.424 -5.621,10.293 -4.38,3.869 -10.877,3.869 z"
         id="path333" /><path
         d="m 459.90024,0.876 q -5.329,0 -9.344,-2.482 -3.942,-2.482 -6.132,-7.008 -2.19,-4.599 -2.19,-10.731 0,-6.205 2.19,-10.731 2.19,-4.526 6.132,-7.008 4.015,-2.482 9.344,-2.482 5.329,0 9.271,2.482 4.015,2.482 6.205,7.008 2.19,4.526 2.19,10.731 0,6.132 -2.19,10.731 -2.19,4.526 -6.205,7.008 -3.942,2.482 -9.271,2.482 z m 0,-5.84 q 5.329,0 8.249,-3.796 2.993,-3.869 2.993,-10.585 0,-6.716 -2.993,-10.512 -2.92,-3.869 -8.249,-3.869 -5.329,0 -8.322,3.869 -2.92,3.796 -2.92,10.512 0,6.716 2.92,10.585 2.993,3.796 8.322,3.796 z"
         id="path335" /><path
         d="m 484.72029,0 v -38.69 h 5.621 l 0.146,5.694 q 1.022,-3.066 2.92,-4.818 1.971,-1.752 4.745,-1.752 5.767,0 7.227,7.227 l 0.073,0.438 q 0.949,-3.577 3.066,-5.621 2.19,-2.044 5.256,-2.044 4.672,0 6.789,3.212 2.117,3.212 2.117,10.658 V 0 h -6.132 v -24.82 q 0,-5.183 -1.095,-7.227 -1.095,-2.117 -3.431,-2.117 -2.263,0 -3.796,2.263 -1.46,2.263 -1.46,7.227 V 0 h -6.132 v -24.82 q 0,-4.964 -1.095,-7.154 -1.022,-2.19 -3.431,-2.19 -2.263,0 -3.796,2.263 -1.46,2.263 -1.46,7.227 V 0 Z"
         id="path337" /></g><path
       d="m 177,2189.83 c 0,-28.62 23.207,-51.83 51.834,-51.83 h 493.332 c 28.627,0 51.834,23.21 51.834,51.83 v 207.34 c 0,28.62 -23.207,51.83 -51.834,51.83 H 228.834 C 200.207,2449 177,2425.79 177,2397.17 Z"
       fill="#18181b"
       fill-rule="evenodd"
       id="path19" /><g
       aria-label="555"
       transform="translate(299.106,2318)"
       id="text21"
       style="font-size:73px;font-family:'Geist Mono', 'Geist Mono_MSFontService', sans-serif;fill:#ffffff"><path
         d="m 21.754,1.168 q -5.037,0 -8.833,-1.825 -3.723,-1.825 -5.986,-5.11 -2.19,-3.285 -2.555,-7.592 l 6.57,-0.438 q 0.584,4.38 3.431,6.643 2.92,2.19 7.373,2.19 5.037,0 8.03,-3.066 3.066,-3.139 3.066,-8.614 0,-5.475 -2.92,-8.614 -2.847,-3.212 -8.03,-3.212 -3.066,0 -5.913,1.533 -2.774,1.46 -4.015,4.234 H 5.256 L 8.687,-51.83 h 27.594 v 6.132 H 14.454 l -1.898,15.622 q 1.898,-2.19 4.672,-3.285 2.774,-1.095 5.548,-1.095 4.964,0 8.687,2.336 3.796,2.263 5.84,6.278 2.117,4.015 2.117,9.198 0,5.183 -2.263,9.271 -2.263,4.015 -6.278,6.278 -3.942,2.263 -9.125,2.263 z"
         id="path340" /><path
         d="m 65.554026,1.168 q -5.037,0 -8.833,-1.825 -3.723,-1.825 -5.986,-5.11 -2.19,-3.285 -2.555,-7.592 l 6.57,-0.438 q 0.584,4.38 3.431,6.643 2.92,2.19 7.373,2.19 5.037,0 8.03,-3.066 3.066,-3.139 3.066,-8.614 0,-5.475 -2.92,-8.614 -2.847,-3.212 -8.03,-3.212 -3.066,0 -5.913,1.533 -2.774,1.46 -4.015,4.234 h -6.716 l 3.431,-29.127 h 27.594 v 6.132 h -21.827 l -1.898,15.622 q 1.898,-2.19 4.672,-3.285 2.774,-1.095 5.548,-1.095 4.964,0 8.687,2.336 3.796,2.263 5.84,6.278 2.117,4.015 2.117,9.198 0,5.183 -2.263,9.271 -2.263,4.015 -6.278,6.278 -3.942,2.263 -9.125,2.263 z"
         id="path342" /><path
         d="m 109.35405,1.168 q -5.037,0 -8.833,-1.825 -3.722998,-1.825 -5.985998,-5.11 -2.19,-3.285 -2.555,-7.592 l 6.57,-0.438 q 0.584,4.38 3.430998,6.643 2.92,2.19 7.373,2.19 5.037,0 8.03,-3.066 3.066,-3.139 3.066,-8.614 0,-5.475 -2.92,-8.614 -2.847,-3.212 -8.03,-3.212 -3.066,0 -5.913,1.533 -2.774,1.46 -4.014998,4.234 h -6.716 l 3.431,-29.127 h 27.593998 v 6.132 h -21.827 l -1.898,15.622 q 1.898,-2.19 4.672,-3.285 2.774,-1.095 5.548,-1.095 4.964,0 8.687,2.336 3.796,2.263 5.84,6.278 2.117,4.015 2.117,9.198 0,5.183 -2.263,9.271 -2.263,4.015 -6.278,6.278 -3.942,2.263 -9.125,2.263 z"
         id="path344" /></g><g
       aria-label="-"
       transform="translate(431.45,2318)"
       id="text23"
       style="font-size:73px;font-family:'Geist Mono', 'Geist Mono_MSFontService', sans-serif;fill:#ffffff"><path
         d="m 8.76,-18.396 v -5.767 h 26.28 v 5.767 z"
         id="path347" /></g><g
       aria-label="3812"
       transform="translate(475.564,2318)"
       id="text25"
       style="font-size:73px;font-family:'Geist Mono', 'Geist Mono_MSFontService', sans-serif;fill:#ffffff"><path
         d="M 21.462,1.168 Q 13.067,1.168 8.541,-2.847 4.015,-6.935 3.65,-13.359 l 6.497,-0.438 q 0.438,4.745 3.504,6.789 3.139,2.044 7.811,2.044 3.139,0 5.913,-0.876 2.774,-0.949 4.453,-2.993 1.752,-2.117 1.752,-5.621 0,-5.183 -3.358,-7.592 -3.358,-2.409 -8.395,-2.409 h -4.088 v -6.132 h 4.088 q 2.701,0 4.964,-0.803 2.263,-0.803 3.577,-2.555 1.387,-1.825 1.387,-4.745 0,-4.015 -2.555,-6.059 -2.555,-2.117 -7.373,-2.117 -4.891,0 -7.446,1.971 -2.482,1.971 -2.993,5.402 l -6.57,-0.438 q 0.73,-5.84 5.11,-9.417 4.38,-3.65 11.899,-3.65 7.592,0 12.045,3.796 4.453,3.723 4.453,10.22 0,8.322 -8.979,11.096 5.037,1.387 7.884,4.964 2.92,3.504 2.92,8.468 0,4.964 -2.409,8.468 -2.409,3.504 -6.643,5.329 -4.234,1.825 -9.636,1.825 z"
         id="path350" /><path
         d="m 65.700026,1.168 q -5.11,0 -9.271,-1.752 -4.161,-1.752 -6.57,-5.183 -2.409,-3.431 -2.409,-8.468 0,-5.037 2.701,-8.541 2.701,-3.504 7.3,-5.11 -3.431,-1.387 -5.475,-4.015 -2.044,-2.701 -2.044,-6.862 0,-4.088 2.044,-7.3 2.044,-3.212 5.548,-5.037 3.577,-1.898 8.176,-1.898 4.599,0 8.176,1.898 3.577,1.825 5.548,5.037 2.044,3.212 2.044,7.3 0,4.161 -2.044,6.862 -2.044,2.628 -5.475,4.015 4.599,1.606 7.3,5.11 2.701,3.504 2.701,8.541 0,5.037 -2.409,8.468 -2.409,3.431 -6.57,5.183 -4.088,1.752 -9.271,1.752 z m 0,-31.609 q 4.161,0 6.643,-2.044 2.555,-2.117 2.555,-6.278 0,-3.723 -2.482,-5.913 -2.409,-2.19 -6.716,-2.19 -4.234,0 -6.716,2.19 -2.482,2.19 -2.482,5.913 0,4.161 2.482,6.278 2.555,2.044 6.716,2.044 z m 0,25.477 q 5.11,0 8.395,-2.336 3.285,-2.409 3.285,-7.3 0,-4.526 -2.92,-7.227 -2.92,-2.774 -8.76,-2.774 -5.767,0 -8.76,2.774 -2.92,2.701 -2.92,7.227 0,4.891 3.285,7.3 3.285,2.336 8.395,2.336 z"
         id="path352" /><path
         d="M 91.980052,0 V -6.132 H 108.33205 V -38.398 H 94.754052 V -43.8 h 7.007998 q 4.161,0 5.913,-1.825 1.825,-1.825 1.825,-6.205 h 5.11 v 45.698 h 12.41 V 0 Z"
         id="path354" /><path
         d="m 135.05009,0 q 0,-5.475 1.679,-9.855 1.752,-4.453 6.059,-8.468 4.38,-4.015 12.118,-8.103 3.577,-1.898 5.767,-3.504 2.19,-1.606 3.212,-3.431 1.022,-1.825 1.022,-4.453 0,-4.015 -2.628,-6.497 -2.555,-2.555 -7.738,-2.555 -5.475,0 -8.687,2.847 -3.139,2.847 -3.942,8.103 l -6.57,-0.438 q 0.876,-7.592 5.84,-12.118 4.964,-4.526 13.359,-4.526 8.03,0 12.483,4.161 4.453,4.161 4.453,10.877 0,3.942 -1.314,6.862 -1.314,2.847 -4.453,5.329 -3.066,2.482 -8.468,5.329 -7.008,3.723 -10.658,7.519 -3.577,3.796 -3.796,6.789 h 28.762 V 0 Z"
         id="path356" /></g><path
       d="M 772.5,343.062 H 800 v 6.876 h -27.5 z m 48.125,0 h 27.5 v 6.876 h -27.5 z m 48.125,0 h 27.5 v 6.876 h -27.5 z m 48.125,0 h 27.5 v 6.876 h -27.5 z m 48.125,0 h 27.5 v 6.876 H 965 Z m 48.12,0 h 27.5 v 6.876 h -27.5 z m 48.13,0 h 27.5 v 6.876 h -27.5 z m 48.12,0 h 3.73 l 3.43,3.438 v 1.014 l -3.43,-3.437 h 22.76 v 6.875 h -22.76 l -3.44,-3.438 V 346.5 l 3.44,3.438 h -3.73 z m 47.12,1.015 h 27.5 v 6.875 h -27.5 z m 48.12,0 h 27.5 v 6.875 h -27.5 z m 48.13,0 h 27.5 v 6.875 h -27.5 z m 48.12,0 h 27.5 v 6.875 h -27.5 z m 48.13,0 h 27.5 v 6.875 h -27.5 z m 48.12,0 h 27.5 v 6.875 h -27.5 z m 48.13,0 h 1.37 v 6.875 h -1.37 z m -38.21,-22.484 46.66,25.921 -46.66,25.922 c -1.66,0.922 -3.75,0.324 -4.67,-1.336 -0.93,-1.659 -0.33,-3.752 1.33,-4.674 l 41.25,-22.917 v 6.01 l -41.25,-22.917 c -1.66,-0.922 -2.26,-3.014 -1.33,-4.674 0.92,-1.66 3.01,-2.257 4.67,-1.335 z"
       fill="#27272a"
       id="path27" /><path
       d="M 772.5,343.062 H 800 v 6.876 h -27.5 z m 48.125,0 h 27.5 v 6.876 h -27.5 z m 48.125,0 h 27.5 v 6.876 h -27.5 z m 48.125,0 h 27.5 v 6.876 h -27.5 z m 48.125,0 h 27.5 v 6.876 H 965 Z m 48.12,0 h 27.5 v 6.876 h -27.5 z m 48.13,0 h 27.5 v 6.876 h -27.5 z m 48.12,0 h 27.5 v 6.876 h -27.5 z m 48.13,0 h 27.5 v 6.876 h -27.5 z m 48.12,0 h 24.44 v 9.937 h -6.87 V 346.5 l 3.44,3.438 h -21.01 z m 24.44,30.562 v 27.5 h -6.87 v -27.5 z m 0,48.125 v 27.5 h -6.87 v -27.5 z m 0,48.125 v 27.5 h -6.87 v -27.5 z m 0,48.125 v 27.5 h -6.87 v -27.5 z m 0,48.125 v 27.5 h -6.87 v -27.5 z m 0,48.125 v 27.5 h -6.87 v -27.5 z m 0,48.125 v 27.5 h -6.87 v -27.5 z m 0,48.125 v 27.5 h -6.87 v -27.5 z m 0,48.125 v 27.5 h -6.87 v -27.5 z m 0,48.125 v 27.5 h -6.87 v -27.5 z m 0,48.125 v 27.5 h -6.87 v -27.5 z m 0,48.125 v 27.5 h -6.87 v -27.5 z m 0,48.125 v 27.5 h -6.87 v -27.5 z m 0,48.125 v 27.501 h -6.87 v -27.501 z m 1.37,39.891 h 27.5 v 6.87 h -27.5 z m 48.12,0 h 27.5 v 6.87 h -27.5 z m 48.13,0 h 27.5 v 6.87 h -27.5 z m 48.12,0 h 27.5 v 6.87 h -27.5 z m 48.13,0 h 27.5 v 6.87 h -27.5 z m 48.12,0 h 27.5 v 6.87 h -27.5 z m 48.13,0 h 27.5 v 6.87 h -27.5 z m 48.12,0 h 27.5 v 6.87 h -27.5 z m 48.13,0 h 27.5 v 6.87 h -27.5 z m 48.12,0 h 9.12 v 6.87 h -9.12 z m -30.46,-22.49 46.66,25.92 -46.66,25.93 c -1.66,0.92 -3.75,0.32 -4.67,-1.34 -0.93,-1.66 -0.33,-3.75 1.33,-4.67 l 41.25,-22.92 v 6.01 l -41.25,-22.92 c -1.66,-0.92 -2.26,-3.01 -1.33,-4.67 0.92,-1.66 3.01,-2.26 4.67,-1.34 z"
       fill="#27272a"
       id="path29" /><path
       d="M 773.5,1351.06 H 801 v 6.88 h -27.5 z m 48.125,0 h 27.5 v 6.88 h -27.5 z m 48.125,0 h 27.5 v 6.88 h -27.5 z m 48.125,0 h 27.5 v 6.88 h -27.5 z m 48.125,0 h 27.5 v 6.88 H 966 Z m 48.12,0 h 27.5 v 6.88 h -27.5 z m 48.13,0 h 27.5 v 6.88 h -27.5 z m 48.13,0 h 27.5 v 6.88 h -27.5 z m 48.12,0 h 27.5 v 6.88 h -27.5 z m 48.12,0 h 27.5 v 6.88 h -27.5 z m 48.13,0 h 27.5 v 6.88 h -27.5 z m 48.13,0 h 27.5 v 6.88 h -27.5 z m 48.12,0 h 14.47 v 19.91 h -6.87 v -16.47 l 3.43,3.44 H 1351 Z m 14.47,40.53 v 27.5 h -6.87 v -27.5 z m 0,48.13 v 27.5 h -6.87 v -27.5 z m 0,48.12 v 27.5 h -6.87 v -27.5 z m 0,48.13 v 27.5 h -6.87 v -27.5 z m 0,48.12 v 27.5 h -6.87 v -27.5 z m 0,48.13 v 27.5 h -6.87 v -27.5 z m 0,48.12 v 27.5 h -6.87 v -27.5 z m 0,48.13 v 27.5 h -6.87 v -27.5 z m 0,48.12 v 27.5 h -6.87 v -27.5 z m 0,48.13 v 6.07 l -3.44,-3.44 h 21.43 v 6.87 h -24.86 v -9.5 z m 38.62,2.63 h 27.5 v 6.87 h -27.5 z m 48.12,0 h 27.5 v 6.87 h -27.5 z m 48.13,0 h 27.5 v 6.87 h -27.5 z m 48.12,0 h 27.5 v 6.87 h -27.5 z m 48.13,0 h 27.5 v 6.87 h -27.5 z m 48.12,0 h 27.5 v 6.87 h -27.5 z m -10.2,-22.48 46.66,25.92 -46.66,25.92 c -1.66,0.92 -3.75,0.32 -4.68,-1.34 -0.92,-1.66 -0.32,-3.75 1.34,-4.67 l 41.25,-22.92 v 6.01 l -41.25,-22.91 c -1.66,-0.93 -2.26,-3.02 -1.34,-4.68 0.93,-1.66 3.02,-2.26 4.68,-1.33 z"
       fill="#27272a"
       id="path31" /><g
       aria-label="40%"
       transform="translate(506.194,850)"
       id="text33"
       style="font-size:64px;font-family:'Geist Mono', 'Geist Mono_MSFontService', sans-serif;fill:#ffffff"><path
         d="M 24.832,0 V -9.856 H 2.56 v -4.992 L 24.448,-45.44 h 5.888 v 30.208 h 5.504 v 5.376 H 30.336 V 0 Z M 8.192,-15.232 h 16.64 V -37.76 Z"
         id="path359" /><path
         d="m 57.600024,1.024 q -4.928,0 -8.576,-2.88 -3.584,-2.88 -5.504,-8.192 -1.92,-5.312 -1.92,-12.608 0,-7.36 1.92,-12.672 1.92,-5.312 5.504,-8.192 3.648,-2.944 8.576,-2.944 4.992,0 8.576,2.944 3.584,2.88 5.504,8.192 1.92,5.312 1.92,12.672 0,7.296 -1.92,12.608 -1.92,5.312 -5.504,8.192 -3.584,2.88 -8.576,2.88 z m -10.24,-23.68 q 0,6.4 1.6,10.88 l 14.592,-26.56 q -2.496,-2.752 -5.952,-2.752 -4.736,0 -7.488,4.992 -2.752,4.928 -2.752,13.44 z m 10.24,18.304 q 4.736,0 7.488,-4.928 2.752,-4.992 2.752,-13.376 0,-6.464 -1.6,-10.944 l -14.592,26.496 q 2.496,2.752 5.952,2.752 z"
         id="path361" /><path
         d="m 86.656049,-23.424 q -3.84,0 -6.528,-2.88 -2.688,-2.944 -2.688,-8.384 0,-5.504 2.688,-8.384 2.688,-2.88 6.528,-2.88 3.84,0 6.528,2.88 2.688,2.88 2.688,8.384 0,5.44 -2.688,8.384 -2.688,2.88 -6.528,2.88 z M 79.936049,0 107.20005,-45.44 h 4.864 L 84.800049,0 Z m 6.72,-27.392 q 2.112,0 3.328,-1.92 1.28,-1.92 1.28,-5.376 0,-3.456 -1.28,-5.376 -1.216,-1.92 -3.328,-1.92 -2.112,0 -3.392,1.92 -1.216,1.92 -1.216,5.376 0,3.456 1.216,5.376 1.28,1.92 3.392,1.92 z M 105.34405,0.512 q -3.84,0 -6.528001,-2.88 -2.688,-2.944 -2.688,-8.384 0,-5.504 2.688,-8.384 2.688001,-2.88 6.528001,-2.88 3.84,0 6.528,2.88 2.688,2.88 2.688,8.384 0,5.44 -2.688,8.384 -2.688,2.88 -6.528,2.88 z m 0,-3.968 q 2.112,0 3.328,-1.92 1.28,-1.92 1.28,-5.376 0,-3.456 -1.28,-5.376 -1.216,-1.92 -3.328,-1.92 -2.112,0 -3.392,1.92 -1.216,1.92 -1.216,5.376 0,3.456 1.216,5.376 1.28,1.92 3.392,1.92 z"
         id="path363" /></g><g
       aria-label="20%"
       transform="translate(1391.35,1006)"
       id="text35"
       style="font-size:64px;font-family:'Geist Mono', 'Geist Mono_MSFontService', sans-serif;fill:#ffffff"><path
         d="m 3.2,0 q 0,-4.8 1.472,-8.64 1.536,-3.904 5.312,-7.424 3.84,-3.52 10.624,-7.104 3.136,-1.664 5.056,-3.072 1.92,-1.408 2.816,-3.008 0.896,-1.6 0.896,-3.904 0,-3.52 -2.304,-5.696 -2.24,-2.24 -6.784,-2.24 -4.8,0 -7.616,2.496 -2.752,2.496 -3.456,7.104 l -5.76,-0.384 q 0.768,-6.656 5.12,-10.624 4.352,-3.968 11.712,-3.968 7.04,0 10.944,3.648 3.904,3.648 3.904,9.536 0,3.456 -1.152,6.016 -1.152,2.496 -3.904,4.672 -2.688,2.176 -7.424,4.672 -6.144,3.264 -9.344,6.592 Q 10.176,-8 9.984,-5.376 H 35.2 V 0 Z"
         id="path366" /><path
         d="m 57.600024,1.024 q -4.928,0 -8.576,-2.88 -3.584,-2.88 -5.504,-8.192 -1.92,-5.312 -1.92,-12.608 0,-7.36 1.92,-12.672 1.92,-5.312 5.504,-8.192 3.648,-2.944 8.576,-2.944 4.992,0 8.576,2.944 3.584,2.88 5.504,8.192 1.92,5.312 1.92,12.672 0,7.296 -1.92,12.608 -1.92,5.312 -5.504,8.192 -3.584,2.88 -8.576,2.88 z m -10.24,-23.68 q 0,6.4 1.6,10.88 l 14.592,-26.56 q -2.496,-2.752 -5.952,-2.752 -4.736,0 -7.488,4.992 -2.752,4.928 -2.752,13.44 z m 10.24,18.304 q 4.736,0 7.488,-4.928 2.752,-4.992 2.752,-13.376 0,-6.464 -1.6,-10.944 l -14.592,26.496 q 2.496,2.752 5.952,2.752 z"
         id="path368" /><path
         d="m 86.656049,-23.424 q -3.84,0 -6.528,-2.88 -2.688,-2.944 -2.688,-8.384 0,-5.504 2.688,-8.384 2.688,-2.88 6.528,-2.88 3.84,0 6.528,2.88 2.688,2.88 2.688,8.384 0,5.44 -2.688,8.384 -2.688,2.88 -6.528,2.88 z M 79.936049,0 107.20005,-45.44 h 4.864 L 84.800049,0 Z m 6.72,-27.392 q 2.112,0 3.328,-1.92 1.28,-1.92 1.28,-5.376 0,-3.456 -1.28,-5.376 -1.216,-1.92 -3.328,-1.92 -2.112,0 -3.392,1.92 -1.216,1.92 -1.216,5.376 0,3.456 1.216,5.376 1.28,1.92 3.392,1.92 z M 105.34405,0.512 q -3.84,0 -6.528001,-2.88 -2.688,-2.944 -2.688,-8.384 0,-5.504 2.688,-8.384 2.688001,-2.88 6.528001,-2.88 3.84,0 6.528,2.88 2.688,2.88 2.688,8.384 0,5.44 -2.688,8.384 -2.688,2.88 -6.528,2.88 z m 0,-3.968 q 2.112,0 3.328,-1.92 1.28,-1.92 1.28,-5.376 0,-3.456 -1.28,-5.376 -1.216,-1.92 -3.328,-1.92 -2.112,0 -3.392,1.92 -1.216,1.92 -1.216,5.376 0,3.456 1.216,5.376 1.28,1.92 3.392,1.92 z"
         id="path370" /></g><path
       d="m 1680,1830 78,-156 h 442 l 78,156 -78,156 h -442 z"
       fill="#18181b"
       fill-rule="evenodd"
       id="path37" /><g
       aria-label="Group"
       transform="translate(1868.88,1854)"
       id="text39"
       style="font-size:73px;font-family:'Geist Mono', 'Geist Mono_MSFontService', sans-serif;fill:#ffffff"><path
         d="m 21.754,1.168 q -5.475,0 -9.782,-2.993 -4.234,-3.066 -6.716,-9.052 -2.482,-6.059 -2.482,-14.965 0,-8.395 2.263,-14.454 2.336,-6.059 6.643,-9.344 4.307,-3.358 10.366,-3.358 4.745,0 8.395,2.117 3.723,2.117 6.205,5.913 2.482,3.723 3.577,8.614 l -6.57,0.438 q -1.241,-4.818 -4.161,-7.884 -2.847,-3.066 -7.446,-3.066 -6.059,0 -9.417,5.475 -3.285,5.475 -3.285,15.549 0,10.001 3.358,15.476 3.431,5.402 9.636,5.402 5.548,0 8.76,-4.234 3.285,-4.307 3.504,-11.023 h -12.41 v -5.986 h 18.25 V 0 h -5.84 l -0.146,-7.154 q -1.825,3.796 -4.891,6.059 -2.993,2.263 -7.811,2.263 z"
         id="path373" /><path
         d="m 50.370026,0 v -5.402 h 10.074 v -27.886 h -10.074 v -5.402 h 15.184 l 0.438,7.519 q 1.825,-7.519 9.271,-7.519 h 7.957 v 5.548 h -7.884 q -4.234,0 -6.497,2.555 -2.263,2.482 -2.263,7.227 v 17.958 h 12.264 V 0 Z"
         id="path375" /><path
         d="m 109.50005,0.876 q -5.329,0 -9.344,-2.482 -3.941998,-2.482 -6.131998,-7.008 -2.19,-4.599 -2.19,-10.731 0,-6.205 2.19,-10.731 2.19,-4.526 6.131998,-7.008 4.015,-2.482 9.344,-2.482 5.329,0 9.271,2.482 4.015,2.482 6.205,7.008 2.19,4.526 2.19,10.731 0,6.132 -2.19,10.731 -2.19,4.526 -6.205,7.008 -3.942,2.482 -9.271,2.482 z m 0,-5.84 q 5.329,0 8.249,-3.796 2.993,-3.869 2.993,-10.585 0,-6.716 -2.993,-10.512 -2.92,-3.869 -8.249,-3.869 -5.329,0 -8.322,3.869 -2.919998,3.796 -2.919998,10.512 0,6.716 2.919998,10.585 2.993,3.796 8.322,3.796 z"
         id="path377" /><path
         d="m 150.59909,0.876 q -5.767,0 -9.198,-3.869 -3.431,-3.942 -3.431,-10.804 V -38.69 h 6.132 v 23.214 q 0,5.621 1.971,8.322 2.044,2.628 6.205,2.628 4.526,0 7.154,-2.92 2.628,-2.993 2.628,-8.176 V -38.69 h 6.132 V 0 h -5.84 v -6.278 q -3.212,7.154 -11.753,7.154 z"
         id="path379" /><path
         d="m 181.0401,10.95 v -49.64 h 5.694 l 0.073,6.205 q 1.752,-3.431 4.818,-5.256 3.139,-1.825 7.081,-1.825 5.767,0 9.417,2.847 3.723,2.847 5.475,7.446 1.752,4.599 1.752,9.928 0,5.329 -1.752,9.928 -1.752,4.599 -5.475,7.446 -3.65,2.847 -9.417,2.847 -3.796,0 -6.935,-1.606 -3.066,-1.606 -4.599,-4.38 v 16.06 z m 17.082,-15.914 q 5.037,0 7.884,-3.796 2.92,-3.796 2.92,-10.585 0,-6.789 -2.92,-10.585 -2.847,-3.796 -7.884,-3.796 -5.037,0 -8.03,3.65 -2.92,3.577 -2.92,10.731 0,7.081 2.92,10.731 2.92,3.65 8.03,3.65 z"
         id="path381" /></g><path
       d="M 1453,243.001 C 1453,214.282 1476.28,191 1505,191 h 494 c 28.72,0 52,23.282 52,52.001 v 207.998 c 0,28.719 -23.28,52.001 -52,52.001 h -494 c -28.72,0 -52,-23.282 -52,-52.001 z"
       fill="#18181b"
       fill-rule="evenodd"
       id="path41" /><g
       aria-label="Liquidity"
       transform="translate(1553.59,327)"
       id="text43"
       style="font-size:73px;font-family:'Geist Mono', 'Geist Mono_MSFontService', sans-serif;fill:#ffffff"><path
         d="m 7.3,0 v -51.83 h 6.278 V -6.132 H 39.42 V 0 Z"
         id="path384" /><path
         d="m 49.640026,0 v -5.402 h 15.549 v -27.886 h -14.819 v -5.402 h 20.951 v 33.288 h 13.359 V 0 Z m 14.965,-44.749 v -7.154 h 6.424 v 7.154 z"
         id="path386" /><path
         d="m 125.56005,10.95 h -6.132 V -5.11 q -1.533,2.774 -4.672,4.38 -3.066,1.606 -6.862,1.606 -5.767,0 -9.489998,-2.847 -3.65,-2.847 -5.402,-7.446 -1.752,-4.599 -1.752,-9.928 0,-5.329 1.752,-9.928 1.752,-4.599 5.402,-7.446 3.722998,-2.847 9.489998,-2.847 3.942,0 7.008,1.825 3.139,1.825 4.891,5.256 l 0.073,-6.205 h 5.694 z m -17.082,-15.914 q 5.11,0 8.03,-3.65 2.92,-3.65 2.92,-10.731 0,-7.154 -2.993,-10.731 -2.92,-3.65 -7.957,-3.65 -5.037,0 -7.957,3.796 -2.846998,3.796 -2.846998,10.585 0,6.789 2.846998,10.585 2.92,3.796 7.957,3.796 z"
         id="path388" /><path
         d="m 150.59909,0.876 q -5.767,0 -9.198,-3.869 -3.431,-3.942 -3.431,-10.804 V -38.69 h 6.132 v 23.214 q 0,5.621 1.971,8.322 2.044,2.628 6.205,2.628 4.526,0 7.154,-2.92 2.628,-2.993 2.628,-8.176 V -38.69 h 6.132 V 0 h -5.84 v -6.278 q -3.212,7.154 -11.753,7.154 z"
         id="path390" /><path
         d="m 181.0401,0 v -5.402 h 15.549 v -27.886 h -14.819 v -5.402 h 20.951 v 33.288 h 13.359 V 0 Z m 14.965,-44.749 v -7.154 h 6.424 v 7.154 z"
         id="path392" /><path
         d="m 238.49112,0.876 q -5.11,0 -8.833,-2.482 -3.723,-2.482 -5.767,-7.008 -1.971,-4.526 -1.971,-10.731 0,-6.205 1.971,-10.731 2.044,-4.526 5.767,-7.008 3.723,-2.482 8.833,-2.482 4.088,0 7.154,1.971 3.066,1.898 4.453,4.307 V -51.83 h 6.132 V 0 h -5.548 l -0.219,-5.767 q -1.679,3.139 -4.818,4.891 -3.139,1.752 -7.154,1.752 z m 0.365,-5.84 q 5.256,0 8.249,-3.869 2.993,-3.869 2.993,-10.512 0,-6.716 -2.993,-10.512 -2.993,-3.869 -8.395,-3.869 -4.745,0 -7.592,3.869 -2.774,3.796 -2.774,10.512 0,6.643 2.774,10.512 2.847,3.869 7.738,3.869 z"
         id="path394" /><path
         d="m 268.64017,0 v -5.402 h 15.549 v -27.886 h -14.819 v -5.402 h 20.951 v 33.288 h 13.359 V 0 Z m 14.965,-44.749 v -7.154 h 6.424 v 7.154 z"
         id="path396" /><path
         d="m 334.19419,0 q -11.169,0 -11.169,-10.658 v -22.63 h -12.775 v -5.402 h 12.775 v -9.052 h 6.132 v 9.052 h 15.403 v 5.402 h -15.403 v 22.63 q 0,5.256 5.037,5.256 h 10.366 V 0 Z"
         id="path398" /><path
         d="M 360.32821,10.95 V 5.548 h 4.453 q 2.044,0 2.993,-0.657 1.022,-0.584 1.533,-1.971 l 1.387,-3.65 h -2.117 l -14.381,-37.96 h 6.716 l 11.753,32.266 11.023,-32.266 h 6.716 l -15.695,43.581 q -1.095,3.139 -3.285,4.599 -2.19,1.46 -6.059,1.46 z"
         id="path400" /></g><g
       aria-label="Pool"
       transform="translate(1663.89,415)"
       id="text45"
       style="font-size:73px;font-family:'Geist Mono', 'Geist Mono_MSFontService', sans-serif;fill:#ffffff"><path
         d="m 6.57,0 v -51.83 h 15.768 q 8.103,0 12.921,4.234 4.891,4.161 4.891,11.607 0,7.446 -4.891,11.68 -4.818,4.161 -12.921,4.161 h -9.49 V 0 Z m 6.278,-26.28 h 8.76 q 6.132,0 9.052,-2.482 2.92,-2.555 2.92,-7.227 0,-4.745 -2.92,-7.227 -2.92,-2.482 -9.052,-2.482 h -8.76 z"
         id="path403" /><path
         d="m 65.700026,0.876 q -5.329,0 -9.344,-2.482 -3.942,-2.482 -6.132,-7.008 -2.19,-4.599 -2.19,-10.731 0,-6.205 2.19,-10.731 2.19,-4.526 6.132,-7.008 4.015,-2.482 9.344,-2.482 5.329,0 9.271,2.482 4.015,2.482 6.205,7.008 2.19,4.526 2.19,10.731 0,6.132 -2.19,10.731 -2.19,4.526 -6.205,7.008 -3.942,2.482 -9.271,2.482 z m 0,-5.84 q 5.329,0 8.249,-3.796 2.993,-3.869 2.993,-10.585 0,-6.716 -2.993,-10.512 -2.92,-3.869 -8.249,-3.869 -5.329,0 -8.322,3.869 -2.92,3.796 -2.92,10.512 0,6.716 2.92,10.585 2.993,3.796 8.322,3.796 z"
         id="path405" /><path
         d="m 109.50005,0.876 q -5.329,0 -9.344,-2.482 -3.941998,-2.482 -6.131998,-7.008 -2.19,-4.599 -2.19,-10.731 0,-6.205 2.19,-10.731 2.19,-4.526 6.131998,-7.008 4.015,-2.482 9.344,-2.482 5.329,0 9.271,2.482 4.015,2.482 6.205,7.008 2.19,4.526 2.19,10.731 0,6.132 -2.19,10.731 -2.19,4.526 -6.205,7.008 -3.942,2.482 -9.271,2.482 z m 0,-5.84 q 5.329,0 8.249,-3.796 2.993,-3.869 2.993,-10.585 0,-6.716 -2.993,-10.512 -2.92,-3.869 -8.249,-3.869 -5.329,0 -8.322,3.869 -2.919998,3.796 -2.919998,10.512 0,6.716 2.919998,10.585 2.993,3.796 8.322,3.796 z"
         id="path407" /><path
         d="m 135.78009,0 v -5.402 h 15.549 v -36.062 q 0,-2.336 -1.314,-3.65 -1.314,-1.314 -3.65,-1.314 h -9.125 v -5.402 h 9.417 q 10.804,0 10.804,10.804 v 35.624 h 13.359 V 0 Z"
         id="path409" /></g><g
       aria-label="40%"
       transform="translate(942.374,307)"
       id="text47"
       style="font-size:64px;font-family:'Geist Mono', 'Geist Mono_MSFontService', sans-serif;fill:#ffffff"><path
         d="M 24.832,0 V -9.856 H 2.56 v -4.992 L 24.448,-45.44 h 5.888 v 30.208 h 5.504 v 5.376 H 30.336 V 0 Z M 8.192,-15.232 h 16.64 V -37.76 Z"
         id="path412" /><path
         d="m 57.600024,1.024 q -4.928,0 -8.576,-2.88 -3.584,-2.88 -5.504,-8.192 -1.92,-5.312 -1.92,-12.608 0,-7.36 1.92,-12.672 1.92,-5.312 5.504,-8.192 3.648,-2.944 8.576,-2.944 4.992,0 8.576,2.944 3.584,2.88 5.504,8.192 1.92,5.312 1.92,12.672 0,7.296 -1.92,12.608 -1.92,5.312 -5.504,8.192 -3.584,2.88 -8.576,2.88 z m -10.24,-23.68 q 0,6.4 1.6,10.88 l 14.592,-26.56 q -2.496,-2.752 -5.952,-2.752 -4.736,0 -7.488,4.992 -2.752,4.928 -2.752,13.44 z m 10.24,18.304 q 4.736,0 7.488,-4.928 2.752,-4.992 2.752,-13.376 0,-6.464 -1.6,-10.944 l -14.592,26.496 q 2.496,2.752 5.952,2.752 z"
         id="path414" /><path
         d="m 86.656049,-23.424 q -3.84,0 -6.528,-2.88 -2.688,-2.944 -2.688,-8.384 0,-5.504 2.688,-8.384 2.688,-2.88 6.528,-2.88 3.84,0 6.528,2.88 2.688,2.88 2.688,8.384 0,5.44 -2.688,8.384 -2.688,2.88 -6.528,2.88 z M 79.936049,0 107.20005,-45.44 h 4.864 L 84.800049,0 Z m 6.72,-27.392 q 2.112,0 3.328,-1.92 1.28,-1.92 1.28,-5.376 0,-3.456 -1.28,-5.376 -1.216,-1.92 -3.328,-1.92 -2.112,0 -3.392,1.92 -1.216,1.92 -1.216,5.376 0,3.456 1.216,5.376 1.28,1.92 3.392,1.92 z M 105.34405,0.512 q -3.84,0 -6.528001,-2.88 -2.688,-2.944 -2.688,-8.384 0,-5.504 2.688,-8.384 2.688001,-2.88 6.528001,-2.88 3.84,0 6.528,2.88 2.688,2.88 2.688,8.384 0,5.44 -2.688,8.384 -2.688,2.88 -6.528,2.88 z m 0,-3.968 q 2.112,0 3.328,-1.92 1.28,-1.92 1.28,-5.376 0,-3.456 -1.28,-5.376 -1.216,-1.92 -3.328,-1.92 -2.112,0 -3.392,1.92 -1.216,1.92 -1.216,5.376 0,3.456 1.216,5.376 1.28,1.92 3.392,1.92 z"
         id="path416" /></g><g
       aria-label="7d / 2000 USDT"
       transform="translate(513.824,1845)"
       id="text49"
       style="font-size:64px;font-family:'Geist Mono', 'Geist Mono_MSFontService', sans-serif;fill:#ffffff"><path
         d="m 12.288,0 q 0,-7.04 1.92,-14.016 1.984,-7.04 5.632,-13.632 3.648,-6.592 8.704,-12.416 H 3.84 v -5.376 h 30.72 v 4.992 q -5.696,6.528 -9.344,12.928 -3.648,6.336 -5.376,13.12 -1.664,6.72 -1.664,14.4 z"
         id="path419" /><path
         d="m 55.488024,0.768 q -4.48,0 -7.744,-2.176 -3.264,-2.176 -5.056,-6.144 -1.728,-3.968 -1.728,-9.408 0,-5.44 1.728,-9.408 1.792,-3.968 5.056,-6.144 3.264,-2.176 7.744,-2.176 3.584,0 6.272,1.728 2.688,1.664 3.904,3.776 V -45.44 h 5.376 V 0 h -4.864 l -0.192,-5.056 q -1.472,2.752 -4.224,4.288 -2.752,1.536 -6.272,1.536 z m 0.32,-5.12 q 4.608,0 7.232,-3.392 2.624,-3.392 2.624,-9.216 0,-5.888 -2.624,-9.216 -2.624,-3.392 -7.36,-3.392 -4.16,0 -6.656,3.392 -2.432,3.328 -2.432,9.216 0,5.824 2.432,9.216 2.496,3.392 6.784,3.392 z"
         id="path421" /><path
         d="m 122.11207,7.04 19.456,-55.04 h 5.12 l -19.456,55.04 z"
         id="path423" /><path
         d="m 195.20012,0 q 0,-4.8 1.472,-8.64 1.536,-3.904 5.312,-7.424 3.84,-3.52 10.624,-7.104 3.136,-1.664 5.056,-3.072 1.92,-1.408 2.816,-3.008 0.896,-1.6 0.896,-3.904 0,-3.52 -2.304,-5.696 -2.24,-2.24 -6.784,-2.24 -4.8,0 -7.616,2.496 -2.752,2.496 -3.456,7.104 l -5.76,-0.384 q 0.768,-6.656 5.12,-10.624 4.352,-3.968 11.712,-3.968 7.04,0 10.944,3.648 3.904,3.648 3.904,9.536 0,3.456 -1.152,6.016 -1.152,2.496 -3.904,4.672 -2.688,2.176 -7.424,4.672 -6.144,3.264 -9.344,6.592 -3.136,3.328 -3.328,5.952 h 25.216 V 0 Z"
         id="path425" /><path
         d="m 249.60015,1.024 q -4.928,0 -8.576,-2.88 -3.584,-2.88 -5.504,-8.192 -1.92,-5.312 -1.92,-12.608 0,-7.36 1.92,-12.672 1.92,-5.312 5.504,-8.192 3.648,-2.944 8.576,-2.944 4.992,0 8.576,2.944 3.584,2.88 5.504,8.192 1.92,5.312 1.92,12.672 0,7.296 -1.92,12.608 -1.92,5.312 -5.504,8.192 -3.584,2.88 -8.576,2.88 z m -10.24,-23.68 q 0,6.4 1.6,10.88 l 14.592,-26.56 q -2.496,-2.752 -5.952,-2.752 -4.736,0 -7.488,4.992 -2.752,4.928 -2.752,13.44 z m 10.24,18.304 q 4.736,0 7.488,-4.928 2.752,-4.992 2.752,-13.376 0,-6.464 -1.6,-10.944 l -14.592,26.496 q 2.496,2.752 5.952,2.752 z"
         id="path427" /><path
         d="m 288.00017,1.024 q -4.928,0 -8.576,-2.88 -3.584,-2.88 -5.504,-8.192 -1.92,-5.312 -1.92,-12.608 0,-7.36 1.92,-12.672 1.92,-5.312 5.504,-8.192 3.648,-2.944 8.576,-2.944 4.992,0 8.576,2.944 3.584,2.88 5.504,8.192 1.92,5.312 1.92,12.672 0,7.296 -1.92,12.608 -1.92,5.312 -5.504,8.192 -3.584,2.88 -8.576,2.88 z m -10.24,-23.68 q 0,6.4 1.6,10.88 l 14.592,-26.56 q -2.496,-2.752 -5.952,-2.752 -4.736,0 -7.488,4.992 -2.752,4.928 -2.752,13.44 z m 10.24,18.304 q 4.736,0 7.488,-4.928 2.752,-4.992 2.752,-13.376 0,-6.464 -1.6,-10.944 l -14.592,26.496 q 2.496,2.752 5.952,2.752 z"
         id="path429" /><path
         d="m 326.4002,1.024 q -4.928,0 -8.576,-2.88 -3.584,-2.88 -5.504,-8.192 -1.92,-5.312 -1.92,-12.608 0,-7.36 1.92,-12.672 1.92,-5.312 5.504,-8.192 3.648,-2.944 8.576,-2.944 4.992,0 8.576,2.944 3.584,2.88 5.504,8.192 1.92,5.312 1.92,12.672 0,7.296 -1.92,12.608 -1.92,5.312 -5.504,8.192 -3.584,2.88 -8.576,2.88 z m -10.24,-23.68 q 0,6.4 1.6,10.88 l 14.592,-26.56 q -2.496,-2.752 -5.952,-2.752 -4.736,0 -7.488,4.992 -2.752,4.928 -2.752,13.44 z m 10.24,18.304 q 4.736,0 7.488,-4.928 2.752,-4.992 2.752,-13.376 0,-6.464 -1.6,-10.944 l -14.592,26.496 q 2.496,2.752 5.952,2.752 z"
         id="path431" /><path
         d="m 403.20024,1.024 q -7.168,0 -11.264,-4.544 -4.096,-4.544 -4.096,-12.352 V -45.44 h 5.504 v 29.568 q 0,5.632 2.496,8.576 2.56,2.944 7.36,2.944 4.8,0 7.296,-2.944 2.56,-2.944 2.56,-8.576 V -45.44 h 5.504 v 29.568 q 0,7.808 -4.096,12.352 -4.096,4.544 -11.264,4.544 z"
         id="path433" /><path
         d="m 442.30427,1.024 q -4.8,0 -8.512,-1.984 -3.712,-1.984 -5.952,-5.44 -2.24,-3.52 -2.624,-8.128 l 5.76,-0.384 q 0.704,5.056 3.648,7.808 3.008,2.752 7.808,2.752 4.736,0 7.232,-1.792 2.56,-1.856 2.56,-5.184 0,-2.176 -1.024,-3.712 -0.96,-1.6 -3.712,-2.944 -2.688,-1.408 -8,-2.88 -4.736,-1.344 -7.68,-2.944 -2.88,-1.664 -4.224,-3.968 -1.28,-2.368 -1.28,-5.76 0,-3.84 1.792,-6.72 1.856,-2.944 5.248,-4.544 3.392,-1.664 8.064,-1.664 4.672,0 8,1.92 3.328,1.856 5.248,5.12 1.984,3.264 2.496,7.424 l -5.76,0.384 q -0.576,-4.16 -3.072,-6.784 -2.432,-2.688 -7.04,-2.688 -4.224,0 -6.72,2.048 -2.496,1.984 -2.496,5.248 0,2.112 0.896,3.52 0.96,1.344 3.328,2.432 2.368,1.024 6.656,2.24 5.568,1.536 8.832,3.456 3.328,1.92 4.736,4.544 1.472,2.624 1.472,6.4 0,3.584 -1.984,6.4 -1.984,2.752 -5.504,4.288 -3.52,1.536 -8.192,1.536 z"
         id="path435" /><path
         d="m 466.56029,0 v -45.44 h 10.752 q 5.888,0 10.24,2.688 4.416,2.624 6.784,7.744 2.432,5.056 2.432,12.352 0,7.296 -2.432,12.352 -2.368,5.056 -6.784,7.68 -4.352,2.624 -10.24,2.624 z m 5.504,-5.376 h 4.928 q 6.656,0 10.304,-4.288 3.712,-4.352 3.712,-12.992 0,-8.64 -3.712,-12.992 -3.648,-4.416 -10.304,-4.416 h -4.928 z"
         id="path437" /><path
         d="m 515.64832,0 v -40.064 h -13.888 v -5.376 h 33.28 v 5.376 h -13.888 V 0 Z"
         id="path439" /></g><g
       aria-label="14d / 100 ETH"
       transform="translate(807.383,1311)"
       id="text51"
       style="font-size:64px;font-family:'Geist Mono', 'Geist Mono_MSFontService', sans-serif;fill:#ffffff"><path
         d="M 3.84,0 V -5.376 H 18.176 V -33.664 H 6.272 V -38.4 h 6.144 q 3.648,0 5.184,-1.6 1.6,-1.6 1.6,-5.44 h 4.48 V -5.376 H 34.56 V 0 Z"
         id="path442" /><path
         d="m 63.232024,0 v -9.856 h -22.272 v -4.992 l 21.888,-30.592 h 5.888 v 30.208 h 5.504 v 5.376 h -5.504 V 0 Z m -16.64,-15.232 h 16.64 V -37.76 Z"
         id="path444" /><path
         d="m 93.888049,0.768 q -4.48,0 -7.744,-2.176 -3.264,-2.176 -5.056,-6.144 -1.728,-3.968 -1.728,-9.408 0,-5.44 1.728,-9.408 1.792,-3.968 5.056,-6.144 3.264,-2.176 7.744,-2.176 3.584,0 6.272001,1.728 2.688,1.664 3.904,3.776 V -45.44 h 5.376 V 0 h -4.864 l -0.192,-5.056 q -1.472,2.752 -4.224,4.288 -2.752001,1.536 -6.272001,1.536 z m 0.32,-5.12 q 4.608,0 7.232001,-3.392 2.624,-3.392 2.624,-9.216 0,-5.888 -2.624,-9.216 -2.624001,-3.392 -7.360001,-3.392 -4.16,0 -6.656,3.392 -2.432,3.328 -2.432,9.216 0,5.824 2.432,9.216 2.496,3.392 6.784,3.392 z"
         id="path446" /><path
         d="M 160.5121,7.04 179.9681,-48 h 5.12 l -19.456,55.04 z"
         id="path448" /><path
         d="m 234.24015,0 v -5.376 h 14.336 v -28.288 h -11.904 V -38.4 h 6.144 q 3.648,0 5.184,-1.6 1.6,-1.6 1.6,-5.44 h 4.48 v 40.064 h 10.88 V 0 Z"
         id="path450" /><path
         d="m 288.00017,1.024 q -4.928,0 -8.576,-2.88 -3.584,-2.88 -5.504,-8.192 -1.92,-5.312 -1.92,-12.608 0,-7.36 1.92,-12.672 1.92,-5.312 5.504,-8.192 3.648,-2.944 8.576,-2.944 4.992,0 8.576,2.944 3.584,2.88 5.504,8.192 1.92,5.312 1.92,12.672 0,7.296 -1.92,12.608 -1.92,5.312 -5.504,8.192 -3.584,2.88 -8.576,2.88 z m -10.24,-23.68 q 0,6.4 1.6,10.88 l 14.592,-26.56 q -2.496,-2.752 -5.952,-2.752 -4.736,0 -7.488,4.992 -2.752,4.928 -2.752,13.44 z m 10.24,18.304 q 4.736,0 7.488,-4.928 2.752,-4.992 2.752,-13.376 0,-6.464 -1.6,-10.944 l -14.592,26.496 q 2.496,2.752 5.952,2.752 z"
         id="path452" /><path
         d="m 326.4002,1.024 q -4.928,0 -8.576,-2.88 -3.584,-2.88 -5.504,-8.192 -1.92,-5.312 -1.92,-12.608 0,-7.36 1.92,-12.672 1.92,-5.312 5.504,-8.192 3.648,-2.944 8.576,-2.944 4.992,0 8.576,2.944 3.584,2.88 5.504,8.192 1.92,5.312 1.92,12.672 0,7.296 -1.92,12.608 -1.92,5.312 -5.504,8.192 -3.584,2.88 -8.576,2.88 z m -10.24,-23.68 q 0,6.4 1.6,10.88 l 14.592,-26.56 q -2.496,-2.752 -5.952,-2.752 -4.736,0 -7.488,4.992 -2.752,4.928 -2.752,13.44 z m 10.24,18.304 q 4.736,0 7.488,-4.928 2.752,-4.992 2.752,-13.376 0,-6.464 -1.6,-10.944 l -14.592,26.496 q 2.496,2.752 5.952,2.752 z"
         id="path454" /><path
         d="m 389.76024,0 v -45.44 h 27.648 v 5.376 h -22.144 v 14.656 h 21.376 v 5.248 h -21.376 v 14.784 h 22.656 V 0 Z"
         id="path456" /><path
         d="m 438.84827,0 v -40.064 h -13.888 v -5.376 h 33.28 v 5.376 h -13.888 V 0 Z"
         id="path458" /><path
         d="m 464.64029,0 v -45.44 h 5.504 v 19.904 h 19.712 V -45.44 h 5.504 V 0 h -5.504 v -20.16 h -19.712 V 0 Z"
         id="path460" /></g><g
       aria-label="1. / 200 EUR"
       transform="translate(1453.04,2358)"
       id="text53"
       style="font-size:64px;font-family:'Geist Mono', 'Geist Mono_MSFontService', sans-serif;fill:#ffffff"><path
         d="M 3.84,0 V -5.376 H 18.176 V -33.664 H 6.272 V -38.4 h 6.144 q 3.648,0 5.184,-1.6 1.6,-1.6 1.6,-5.44 h 4.48 V -5.376 H 34.56 V 0 Z"
         id="path463" /><path
         d="m 53.632024,0 v -7.808 h 7.936 V 0 Z"
         id="path465" /><path
         d="m 122.11207,7.04 19.456,-55.04 h 5.12 l -19.456,55.04 z"
         id="path467" /><path
         d="m 195.20012,0 q 0,-4.8 1.472,-8.64 1.536,-3.904 5.312,-7.424 3.84,-3.52 10.624,-7.104 3.136,-1.664 5.056,-3.072 1.92,-1.408 2.816,-3.008 0.896,-1.6 0.896,-3.904 0,-3.52 -2.304,-5.696 -2.24,-2.24 -6.784,-2.24 -4.8,0 -7.616,2.496 -2.752,2.496 -3.456,7.104 l -5.76,-0.384 q 0.768,-6.656 5.12,-10.624 4.352,-3.968 11.712,-3.968 7.04,0 10.944,3.648 3.904,3.648 3.904,9.536 0,3.456 -1.152,6.016 -1.152,2.496 -3.904,4.672 -2.688,2.176 -7.424,4.672 -6.144,3.264 -9.344,6.592 -3.136,3.328 -3.328,5.952 h 25.216 V 0 Z"
         id="path469" /><path
         d="m 249.60015,1.024 q -4.928,0 -8.576,-2.88 -3.584,-2.88 -5.504,-8.192 -1.92,-5.312 -1.92,-12.608 0,-7.36 1.92,-12.672 1.92,-5.312 5.504,-8.192 3.648,-2.944 8.576,-2.944 4.992,0 8.576,2.944 3.584,2.88 5.504,8.192 1.92,5.312 1.92,12.672 0,7.296 -1.92,12.608 -1.92,5.312 -5.504,8.192 -3.584,2.88 -8.576,2.88 z m -10.24,-23.68 q 0,6.4 1.6,10.88 l 14.592,-26.56 q -2.496,-2.752 -5.952,-2.752 -4.736,0 -7.488,4.992 -2.752,4.928 -2.752,13.44 z m 10.24,18.304 q 4.736,0 7.488,-4.928 2.752,-4.992 2.752,-13.376 0,-6.464 -1.6,-10.944 l -14.592,26.496 q 2.496,2.752 5.952,2.752 z"
         id="path471" /><path
         d="m 288.00017,1.024 q -4.928,0 -8.576,-2.88 -3.584,-2.88 -5.504,-8.192 -1.92,-5.312 -1.92,-12.608 0,-7.36 1.92,-12.672 1.92,-5.312 5.504,-8.192 3.648,-2.944 8.576,-2.944 4.992,0 8.576,2.944 3.584,2.88 5.504,8.192 1.92,5.312 1.92,12.672 0,7.296 -1.92,12.608 -1.92,5.312 -5.504,8.192 -3.584,2.88 -8.576,2.88 z m -10.24,-23.68 q 0,6.4 1.6,10.88 l 14.592,-26.56 q -2.496,-2.752 -5.952,-2.752 -4.736,0 -7.488,4.992 -2.752,4.928 -2.752,13.44 z m 10.24,18.304 q 4.736,0 7.488,-4.928 2.752,-4.992 2.752,-13.376 0,-6.464 -1.6,-10.944 l -14.592,26.496 q 2.496,2.752 5.952,2.752 z"
         id="path473" /><path
         d="m 351.36022,0 v -45.44 h 27.648 v 5.376 h -22.144 v 14.656 h 21.376 v 5.248 h -21.376 v 14.784 h 22.656 V 0 Z"
         id="path475" /><path
         d="m 403.20024,1.024 q -7.168,0 -11.264,-4.544 -4.096,-4.544 -4.096,-12.352 V -45.44 h 5.504 v 29.568 q 0,5.632 2.496,8.576 2.56,2.944 7.36,2.944 4.8,0 7.296,-2.944 2.56,-2.944 2.56,-8.576 V -45.44 h 5.504 v 29.568 q 0,7.808 -4.096,12.352 -4.096,4.544 -11.264,4.544 z"
         id="path477" /><path
         d="m 426.88027,0 v -45.44 h 13.824 q 7.168,0 11.328,3.648 4.16,3.584 4.16,9.92 0,4.032 -2.368,6.912 -2.304,2.816 -5.312,3.776 3.264,0.64 4.928,2.56 1.664,1.92 1.984,5.568 L 456.57627,0 h -5.504 l -1.088,-12.352 q -0.256,-3.2 -1.984,-4.544 -1.728,-1.408 -6.144,-1.408 h -9.472 V 0 Z m 5.504,-23.68 h 8.32 q 4.736,0 7.232,-2.112 2.496,-2.176 2.496,-6.08 0,-3.968 -2.496,-6.08 -2.496,-2.112 -7.232,-2.112 h -8.32 z"
         id="path479" /></g><path
       d="m 883,2958 c 0,-28.72 23.282,-52 52.001,-52 H 1428 c 28.72,0 52,23.28 52,52 v 208 c 0,28.72 -23.28,52 -52,52 H 935.001 C 906.282,3218 883,3194.72 883,3166 Z"
       fill="#18181b"
       fill-rule="evenodd"
       id="path55" /><g
       aria-label="0x56E…117"
       transform="translate(983.059,3086)"
       id="text57"
       style="font-size:73px;font-family:'Geist Mono', 'Geist Mono_MSFontService', sans-serif;fill:#ffffff"><path
         d="m 21.9,1.168 q -5.621,0 -9.782,-3.285 Q 8.03,-5.402 5.84,-11.461 3.65,-17.52 3.65,-25.842 q 0,-8.395 2.19,-14.454 2.19,-6.059 6.278,-9.344 4.161,-3.358 9.782,-3.358 5.694,0 9.782,3.358 4.088,3.285 6.278,9.344 2.19,6.059 2.19,14.454 0,8.322 -2.19,14.381 -2.19,6.059 -6.278,9.344 -4.088,3.285 -9.782,3.285 z m -11.68,-27.01 q 0,7.3 1.825,12.41 l 16.644,-30.295 q -2.847,-3.139 -6.789,-3.139 -5.402,0 -8.541,5.694 -3.139,5.621 -3.139,15.33 z M 21.9,-4.964 q 5.402,0 8.541,-5.621 3.139,-5.694 3.139,-15.257 0,-7.373 -1.825,-12.483 L 15.111,-8.103 q 2.847,3.139 6.789,3.139 z"
         id="path482" /><path
         d="m 47.742026,0 14.235,-19.856 -13.505,-18.834 h 7.154 l 10.147,14.6 9.928,-14.6 h 7.3 l -13.432,18.98 14.089,19.71 h -7.154 L 65.773026,-15.622 55.042026,0 Z"
         id="path484" /><path
         d="m 109.35405,1.168 q -5.037,0 -8.833,-1.825 -3.722998,-1.825 -5.985998,-5.11 -2.19,-3.285 -2.555,-7.592 l 6.57,-0.438 q 0.584,4.38 3.430998,6.643 2.92,2.19 7.373,2.19 5.037,0 8.03,-3.066 3.066,-3.139 3.066,-8.614 0,-5.475 -2.92,-8.614 -2.847,-3.212 -8.03,-3.212 -3.066,0 -5.913,1.533 -2.774,1.46 -4.014998,4.234 h -6.716 l 3.431,-29.127 h 27.593998 v 6.132 h -21.827 l -1.898,15.622 q 1.898,-2.19 4.672,-3.285 2.774,-1.095 5.548,-1.095 4.964,0 8.687,2.336 3.796,2.263 5.84,6.278 2.117,4.015 2.117,9.198 0,5.183 -2.263,9.271 -2.263,4.015 -6.278,6.278 -3.942,2.263 -9.125,2.263 z"
         id="path486" /><path
         d="m 153.44609,1.168 q -8.76,0 -13.578,-5.986 -4.818,-5.986 -4.818,-17.082 0,-6.424 1.022,-12.045 1.095,-5.621 3.431,-9.855 2.409,-4.307 6.278,-6.716 3.942,-2.482 9.709,-2.482 6.935,0 10.731,3.431 3.796,3.358 5.329,8.833 l -6.57,0.584 q -0.876,-3.066 -3.066,-4.891 -2.117,-1.825 -6.424,-1.825 -5.84,0 -9.417,4.526 -3.577,4.526 -4.38,13.578 l -0.073,0.511 q 1.898,-2.847 5.183,-4.745 3.358,-1.898 7.811,-1.898 5.11,0 8.906,2.19 3.796,2.19 5.913,6.205 2.117,3.942 2.117,9.271 0,5.694 -2.336,9.855 -2.263,4.088 -6.351,6.351 -4.015,2.19 -9.417,2.19 z m 0.146,-6.132 q 5.11,0 8.249,-3.212 3.139,-3.285 3.139,-9.052 0,-5.402 -2.993,-8.541 -2.92,-3.139 -7.811,-3.139 -3.504,0 -6.278,1.46 -2.774,1.387 -4.38,4.015 -1.606,2.628 -1.606,6.205 0,5.329 3.139,8.833 3.212,3.431 8.541,3.431 z"
         id="path488" /><path
         d="m 181.7701,0 v -51.83 h 31.536 v 6.132 h -25.258 v 16.717 h 24.382 v 5.986 h -24.382 v 16.863 h 25.842 V 0 Z"
         id="path490" /><path
         d="m 222.65012,0 v -8.906 h 9.052 V 0 Z m 13.651,0 v -8.906 h 9.052 V 0 Z m 13.797,0 v -8.906 h 9.052 V 0 Z"
         id="path492" /><path
         d="m 267.18017,0 v -6.132 h 16.352 v -32.266 h -13.578 V -43.8 h 7.008 q 4.161,0 5.913,-1.825 1.825,-1.825 1.825,-6.205 h 5.11 v 45.698 h 12.41 V 0 Z"
         id="path494" /><path
         d="m 310.98019,0 v -6.132 h 16.352 v -32.266 h -13.578 V -43.8 h 7.008 q 4.161,0 5.913,-1.825 1.825,-1.825 1.825,-6.205 h 5.11 v 45.698 h 12.41 V 0 Z"
         id="path496" /><path
         d="m 364.41621,0 q 0,-8.03 2.19,-15.987 2.263,-8.03 6.424,-15.549 4.161,-7.519 9.928,-14.162 h -28.178 v -6.132 h 35.04 v 5.694 q -6.497,7.446 -10.658,14.746 -4.161,7.227 -6.132,14.965 -1.898,7.665 -1.898,16.425 z"
         id="path498" /></g><path
       d="m 1680,2565.83 c 0,-28.62 23.21,-51.83 51.83,-51.83 h 494.34 c 28.62,0 51.83,23.21 51.83,51.83 v 207.34 c 0,28.62 -23.21,51.83 -51.83,51.83 h -494.34 c -28.62,0 -51.83,-23.21 -51.83,-51.83 z"
       fill="#18181b"
       fill-rule="evenodd"
       id="path59" /><g
       aria-label="alice.eth"
       transform="translate(1780.65,2694)"
       id="text61"
       style="font-size:73px;font-family:'Geist Mono', 'Geist Mono_MSFontService', sans-serif;fill:#ffffff"><path
         d="m 16.79,0.876 q -3.65,0 -6.57,-1.314 -2.92,-1.314 -4.599,-3.65 -1.679,-2.409 -1.679,-5.548 0,-4.964 2.92,-7.665 2.993,-2.774 9.344,-4.015 L 29.2,-23.944 q 0,-4.964 -2.263,-7.373 -2.19,-2.409 -6.351,-2.409 -4.015,0 -6.278,1.825 -2.263,1.752 -3.139,5.11 l -6.497,-0.511 q 1.095,-5.475 5.183,-8.833 4.161,-3.431 10.731,-3.431 7.008,0 10.877,4.234 3.869,4.161 3.869,11.534 v 16.06 q 0,1.314 0.584,1.825 0.584,0.511 1.752,0.511 H 40.15 V 0 q -1.168,0.146 -3.212,0.146 -3.066,0 -4.964,-1.241 -1.825,-1.241 -2.482,-4.015 l -0.073,-0.365 q -1.533,2.847 -5.037,4.599 -3.431,1.752 -7.592,1.752 z m 0.584,-5.402 q 5.913,0 8.833,-2.993 2.993,-2.993 2.993,-7.811 v -3.358 l -11.826,2.336 q -3.942,0.73 -5.475,2.263 -1.533,1.46 -1.533,3.869 0,2.701 1.825,4.234 1.898,1.46 5.183,1.46 z"
         id="path501" /><path
         d="m 48.180026,0 v -5.402 h 15.549 v -36.062 q 0,-2.336 -1.314,-3.65 -1.314,-1.314 -3.65,-1.314 h -9.125 v -5.402 h 9.417 q 10.804,0 10.804,10.804 v 35.624 h 13.359 V 0 Z"
         id="path503" /><path
         d="M 93.440052,0 V -5.402 H 108.98905 V -33.288 H 94.170052 v -5.402 h 20.950998 v 33.288 h 13.359 V 0 Z m 14.964998,-44.749 v -7.154 h 6.424 v 7.154 z"
         id="path505" /><path
         d="m 154.32209,0.876 q -5.402,0 -9.417,-2.482 -4.015,-2.482 -6.205,-7.008 -2.19,-4.599 -2.19,-10.731 0,-6.132 2.19,-10.658 2.19,-4.526 6.205,-7.008 4.015,-2.555 9.417,-2.555 6.497,0 10.731,3.504 4.307,3.431 5.475,9.928 l -6.424,0.438 q -0.876,-3.869 -3.504,-5.913 -2.555,-2.117 -6.278,-2.117 -5.329,0 -8.395,3.869 -2.993,3.796 -2.993,10.512 0,6.716 2.993,10.585 3.066,3.796 8.395,3.796 3.723,0 6.424,-2.19 2.774,-2.19 3.65,-6.57 l 6.424,0.438 q -1.168,6.424 -5.621,10.293 -4.38,3.869 -10.877,3.869 z"
         id="path507" /><path
         d="m 197.5381,0.876 q -5.475,0 -9.49,-2.482 -3.942,-2.482 -6.132,-7.008 -2.117,-4.599 -2.117,-10.731 0,-6.132 2.117,-10.658 2.19,-4.526 6.059,-7.008 3.942,-2.555 9.271,-2.555 5.037,0 8.906,2.409 3.869,2.336 6.059,6.862 2.19,4.526 2.19,11.023 v 1.825 h -28.178 q 0.365,6.205 3.285,9.344 2.993,3.139 8.03,3.139 3.796,0 6.205,-1.752 2.482,-1.825 3.431,-4.745 l 6.57,0.511 q -1.533,5.183 -5.84,8.541 -4.234,3.285 -10.366,3.285 z m -11.315,-23.725 h 21.462 q -0.438,-5.621 -3.285,-8.249 -2.847,-2.628 -7.154,-2.628 -4.453,0 -7.373,2.774 -2.847,2.701 -3.65,8.103 z"
         id="path509" /><path
         d="m 236.37412,0 v -8.906 h 9.052 V 0 Z"
         id="path511" /><path
         d="m 285.13817,0.876 q -5.475,0 -9.49,-2.482 -3.942,-2.482 -6.132,-7.008 -2.117,-4.599 -2.117,-10.731 0,-6.132 2.117,-10.658 2.19,-4.526 6.059,-7.008 3.942,-2.555 9.271,-2.555 5.037,0 8.906,2.409 3.869,2.336 6.059,6.862 2.19,4.526 2.19,11.023 v 1.825 h -28.178 q 0.365,6.205 3.285,9.344 2.993,3.139 8.03,3.139 3.796,0 6.205,-1.752 2.482,-1.825 3.431,-4.745 l 6.57,0.511 q -1.533,5.183 -5.84,8.541 -4.234,3.285 -10.366,3.285 z m -11.315,-23.725 h 21.462 q -0.438,-5.621 -3.285,-8.249 -2.847,-2.628 -7.154,-2.628 -4.453,0 -7.373,2.774 -2.847,2.701 -3.65,8.103 z"
         id="path513" /><path
         d="m 334.19419,0 q -11.169,0 -11.169,-10.658 v -22.63 h -12.775 v -5.402 h 12.775 v -9.052 h 6.132 v 9.052 h 15.403 v 5.402 h -15.403 v 22.63 q 0,5.256 5.037,5.256 h 10.366 V 0 Z"
         id="path515" /><path
         d="m 357.70021,0 v -51.83 h 6.132 v 19.199 q 1.533,-3.577 4.599,-5.256 3.066,-1.679 7.008,-1.679 6.278,0 9.563,4.088 3.358,4.088 3.358,10.585 V 0 h -6.132 v -23.141 q 0,-11.023 -8.103,-11.023 -4.672,0 -7.519,2.847 -2.774,2.847 -2.774,8.249 V 0 Z"
         id="path517" /></g><path
       d="m 0,-3.4375 h 27.5 v 6.875 H 0 Z m 48.125,0 h 27.5 v 6.875 h -27.5 z m 48.125,0 h 27.5 v 6.875 h -27.5 z m 48.125,0 h 27.5 v 6.875 h -27.5 z m 48.125,0 H 220 v 6.875 h -27.5 z m 48.125,0 h 27.5 v 6.875 h -27.5 z m 45.833,2.29167 h 27.5 v 6.875 h -27.5 z m 48.125,0 h 27.5 v 6.875 h -27.5 z m 48.125,0 h 27.5 v 6.875 h -27.5 z m 48.125,0 h 27.5 v 6.875 h -27.5 z m 48.125,0 h 27.5 v 6.875 h -27.5 z m 48.125,0 h 9.622 v 6.875 h -9.622 z M 497.124,-23.6299 543.782,2.29167 497.124,28.2132 c -1.66,0.922 -3.753,0.3241 -4.675,-1.3355 -0.922,-1.6595 -0.324,-3.7523 1.336,-4.6743 l 41.25,-22.916649 V 5.29658 l -41.25,-22.91668 c -1.66,-0.922 -2.258,-3.0147 -1.336,-4.6743 0.922,-1.6596 3.015,-2.2575 4.675,-1.3355 z"
       fill="#27272a"
       transform="matrix(0,1,1,0,1977.5,1970.5)"
       id="path63" /><g
       aria-label="2. / 400 USDC"
       transform="translate(1326.96,2100)"
       id="text65"
       style="font-size:64px;font-family:'Geist Mono', 'Geist Mono_MSFontService', sans-serif;fill:#ffffff"><path
         d="m 3.2,0 q 0,-4.8 1.472,-8.64 1.536,-3.904 5.312,-7.424 3.84,-3.52 10.624,-7.104 3.136,-1.664 5.056,-3.072 1.92,-1.408 2.816,-3.008 0.896,-1.6 0.896,-3.904 0,-3.52 -2.304,-5.696 -2.24,-2.24 -6.784,-2.24 -4.8,0 -7.616,2.496 -2.752,2.496 -3.456,7.104 l -5.76,-0.384 q 0.768,-6.656 5.12,-10.624 4.352,-3.968 11.712,-3.968 7.04,0 10.944,3.648 3.904,3.648 3.904,9.536 0,3.456 -1.152,6.016 -1.152,2.496 -3.904,4.672 -2.688,2.176 -7.424,4.672 -6.144,3.264 -9.344,6.592 Q 10.176,-8 9.984,-5.376 H 35.2 V 0 Z"
         id="path520" /><path
         d="m 53.632024,0 v -7.808 h 7.936 V 0 Z"
         id="path522" /><path
         d="m 122.11207,7.04 19.456,-55.04 h 5.12 l -19.456,55.04 z"
         id="path524" /><path
         d="m 216.83212,0 v -9.856 h -22.272 v -4.992 l 21.888,-30.592 h 5.888 v 30.208 h 5.504 v 5.376 h -5.504 V 0 Z m -16.64,-15.232 h 16.64 V -37.76 Z"
         id="path526" /><path
         d="m 249.60015,1.024 q -4.928,0 -8.576,-2.88 -3.584,-2.88 -5.504,-8.192 -1.92,-5.312 -1.92,-12.608 0,-7.36 1.92,-12.672 1.92,-5.312 5.504,-8.192 3.648,-2.944 8.576,-2.944 4.992,0 8.576,2.944 3.584,2.88 5.504,8.192 1.92,5.312 1.92,12.672 0,7.296 -1.92,12.608 -1.92,5.312 -5.504,8.192 -3.584,2.88 -8.576,2.88 z m -10.24,-23.68 q 0,6.4 1.6,10.88 l 14.592,-26.56 q -2.496,-2.752 -5.952,-2.752 -4.736,0 -7.488,4.992 -2.752,4.928 -2.752,13.44 z m 10.24,18.304 q 4.736,0 7.488,-4.928 2.752,-4.992 2.752,-13.376 0,-6.464 -1.6,-10.944 l -14.592,26.496 q 2.496,2.752 5.952,2.752 z"
         id="path528" /><path
         d="m 288.00017,1.024 q -4.928,0 -8.576,-2.88 -3.584,-2.88 -5.504,-8.192 -1.92,-5.312 -1.92,-12.608 0,-7.36 1.92,-12.672 1.92,-5.312 5.504,-8.192 3.648,-2.944 8.576,-2.944 4.992,0 8.576,2.944 3.584,2.88 5.504,8.192 1.92,5.312 1.92,12.672 0,7.296 -1.92,12.608 -1.92,5.312 -5.504,8.192 -3.584,2.88 -8.576,2.88 z m -10.24,-23.68 q 0,6.4 1.6,10.88 l 14.592,-26.56 q -2.496,-2.752 -5.952,-2.752 -4.736,0 -7.488,4.992 -2.752,4.928 -2.752,13.44 z m 10.24,18.304 q 4.736,0 7.488,-4.928 2.752,-4.992 2.752,-13.376 0,-6.464 -1.6,-10.944 l -14.592,26.496 q 2.496,2.752 5.952,2.752 z"
         id="path530" /><path
         d="m 364.80022,1.024 q -7.168,0 -11.264,-4.544 -4.096,-4.544 -4.096,-12.352 V -45.44 h 5.504 v 29.568 q 0,5.632 2.496,8.576 2.56,2.944 7.36,2.944 4.8,0 7.296,-2.944 2.56,-2.944 2.56,-8.576 V -45.44 h 5.504 v 29.568 q 0,7.808 -4.096,12.352 -4.096,4.544 -11.264,4.544 z"
         id="path532" /><path
         d="m 403.90424,1.024 q -4.8,0 -8.512,-1.984 -3.712,-1.984 -5.952,-5.44 -2.24,-3.52 -2.624,-8.128 l 5.76,-0.384 q 0.704,5.056 3.648,7.808 3.008,2.752 7.808,2.752 4.736,0 7.232,-1.792 2.56,-1.856 2.56,-5.184 0,-2.176 -1.024,-3.712 -0.96,-1.6 -3.712,-2.944 -2.688,-1.408 -8,-2.88 -4.736,-1.344 -7.68,-2.944 -2.88,-1.664 -4.224,-3.968 -1.28,-2.368 -1.28,-5.76 0,-3.84 1.792,-6.72 1.856,-2.944 5.248,-4.544 3.392,-1.664 8.064,-1.664 4.672,0 8,1.92 3.328,1.856 5.248,5.12 1.984,3.264 2.496,7.424 l -5.76,0.384 q -0.576,-4.16 -3.072,-6.784 -2.432,-2.688 -7.04,-2.688 -4.224,0 -6.72,2.048 -2.496,1.984 -2.496,5.248 0,2.112 0.896,3.52 0.96,1.344 3.328,2.432 2.368,1.024 6.656,2.24 5.568,1.536 8.832,3.456 3.328,1.92 4.736,4.544 1.472,2.624 1.472,6.4 0,3.584 -1.984,6.4 -1.984,2.752 -5.504,4.288 -3.52,1.536 -8.192,1.536 z"
         id="path534" /><path
         d="m 428.16027,0 v -45.44 h 10.752 q 5.888,0 10.24,2.688 4.416,2.624 6.784,7.744 2.432,5.056 2.432,12.352 0,7.296 -2.432,12.352 -2.368,5.056 -6.784,7.68 -4.352,2.624 -10.24,2.624 z m 5.504,-5.376 h 4.928 q 6.656,0 10.304,-4.288 3.712,-4.352 3.712,-12.992 0,-8.64 -3.712,-12.992 -3.648,-4.416 -10.304,-4.416 h -4.928 z"
         id="path536" /><path
         d="m 480.12829,1.024 q -5.44,0 -9.216,-2.88 -3.776,-2.88 -5.76,-8.192 -1.92,-5.312 -1.92,-12.608 0,-7.36 1.92,-12.672 1.984,-5.312 5.76,-8.192 3.776,-2.944 9.216,-2.944 6.016,0 10.24,3.968 4.224,3.904 5.632,10.944 l -5.888,0.384 q -1.088,-4.928 -3.776,-7.424 -2.624,-2.496 -6.208,-2.496 -5.44,0 -8.32,4.8 -2.816,4.8 -2.816,13.632 0,8.768 2.816,13.568 2.88,4.736 8.32,4.736 3.968,0 6.72,-2.752 2.752,-2.752 3.712,-8.192 l 5.824,0.32 q -1.216,7.488 -5.504,11.776 -4.288,4.224 -10.752,4.224 z"
         id="path538" /></g><path
       d="m 481.521,1499.5 v 27.5 h -6.875 v -27.5 z m 0,48.12 v 27.5 h -6.875 v -27.5 z m 0,48.13 v 27.5 h -6.875 v -27.5 z m 0,48.12 v 27.5 h -6.875 v -27.5 z m 0,48.13 v 27.5 h -6.875 V 1692 Z m 0,48.12 v 27.5 h -6.875 v -27.5 z m 0,48.13 v 27.5 h -6.875 v -27.5 z m -4.584,43.54 v 27.5 h -6.875 v -27.5 z m 0,48.13 v 27.5 h -6.875 v -27.5 z m 0,48.12 v 27.5 h -6.875 v -27.5 z m 0,48.13 v 27.5 h -6.875 v -27.5 z m 0,48.12 v 27.5 h -6.875 v -27.5 z m 0,48.13 v 27.5 h -6.875 v -27.5 z m 0,48.12 v 12.77 h -6.875 v -12.77 z m 22.484,-26.81 -25.921,46.65 -25.922,-46.65 c -0.922,-1.66 -0.324,-3.76 1.336,-4.68 1.659,-0.92 3.752,-0.32 4.674,1.34 l 22.917,41.25 h -6.01 l 22.917,-41.25 c 0.922,-1.66 3.014,-2.26 4.674,-1.34 1.659,0.92 2.257,3.02 1.335,4.68 z"
       fill="#27272a"
       id="path67" /><path
       d="m 175,1354 78,-156 h 442 l 78,156 -78,156 H 253 Z"
       fill="#18181b"
       fill-rule="evenodd"
       id="path69" /><g
       aria-label="Group"
       transform="translate(363.568,1378)"
       id="text71"
       style="font-size:73px;font-family:'Geist Mono', 'Geist Mono_MSFontService', sans-serif;fill:#ffffff"><path
         d="m 21.754,1.168 q -5.475,0 -9.782,-2.993 -4.234,-3.066 -6.716,-9.052 -2.482,-6.059 -2.482,-14.965 0,-8.395 2.263,-14.454 2.336,-6.059 6.643,-9.344 4.307,-3.358 10.366,-3.358 4.745,0 8.395,2.117 3.723,2.117 6.205,5.913 2.482,3.723 3.577,8.614 l -6.57,0.438 q -1.241,-4.818 -4.161,-7.884 -2.847,-3.066 -7.446,-3.066 -6.059,0 -9.417,5.475 -3.285,5.475 -3.285,15.549 0,10.001 3.358,15.476 3.431,5.402 9.636,5.402 5.548,0 8.76,-4.234 3.285,-4.307 3.504,-11.023 h -12.41 v -5.986 h 18.25 V 0 h -5.84 l -0.146,-7.154 q -1.825,3.796 -4.891,6.059 -2.993,2.263 -7.811,2.263 z"
         id="path541" /><path
         d="m 50.370026,0 v -5.402 h 10.074 v -27.886 h -10.074 v -5.402 h 15.184 l 0.438,7.519 q 1.825,-7.519 9.271,-7.519 h 7.957 v 5.548 h -7.884 q -4.234,0 -6.497,2.555 -2.263,2.482 -2.263,7.227 v 17.958 h 12.264 V 0 Z"
         id="path543" /><path
         d="m 109.50005,0.876 q -5.329,0 -9.344,-2.482 -3.941998,-2.482 -6.131998,-7.008 -2.19,-4.599 -2.19,-10.731 0,-6.205 2.19,-10.731 2.19,-4.526 6.131998,-7.008 4.015,-2.482 9.344,-2.482 5.329,0 9.271,2.482 4.015,2.482 6.205,7.008 2.19,4.526 2.19,10.731 0,6.132 -2.19,10.731 -2.19,4.526 -6.205,7.008 -3.942,2.482 -9.271,2.482 z m 0,-5.84 q 5.329,0 8.249,-3.796 2.993,-3.869 2.993,-10.585 0,-6.716 -2.993,-10.512 -2.92,-3.869 -8.249,-3.869 -5.329,0 -8.322,3.869 -2.919998,3.796 -2.919998,10.512 0,6.716 2.919998,10.585 2.993,3.796 8.322,3.796 z"
         id="path545" /><path
         d="m 150.59909,0.876 q -5.767,0 -9.198,-3.869 -3.431,-3.942 -3.431,-10.804 V -38.69 h 6.132 v 23.214 q 0,5.621 1.971,8.322 2.044,2.628 6.205,2.628 4.526,0 7.154,-2.92 2.628,-2.993 2.628,-8.176 V -38.69 h 6.132 V 0 h -5.84 v -6.278 q -3.212,7.154 -11.753,7.154 z"
         id="path547" /><path
         d="m 181.0401,10.95 v -49.64 h 5.694 l 0.073,6.205 q 1.752,-3.431 4.818,-5.256 3.139,-1.825 7.081,-1.825 5.767,0 9.417,2.847 3.723,2.847 5.475,7.446 1.752,4.599 1.752,9.928 0,5.329 -1.752,9.928 -1.752,4.599 -5.475,7.446 -3.65,2.847 -9.417,2.847 -3.796,0 -6.935,-1.606 -3.066,-1.606 -4.599,-4.38 v 16.06 z m 17.082,-15.914 q 5.037,0 7.884,-3.796 2.92,-3.796 2.92,-10.585 0,-6.789 -2.92,-10.585 -2.847,-3.796 -7.884,-3.796 -5.037,0 -8.03,3.65 -2.92,3.577 -2.92,10.731 0,7.081 2.92,10.731 2.92,3.65 8.03,3.65 z"
         id="path549" /></g></g></svg>
