<?xml version="1.0" encoding="UTF-8" standalone="no"?>
<!-- Created with Inkscape (http://www.inkscape.org/) -->

<svg
   version="1.1"
   id="svg2"
   width="324"
   height="336"
   viewBox="0 0 324 336"
   xmlns="http://www.w3.org/2000/svg"
   xmlns:svg="http://www.w3.org/2000/svg">
  <defs
     id="defs6" />
  <g
     id="g8"
     transform="translate(-321.7627,-7.1186442)">
    <path
       style="fill:#000000;"
       d="m 321.76271,175.11864 c 0,-167.9999959 0,-167.9999959 162,-167.9999959 162,0 162,0 162,167.9999959 0,168 0,168 -162,168 -162,0 -162,0 -162,-168 z m 172.75536,146.38034 c 10.93087,-0.98764 18.92599,-2.09449 22.94464,-3.17648 0.825,-0.22212 2.175,-0.57528 3,-0.7848 2.95373,-0.75014 6.31388,-1.70459 7.1,-2.01676 0.44,-0.17472 1.7,-0.6207 2.8,-0.99106 1.1,-0.37035 2.36,-0.82265 2.8,-1.0051 0.44,-0.18246 1.61,-0.62969 2.6,-0.99386 8.30988,-3.05674 21.92864,-10.74922 28.26533,-15.96551 0.40407,-0.33263 1.81467,-1.46519 3.13467,-2.51682 6.26686,-4.99273 6.33886,-5.51971 0.7,-5.12299 -13.56125,0.95408 -36.48774,-0.32386 -47.1,-2.62538 -0.88,-0.19086 -3.04,-0.64584 -4.8,-1.01107 -1.76,-0.36524 -3.56,-0.80056 -4,-0.96739 -0.44,-0.16682 -1.88,-0.60981 -3.2,-0.98441 -7.18568,-2.03921 -16.73066,-6.59337 -19.7,-9.39938 -1.19499,-1.12926 -1.01974,-5.02225 0.34725,-7.7139 0.19401,-0.38202 0.35275,-0.89381 0.35275,-1.13731 0,-0.49454 2.99368,-6.54928 3.60571,-7.29258 0.21536,-0.26155 1.24627,-1.64554 2.29091,-3.07554 2.63992,-3.61374 11.92048,-12.84991 18.71764,-18.62809 3.76902,-3.204 4.15803,-3.52743 8.38574,-6.97191 2.2,-1.79243 4.3635,-3.56069 4.80778,-3.92948 0.44428,-0.36878 1.88428,-1.46848 3.2,-2.44377 1.31572,-0.97529 2.48222,-1.87658 2.59222,-2.00287 0.11,-0.1263 4.52,-3.46041 9.8,-7.40914 5.28,-3.94874 9.69,-7.28888 9.8,-7.42254 0.11,-0.13367 1.80872,-1.46336 3.77494,-2.95487 3.87566,-2.93995 10.339,-8.11497 11.62506,-9.30786 0.44,-0.40812 1.34,-1.15919 2,-1.66905 5.14717,-3.97619 16.3152,-15.06991 22.2082,-22.06042 1.20549,-1.43 2.28735,-2.69 2.40412,-2.8 1.13199,-1.06627 8.19361,-11.41855 9.8227,-14.4 0.42074,-0.77 0.85771,-1.49 0.97104,-1.6 0.11333,-0.11 0.56333,-0.96294 1,-1.89541 0.43667,-0.93248 0.92894,-1.69748 1.09394,-1.7 0.165,-0.002 0.3,-0.17145 0.3,-0.37538 0,-0.20393 0.64669,-1.77893 1.43709,-3.5 4.27169,-9.30146 5.73584,-14.79807 6.74704,-25.32921 0.72315,-7.53117 -0.0878,-17.59038 -1.75752,-21.799996 -0.17452,-0.44 -0.64501,-1.79 -1.04554,-3 -0.94956,-2.868672 -4.75499,-10.011304 -5.75399,-10.8 -0.13933,-0.11 -0.8434,-1.13286 -1.56459,-2.27302 -2.76198,-4.36652 -12.93647,-11.72698 -16.2104,-11.72698 -0.27065,0 -0.66309,-0.149572 -0.87209,-0.332384 -0.209,-0.182808 -1.55,-0.644472 -2.98,-1.025916 -1.43,-0.381444 -3.18395,-0.873144 -3.89767,-1.092668 -1.89898,-0.584076 -2.10233,-0.248544 -2.10233,3.468836 0,1.853856 -0.16682,4.138236 -0.37072,5.076392 -1.17258,5.395128 -1.74463,7.858036 -2.11497,9.10574 -0.73179,2.465428 -1.57555,4.966 -2.09204,6.2 -0.27625,0.66 -0.74349,1.83 -1.03833,2.6 -10.48686,27.387466 -44.40726,62.803756 -87.18394,91.028746 -2.31,1.52419 -4.29,2.86125 -4.4,2.97125 -0.11,0.11 -0.51188,0.38 -0.89307,0.6 -4.22456,2.43816 -18.85867,13.3402 -25.68514,19.13478 -1.77199,1.50413 -3.67179,3.10764 -4.22179,3.56337 -4.74694,3.93328 -14.64944,13.6035 -19.95755,19.48939 -4.78989,5.31126 -12.04245,14.6901 -12.04245,15.573 0,0.20504 -0.14691,0.43279 -0.32646,0.50613 -1.05283,0.42999 -7.53784,13.35205 -8.29735,16.53333 -0.15758,0.66 -0.41374,1.38 -0.56927,1.6 -1.73375,2.45254 -2.31299,15.80992 -0.90224,20.80616 4.95799,17.55903 22.39216,30.43617 46.89532,34.63758 4.68661,0.80358 7.33418,1.15 12,1.57016 2.53,0.22782 6.04,0.56281 7.8,0.74442 4.73366,0.48844 12.48668,0.49806 17.75536,0.022 z M 383.54798,275.18572 c 0.13686,-0.6231 0.22558,-1.7481 0.19716,-2.5 -0.0678,-1.79274 0.6599,-7.49469 1.23268,-9.65922 1.01741,-3.84474 2.48062,-8.58485 3.01536,-9.76831 0.31324,-0.69325 0.56953,-1.37021 0.56953,-1.50436 0,-1.27407 6.48756,-13.73241 10.12068,-19.43519 3.42731,-5.37973 8.79503,-12.80989 11.74519,-16.25806 0.40377,-0.47194 1.54413,-1.81339 2.53413,-2.981 8.68261,-10.24031 22.69708,-23.60532 35,-33.37803 2.2,-1.74755 4.09,-3.26963 4.2,-3.38241 0.11,-0.11278 1.28,-1.00343 2.6,-1.97923 1.32,-0.9758 2.46,-1.91977 2.53333,-2.09773 0.0733,-0.17794 0.37334,-0.32354 0.66667,-0.32354 0.29333,0 0.59333,-0.15792 0.66667,-0.35095 0.17929,-0.47192 12.68495,-9.31771 20.13333,-14.24117 5.3637,-3.54547 20.09057,-13.96378 20.6,-14.57318 0.11,-0.13159 0.92,-0.76871 1.8,-1.41583 0.88,-0.64712 1.69,-1.27857 1.8,-1.40322 0.11,-0.12466 1.19,-1.0317 2.4,-2.01565 1.21,-0.98395 2.29,-1.88395 2.4,-2 0.11,-0.11605 1.19,-1.01655 2.4,-2.00112 6.21161,-5.05432 17.44005,-15.98983 22.6,-22.01041 2.94851,-3.44029 3.67291,-4.3114 4.8,-5.77211 0.66,-0.85536 1.66021,-2.10896 2.22269,-2.78578 3.54443,-4.264916 9.9958,-15.480188 11.75229,-20.430576 0.3903,-1.1 0.85008,-2.36 1.02174,-2.8 1.82652,-4.68194 3.01103,-15.243212 2.08389,-18.5803 -0.21694,-0.780836 -0.70446,-2.7477 -1.08339,-4.370812 -0.92309,-3.953996 -4.21712,-10.144894 -7.18902,-13.51127 -3.35138,-3.796216 -11.39353,-10.537618 -12.57085,-10.537618 -0.24054,0 -0.43735,-0.147383 -0.43735,-0.327518 0,-0.275108 -6.78634,-3.825421 -9.4,-4.917663 -4.9061,-2.050246 -13.00674,-4.03372 -21,-5.14193 -1.87,-0.259262 -4.3,-0.632892 -5.4,-0.830289 -7.70865,-1.383326 -28.01956,-1.460733 -37.2,-0.141772 -0.88,0.126431 -2.59,0.367911 -3.8,0.536624 -4.31406,0.601518 -8.21238,1.298483 -9,1.609076 -0.44,0.17351 -1.79,0.530544 -3,0.793408 -4.09996,0.890686 -11.42797,3.13497 -13.86045,4.244917 -0.69325,0.316331 -1.46069,0.575147 -1.70543,0.575147 -0.24474,0 -0.75753,0.158999 -1.13955,0.353332 -0.38201,0.194332 -1.14457,0.54392 -1.69457,0.776862 -5.67636,2.404116 -13.55483,6.580653 -18.35542,9.73059 -1.62548,1.066568 -3.09548,1.939216 -3.26667,1.939216 -0.17118,0 -0.37124,0.135 -0.44458,0.3 -0.0733,0.165 -1.21333,1.094639 -2.53333,2.065864 -4.09586,3.01364 -9.72026,7.804772 -9.90099,8.434136 -0.15136,0.527124 1.5326,0.582652 13.86435,0.457176 8.63879,-0.0879 15.72868,0.03072 18.43664,0.308472 13.48361,1.382968 13.75128,1.417856 20.2,2.632764 1.87,0.3523 3.98667,0.741668 4.70371,0.86526 0.71704,0.123596 1.40266,0.384832 1.52361,0.580524 0.12094,0.195692 0.6508,0.355804 1.17746,0.355804 0.52667,0 1.37105,0.165524 1.8764,0.367828 0.50535,0.202308 1.90882,0.658504 3.11882,1.013768 6.03205,1.771056 14.93573,6.127896 17.9,8.759008 1.38832,1.232288 1.23802,3.945028 -0.52412,9.459396 -2.15866,6.755252 -10.98803,17.0544 -24.37588,28.433626 -0.88,0.74797 -1.87,1.64022 -2.2,1.98279 -0.85216,0.8846 -13.36634,10.8181 -18.6,14.76429 -2.42,1.82468 -5.03,3.81622 -5.8,4.42564 -0.77,0.60942 -2.75,2.10715 -4.4,3.32828 -1.65,1.22114 -3.18,2.37083 -3.4,2.55487 -0.22,0.18405 -1.12,0.86818 -2,1.52029 -0.88,0.65211 -1.69,1.2862 -1.8,1.40908 -0.11,0.12288 -0.91927,0.75391 -1.79839,1.40227 -1.83003,1.34969 -14.66633,11.65246 -16.2597,13.05049 -0.58196,0.5106 -2.02196,1.73837 -3.2,2.72837 -3.01574,2.53435 -14.18134,13.69372 -16.77536,16.766 -1.1916,1.4113 -2.35928,2.7613 -2.59485,3 -3.81881,3.86961 -11.76712,16.02558 -15.58409,23.834 -1.45707,2.98074 -2.09303,4.44264 -3.39318,7.8 -1.51399,3.90954 -2.67773,8.50282 -3.95846,15.62408 -0.53158,2.95573 -0.57785,15.91164 -0.0652,18.27018 1.43201,6.58888 1.71645,7.79364 2.00814,8.50574 0.18023,0.44 0.83353,2.06 1.45176,3.6 3.92358,9.77347 11.03876,17.69935 19.23797,21.42992 1.50227,0.68352 3.02424,1.3941 3.38216,1.57906 0.35791,0.18496 1.3049,0.45901 2.10442,0.609 0.79951,0.14999 1.55229,0.4323 1.67285,0.62736 0.12055,0.19506 0.70356,0.35742 1.29558,0.36078 0.59202,0.003 1.34639,0.18062 1.67639,0.39388 1.27953,0.82689 2.72037,0.47315 2.98527,-0.73292 z"
       id="path170" />
  </g>
</svg>
