<?xml version="1.0" encoding="UTF-8" standalone="no"?>
<svg
   width="4893"
   height="2100"
   xml:space="preserve"
   overflow="hidden"
   version="1.1"
   id="svg83"
   xmlns="http://www.w3.org/2000/svg"
   xmlns:svg="http://www.w3.org/2000/svg"><defs
     id="defs5"><clipPath
       id="clip0"><rect
         x="327"
         y="1483"
         width="4893"
         height="2100"
         id="rect2" /></clipPath></defs><g
     clip-path="url(#clip0)"
     transform="translate(-327,-1483)"
     id="g81"><path
       d="m 0,-3.4375 h 27.5 v 6.875 H 0 Z m 48.125,0 h 27.5 v 6.875 h -27.5 z m 48.125,0 h 27.5 v 6.875 h -27.5 z m 48.125,0 h 27.5 v 6.875 h -27.5 z m 48.125,0 H 220 v 6.875 h -27.5 z m 48.125,0 h 27.5 v 6.875 h -27.5 z m 48.125,0 h 27.5 v 6.875 h -27.5 z m 48.125,0 h 27.5 v 6.875 h -27.5 z m 48.125,0 h 27.5 v 6.875 H 385 Z m 48.125,0 h 27.5 v 6.875 h -27.5 z m 48.125,0 h 27.5 v 6.875 h -27.5 z m 48.125,0 h 27.5 v 6.875 h -27.5 z m 48.125,0 H 605 v 6.875 h -27.5 z m 48.125,0 h 27.5 v 6.875 h -27.5 z m 48.125,0 h 27.5 v 6.875 h -27.5 z m 48.125,0 h 27.5 v 6.875 h -27.5 z M 766.472,6.96522 V 34.4652 h -6.875 V 6.96522 Z m 0,48.12498 v 27.5 h -6.875 v -27.5 z m 0,48.1248 v 27.5 h -6.875 v -27.5 z m 0,48.125 v 27.5 h -6.875 v -27.5 z m 0,48.125 v 18.002 h -6.875 v -18.002 z m 22.484,-21.579 -25.921,46.659 -25.922,-46.659 c -0.922,-1.659 -0.324,-3.752 1.336,-4.674 1.659,-0.922 3.752,-0.324 4.674,1.335 l 22.917,41.25 h -6.01 l 22.917,-41.25 c 0.922,-1.659 3.014,-2.257 4.674,-1.335 1.659,0.922 2.257,3.015 1.335,4.674 z"
       fill="#aeaeae"
       transform="matrix(0,1,1,0,626.5,2070.5)"
       id="path7" /><path
       d="m 327,1810 c 0,-28.72 23.282,-52 52.001,-52 h 492.998 c 28.719,0 52.001,23.28 52.001,52 v 208 c 0,28.72 -23.282,52 -52.001,52 H 379.001 C 350.282,2070 327,2046.72 327,2018 Z"
       fill="#f2f2f2"
       fill-rule="evenodd"
       id="path9" /><path
       d="m 543.921,1938 v -51.83 h 15.768 q 8.103,0 12.921,4.234 4.891,4.161 4.891,11.607 0,7.446 -4.891,11.68 -4.818,4.161 -12.921,4.161 h -9.49 V 1938 Z m 6.278,-26.28 h 8.76 q 6.132,0 9.052,-2.482 2.92,-2.555 2.92,-7.227 0,-4.745 -2.92,-7.227 -2.92,-2.482 -9.052,-2.482 h -8.76 z"
       id="path368"
       style="font-size:73px;font-family:'Geist Mono', 'Geist Mono_MSFontService', sans-serif" /><path
       d="m 603.05103,1938.876 q -5.329,0 -9.344,-2.482 -3.942,-2.482 -6.132,-7.008 -2.19,-4.599 -2.19,-10.731 0,-6.205 2.19,-10.731 2.19,-4.526 6.132,-7.008 4.015,-2.482 9.344,-2.482 5.329,0 9.271,2.482 4.015,2.482 6.205,7.008 2.19,4.526 2.19,10.731 0,6.132 -2.19,10.731 -2.19,4.526 -6.205,7.008 -3.942,2.482 -9.271,2.482 z m 0,-5.84 q 5.329,0 8.249,-3.796 2.993,-3.869 2.993,-10.585 0,-6.716 -2.993,-10.512 -2.92,-3.869 -8.249,-3.869 -5.329,0 -8.322,3.869 -2.92,3.796 -2.92,10.512 0,6.716 2.92,10.585 2.993,3.796 8.322,3.796 z"
       id="path370"
       style="font-size:73px;font-family:'Geist Mono', 'Geist Mono_MSFontService', sans-serif" /><path
       d="m 646.85105,1938.876 q -5.329,0 -9.344,-2.482 -3.942,-2.482 -6.132,-7.008 -2.19,-4.599 -2.19,-10.731 0,-6.205 2.19,-10.731 2.19,-4.526 6.132,-7.008 4.015,-2.482 9.344,-2.482 5.329,0 9.271,2.482 4.015,2.482 6.205,7.008 2.19,4.526 2.19,10.731 0,6.132 -2.19,10.731 -2.19,4.526 -6.205,7.008 -3.942,2.482 -9.271,2.482 z m 0,-5.84 q 5.329,0 8.249,-3.796 2.993,-3.869 2.993,-10.585 0,-6.716 -2.993,-10.512 -2.92,-3.869 -8.249,-3.869 -5.329,0 -8.322,3.869 -2.92,3.796 -2.92,10.512 0,6.716 2.92,10.585 2.993,3.796 8.322,3.796 z"
       id="path372"
       style="font-size:73px;font-family:'Geist Mono', 'Geist Mono_MSFontService', sans-serif" /><path
       d="m 673.13109,1938 v -5.402 h 15.549 v -36.062 q 0,-2.336 -1.314,-3.65 -1.314,-1.314 -3.65,-1.314 h -9.125 v -5.402 h 9.417 q 10.804,0 10.804,10.804 v 35.624 h 13.359 V 1938 Z"
       id="path374"
       style="font-size:73px;font-family:'Geist Mono', 'Geist Mono_MSFontService', sans-serif" /><path
       d="m 1474,2180 c 0,-28.72 23.28,-52 52,-52 h 494 c 28.72,0 52,23.28 52,52 v 208 c 0,28.72 -23.28,52 -52,52 h -494 c -28.72,0 -52,-23.28 -52,-52 z"
       fill="#f2f2f2"
       fill-rule="evenodd"
       id="path13" /><path
       d="m 1528.091,2308.876 q -5.11,0 -8.833,-2.482 -3.723,-2.482 -5.767,-7.008 -1.971,-4.526 -1.971,-10.731 0,-6.205 1.971,-10.731 2.044,-4.526 5.767,-7.008 3.723,-2.482 8.833,-2.482 4.088,0 7.154,1.971 3.066,1.898 4.453,4.307 v -18.542 h 6.132 V 2308 h -5.548 l -0.219,-5.767 q -1.679,3.139 -4.818,4.891 -3.139,1.752 -7.154,1.752 z m 0.365,-5.84 q 5.256,0 8.249,-3.869 2.993,-3.869 2.993,-10.512 0,-6.716 -2.993,-10.512 -2.993,-3.869 -8.395,-3.869 -4.745,0 -7.592,3.869 -2.774,3.796 -2.774,10.512 0,6.643 2.774,10.512 2.847,3.869 7.738,3.869 z"
       id="path377"
       style="font-size:73px;font-family:'Geist Mono', 'Geist Mono_MSFontService', sans-serif" /><path
       d="m 1574.3,2308.876 q -5.329,0 -9.344,-2.482 -3.942,-2.482 -6.132,-7.008 -2.19,-4.599 -2.19,-10.731 0,-6.205 2.19,-10.731 2.19,-4.526 6.132,-7.008 4.015,-2.482 9.344,-2.482 5.329,0 9.271,2.482 4.015,2.482 6.205,7.008 2.19,4.526 2.19,10.731 0,6.132 -2.19,10.731 -2.19,4.526 -6.205,7.008 -3.942,2.482 -9.271,2.482 z m 0,-5.84 q 5.329,0 8.249,-3.796 2.993,-3.869 2.993,-10.585 0,-6.716 -2.993,-10.512 -2.92,-3.869 -8.249,-3.869 -5.329,0 -8.322,3.869 -2.92,3.796 -2.92,10.512 0,6.716 2.92,10.585 2.993,3.796 8.322,3.796 z"
       id="path379"
       style="font-size:73px;font-family:'Geist Mono', 'Geist Mono_MSFontService', sans-serif" /><path
       d="m 1618.538,2308.876 q -5.4749,0 -9.49,-2.482 -3.9419,-2.482 -6.1319,-7.008 -2.117,-4.599 -2.117,-10.731 0,-6.132 2.117,-10.658 2.19,-4.526 6.059,-7.008 3.942,-2.555 9.271,-2.555 5.037,0 8.906,2.409 3.8689,2.336 6.0589,6.862 2.1901,4.526 2.1901,11.023 v 1.825 h -28.178 q 0.365,6.205 3.285,9.344 2.9929,3.139 8.0299,3.139 3.7961,0 6.205,-1.752 2.4821,-1.825 3.431,-4.745 l 6.57,0.511 q -1.533,5.183 -5.84,8.541 -4.2339,3.285 -10.366,3.285 z m -11.3149,-23.725 h 21.4619 q -0.4379,-5.621 -3.2849,-8.249 -2.847,-2.628 -7.154,-2.628 -4.453,0 -7.373,2.774 -2.847,2.701 -3.65,8.103 z"
       id="path381"
       style="font-size:73px;font-family:'Geist Mono', 'Geist Mono_MSFontService', sans-serif" /><path
       d="m 1671.2441,2313.11 q -5.767,2.92 -11.242,2.92 -5.402,0 -9.636,-2.701 -4.161,-2.628 -6.57,-8.322 -2.336,-5.767 -2.336,-14.892 0,-11.315 2.92,-18.834 2.993,-7.519 8.103,-11.315 5.183,-3.796 11.607,-3.796 5.986,0 10.001,3.066 4.088,3.066 6.132,8.468 2.117,5.329 2.117,12.41 0,8.833 -1.387,13.724 -1.387,4.818 -3.723,6.716 -2.336,1.898 -5.256,1.898 -2.19,0 -3.796,-1.752 -1.606,-1.752 -2.336,-4.599 -1.095,2.92 -3.139,4.526 -1.971,1.533 -4.453,1.533 -3.65,0 -5.694,-3.358 -2.044,-3.431 -2.044,-9.198 0,-4.818 1.46,-8.906 1.46,-4.161 3.869,-6.716 2.482,-2.555 5.548,-2.555 1.898,0 3.212,0.949 1.387,0.876 2.044,2.409 l 0.073,0.292 0.438,-3.577 h 5.11 q -0.803,7.665 -1.387,12.775 -0.511,5.037 -0.511,7.811 0,2.701 0.73,4.088 0.73,1.314 1.752,1.314 1.314,0 2.263,-1.606 1.022,-1.606 1.533,-5.329 0.584,-3.723 0.584,-10.074 0,-8.906 -3.212,-14.016 -3.139,-5.183 -10.22,-5.183 -4.818,0 -8.76,3.139 -3.869,3.139 -6.205,9.563 -2.263,6.351 -2.263,16.06 0,10.95 3.65,15.987 3.65,5.037 9.928,5.037 4.307,0 9.198,-2.774 z m -11.242,-15.476 q 1.606,0 2.92,-1.971 1.314,-1.971 2.117,-5.183 0.876,-3.212 0.876,-6.862 0,-7.227 -3.869,-7.227 -1.606,0 -2.92,1.825 -1.314,1.752 -2.117,4.672 -0.803,2.847 -0.803,6.132 0,3.942 0.949,6.278 1.022,2.336 2.847,2.336 z"
       id="path383"
       style="font-size:73px;font-family:'Geist Mono', 'Geist Mono_MSFontService', sans-serif" /><path
       d="m 1686.7201,2308 v -38.69 h 5.621 l 0.146,5.694 q 1.022,-3.066 2.92,-4.818 1.971,-1.752 4.745,-1.752 5.767,0 7.227,7.227 l 0.073,0.438 q 0.949,-3.577 3.066,-5.621 2.19,-2.044 5.256,-2.044 4.672,0 6.789,3.212 2.117,3.212 2.117,10.658 V 2308 h -6.132 v -24.82 q 0,-5.183 -1.095,-7.227 -1.095,-2.117 -3.431,-2.117 -2.263,0 -3.796,2.263 -1.46,2.263 -1.46,7.227 V 2308 h -6.132 v -24.82 q 0,-4.964 -1.095,-7.154 -1.022,-2.19 -3.431,-2.19 -2.263,0 -3.796,2.263 -1.46,2.263 -1.46,7.227 V 2308 Z"
       id="path385"
       style="font-size:73px;font-family:'Geist Mono', 'Geist Mono_MSFontService', sans-serif" /><path
       d="m 1744.3901,2308.876 q -3.65,0 -6.57,-1.314 -2.92,-1.314 -4.599,-3.65 -1.679,-2.409 -1.679,-5.548 0,-4.964 2.92,-7.665 2.993,-2.774 9.344,-4.015 l 12.994,-2.628 q 0,-4.964 -2.263,-7.373 -2.19,-2.409 -6.351,-2.409 -4.015,0 -6.278,1.825 -2.263,1.752 -3.139,5.11 l -6.497,-0.511 q 1.095,-5.475 5.183,-8.833 4.161,-3.431 10.731,-3.431 7.008,0 10.877,4.234 3.869,4.161 3.869,11.534 v 16.06 q 0,1.314 0.584,1.825 0.584,0.511 1.752,0.511 h 2.482 V 2308 q -1.168,0.146 -3.212,0.146 -3.066,0 -4.964,-1.241 -1.825,-1.241 -2.482,-4.015 l -0.073,-0.365 q -1.533,2.847 -5.037,4.599 -3.431,1.752 -7.592,1.752 z m 0.584,-5.402 q 5.913,0 8.833,-2.993 2.993,-2.993 2.993,-7.811 v -3.358 l -11.826,2.336 q -3.942,0.73 -5.475,2.263 -1.533,1.46 -1.533,3.869 0,2.701 1.825,4.234 1.898,1.46 5.183,1.46 z"
       id="path387"
       style="font-size:73px;font-family:'Geist Mono', 'Geist Mono_MSFontService', sans-serif" /><path
       d="m 1777.2402,2308 v -5.402 h 15.549 v -27.886 h -14.819 v -5.402 h 20.951 v 33.288 h 13.359 V 2308 Z m 14.965,-44.749 v -7.154 h 6.424 v 7.154 z"
       id="path389"
       style="font-size:73px;font-family:'Geist Mono', 'Geist Mono_MSFontService', sans-serif" /><path
       d="m 1819.5802,2308 v -5.402 h 15.549 v -36.062 q 0,-2.336 -1.314,-3.65 -1.314,-1.314 -3.65,-1.314 h -9.125 v -5.402 h 9.417 q 10.804,0 10.804,10.804 v 35.624 h 13.359 V 2308 Z"
       id="path391"
       style="font-size:73px;font-family:'Geist Mono', 'Geist Mono_MSFontService', sans-serif" /><path
       d="m 1876.3742,2308 v -8.906 h 9.052 V 2308 Z"
       id="path393"
       style="font-size:73px;font-family:'Geist Mono', 'Geist Mono_MSFontService', sans-serif" /><path
       d="m 1925.7222,2308.876 q -5.402,0 -9.417,-2.482 -4.015,-2.482 -6.205,-7.008 -2.19,-4.599 -2.19,-10.731 0,-6.132 2.19,-10.658 2.19,-4.526 6.205,-7.008 4.015,-2.555 9.417,-2.555 6.497,0 10.731,3.504 4.307,3.431 5.475,9.928 l -6.424,0.438 q -0.876,-3.869 -3.504,-5.913 -2.555,-2.117 -6.278,-2.117 -5.329,0 -8.395,3.869 -2.993,3.796 -2.993,10.512 0,6.716 2.993,10.585 3.066,3.796 8.395,3.796 3.723,0 6.424,-2.19 2.774,-2.19 3.65,-6.57 l 6.424,0.438 q -1.168,6.424 -5.621,10.293 -4.38,3.869 -10.877,3.869 z"
       id="path395"
       style="font-size:73px;font-family:'Geist Mono', 'Geist Mono_MSFontService', sans-serif" /><path
       d="m 1968.5002,2308.876 q -5.329,0 -9.344,-2.482 -3.942,-2.482 -6.132,-7.008 -2.19,-4.599 -2.19,-10.731 0,-6.205 2.19,-10.731 2.19,-4.526 6.132,-7.008 4.015,-2.482 9.344,-2.482 5.329,0 9.271,2.482 4.015,2.482 6.205,7.008 2.19,4.526 2.19,10.731 0,6.132 -2.19,10.731 -2.19,4.526 -6.205,7.008 -3.942,2.482 -9.271,2.482 z m 0,-5.84 q 5.329,0 8.249,-3.796 2.993,-3.869 2.993,-10.585 0,-6.716 -2.993,-10.512 -2.92,-3.869 -8.249,-3.869 -5.329,0 -8.322,3.869 -2.92,3.796 -2.92,10.512 0,6.716 2.92,10.585 2.993,3.796 8.322,3.796 z"
       id="path397"
       style="font-size:73px;font-family:'Geist Mono', 'Geist Mono_MSFontService', sans-serif" /><path
       d="m 1993.3203,2308 v -38.69 h 5.621 l 0.146,5.694 q 1.022,-3.066 2.92,-4.818 1.971,-1.752 4.745,-1.752 5.767,0 7.227,7.227 l 0.073,0.438 q 0.949,-3.577 3.066,-5.621 2.19,-2.044 5.256,-2.044 4.672,0 6.789,3.212 2.117,3.212 2.117,10.658 V 2308 h -6.132 v -24.82 q 0,-5.183 -1.095,-7.227 -1.095,-2.117 -3.431,-2.117 -2.263,0 -3.796,2.263 -1.46,2.263 -1.46,7.227 V 2308 h -6.132 v -24.82 q 0,-4.964 -1.095,-7.154 -1.022,-2.19 -3.431,-2.19 -2.263,0 -3.796,2.263 -1.46,2.263 -1.46,7.227 V 2308 Z"
       id="path399"
       style="font-size:73px;font-family:'Geist Mono', 'Geist Mono_MSFontService', sans-serif" /><path
       d="m 850,2833 78,-156 h 442 l 78,156 -78,156 H 928 Z"
       fill="#f2f2f2"
       fill-rule="evenodd"
       id="path17" /><path
       d="m 1060.414,2858.168 q -5.475,0 -9.782,-2.993 -4.234,-3.066 -6.716,-9.052 -2.482,-6.059 -2.482,-14.965 0,-8.395 2.263,-14.454 2.336,-6.059 6.643,-9.344 4.307,-3.358 10.366,-3.358 4.745,0 8.395,2.117 3.723,2.117 6.205,5.913 2.482,3.723 3.577,8.614 l -6.57,0.438 q -1.241,-4.818 -4.161,-7.884 -2.847,-3.066 -7.446,-3.066 -6.059,0 -9.417,5.475 -3.285,5.475 -3.285,15.549 0,10.001 3.358,15.476 3.431,5.402 9.636,5.402 5.548,0 8.76,-4.234 3.285,-4.307 3.504,-11.023 h -12.41 v -5.986 h 18.25 V 2857 h -5.84 l -0.146,-7.154 q -1.825,3.796 -4.891,6.059 -2.993,2.263 -7.811,2.263 z"
       id="path402"
       style="font-size:73px;font-family:'Geist Mono', 'Geist Mono_MSFontService', sans-serif" /><path
       d="m 1089.03,2857 v -5.402 h 10.074 v -27.886 h -10.074 v -5.402 h 15.184 l 0.438,7.519 q 1.825,-7.519 9.271,-7.519 h 7.957 v 5.548 h -7.884 q -4.234,0 -6.497,2.555 -2.263,2.482 -2.263,7.227 v 17.958 H 1117.5 V 2857 Z"
       id="path404"
       style="font-size:73px;font-family:'Geist Mono', 'Geist Mono_MSFontService', sans-serif" /><path
       d="m 1148.1601,2857.876 q -5.329,0 -9.344,-2.482 -3.942,-2.482 -6.132,-7.008 -2.19,-4.599 -2.19,-10.731 0,-6.205 2.19,-10.731 2.19,-4.526 6.132,-7.008 4.015,-2.482 9.344,-2.482 5.329,0 9.271,2.482 4.015,2.482 6.205,7.008 2.19,4.526 2.19,10.731 0,6.132 -2.19,10.731 -2.19,4.526 -6.205,7.008 -3.942,2.482 -9.271,2.482 z m 0,-5.84 q 5.329,0 8.249,-3.796 2.993,-3.869 2.993,-10.585 0,-6.716 -2.993,-10.512 -2.92,-3.869 -8.249,-3.869 -5.329,0 -8.322,3.869 -2.92,3.796 -2.92,10.512 0,6.716 2.92,10.585 2.993,3.796 8.322,3.796 z"
       id="path406"
       style="font-size:73px;font-family:'Geist Mono', 'Geist Mono_MSFontService', sans-serif" /><path
       d="m 1189.2591,2857.876 q -5.767,0 -9.198,-3.869 -3.431,-3.942 -3.431,-10.804 v -24.893 h 6.132 v 23.214 q 0,5.621 1.971,8.322 2.044,2.628 6.205,2.628 4.526,0 7.154,-2.92 2.628,-2.993 2.628,-8.176 v -23.068 h 6.132 V 2857 h -5.84 v -6.278 q -3.212,7.154 -11.753,7.154 z"
       id="path408"
       style="font-size:73px;font-family:'Geist Mono', 'Geist Mono_MSFontService', sans-serif" /><path
       d="m 1219.7001,2867.95 v -49.64 h 5.694 l 0.073,6.205 q 1.752,-3.431 4.818,-5.256 3.139,-1.825 7.081,-1.825 5.767,0 9.417,2.847 3.723,2.847 5.475,7.446 1.752,4.599 1.752,9.928 0,5.329 -1.752,9.928 -1.752,4.599 -5.475,7.446 -3.65,2.847 -9.417,2.847 -3.796,0 -6.935,-1.606 -3.066,-1.606 -4.599,-4.38 v 16.06 z m 17.082,-15.914 q 5.037,0 7.884,-3.796 2.92,-3.796 2.92,-10.585 0,-6.789 -2.92,-10.585 -2.847,-3.796 -7.884,-3.796 -5.037,0 -8.03,3.65 -2.92,3.577 -2.92,10.731 0,7.081 2.92,10.731 2.92,3.65 8.03,3.65 z"
       id="path410"
       style="font-size:73px;font-family:'Geist Mono', 'Geist Mono_MSFontService', sans-serif" /><path
       d="m 2421,3212 c 0,-28.72 23.28,-52 52,-52 h 494 c 28.72,0 52,23.28 52,52 v 208 c 0,28.72 -23.28,52 -52,52 h -494 c -28.72,0 -52,-23.28 -52,-52 z"
       fill="#f2f2f2"
       fill-rule="evenodd"
       id="path21" /><path
       d="m 2565.074,3341.168 q -5.037,0 -8.833,-1.825 -3.723,-1.825 -5.986,-5.11 -2.19,-3.285 -2.555,-7.592 l 6.57,-0.438 q 0.584,4.38 3.431,6.643 2.92,2.19 7.373,2.19 5.037,0 8.03,-3.066 3.066,-3.139 3.066,-8.614 0,-5.475 -2.92,-8.614 -2.847,-3.212 -8.03,-3.212 -3.066,0 -5.913,1.533 -2.774,1.46 -4.015,4.234 h -6.716 l 3.431,-29.127 h 27.594 v 6.132 h -21.827 l -1.898,15.622 q 1.898,-2.19 4.672,-3.285 2.774,-1.095 5.548,-1.095 4.964,0 8.687,2.336 3.796,2.263 5.84,6.278 2.117,4.015 2.117,9.198 0,5.183 -2.263,9.271 -2.263,4.015 -6.278,6.278 -3.942,2.263 -9.125,2.263 z"
       id="path413"
       style="font-size:73px;font-family:'Geist Mono', 'Geist Mono_MSFontService', sans-serif" /><path
       d="m 2608.874,3341.168 q -5.037,0 -8.833,-1.825 -3.723,-1.825 -5.986,-5.11 -2.19,-3.285 -2.555,-7.592 l 6.57,-0.438 q 0.584,4.38 3.431,6.643 2.92,2.19 7.373,2.19 5.037,0 8.03,-3.066 3.066,-3.139 3.066,-8.614 0,-5.475 -2.92,-8.614 -2.847,-3.212 -8.03,-3.212 -3.066,0 -5.913,1.533 -2.774,1.46 -4.015,4.234 h -6.716 l 3.431,-29.127 h 27.594 v 6.132 h -21.827 l -1.898,15.622 q 1.898,-2.19 4.672,-3.285 2.774,-1.095 5.548,-1.095 4.964,0 8.687,2.336 3.796,2.263 5.84,6.278 2.117,4.015 2.117,9.198 0,5.183 -2.263,9.271 -2.263,4.015 -6.278,6.278 -3.942,2.263 -9.125,2.263 z"
       id="path415"
       style="font-size:73px;font-family:'Geist Mono', 'Geist Mono_MSFontService', sans-serif" /><path
       d="m 2652.6741,3341.168 q -5.037,0 -8.833,-1.825 -3.723,-1.825 -5.986,-5.11 -2.19,-3.285 -2.555,-7.592 l 6.57,-0.438 q 0.584,4.38 3.431,6.643 2.92,2.19 7.373,2.19 5.037,0 8.03,-3.066 3.066,-3.139 3.066,-8.614 0,-5.475 -2.92,-8.614 -2.847,-3.212 -8.03,-3.212 -3.066,0 -5.913,1.533 -2.774,1.46 -4.015,4.234 h -6.716 l 3.431,-29.127 h 27.594 v 6.132 h -21.827 l -1.898,15.622 q 1.898,-2.19 4.672,-3.285 2.774,-1.095 5.548,-1.095 4.964,0 8.687,2.336 3.796,2.263 5.84,6.278 2.117,4.015 2.117,9.198 0,5.183 -2.263,9.271 -2.263,4.015 -6.278,6.278 -3.942,2.263 -9.125,2.263 z"
       id="path417"
       style="font-size:73px;font-family:'Geist Mono', 'Geist Mono_MSFontService', sans-serif" /><path
       d="m 2684.43,3321.604 v -5.767 h 26.28 v 5.767 z"
       id="path420"
       style="font-size:73px;font-family:'Geist Mono', 'Geist Mono_MSFontService', sans-serif" /><path
       d="m 2741.242,3341.168 q -8.395,0 -12.921,-4.015 -4.526,-4.088 -4.891,-10.512 l 6.497,-0.438 q 0.438,4.745 3.504,6.789 3.139,2.044 7.811,2.044 3.139,0 5.913,-0.876 2.774,-0.949 4.453,-2.993 1.752,-2.117 1.752,-5.621 0,-5.183 -3.358,-7.592 -3.358,-2.409 -8.395,-2.409 h -4.088 v -6.132 h 4.088 q 2.701,0 4.964,-0.803 2.263,-0.803 3.577,-2.555 1.387,-1.825 1.387,-4.745 0,-4.015 -2.555,-6.059 -2.555,-2.117 -7.373,-2.117 -4.891,0 -7.446,1.971 -2.482,1.971 -2.993,5.402 l -6.57,-0.438 q 0.73,-5.84 5.11,-9.417 4.38,-3.65 11.899,-3.65 7.592,0 12.045,3.796 4.453,3.723 4.453,10.22 0,8.322 -8.979,11.096 5.037,1.387 7.884,4.964 2.92,3.504 2.92,8.468 0,4.964 -2.409,8.468 -2.409,3.504 -6.643,5.329 -4.234,1.825 -9.636,1.825 z"
       id="path423"
       style="font-size:73px;font-family:'Geist Mono', 'Geist Mono_MSFontService', sans-serif" /><path
       d="m 2785.48,3341.168 q -5.11,0 -9.271,-1.752 -4.161,-1.752 -6.57,-5.183 -2.409,-3.431 -2.409,-8.468 0,-5.037 2.701,-8.541 2.701,-3.504 7.3,-5.11 -3.431,-1.387 -5.475,-4.015 -2.044,-2.701 -2.044,-6.862 0,-4.088 2.044,-7.3 2.044,-3.212 5.548,-5.037 3.577,-1.898 8.176,-1.898 4.599,0 8.176,1.898 3.577,1.825 5.548,5.037 2.044,3.212 2.044,7.3 0,4.161 -2.044,6.862 -2.044,2.628 -5.475,4.015 4.599,1.606 7.3,5.11 2.701,3.504 2.701,8.541 0,5.037 -2.409,8.468 -2.409,3.431 -6.57,5.183 -4.088,1.752 -9.271,1.752 z m 0,-31.609 q 4.161,0 6.643,-2.044 2.555,-2.117 2.555,-6.278 0,-3.723 -2.482,-5.913 -2.409,-2.19 -6.716,-2.19 -4.234,0 -6.716,2.19 -2.482,2.19 -2.482,5.913 0,4.161 2.482,6.278 2.555,2.044 6.716,2.044 z m 0,25.477 q 5.11,0 8.395,-2.336 3.285,-2.409 3.285,-7.3 0,-4.526 -2.92,-7.227 -2.92,-2.774 -8.76,-2.774 -5.767,0 -8.76,2.774 -2.92,2.701 -2.92,7.227 0,4.891 3.285,7.3 3.285,2.336 8.395,2.336 z"
       id="path425"
       style="font-size:73px;font-family:'Geist Mono', 'Geist Mono_MSFontService', sans-serif" /><path
       d="m 2811.7601,3340 v -6.132 h 16.352 v -32.266 h -13.578 v -5.402 h 7.008 q 4.161,0 5.913,-1.825 1.825,-1.825 1.825,-6.205 h 5.11 v 45.698 h 12.41 V 3340 Z"
       id="path427"
       style="font-size:73px;font-family:'Geist Mono', 'Geist Mono_MSFontService', sans-serif" /><path
       d="m 2854.8301,3340 q 0,-5.475 1.679,-9.855 1.752,-4.453 6.059,-8.468 4.38,-4.015 12.118,-8.103 3.577,-1.898 5.767,-3.504 2.19,-1.606 3.212,-3.431 1.022,-1.825 1.022,-4.453 0,-4.015 -2.628,-6.497 -2.555,-2.555 -7.738,-2.555 -5.475,0 -8.687,2.847 -3.139,2.847 -3.942,8.103 l -6.57,-0.438 q 0.876,-7.592 5.84,-12.118 4.964,-4.526 13.359,-4.526 8.03,0 12.483,4.161 4.453,4.161 4.453,10.877 0,3.942 -1.314,6.862 -1.314,2.847 -4.453,5.329 -3.066,2.482 -8.468,5.329 -7.008,3.723 -10.658,7.519 -3.577,3.796 -3.796,6.789 h 28.762 V 3340 Z"
       id="path429"
       style="font-size:73px;font-family:'Geist Mono', 'Geist Mono_MSFontService', sans-serif" /><path
       d="m 0,-3.4375 h 27.5 v 6.875 H 0 Z m 48.125,0 h 27.5 v 6.875 h -27.5 z m 48.125,0 h 27.5 v 6.875 h -27.5 z m 48.125,0 h 27.5 v 6.875 h -27.5 z m 48.125,0 H 220 v 6.875 h -27.5 z m 48.125,0 h 27.5 v 6.875 h -27.5 z m 48.125,0 h 27.5 v 6.875 h -27.5 z m 48.125,0 h 27.5 v 6.875 h -27.5 z m 48.125,0 h 27.5 v 6.875 H 385 Z m 48.125,0 h 27.5 v 6.875 h -27.5 z m 48.125,0 h 27.5 v 6.875 h -27.5 z m 48.125,0 h 27.5 v 6.875 h -27.5 z m 48.125,0 H 605 v 6.875 h -27.5 z m 48.125,0 h 27.5 v 6.875 h -27.5 z m 48.125,0 h 27.5 v 6.875 h -27.5 z m 48.125,0 h 27.5 v 6.875 h -27.5 z m 48.125,0 h 27.5 v 6.875 H 770 Z m 48.125,0 h 27.5 v 6.875 h -27.5 z m 48.125,0 h 27.5 v 6.875 h -27.5 z m 48.125,0 h 27.5 v 6.875 h -27.5 z m 48.125,0 H 990 v 6.875 h -27.5 z m 48.12,0 h 27.5 v 6.875 h -27.5 z m 48.13,0 h 27.5 v 6.875 h -27.5 z m 48.13,0 h 27.5 v 6.875 h -27.5 z m 48.12,0 h 27.5 v 6.875 H 1155 Z m 48.12,0 h 27.5 v 6.875 h -27.5 z m 48.13,0 h 27.5 v 6.875 h -27.5 z m 48.13,0 h 27.5 v 6.875 h -27.5 z m 48.12,0 h 27.5 v 6.875 h -27.5 z m 48.12,0 h 27.5 v 6.875 h -27.5 z m 48.13,0 h 27.5 v 6.875 h -27.5 z m 48.13,0 h 27.5 v 6.875 h -27.5 z m 48.12,0 h 27.5 v 6.875 H 1540 Z m 48.12,0 h 27.5 v 6.875 h -27.5 z m 48.13,0 h 27.5 v 6.875 h -27.5 z m 48.13,0 h 27.5 v 6.875 h -27.5 z m 48.12,0 h 27.5 v 6.875 h -27.5 z m 48.12,0 h 27.5 v 6.875 h -27.5 z m 48.13,0 h 27.5 v 6.875 h -27.5 z m 48.13,0 h 27.5 v 6.875 h -27.5 z m 48.12,0 h 27.5 v 6.875 H 1925 Z m 48.12,0 h 27.5 v 6.875 h -27.5 z m 48.13,0 h 27.5 v 6.875 h -27.5 z m 42.37,12.62618 V 36.6887 h -6.87 V 9.18868 Z m 0,48.12502 v 27.5 h -6.87 v -27.5 z m 0,48.1253 v 6.255 h -6.87 v -6.255 z m 22.49,-33.3254 -25.92,46.6584 -25.93,-46.6584 c -0.92,-1.6596 -0.32,-3.7523 1.34,-4.6743 1.66,-0.922 3.75,-0.3241 4.67,1.3355 l 22.92,41.2502 h -6.01 l 22.92,-41.2502 c 0.92,-1.6596 3.01,-2.2575 4.67,-1.3355 1.66,0.922 2.26,3.0147 1.34,4.6743 z"
       fill="#aeaeae"
       transform="matrix(1,0,0,-1,924.5,1914.28)"
       id="path29" /><path
       d="M 924.5,1911.06 H 952 v 6.88 h -27.5 z m 48.125,0 h 27.495 v 6.88 h -27.495 z m 48.125,0 h 27.5 v 6.88 h -27.5 z m 48.12,0 h 27.5 v 6.88 h -27.5 z m 48.13,0 h 27.5 v 6.88 H 1117 Z m 48.12,0 h 27.5 v 6.88 h -27.5 z m 37.85,17.16 v 27.5 h -6.87 v -27.5 z m 0,48.12 v 27.5 h -6.87 v -27.5 z m 0,48.13 v 27.5 h -6.87 v -27.5 z m 0,48.12 v 27.5 h -6.87 v -27.5 z m 0,48.13 v 27.5 h -6.87 v -27.5 z m 0,48.12 v 27.5 h -6.87 v -27.5 z m 0,48.13 v 27.5 h -6.87 v -27.5 z m 0,48.12 v 19.43 l -3.44,-3.44 h 8.08 v 6.87 h -11.51 v -22.86 z m 25.26,15.99 h 27.5 v 6.87 h -27.5 z m 48.13,0 h 27.5 v 6.87 h -27.5 z m 48.12,0 h 27.5 v 6.87 h -27.5 z m 48.13,0 h 27.5 v 6.87 h -27.5 z m 48.12,0 h 27.5 v 6.87 h -27.5 z m 7.18,-22.49 46.65,25.93 -46.65,25.92 c -1.66,0.92 -3.76,0.32 -4.68,-1.34 -0.92,-1.66 -0.32,-3.75 1.34,-4.67 l 41.25,-22.92 v 6.01 l -41.25,-22.92 c -1.66,-0.92 -2.26,-3.01 -1.34,-4.67 0.92,-1.66 3.02,-2.26 4.68,-1.34 z"
       fill="#aeaeae"
       id="path31" /><path
       d="m 0,-3.4375 h 27.5 v 6.875 H 0 Z m 48.125,0 h 27.5 v 6.875 h -27.5 z m 48.125,0 h 27.5 v 6.875 h -27.5 z m 36.164,18.8363 v 27.5 h -6.875 v -27.5 z m 0,48.125 v 27.5 h -6.875 v -27.5 z m 0,48.1252 v 12.963 l -3.438,-3.437 h 14.537 v 6.875 h -17.974 v -16.401 z m 31.724,9.526 h 27.5 v 6.875 h -27.5 z m 48.125,0 h 27.5 v 6.875 h -27.5 z m 48.125,0 h 27.5 v 6.875 h -27.5 z m 48.125,0 h 27.5 v 6.875 h -27.5 z m 48.125,0 h 27.5 v 6.875 h -27.5 z m 48.125,0 h 27.5 v 6.875 h -27.5 z m 48.125,0 h 27.5 v 6.875 h -27.5 z m 48.125,0 h 27.5 v 6.875 h -27.5 z m 48.125,0 h 27.5 v 6.875 h -27.5 z m 48.125,0 h 27.5 v 6.875 h -27.5 z m 48.125,0 h 27.5 v 6.875 h -27.5 z m 48.125,0 h 27.5 v 6.875 h -27.5 z m 48.125,0 h 27.5 v 6.875 h -27.5 z m 48.125,0 h 27.5 v 6.875 h -27.5 z m 48.125,0 h 27.5 v 6.875 h -27.5 z m 48.125,0 h 27.5 v 6.875 h -27.5 z m 4.924,-22.4844 46.659,25.9214 -46.659,25.922 c -1.66,0.922 -3.752,0.324 -4.674,-1.336 -0.922,-1.659 -0.324,-3.752 1.335,-4.674 l 41.25,-22.917 v 6.01 L 887.598,104.7 c -1.659,-0.922 -2.257,-3.014 -1.335,-4.674 0.922,-1.6595 3.014,-2.2574 4.674,-1.3354 z"
       fill="#aeaeae"
       transform="matrix(1,0,0,-1,1448.5,2833.11)"
       id="path33" /><path
       d="m 1448.5,2830.06 h 27.5 v 6.88 h -27.5 z m 48.13,0 h 27.5 v 6.88 h -27.5 z m 48.12,0 h 27.5 v 6.88 h -27.5 z m 34.33,20.68 v 27.5 h -6.88 v -27.5 z m 0,48.12 v 27.5 h -6.88 v -27.5 z m 0,48.13 v 27.5 h -6.88 v -27.5 z m 0,48.12 v 27.5 h -6.88 v -27.5 z m 0,48.13 v 27.5 h -6.88 v -27.5 z m 0,48.12 v 27.5 h -6.88 v -27.5 z m 0,48.13 v 27.5 h -6.88 v -27.5 z m 0,48.12 v 27.5 h -6.88 v -27.5 z m 0,48.13 v 27.5 h -6.88 v -27.5 z m 0,48.12 v 27.5 h -6.88 v -27.5 z m 11.66,29.59 h 27.5 v 6.87 h -27.5 z m 48.13,0 h 27.5 v 6.87 h -27.5 z m 48.12,0 h 27.5 v 6.87 h -27.5 z m 48.13,0 h 27.5 v 6.87 h -27.5 z m 48.12,0 h 27.5 v 6.87 h -27.5 z m 48.13,0 h 27.5 v 6.87 h -27.5 z m 48.12,0 h 27.5 v 6.87 h -27.5 z m 48.13,0 h 27.5 v 6.87 h -27.5 z m 48.12,0 h 27.5 v 6.87 h -27.5 z m 48.13,0 h 27.5 v 6.87 h -27.5 z m 48.12,0 h 27.5 v 6.87 h -27.5 z m 48.13,0 h 27.5 v 6.87 h -27.5 z m 48.12,0 h 27.5 v 6.87 h -27.5 z m 48.13,0 h 27.5 v 6.87 h -27.5 z m 48.12,0 h 27.5 v 6.87 h -27.5 z m 48.13,0 h 27.5 v 6.87 h -27.5 z m 48.12,0 h 27.5 v 6.87 h -27.5 z m 48.13,0 h 5.75 v 6.87 h -5.75 z m -33.84,-22.49 46.66,25.92 -46.66,25.93 c -1.66,0.92 -3.75,0.32 -4.67,-1.34 -0.92,-1.66 -0.33,-3.75 1.33,-4.67 l 41.25,-22.92 v 6.01 l -41.25,-22.92 c -1.66,-0.92 -2.25,-3.01 -1.33,-4.67 0.92,-1.66 3.01,-2.26 4.67,-1.34 z"
       fill="#aeaeae"
       id="path35" /><path
       d="m 703.866,2403 v -9.856 h -22.272 v -4.992 l 21.888,-30.592 h 5.888 v 30.208 h 5.504 v 5.376 H 709.37 V 2403 Z m -16.64,-15.232 h 16.64 v -22.528 z"
       id="path432"
       style="font-size:64px;font-family:'Geist Mono', 'Geist Mono_MSFontService', sans-serif" /><path
       d="m 736.63402,2404.024 q -4.928,0 -8.576,-2.88 -3.584,-2.88 -5.504,-8.192 -1.92,-5.312 -1.92,-12.608 0,-7.36 1.92,-12.672 1.92,-5.312 5.504,-8.192 3.648,-2.944 8.576,-2.944 4.992,0 8.576,2.944 3.584,2.88 5.504,8.192 1.92,5.312 1.92,12.672 0,7.296 -1.92,12.608 -1.92,5.312 -5.504,8.192 -3.584,2.88 -8.576,2.88 z m -10.24,-23.68 q 0,6.4 1.6,10.88 l 14.592,-26.56 q -2.496,-2.752 -5.952,-2.752 -4.736,0 -7.488,4.992 -2.752,4.928 -2.752,13.44 z m 10.24,18.304 q 4.736,0 7.488,-4.928 2.752,-4.992 2.752,-13.376 0,-6.464 -1.6,-10.944 l -14.592,26.496 q 2.496,2.752 5.952,2.752 z"
       id="path434"
       style="font-size:64px;font-family:'Geist Mono', 'Geist Mono_MSFontService', sans-serif" /><path
       d="m 765.69005,2379.576 q -3.84,0 -6.528,-2.88 -2.688,-2.944 -2.688,-8.384 0,-5.504 2.688,-8.384 2.688,-2.88 6.528,-2.88 3.84,0 6.528,2.88 2.688,2.88 2.688,8.384 0,5.44 -2.688,8.384 -2.688,2.88 -6.528,2.88 z m -6.72,23.424 27.264,-45.44 h 4.864 l -27.264,45.44 z m 6.72,-27.392 q 2.112,0 3.328,-1.92 1.28,-1.92 1.28,-5.376 0,-3.456 -1.28,-5.376 -1.216,-1.92 -3.328,-1.92 -2.112,0 -3.392,1.92 -1.216,1.92 -1.216,5.376 0,3.456 1.216,5.376 1.28,1.92 3.392,1.92 z m 18.688,27.904 q -3.84,0 -6.528,-2.88 -2.688,-2.944 -2.688,-8.384 0,-5.504 2.688,-8.384 2.688,-2.88 6.528,-2.88 3.84,0 6.528,2.88 2.688,2.88 2.688,8.384 0,5.44 -2.688,8.384 -2.688,2.88 -6.528,2.88 z m 0,-3.968 q 2.112,0 3.328,-1.92 1.28,-1.92 1.28,-5.376 0,-3.456 -1.28,-5.376 -1.216,-1.92 -3.328,-1.92 -2.112,0 -3.392,1.92 -1.216,1.92 -1.216,5.376 0,3.456 1.216,5.376 1.28,1.92 3.392,1.92 z"
       id="path436"
       style="font-size:64px;font-family:'Geist Mono', 'Geist Mono_MSFontService', sans-serif" /><path
       d="m 1257.78,2226 q 0,-4.8 1.472,-8.64 1.536,-3.904 5.312,-7.424 3.84,-3.52 10.624,-7.104 3.136,-1.664 5.056,-3.072 1.92,-1.408 2.816,-3.008 0.896,-1.6 0.896,-3.904 0,-3.52 -2.304,-5.696 -2.24,-2.24 -6.784,-2.24 -4.8,0 -7.616,2.496 -2.752,2.496 -3.456,7.104 l -5.76,-0.384 q 0.768,-6.656 5.12,-10.624 4.352,-3.968 11.712,-3.968 7.04,0 10.944,3.648 3.904,3.648 3.904,9.536 0,3.456 -1.152,6.016 -1.152,2.496 -3.904,4.672 -2.688,2.176 -7.424,4.672 -6.144,3.264 -9.344,6.592 -3.136,3.328 -3.328,5.952 h 25.216 V 2226 Z"
       id="path439"
       style="font-size:64px;font-family:'Geist Mono', 'Geist Mono_MSFontService', sans-serif" /><path
       d="m 1312.18,2227.024 q -4.928,0 -8.576,-2.88 -3.584,-2.88 -5.504,-8.192 -1.92,-5.312 -1.92,-12.608 0,-7.36 1.92,-12.672 1.92,-5.312 5.504,-8.192 3.648,-2.944 8.576,-2.944 4.992,0 8.576,2.944 3.584,2.88 5.504,8.192 1.92,5.312 1.92,12.672 0,7.296 -1.92,12.608 -1.92,5.312 -5.504,8.192 -3.584,2.88 -8.576,2.88 z m -10.24,-23.68 q 0,6.4 1.6,10.88 l 14.592,-26.56 q -2.496,-2.752 -5.952,-2.752 -4.736,0 -7.488,4.992 -2.752,4.928 -2.752,13.44 z m 10.24,18.304 q 4.736,0 7.488,-4.928 2.752,-4.992 2.752,-13.376 0,-6.464 -1.6,-10.944 l -14.592,26.496 q 2.496,2.752 5.952,2.752 z"
       id="path441"
       style="font-size:64px;font-family:'Geist Mono', 'Geist Mono_MSFontService', sans-serif" /><path
       d="m 1341.236,2202.576 q -3.84,0 -6.528,-2.88 -2.688,-2.944 -2.688,-8.384 0,-5.504 2.688,-8.384 2.688,-2.88 6.528,-2.88 3.84,0 6.528,2.88 2.688,2.88 2.688,8.384 0,5.44 -2.688,8.384 -2.688,2.88 -6.528,2.88 z m -6.72,23.424 27.264,-45.44 h 4.864 L 1339.38,2226 Z m 6.72,-27.392 q 2.112,0 3.328,-1.92 1.28,-1.92 1.28,-5.376 0,-3.456 -1.28,-5.376 -1.216,-1.92 -3.328,-1.92 -2.112,0 -3.392,1.92 -1.216,1.92 -1.216,5.376 0,3.456 1.216,5.376 1.28,1.92 3.392,1.92 z m 18.688,27.904 q -3.8399,0 -6.528,-2.88 -2.688,-2.944 -2.688,-8.384 0,-5.504 2.688,-8.384 2.6881,-2.88 6.528,-2.88 3.8401,0 6.528,2.88 2.6881,2.88 2.6881,8.384 0,5.44 -2.6881,8.384 -2.6879,2.88 -6.528,2.88 z m 0,-3.968 q 2.1121,0 3.328,-1.92 1.2801,-1.92 1.2801,-5.376 0,-3.456 -1.2801,-5.376 -1.2159,-1.92 -3.328,-1.92 -2.1119,0 -3.3919,1.92 -1.216,1.92 -1.216,5.376 0,3.456 1.216,5.376 1.28,1.92 3.3919,1.92 z"
       id="path443"
       style="font-size:64px;font-family:'Geist Mono', 'Geist Mono_MSFontService', sans-serif" /><path
       d="m 2385,2708 78,-156 h 442 l 78,156 -78,156 h -442 z"
       fill="#f2f2f2"
       fill-rule="evenodd"
       id="path41" /><path
       d="m 2595.654,2733.168 q -5.475,0 -9.782,-2.993 -4.234,-3.066 -6.716,-9.052 -2.482,-6.059 -2.482,-14.965 0,-8.395 2.263,-14.454 2.336,-6.059 6.643,-9.344 4.307,-3.358 10.366,-3.358 4.745,0 8.395,2.117 3.723,2.117 6.205,5.913 2.482,3.723 3.577,8.614 l -6.57,0.438 q -1.241,-4.818 -4.161,-7.884 -2.847,-3.066 -7.446,-3.066 -6.059,0 -9.417,5.475 -3.285,5.475 -3.285,15.549 0,10.001 3.358,15.476 3.431,5.402 9.636,5.402 5.548,0 8.76,-4.234 3.285,-4.307 3.504,-11.023 h -12.41 v -5.986 h 18.25 V 2732 h -5.84 l -0.146,-7.154 q -1.825,3.796 -4.891,6.059 -2.993,2.263 -7.811,2.263 z"
       id="path446"
       style="font-size:73px;font-family:'Geist Mono', 'Geist Mono_MSFontService', sans-serif" /><path
       d="m 2624.27,2732 v -5.402 h 10.074 v -27.886 h -10.074 v -5.402 h 15.184 l 0.438,7.519 q 1.825,-7.519 9.271,-7.519 h 7.957 v 5.548 h -7.884 q -4.234,0 -6.497,2.555 -2.263,2.482 -2.263,7.227 v 17.958 h 12.264 V 2732 Z"
       id="path448"
       style="font-size:73px;font-family:'Geist Mono', 'Geist Mono_MSFontService', sans-serif" /><path
       d="m 2683.4001,2732.876 q -5.329,0 -9.344,-2.482 -3.942,-2.482 -6.132,-7.008 -2.19,-4.599 -2.19,-10.731 0,-6.205 2.19,-10.731 2.19,-4.526 6.132,-7.008 4.015,-2.482 9.344,-2.482 5.329,0 9.271,2.482 4.015,2.482 6.205,7.008 2.19,4.526 2.19,10.731 0,6.132 -2.19,10.731 -2.19,4.526 -6.205,7.008 -3.942,2.482 -9.271,2.482 z m 0,-5.84 q 5.329,0 8.249,-3.796 2.993,-3.869 2.993,-10.585 0,-6.716 -2.993,-10.512 -2.92,-3.869 -8.249,-3.869 -5.329,0 -8.322,3.869 -2.92,3.796 -2.92,10.512 0,6.716 2.92,10.585 2.993,3.796 8.322,3.796 z"
       id="path450"
       style="font-size:73px;font-family:'Geist Mono', 'Geist Mono_MSFontService', sans-serif" /><path
       d="m 2724.4991,2732.876 q -5.767,0 -9.198,-3.869 -3.431,-3.942 -3.431,-10.804 v -24.893 h 6.132 v 23.214 q 0,5.621 1.971,8.322 2.044,2.628 6.205,2.628 4.526,0 7.154,-2.92 2.628,-2.993 2.628,-8.176 v -23.068 h 6.132 V 2732 h -5.84 v -6.278 q -3.212,7.154 -11.753,7.154 z"
       id="path452"
       style="font-size:73px;font-family:'Geist Mono', 'Geist Mono_MSFontService', sans-serif" /><path
       d="m 2754.9401,2742.95 v -49.64 h 5.694 l 0.073,6.205 q 1.752,-3.431 4.818,-5.256 3.139,-1.825 7.081,-1.825 5.767,0 9.417,2.847 3.723,2.847 5.475,7.446 1.752,4.599 1.752,9.928 0,5.329 -1.752,9.928 -1.752,4.599 -5.475,7.446 -3.65,2.847 -9.417,2.847 -3.796,0 -6.935,-1.606 -3.066,-1.606 -4.599,-4.38 v 16.06 z m 17.082,-15.914 q 5.037,0 7.884,-3.796 2.92,-3.796 2.92,-10.585 0,-6.789 -2.92,-10.585 -2.847,-3.796 -7.884,-3.796 -5.037,0 -8.03,3.65 -2.92,3.577 -2.92,10.731 0,7.081 2.92,10.731 2.92,3.65 8.03,3.65 z"
       id="path454"
       style="font-size:73px;font-family:'Geist Mono', 'Geist Mono_MSFontService', sans-serif" /><path
       d="m 2686,1535 c 0,-28.72 23.28,-52 52,-52 h 493 c 28.72,0 52,23.28 52,52 v 208 c 0,28.72 -23.28,52 -52,52 h -493 c -28.72,0 -52,-23.28 -52,-52 z"
       fill="#f2f2f2"
       fill-rule="evenodd"
       id="path45" /><path
       d="m 2793.37,1619 v -51.83 h 6.278 v 45.698 h 25.842 V 1619 Z"
       id="path457"
       style="font-size:73px;font-family:'Geist Mono', 'Geist Mono_MSFontService', sans-serif" /><path
       d="m 2835.71,1619 v -5.402 h 15.549 v -27.886 h -14.819 v -5.402 h 20.951 v 33.288 h 13.359 V 1619 Z m 14.965,-44.749 v -7.154 h 6.424 v 7.154 z"
       id="path459"
       style="font-size:73px;font-family:'Geist Mono', 'Geist Mono_MSFontService', sans-serif" /><path
       d="m 2911.6301,1629.95 h -6.132 v -16.06 q -1.533,2.774 -4.672,4.38 -3.066,1.606 -6.862,1.606 -5.767,0 -9.49,-2.847 -3.65,-2.847 -5.402,-7.446 -1.752,-4.599 -1.752,-9.928 0,-5.329 1.752,-9.928 1.752,-4.599 5.402,-7.446 3.723,-2.847 9.49,-2.847 3.942,0 7.008,1.825 3.139,1.825 4.891,5.256 l 0.073,-6.205 h 5.694 z m -17.082,-15.914 q 5.11,0 8.03,-3.65 2.92,-3.65 2.92,-10.731 0,-7.154 -2.993,-10.731 -2.92,-3.65 -7.957,-3.65 -5.037,0 -7.957,3.796 -2.847,3.796 -2.847,10.585 0,6.789 2.847,10.585 2.92,3.796 7.957,3.796 z"
       id="path461"
       style="font-size:73px;font-family:'Geist Mono', 'Geist Mono_MSFontService', sans-serif" /><path
       d="m 2936.6691,1619.876 q -5.767,0 -9.198,-3.869 -3.431,-3.942 -3.431,-10.804 v -24.893 h 6.132 v 23.214 q 0,5.621 1.971,8.322 2.044,2.628 6.205,2.628 4.526,0 7.154,-2.92 2.628,-2.993 2.628,-8.176 v -23.068 h 6.132 V 1619 h -5.84 v -6.278 q -3.212,7.154 -11.753,7.154 z"
       id="path463"
       style="font-size:73px;font-family:'Geist Mono', 'Geist Mono_MSFontService', sans-serif" /><path
       d="m 2967.1101,1619 v -5.402 h 15.549 v -27.886 h -14.819 v -5.402 h 20.951 v 33.288 h 13.359 V 1619 Z m 14.965,-44.749 v -7.154 h 6.424 v 7.154 z"
       id="path465"
       style="font-size:73px;font-family:'Geist Mono', 'Geist Mono_MSFontService', sans-serif" /><path
       d="m 3024.5611,1619.876 q -5.11,0 -8.833,-2.482 -3.723,-2.482 -5.767,-7.008 -1.971,-4.526 -1.971,-10.731 0,-6.205 1.971,-10.731 2.044,-4.526 5.767,-7.008 3.723,-2.482 8.833,-2.482 4.088,0 7.154,1.971 3.066,1.898 4.453,4.307 v -18.542 h 6.132 V 1619 h -5.548 l -0.219,-5.767 q -1.679,3.139 -4.818,4.891 -3.139,1.752 -7.154,1.752 z m 0.365,-5.84 q 5.256,0 8.249,-3.869 2.993,-3.869 2.993,-10.512 0,-6.716 -2.993,-10.512 -2.993,-3.869 -8.395,-3.869 -4.745,0 -7.592,3.869 -2.774,3.796 -2.774,10.512 0,6.643 2.774,10.512 2.847,3.869 7.738,3.869 z"
       id="path467"
       style="font-size:73px;font-family:'Geist Mono', 'Geist Mono_MSFontService', sans-serif" /><path
       d="m 3054.7102,1619 v -5.402 h 15.549 v -27.886 h -14.819 v -5.402 h 20.951 v 33.288 h 13.359 V 1619 Z m 14.965,-44.749 v -7.154 h 6.424 v 7.154 z"
       id="path469"
       style="font-size:73px;font-family:'Geist Mono', 'Geist Mono_MSFontService', sans-serif" /><path
       d="m 3120.2642,1619 q -11.169,0 -11.169,-10.658 v -22.63 h -12.775 v -5.402 h 12.775 v -9.052 h 6.132 v 9.052 h 15.403 v 5.402 h -15.403 v 22.63 q 0,5.256 5.037,5.256 h 10.366 V 1619 Z"
       id="path471"
       style="font-size:73px;font-family:'Geist Mono', 'Geist Mono_MSFontService', sans-serif" /><path
       d="m 3146.3982,1629.95 v -5.402 h 4.453 q 2.044,0 2.993,-0.657 1.022,-0.584 1.533,-1.971 l 1.387,-3.65 h -2.117 l -14.381,-37.96 h 6.716 l 11.753,32.266 11.023,-32.266 h 6.716 l -15.695,43.581 q -1.095,3.139 -3.285,4.599 -2.19,1.46 -6.059,1.46 z"
       id="path473"
       style="font-size:73px;font-family:'Geist Mono', 'Geist Mono_MSFontService', sans-serif" /><path
       d="m 2902.94,1707 v -51.83 h 15.768 q 8.103,0 12.921,4.234 4.891,4.161 4.891,11.607 0,7.446 -4.891,11.68 -4.818,4.161 -12.921,4.161 h -9.49 V 1707 Z m 6.278,-26.28 h 8.76 q 6.132,0 9.052,-2.482 2.92,-2.555 2.92,-7.227 0,-4.745 -2.92,-7.227 -2.92,-2.482 -9.052,-2.482 h -8.76 z"
       id="path476"
       style="font-size:73px;font-family:'Geist Mono', 'Geist Mono_MSFontService', sans-serif" /><path
       d="m 2962.07,1707.876 q -5.329,0 -9.344,-2.482 -3.942,-2.482 -6.132,-7.008 -2.19,-4.599 -2.19,-10.731 0,-6.205 2.19,-10.731 2.19,-4.526 6.132,-7.008 4.015,-2.482 9.344,-2.482 5.329,0 9.271,2.482 4.015,2.482 6.205,7.008 2.19,4.526 2.19,10.731 0,6.132 -2.19,10.731 -2.19,4.526 -6.205,7.008 -3.942,2.482 -9.271,2.482 z m 0,-5.84 q 5.329,0 8.249,-3.796 2.993,-3.869 2.993,-10.585 0,-6.716 -2.993,-10.512 -2.92,-3.869 -8.249,-3.869 -5.329,0 -8.322,3.869 -2.92,3.796 -2.92,10.512 0,6.716 2.92,10.585 2.993,3.796 8.322,3.796 z"
       id="path478"
       style="font-size:73px;font-family:'Geist Mono', 'Geist Mono_MSFontService', sans-serif" /><path
       d="m 3005.8701,1707.876 q -5.3291,0 -9.344,-2.482 -3.942,-2.482 -6.132,-7.008 -2.19,-4.599 -2.19,-10.731 0,-6.205 2.19,-10.731 2.19,-4.526 6.132,-7.008 4.0149,-2.482 9.344,-2.482 5.3289,0 9.2709,2.482 4.0151,2.482 6.2051,7.008 2.1899,4.526 2.1899,10.731 0,6.132 -2.1899,10.731 -2.19,4.526 -6.2051,7.008 -3.942,2.482 -9.2709,2.482 z m 0,-5.84 q 5.3289,0 8.2489,-3.796 2.993,-3.869 2.993,-10.585 0,-6.716 -2.993,-10.512 -2.92,-3.869 -8.2489,-3.869 -5.3291,0 -8.3221,3.869 -2.9199,3.796 -2.9199,10.512 0,6.716 2.9199,10.585 2.993,3.796 8.3221,3.796 z"
       id="path480"
       style="font-size:73px;font-family:'Geist Mono', 'Geist Mono_MSFontService', sans-serif" /><path
       d="m 3032.1501,1707 v -5.402 h 15.549 v -36.062 q 0,-2.336 -1.314,-3.65 -1.314,-1.314 -3.65,-1.314 h -9.125 v -5.402 h 9.417 q 10.804,0 10.804,10.804 v 35.624 h 13.359 V 1707 Z"
       id="path482"
       style="font-size:73px;font-family:'Geist Mono', 'Geist Mono_MSFontService', sans-serif" /><path
       d="m 1279.412,1856 v -9.856 h -22.272 v -4.992 l 21.888,-30.592 h 5.888 v 30.208 h 5.504 v 5.376 h -5.504 V 1856 Z m -16.64,-15.232 h 16.64 v -22.528 z"
       id="path485"
       style="font-size:64px;font-family:'Geist Mono', 'Geist Mono_MSFontService', sans-serif" /><path
       d="m 1312.18,1857.024 q -4.928,0 -8.576,-2.88 -3.584,-2.88 -5.504,-8.192 -1.92,-5.312 -1.92,-12.608 0,-7.36 1.92,-12.672 1.92,-5.312 5.504,-8.192 3.648,-2.944 8.576,-2.944 4.992,0 8.576,2.944 3.584,2.88 5.504,8.192 1.92,5.312 1.92,12.672 0,7.296 -1.92,12.608 -1.92,5.312 -5.504,8.192 -3.584,2.88 -8.576,2.88 z m -10.24,-23.68 q 0,6.4 1.6,10.88 l 14.592,-26.56 q -2.496,-2.752 -5.952,-2.752 -4.736,0 -7.488,4.992 -2.752,4.928 -2.752,13.44 z m 10.24,18.304 q 4.736,0 7.488,-4.928 2.752,-4.992 2.752,-13.376 0,-6.464 -1.6,-10.944 l -14.592,26.496 q 2.496,2.752 5.952,2.752 z"
       id="path487"
       style="font-size:64px;font-family:'Geist Mono', 'Geist Mono_MSFontService', sans-serif" /><path
       d="m 1341.236,1832.576 q -3.84,0 -6.528,-2.88 -2.688,-2.944 -2.688,-8.384 0,-5.504 2.688,-8.384 2.688,-2.88 6.528,-2.88 3.84,0 6.528,2.88 2.688,2.88 2.688,8.384 0,5.44 -2.688,8.384 -2.688,2.88 -6.528,2.88 z m -6.72,23.424 27.264,-45.44 h 4.864 L 1339.38,1856 Z m 6.72,-27.392 q 2.112,0 3.328,-1.92 1.28,-1.92 1.28,-5.376 0,-3.456 -1.28,-5.376 -1.216,-1.92 -3.328,-1.92 -2.112,0 -3.392,1.92 -1.216,1.92 -1.216,5.376 0,3.456 1.216,5.376 1.28,1.92 3.392,1.92 z m 18.688,27.904 q -3.8399,0 -6.528,-2.88 -2.688,-2.944 -2.688,-8.384 0,-5.504 2.688,-8.384 2.6881,-2.88 6.528,-2.88 3.8401,0 6.528,2.88 2.6881,2.88 2.6881,8.384 0,5.44 -2.6881,8.384 -2.6879,2.88 -6.528,2.88 z m 0,-3.968 q 2.1121,0 3.328,-1.92 1.2801,-1.92 1.2801,-5.376 0,-3.456 -1.2801,-5.376 -1.2159,-1.92 -3.328,-1.92 -2.1119,0 -3.3919,1.92 -1.216,1.92 -1.216,5.376 0,3.456 1.216,5.376 1.28,1.92 3.3919,1.92 z"
       id="path489"
       style="font-size:64px;font-family:'Geist Mono', 'Geist Mono_MSFontService', sans-serif" /><path
       d="m 1733.478,3279 q 0,-7.04 1.92,-14.016 1.984,-7.04 5.632,-13.632 3.648,-6.592 8.704,-12.416 h -24.704 v -5.376 h 30.72 v 4.992 q -5.696,6.528 -9.344,12.928 -3.648,6.336 -5.376,13.12 -1.664,6.72 -1.664,14.4 z"
       id="path492"
       style="font-size:64px;font-family:'Geist Mono', 'Geist Mono_MSFontService', sans-serif" /><path
       d="m 1776.678,3279.768 q -4.48,0 -7.744,-2.176 -3.264,-2.176 -5.056,-6.144 -1.728,-3.968 -1.728,-9.408 0,-5.44 1.728,-9.408 1.792,-3.968 5.056,-6.144 3.264,-2.176 7.744,-2.176 3.584,0 6.272,1.728 2.688,1.664 3.904,3.776 v -16.256 h 5.376 V 3279 h -4.864 l -0.192,-5.056 q -1.472,2.752 -4.224,4.288 -2.752,1.536 -6.272,1.536 z m 0.32,-5.12 q 4.608,0 7.232,-3.392 2.624,-3.392 2.624,-9.216 0,-5.888 -2.624,-9.216 -2.624,-3.392 -7.36,-3.392 -4.16,0 -6.656,3.392 -2.432,3.328 -2.432,9.216 0,5.824 2.432,9.216 2.496,3.392 6.784,3.392 z"
       id="path494"
       style="font-size:64px;font-family:'Geist Mono', 'Geist Mono_MSFontService', sans-serif" /><path
       d="m 1843.3021,3286.04 19.456,-55.04 h 5.12 l -19.456,55.04 z"
       id="path496"
       style="font-size:64px;font-family:'Geist Mono', 'Geist Mono_MSFontService', sans-serif" /><path
       d="m 1916.3901,3279 q 0,-4.8 1.472,-8.64 1.536,-3.904 5.312,-7.424 3.84,-3.52 10.624,-7.104 3.136,-1.664 5.056,-3.072 1.92,-1.408 2.816,-3.008 0.896,-1.6 0.896,-3.904 0,-3.52 -2.304,-5.696 -2.24,-2.24 -6.784,-2.24 -4.8,0 -7.616,2.496 -2.752,2.496 -3.456,7.104 l -5.76,-0.384 q 0.768,-6.656 5.12,-10.624 4.352,-3.968 11.712,-3.968 7.04,0 10.944,3.648 3.904,3.648 3.904,9.536 0,3.456 -1.152,6.016 -1.152,2.496 -3.904,4.672 -2.688,2.176 -7.424,4.672 -6.144,3.264 -9.344,6.592 -3.136,3.328 -3.328,5.952 h 25.216 V 3279 Z"
       id="path498"
       style="font-size:64px;font-family:'Geist Mono', 'Geist Mono_MSFontService', sans-serif" /><path
       d="m 1970.7902,3280.024 q -4.928,0 -8.576,-2.88 -3.584,-2.88 -5.504,-8.192 -1.92,-5.312 -1.92,-12.608 0,-7.36 1.92,-12.672 1.92,-5.312 5.504,-8.192 3.648,-2.944 8.576,-2.944 4.992,0 8.576,2.944 3.584,2.88 5.504,8.192 1.92,5.312 1.92,12.672 0,7.296 -1.92,12.608 -1.92,5.312 -5.504,8.192 -3.584,2.88 -8.576,2.88 z m -10.24,-23.68 q 0,6.4 1.6,10.88 l 14.592,-26.56 q -2.496,-2.752 -5.952,-2.752 -4.736,0 -7.488,4.992 -2.752,4.928 -2.752,13.44 z m 10.24,18.304 q 4.736,0 7.488,-4.928 2.752,-4.992 2.752,-13.376 0,-6.464 -1.6,-10.944 l -14.592,26.496 q 2.496,2.752 5.952,2.752 z"
       id="path500"
       style="font-size:64px;font-family:'Geist Mono', 'Geist Mono_MSFontService', sans-serif" /><path
       d="m 2009.1902,3280.024 q -4.928,0 -8.576,-2.88 -3.584,-2.88 -5.504,-8.192 -1.92,-5.312 -1.92,-12.608 0,-7.36 1.92,-12.672 1.92,-5.312 5.504,-8.192 3.648,-2.944 8.576,-2.944 4.992,0 8.576,2.944 3.584,2.88 5.504,8.192 1.92,5.312 1.92,12.672 0,7.296 -1.92,12.608 -1.92,5.312 -5.504,8.192 -3.584,2.88 -8.576,2.88 z m -10.24,-23.68 q 0,6.4 1.6,10.88 l 14.592,-26.56 q -2.496,-2.752 -5.952,-2.752 -4.736,0 -7.488,4.992 -2.752,4.928 -2.752,13.44 z m 10.24,18.304 q 4.736,0 7.488,-4.928 2.752,-4.992 2.752,-13.376 0,-6.464 -1.6,-10.944 l -14.592,26.496 q 2.496,2.752 5.952,2.752 z"
       id="path502"
       style="font-size:64px;font-family:'Geist Mono', 'Geist Mono_MSFontService', sans-serif" /><path
       d="m 2047.5902,3280.024 q -4.928,0 -8.576,-2.88 -3.584,-2.88 -5.504,-8.192 -1.92,-5.312 -1.92,-12.608 0,-7.36 1.92,-12.672 1.92,-5.312 5.504,-8.192 3.648,-2.944 8.576,-2.944 4.992,0 8.576,2.944 3.584,2.88 5.504,8.192 1.92,5.312 1.92,12.672 0,7.296 -1.92,12.608 -1.92,5.312 -5.504,8.192 -3.584,2.88 -8.576,2.88 z m -10.24,-23.68 q 0,6.4 1.6,10.88 l 14.592,-26.56 q -2.496,-2.752 -5.952,-2.752 -4.736,0 -7.488,4.992 -2.752,4.928 -2.752,13.44 z m 10.24,18.304 q 4.736,0 7.488,-4.928 2.752,-4.992 2.752,-13.376 0,-6.464 -1.6,-10.944 l -14.592,26.496 q 2.496,2.752 5.952,2.752 z"
       id="path504"
       style="font-size:64px;font-family:'Geist Mono', 'Geist Mono_MSFontService', sans-serif" /><path
       d="m 2124.3902,3280.024 q -7.168,0 -11.264,-4.544 -4.096,-4.544 -4.096,-12.352 v -29.568 h 5.504 v 29.568 q 0,5.632 2.496,8.576 2.56,2.944 7.36,2.944 4.8,0 7.296,-2.944 2.56,-2.944 2.56,-8.576 v -29.568 h 5.504 v 29.568 q 0,7.808 -4.096,12.352 -4.096,4.544 -11.264,4.544 z"
       id="path506"
       style="font-size:64px;font-family:'Geist Mono', 'Geist Mono_MSFontService', sans-serif" /><path
       d="m 2163.4943,3280.024 q -4.8,0 -8.512,-1.984 -3.712,-1.984 -5.952,-5.44 -2.24,-3.52 -2.624,-8.128 l 5.76,-0.384 q 0.704,5.056 3.648,7.808 3.008,2.752 7.808,2.752 4.736,0 7.232,-1.792 2.56,-1.856 2.56,-5.184 0,-2.176 -1.024,-3.712 -0.96,-1.6 -3.712,-2.944 -2.688,-1.408 -8,-2.88 -4.736,-1.344 -7.68,-2.944 -2.88,-1.664 -4.224,-3.968 -1.28,-2.368 -1.28,-5.76 0,-3.84 1.792,-6.72 1.856,-2.944 5.248,-4.544 3.392,-1.664 8.064,-1.664 4.672,0 8,1.92 3.328,1.856 5.248,5.12 1.984,3.264 2.496,7.424 l -5.76,0.384 q -0.576,-4.16 -3.072,-6.784 -2.432,-2.688 -7.04,-2.688 -4.224,0 -6.72,2.048 -2.496,1.984 -2.496,5.248 0,2.112 0.896,3.52 0.96,1.344 3.328,2.432 2.368,1.024 6.656,2.24 5.568,1.536 8.832,3.456 3.328,1.92 4.736,4.544 1.472,2.624 1.472,6.4 0,3.584 -1.984,6.4 -1.984,2.752 -5.504,4.288 -3.52,1.536 -8.192,1.536 z"
       id="path508"
       style="font-size:64px;font-family:'Geist Mono', 'Geist Mono_MSFontService', sans-serif" /><path
       d="m 2187.7503,3279 v -45.44 h 10.752 q 5.888,0 10.24,2.688 4.416,2.624 6.784,7.744 2.432,5.056 2.432,12.352 0,7.296 -2.432,12.352 -2.368,5.056 -6.784,7.68 -4.352,2.624 -10.24,2.624 z m 5.504,-5.376 h 4.928 q 6.656,0 10.304,-4.288 3.712,-4.352 3.712,-12.992 0,-8.64 -3.712,-12.992 -3.648,-4.416 -10.304,-4.416 h -4.928 z"
       id="path510"
       style="font-size:64px;font-family:'Geist Mono', 'Geist Mono_MSFontService', sans-serif" /><path
       d="m 2236.8383,3279 v -40.064 h -13.888 v -5.376 h 33.28 v 5.376 h -13.888 V 3279 Z"
       id="path512"
       style="font-size:64px;font-family:'Geist Mono', 'Geist Mono_MSFontService', sans-serif" /><path
       d="m 1704.96,2667 v -5.376 h 14.336 v -28.288 h -11.904 v -4.736 h 6.144 q 3.648,0 5.184,-1.6 1.6,-1.6 1.6,-5.44 h 4.48 v 40.064 h 10.88 V 2667 Z"
       id="path515"
       style="font-size:64px;font-family:'Geist Mono', 'Geist Mono_MSFontService', sans-serif" /><path
       d="m 1764.352,2667 v -9.856 h -22.272 v -4.992 l 21.888,-30.592 h 5.888 v 30.208 h 5.504 v 5.376 h -5.504 V 2667 Z m -16.64,-15.232 h 16.64 v -22.528 z"
       id="path517"
       style="font-size:64px;font-family:'Geist Mono', 'Geist Mono_MSFontService', sans-serif" /><path
       d="m 1795.008,2667.768 q -4.48,0 -7.744,-2.176 -3.264,-2.176 -5.056,-6.144 -1.728,-3.968 -1.728,-9.408 0,-5.44 1.728,-9.408 1.792,-3.968 5.056,-6.144 3.264,-2.176 7.744,-2.176 3.584,0 6.272,1.728 2.6881,1.664 3.904,3.776 v -16.256 h 5.376 V 2667 h -4.864 l -0.1919,-5.056 q -1.4721,2.752 -4.2241,4.288 -2.752,1.536 -6.272,1.536 z m 0.32,-5.12 q 4.608,0 7.232,-3.392 2.624,-3.392 2.624,-9.216 0,-5.888 -2.624,-9.216 -2.624,-3.392 -7.36,-3.392 -4.16,0 -6.656,3.392 -2.432,3.328 -2.432,9.216 0,5.824 2.432,9.216 2.496,3.392 6.784,3.392 z"
       id="path519"
       style="font-size:64px;font-family:'Geist Mono', 'Geist Mono_MSFontService', sans-serif" /><path
       d="m 1861.6321,2674.04 19.456,-55.04 h 5.12 l -19.456,55.04 z"
       id="path521"
       style="font-size:64px;font-family:'Geist Mono', 'Geist Mono_MSFontService', sans-serif" /><path
       d="m 1935.3602,2667 v -5.376 h 14.336 v -28.288 h -11.904 v -4.736 h 6.144 q 3.648,0 5.184,-1.6 1.5999,-1.6 1.5999,-5.44 h 4.48 v 40.064 h 10.88 V 2667 Z"
       id="path523"
       style="font-size:64px;font-family:'Geist Mono', 'Geist Mono_MSFontService', sans-serif" /><path
       d="m 1989.1202,2668.024 q -4.928,0 -8.576,-2.88 -3.584,-2.88 -5.504,-8.192 -1.92,-5.312 -1.92,-12.608 0,-7.36 1.92,-12.672 1.92,-5.312 5.504,-8.192 3.648,-2.944 8.576,-2.944 4.992,0 8.576,2.944 3.584,2.88 5.504,8.192 1.92,5.312 1.92,12.672 0,7.296 -1.92,12.608 -1.92,5.312 -5.504,8.192 -3.584,2.88 -8.576,2.88 z m -10.24,-23.68 q 0,6.4 1.6,10.88 l 14.592,-26.56 q -2.496,-2.752 -5.952,-2.752 -4.736,0 -7.488,4.992 -2.752,4.928 -2.752,13.44 z m 10.24,18.304 q 4.736,0 7.488,-4.928 2.752,-4.992 2.752,-13.376 0,-6.464 -1.6,-10.944 l -14.592,26.496 q 2.496,2.752 5.952,2.752 z"
       id="path525"
       style="font-size:64px;font-family:'Geist Mono', 'Geist Mono_MSFontService', sans-serif" /><path
       d="m 2027.5202,2668.024 q -4.928,0 -8.576,-2.88 -3.584,-2.88 -5.504,-8.192 -1.92,-5.312 -1.92,-12.608 0,-7.36 1.92,-12.672 1.92,-5.312 5.504,-8.192 3.648,-2.944 8.576,-2.944 4.992,0 8.576,2.944 3.584,2.88 5.504,8.192 1.92,5.312 1.92,12.672 0,7.296 -1.92,12.608 -1.92,5.312 -5.504,8.192 -3.584,2.88 -8.576,2.88 z m -10.24,-23.68 q 0,6.4 1.6,10.88 l 14.592,-26.56 q -2.496,-2.752 -5.952,-2.752 -4.736,0 -7.488,4.992 -2.752,4.928 -2.752,13.44 z m 10.24,18.304 q 4.736,0 7.488,-4.928 2.752,-4.992 2.752,-13.376 0,-6.464 -1.6,-10.944 l -14.592,26.496 q 2.496,2.752 5.952,2.752 z"
       id="path527"
       style="font-size:64px;font-family:'Geist Mono', 'Geist Mono_MSFontService', sans-serif" /><path
       d="m 2090.8802,2667 v -45.44 h 27.648 v 5.376 h -22.144 v 14.656 h 21.376 v 5.248 h -21.376 v 14.784 h 22.656 V 2667 Z"
       id="path529"
       style="font-size:64px;font-family:'Geist Mono', 'Geist Mono_MSFontService', sans-serif" /><path
       d="m 2139.9683,2667 v -40.064 h -13.888 v -5.376 h 33.28 v 5.376 h -13.888 V 2667 Z"
       id="path531"
       style="font-size:64px;font-family:'Geist Mono', 'Geist Mono_MSFontService', sans-serif" /><path
       d="m 2165.7603,2667 v -45.44 h 5.504 v 19.904 h 19.712 v -19.904 h 5.504 V 2667 h -5.504 v -20.16 h -19.712 V 2667 Z"
       id="path533"
       style="font-size:64px;font-family:'Geist Mono', 'Geist Mono_MSFontService', sans-serif" /><path
       d="m 3673,2288 c 0,-28.72 23.28,-52 52,-52 h 494 c 28.72,0 52,23.28 52,52 v 208 c 0,28.72 -23.28,52 -52,52 h -494 c -28.72,0 -52,-23.28 -52,-52 z"
       fill="#f2f2f2"
       fill-rule="evenodd"
       id="path57" /><path
       d="m 3842.109,2416.876 q -4.015,0 -7.154,-1.752 -3.139,-1.752 -4.818,-4.891 l -0.219,5.767 h -5.548 v -51.83 h 6.132 v 18.542 q 1.387,-2.409 4.453,-4.307 3.066,-1.971 7.154,-1.971 5.11,0 8.833,2.482 3.723,2.482 5.694,7.008 2.044,4.526 2.044,10.731 0,6.205 -2.044,10.731 -1.971,4.526 -5.694,7.008 -3.723,2.482 -8.833,2.482 z m -0.365,-5.84 q 4.891,0 7.665,-3.869 2.847,-3.869 2.847,-10.512 0,-6.716 -2.847,-10.512 -2.774,-3.869 -7.519,-3.869 -5.329,0 -8.395,3.869 -2.993,3.796 -2.993,10.512 0,6.643 2.993,10.512 2.993,3.869 8.249,3.869 z"
       id="path536"
       style="font-size:73px;font-family:'Geist Mono', 'Geist Mono_MSFontService', sans-serif" /><path
       d="m 3883.5,2416.876 q -5.329,0 -9.344,-2.482 -3.942,-2.482 -6.132,-7.008 -2.19,-4.599 -2.19,-10.731 0,-6.205 2.19,-10.731 2.19,-4.526 6.132,-7.008 4.015,-2.482 9.344,-2.482 5.329,0 9.271,2.482 4.015,2.482 6.205,7.008 2.19,4.526 2.19,10.731 0,6.132 -2.19,10.731 -2.19,4.526 -6.205,7.008 -3.942,2.482 -9.271,2.482 z m 0,-5.84 q 5.329,0 8.249,-3.796 2.993,-3.869 2.993,-10.585 0,-6.716 -2.993,-10.512 -2.92,-3.869 -8.249,-3.869 -5.329,0 -8.322,3.869 -2.92,3.796 -2.92,10.512 0,6.716 2.92,10.585 2.993,3.796 8.322,3.796 z"
       id="path538"
       style="font-size:73px;font-family:'Geist Mono', 'Geist Mono_MSFontService', sans-serif" /><path
       d="m 3929.7091,2416.876 q -4.015,0 -7.154,-1.752 -3.139,-1.752 -4.818,-4.891 l -0.219,5.767 h -5.548 v -51.83 h 6.132 v 18.542 q 1.387,-2.409 4.453,-4.307 3.066,-1.971 7.154,-1.971 5.11,0 8.833,2.482 3.723,2.482 5.694,7.008 2.044,4.526 2.044,10.731 0,6.205 -2.044,10.731 -1.971,4.526 -5.694,7.008 -3.723,2.482 -8.833,2.482 z m -0.365,-5.84 q 4.891,0 7.665,-3.869 2.847,-3.869 2.847,-10.512 0,-6.716 -2.847,-10.512 -2.774,-3.869 -7.519,-3.869 -5.329,0 -8.395,3.869 -2.993,3.796 -2.993,10.512 0,6.643 2.993,10.512 2.993,3.869 8.249,3.869 z"
       id="path540"
       style="font-size:73px;font-family:'Geist Mono', 'Geist Mono_MSFontService', sans-serif" /><path
       d="m 3966.5741,2416 v -8.906 h 9.052 V 2416 Z"
       id="path542"
       style="font-size:73px;font-family:'Geist Mono', 'Geist Mono_MSFontService', sans-serif" /><path
       d="m 4015.3381,2416.876 q -5.475,0 -9.49,-2.482 -3.942,-2.482 -6.132,-7.008 -2.117,-4.599 -2.117,-10.731 0,-6.132 2.117,-10.658 2.19,-4.526 6.059,-7.008 3.942,-2.555 9.271,-2.555 5.037,0 8.906,2.409 3.869,2.336 6.059,6.862 2.19,4.526 2.19,11.023 v 1.825 h -28.178 q 0.365,6.205 3.285,9.344 2.993,3.139 8.03,3.139 3.796,0 6.205,-1.752 2.482,-1.825 3.431,-4.745 l 6.57,0.511 q -1.533,5.183 -5.84,8.541 -4.234,3.285 -10.366,3.285 z m -11.315,-23.725 h 21.462 q -0.438,-5.621 -3.285,-8.249 -2.847,-2.628 -7.154,-2.628 -4.453,0 -7.373,2.774 -2.847,2.701 -3.65,8.103 z"
       id="path544"
       style="font-size:73px;font-family:'Geist Mono', 'Geist Mono_MSFontService', sans-serif" /><path
       d="m 4064.3941,2416 q -11.169,0 -11.169,-10.658 v -22.63 h -12.775 v -5.402 h 12.775 v -9.052 h 6.132 v 9.052 h 15.403 v 5.402 h -15.403 v 22.63 q 0,5.256 5.037,5.256 h 10.366 V 2416 Z"
       id="path546"
       style="font-size:73px;font-family:'Geist Mono', 'Geist Mono_MSFontService', sans-serif" /><path
       d="m 4087.9002,2416 v -51.83 h 6.132 v 19.199 q 1.533,-3.577 4.599,-5.256 3.066,-1.679 7.008,-1.679 6.278,0 9.563,4.088 3.358,4.088 3.358,10.585 V 2416 h -6.132 v -23.141 q 0,-11.023 -8.103,-11.023 -4.672,0 -7.519,2.847 -2.774,2.847 -2.774,8.249 V 2416 Z"
       id="path548"
       style="font-size:73px;font-family:'Geist Mono', 'Geist Mono_MSFontService', sans-serif" /><path
       d="m 3148.9,2360 v -5.376 h 14.336 v -28.288 h -11.904 v -4.736 h 6.144 q 3.648,0 5.184,-1.6 1.6,-1.6 1.6,-5.44 h 4.48 v 40.064 h 10.88 V 2360 Z"
       id="path551"
       style="font-size:64px;font-family:'Geist Mono', 'Geist Mono_MSFontService', sans-serif" /><path
       d="m 3198.692,2360 v -7.808 h 7.936 V 2360 Z"
       id="path553"
       style="font-size:64px;font-family:'Geist Mono', 'Geist Mono_MSFontService', sans-serif" /><path
       d="m 3267.1721,2367.04 19.456,-55.04 h 5.12 l -19.456,55.04 z"
       id="path555"
       style="font-size:64px;font-family:'Geist Mono', 'Geist Mono_MSFontService', sans-serif" /><path
       d="m 3340.2601,2360 q 0,-4.8 1.472,-8.64 1.536,-3.904 5.312,-7.424 3.84,-3.52 10.624,-7.104 3.136,-1.664 5.056,-3.072 1.92,-1.408 2.816,-3.008 0.896,-1.6 0.896,-3.904 0,-3.52 -2.304,-5.696 -2.24,-2.24 -6.784,-2.24 -4.8,0 -7.616,2.496 -2.752,2.496 -3.456,7.104 l -5.76,-0.384 q 0.768,-6.656 5.12,-10.624 4.352,-3.968 11.712,-3.968 7.04,0 10.944,3.648 3.904,3.648 3.904,9.536 0,3.456 -1.152,6.016 -1.152,2.496 -3.904,4.672 -2.688,2.176 -7.424,4.672 -6.144,3.264 -9.344,6.592 -3.136,3.328 -3.328,5.952 h 25.216 V 2360 Z"
       id="path557"
       style="font-size:64px;font-family:'Geist Mono', 'Geist Mono_MSFontService', sans-serif" /><path
       d="m 3394.6602,2361.024 q -4.9281,0 -8.576,-2.88 -3.5841,-2.88 -5.5041,-8.192 -1.9199,-5.312 -1.9199,-12.608 0,-7.36 1.9199,-12.672 1.92,-5.312 5.5041,-8.192 3.6479,-2.944 8.576,-2.944 4.9919,0 8.5759,2.944 3.5841,2.88 5.5041,8.192 1.92,5.312 1.92,12.672 0,7.296 -1.92,12.608 -1.92,5.312 -5.5041,8.192 -3.584,2.88 -8.5759,2.88 z m -10.24,-23.68 q 0,6.4 1.5999,10.88 l 14.5921,-26.56 q -2.4961,-2.752 -5.952,-2.752 -4.7361,0 -7.4881,4.992 -2.7519,4.928 -2.7519,13.44 z m 10.24,18.304 q 4.736,0 7.488,-4.928 2.752,-4.992 2.752,-13.376 0,-6.464 -1.6,-10.944 l -14.592,26.496 q 2.496,2.752 5.952,2.752 z"
       id="path559"
       style="font-size:64px;font-family:'Geist Mono', 'Geist Mono_MSFontService', sans-serif" /><path
       d="m 3433.0602,2361.024 q -4.928,0 -8.576,-2.88 -3.584,-2.88 -5.504,-8.192 -1.92,-5.312 -1.92,-12.608 0,-7.36 1.92,-12.672 1.92,-5.312 5.504,-8.192 3.648,-2.944 8.576,-2.944 4.992,0 8.576,2.944 3.584,2.88 5.504,8.192 1.92,5.312 1.92,12.672 0,7.296 -1.92,12.608 -1.92,5.312 -5.504,8.192 -3.584,2.88 -8.576,2.88 z m -10.24,-23.68 q 0,6.4 1.6,10.88 l 14.592,-26.56 q -2.496,-2.752 -5.952,-2.752 -4.736,0 -7.488,4.992 -2.752,4.928 -2.752,13.44 z m 10.24,18.304 q 4.736,0 7.488,-4.928 2.752,-4.992 2.752,-13.376 0,-6.464 -1.6,-10.944 l -14.592,26.496 q 2.496,2.752 5.952,2.752 z"
       id="path561"
       style="font-size:64px;font-family:'Geist Mono', 'Geist Mono_MSFontService', sans-serif" /><path
       d="m 3496.4202,2360 v -45.44 h 27.648 v 5.376 h -22.144 v 14.656 h 21.376 v 5.248 h -21.376 v 14.784 h 22.656 V 2360 Z"
       id="path563"
       style="font-size:64px;font-family:'Geist Mono', 'Geist Mono_MSFontService', sans-serif" /><path
       d="m 3548.2602,2361.024 q -7.168,0 -11.264,-4.544 -4.096,-4.544 -4.096,-12.352 v -29.568 h 5.504 v 29.568 q 0,5.632 2.496,8.576 2.56,2.944 7.36,2.944 4.8,0 7.296,-2.944 2.56,-2.944 2.56,-8.576 v -29.568 h 5.504 v 29.568 q 0,7.808 -4.096,12.352 -4.096,4.544 -11.264,4.544 z"
       id="path565"
       style="font-size:64px;font-family:'Geist Mono', 'Geist Mono_MSFontService', sans-serif" /><path
       d="m 3571.9403,2360 v -45.44 h 13.824 q 7.168,0 11.328,3.648 4.16,3.584 4.16,9.92 0,4.032 -2.368,6.912 -2.304,2.816 -5.312,3.776 3.264,0.64 4.928,2.56 1.664,1.92 1.984,5.568 l 1.152,13.056 h -5.504 l -1.088,-12.352 q -0.256,-3.2 -1.984,-4.544 -1.728,-1.408 -6.144,-1.408 h -9.472 V 2360 Z m 5.504,-23.68 h 8.32 q 4.736,0 7.232,-2.112 2.496,-2.176 2.496,-6.08 0,-3.968 -2.496,-6.08 -2.496,-2.112 -7.232,-2.112 h -8.32 z"
       id="path567"
       style="font-size:64px;font-family:'Geist Mono', 'Geist Mono_MSFontService', sans-serif" /><path
       d="m 0,-3.4375 h 27.5 v 6.875 H 0 Z m 48.125,0 h 27.5 v 6.875 h -27.5 z m 48.125,0 h 26.484 v 7.89053 h -6.875 V 0 l 3.438,3.4375 H 96.25 Z m 26.484,28.5155 v 27.5 h -6.875 v -27.5 z m 0,48.125 v 27.5 h -6.875 v -27.5 z m 0,48.125 v 27.5 h -6.875 v -27.5 z m 0,48.125 v 27.5 h -6.875 v -27.5 z m 0,48.125 v 27.5 h -6.875 v -27.5 z m 0,48.125 v 27.5 h -6.875 v -27.5 z m 0,48.125 v 2.138 l -3.437,-3.438 h 25.362 v 6.875 h -28.8 v -5.575 z m 42.55,-1.3 h 27.5 v 6.875 h -27.5 z m 48.125,0 h 27.5 v 6.875 h -27.5 z m 48.125,0 h 27.5 v 6.875 h -27.5 z m 48.125,0 h 27.5 v 6.875 h -27.5 z m 48.125,0 h 27.5 v 6.875 h -27.5 z m 48.125,0 h 27.5 v 6.875 h -27.5 z m 48.125,0 h 27.5 v 6.875 h -27.5 z m 48.125,0 h 27.5 v 6.875 h -27.5 z m 48.125,0 h 27.5 v 6.875 h -27.5 z m 48.125,0 h 27.5 v 6.875 h -27.5 z m 48.125,0 h 27.5 v 6.875 h -27.5 z m -2.818,-22.484 46.658,25.922 -46.658,25.922 c -1.66,0.922 -3.753,0.324 -4.675,-1.336 -0.922,-1.66 -0.324,-3.752 1.336,-4.674 l 41.25,-22.917 v 6.01 l -41.25,-22.917 c -1.66,-0.922 -2.258,-3.015 -1.336,-4.674 0.922,-1.66 3.015,-2.258 4.675,-1.336 z"
       fill="#aeaeae"
       transform="matrix(1,0,0,-1,2983.5,2708.47)"
       id="path63" /><path
       d="m 4270,2792 c 0,-28.72 23.28,-52 52,-52 h 493 c 28.72,0 52,23.28 52,52 v 208 c 0,28.72 -23.28,52 -52,52 h -493 c -28.72,0 -52,-23.28 -52,-52 z"
       fill="#f2f2f2"
       fill-rule="evenodd"
       id="path65" /><path
       d="m 4391.71,2921.168 q -5.621,0 -9.782,-3.285 -4.088,-3.285 -6.278,-9.344 -2.19,-6.059 -2.19,-14.381 0,-8.395 2.19,-14.454 2.19,-6.059 6.278,-9.344 4.161,-3.358 9.782,-3.358 5.694,0 9.782,3.358 4.088,3.285 6.278,9.344 2.19,6.059 2.19,14.454 0,8.322 -2.19,14.381 -2.19,6.059 -6.278,9.344 -4.088,3.285 -9.782,3.285 z m -11.68,-27.01 q 0,7.3 1.825,12.41 l 16.644,-30.295 q -2.847,-3.139 -6.789,-3.139 -5.402,0 -8.541,5.694 -3.139,5.621 -3.139,15.33 z m 11.68,20.878 q 5.402,0 8.541,-5.621 3.139,-5.694 3.139,-15.257 0,-7.373 -1.825,-12.483 l -16.644,30.222 q 2.847,3.139 6.789,3.139 z"
       id="path570"
       style="font-size:73px;font-family:'Geist Mono', 'Geist Mono_MSFontService', sans-serif" /><path
       d="m 4417.552,2920 14.235,-19.856 -13.505,-18.834 h 7.154 l 10.147,14.6 9.928,-14.6 h 7.3 l -13.432,18.98 14.089,19.71 h -7.154 l -10.731,-15.622 -10.731,15.622 z"
       id="path572"
       style="font-size:73px;font-family:'Geist Mono', 'Geist Mono_MSFontService', sans-serif" /><path
       d="m 4479.164,2921.168 q -5.037,0 -8.8329,-1.825 -3.723,-1.825 -5.986,-5.11 -2.19,-3.285 -2.555,-7.592 l 6.57,-0.438 q 0.584,4.38 3.431,6.643 2.92,2.19 7.3729,2.19 5.0371,0 8.03,-3.066 3.0661,-3.139 3.0661,-8.614 0,-5.475 -2.92,-8.614 -2.8471,-3.212 -8.0301,-3.212 -3.066,0 -5.9129,1.533 -2.7741,1.46 -4.015,4.234 h -6.716 l 3.431,-29.127 h 27.594 v 6.132 h -21.8271 l -1.898,15.622 q 1.898,-2.19 4.6721,-3.285 2.774,-1.095 5.5479,-1.095 4.964,0 8.687,2.336 3.7961,2.263 5.84,6.278 2.1171,4.015 2.1171,9.198 0,5.183 -2.263,9.271 -2.263,4.015 -6.2781,6.278 -3.942,2.263 -9.125,2.263 z"
       id="path574"
       style="font-size:73px;font-family:'Geist Mono', 'Geist Mono_MSFontService', sans-serif" /><path
       d="m 4523.2561,2921.168 q -8.76,0 -13.578,-5.986 -4.818,-5.986 -4.818,-17.082 0,-6.424 1.022,-12.045 1.095,-5.621 3.431,-9.855 2.409,-4.307 6.278,-6.716 3.942,-2.482 9.709,-2.482 6.935,0 10.731,3.431 3.796,3.358 5.329,8.833 l -6.57,0.584 q -0.876,-3.066 -3.066,-4.891 -2.117,-1.825 -6.424,-1.825 -5.84,0 -9.417,4.526 -3.577,4.526 -4.38,13.578 l -0.073,0.511 q 1.898,-2.847 5.183,-4.745 3.358,-1.898 7.811,-1.898 5.11,0 8.906,2.19 3.796,2.19 5.913,6.205 2.117,3.942 2.117,9.271 0,5.694 -2.336,9.855 -2.263,4.088 -6.351,6.351 -4.015,2.19 -9.417,2.19 z m 0.146,-6.132 q 5.11,0 8.249,-3.212 3.139,-3.285 3.139,-9.052 0,-5.402 -2.993,-8.541 -2.92,-3.139 -7.811,-3.139 -3.504,0 -6.278,1.46 -2.774,1.387 -4.38,4.015 -1.606,2.628 -1.606,6.205 0,5.329 3.139,8.833 3.212,3.431 8.541,3.431 z"
       id="path576"
       style="font-size:73px;font-family:'Geist Mono', 'Geist Mono_MSFontService', sans-serif" /><path
       d="m 4551.5801,2920 v -51.83 h 31.536 v 6.132 h -25.258 v 16.717 h 24.382 v 5.986 h -24.382 v 16.863 h 25.842 V 2920 Z"
       id="path578"
       style="font-size:73px;font-family:'Geist Mono', 'Geist Mono_MSFontService', sans-serif" /><path
       d="m 4592.4601,2920 v -8.906 h 9.052 V 2920 Z m 13.651,0 v -8.906 h 9.052 V 2920 Z m 13.797,0 v -8.906 h 9.052 V 2920 Z"
       id="path580"
       style="font-size:73px;font-family:'Geist Mono', 'Geist Mono_MSFontService', sans-serif" /><path
       d="m 4636.9902,2920 v -6.132 h 16.352 v -32.266 h -13.578 v -5.402 h 7.008 q 4.161,0 5.913,-1.825 1.825,-1.825 1.825,-6.205 h 5.11 v 45.698 h 12.41 V 2920 Z"
       id="path582"
       style="font-size:73px;font-family:'Geist Mono', 'Geist Mono_MSFontService', sans-serif" /><path
       d="m 4680.7902,2920 v -6.132 h 16.352 v -32.266 h -13.578 v -5.402 h 7.008 q 4.161,0 5.913,-1.825 1.825,-1.825 1.825,-6.205 h 5.11 v 45.698 h 12.41 V 2920 Z"
       id="path584"
       style="font-size:73px;font-family:'Geist Mono', 'Geist Mono_MSFontService', sans-serif" /><path
       d="m 4734.2262,2920 q 0,-8.03 2.19,-15.987 2.263,-8.03 6.424,-15.549 4.161,-7.519 9.928,-14.162 h -28.178 v -6.132 h 35.04 v 5.694 q -6.497,7.446 -10.658,14.746 -4.161,7.227 -6.132,14.965 -1.898,7.665 -1.898,16.425 z"
       id="path586"
       style="font-size:73px;font-family:'Geist Mono', 'Geist Mono_MSFontService', sans-serif" /><path
       d="m 4622,3323 c 0,-28.72 23.28,-52 52,-52 h 494 c 28.72,0 52,23.28 52,52 v 208 c 0,28.72 -23.28,52 -52,52 h -494 c -28.72,0 -52,-23.28 -52,-52 z"
       fill="#f2f2f2"
       fill-rule="evenodd"
       id="path69" /><path
       d="m 4744.5,3452.168 q -5.621,0 -9.782,-3.285 -4.088,-3.285 -6.278,-9.344 -2.19,-6.059 -2.19,-14.381 0,-8.395 2.19,-14.454 2.19,-6.059 6.278,-9.344 4.161,-3.358 9.782,-3.358 5.694,0 9.782,3.358 4.088,3.285 6.278,9.344 2.19,6.059 2.19,14.454 0,8.322 -2.19,14.381 -2.19,6.059 -6.278,9.344 -4.088,3.285 -9.782,3.285 z m -11.68,-27.01 q 0,7.3 1.825,12.41 l 16.644,-30.295 q -2.847,-3.139 -6.789,-3.139 -5.402,0 -8.541,5.694 -3.139,5.621 -3.139,15.33 z m 11.68,20.878 q 5.402,0 8.541,-5.621 3.139,-5.694 3.139,-15.257 0,-7.373 -1.825,-12.483 l -16.644,30.222 q 2.847,3.139 6.789,3.139 z"
       id="path589"
       style="font-size:73px;font-family:'Geist Mono', 'Geist Mono_MSFontService', sans-serif" /><path
       d="m 4770.342,3451 14.235,-19.856 -13.505,-18.834 h 7.154 l 10.147,14.6 9.928,-14.6 h 7.3 l -13.432,18.98 14.089,19.71 h -7.154 l -10.731,-15.622 -10.731,15.622 z"
       id="path591"
       style="font-size:73px;font-family:'Geist Mono', 'Geist Mono_MSFontService', sans-serif" /><path
       d="m 4829.6911,3451.876 q -5.11,0 -8.833,-2.482 -3.723,-2.482 -5.767,-7.008 -1.971,-4.526 -1.971,-10.731 0,-6.205 1.971,-10.731 2.044,-4.526 5.767,-7.008 3.723,-2.482 8.833,-2.482 4.0879,0 7.1539,1.971 3.0661,1.898 4.453,4.307 v -18.542 h 6.132 V 3451 h -5.548 l -0.219,-5.767 q -1.679,3.139 -4.8179,4.891 -3.139,1.752 -7.154,1.752 z m 0.3649,-5.84 q 5.2561,0 8.249,-3.869 2.993,-3.869 2.993,-10.512 0,-6.716 -2.993,-10.512 -2.9929,-3.869 -8.3949,-3.869 -4.745,0 -7.592,3.869 -2.774,3.796 -2.774,10.512 0,6.643 2.774,10.512 2.847,3.869 7.7379,3.869 z"
       id="path593"
       style="font-size:73px;font-family:'Geist Mono', 'Geist Mono_MSFontService', sans-serif" /><path
       d="m 4857.6501,3451 q 0,-5.475 1.679,-9.855 1.752,-4.453 6.059,-8.468 4.38,-4.015 12.118,-8.103 3.577,-1.898 5.767,-3.504 2.19,-1.606 3.212,-3.431 1.022,-1.825 1.022,-4.453 0,-4.015 -2.628,-6.497 -2.555,-2.555 -7.738,-2.555 -5.475,0 -8.687,2.847 -3.139,2.847 -3.942,8.103 l -6.57,-0.438 q 0.876,-7.592 5.84,-12.118 4.964,-4.526 13.359,-4.526 8.03,0 12.483,4.161 4.453,4.161 4.453,10.877 0,3.942 -1.314,6.862 -1.314,2.847 -4.453,5.329 -3.066,2.482 -8.468,5.329 -7.008,3.723 -10.658,7.519 -3.577,3.796 -3.796,6.789 h 28.762 V 3451 Z"
       id="path595"
       style="font-size:73px;font-family:'Geist Mono', 'Geist Mono_MSFontService', sans-serif" /><path
       d="m 4919.2621,3452.168 q -8.395,0 -12.921,-4.015 -4.526,-4.088 -4.891,-10.512 l 6.497,-0.438 q 0.438,4.745 3.504,6.789 3.139,2.044 7.811,2.044 3.139,0 5.913,-0.876 2.774,-0.949 4.453,-2.993 1.752,-2.117 1.752,-5.621 0,-5.183 -3.358,-7.592 -3.358,-2.409 -8.395,-2.409 h -4.088 v -6.132 h 4.088 q 2.701,0 4.964,-0.803 2.263,-0.803 3.577,-2.555 1.387,-1.825 1.387,-4.745 0,-4.015 -2.555,-6.059 -2.555,-2.117 -7.373,-2.117 -4.891,0 -7.446,1.971 -2.482,1.971 -2.993,5.402 l -6.57,-0.438 q 0.73,-5.84 5.11,-9.417 4.38,-3.65 11.899,-3.65 7.592,0 12.045,3.796 4.453,3.723 4.453,10.22 0,8.322 -8.979,11.096 5.037,1.387 7.884,4.964 2.92,3.504 2.92,8.468 0,4.964 -2.409,8.468 -2.409,3.504 -6.643,5.329 -4.234,1.825 -9.636,1.825 z"
       id="path597"
       style="font-size:73px;font-family:'Geist Mono', 'Geist Mono_MSFontService', sans-serif" /><path
       d="m 4945.2501,3451 v -8.906 h 9.052 V 3451 Z m 13.651,0 v -8.906 h 9.052 V 3451 Z m 13.797,0 v -8.906 h 9.052 V 3451 Z"
       id="path599"
       style="font-size:73px;font-family:'Geist Mono', 'Geist Mono_MSFontService', sans-serif" /><path
       d="m 5007.1542,3452.168 q -5.037,0 -8.833,-1.825 -3.723,-1.825 -5.986,-5.11 -2.19,-3.285 -2.555,-7.592 l 6.57,-0.438 q 0.584,4.38 3.431,6.643 2.92,2.19 7.373,2.19 5.037,0 8.03,-3.066 3.066,-3.139 3.066,-8.614 0,-5.475 -2.92,-8.614 -2.847,-3.212 -8.03,-3.212 -3.066,0 -5.913,1.533 -2.774,1.46 -4.015,4.234 h -6.716 l 3.431,-29.127 h 27.594 v 6.132 h -21.827 l -1.898,15.622 q 1.898,-2.19 4.672,-3.285 2.774,-1.095 5.548,-1.095 4.964,0 8.687,2.336 3.796,2.263 5.84,6.278 2.117,4.015 2.117,9.198 0,5.183 -2.263,9.271 -2.263,4.015 -6.278,6.278 -3.942,2.263 -9.125,2.263 z"
       id="path601"
       style="font-size:73px;font-family:'Geist Mono', 'Geist Mono_MSFontService', sans-serif" /><path
       d="m 5035.7702,3451 v -51.83 h 12.264 q 6.716,0 11.68,3.066 5.037,2.993 7.738,8.833 2.774,5.767 2.774,14.089 0,8.322 -2.774,14.089 -2.701,5.767 -7.738,8.76 -4.964,2.993 -11.68,2.993 z m 6.278,-6.132 h 5.621 q 7.592,0 11.753,-4.891 4.234,-4.964 4.234,-14.819 0,-9.855 -4.234,-14.819 -4.161,-5.037 -11.753,-5.037 h -5.621 z"
       id="path603"
       style="font-size:73px;font-family:'Geist Mono', 'Geist Mono_MSFontService', sans-serif" /><path
       d="m 5076.6502,3451 q 0,-5.475 1.679,-9.855 1.752,-4.453 6.059,-8.468 4.38,-4.015 12.118,-8.103 3.577,-1.898 5.767,-3.504 2.19,-1.606 3.212,-3.431 1.022,-1.825 1.022,-4.453 0,-4.015 -2.628,-6.497 -2.555,-2.555 -7.738,-2.555 -5.475,0 -8.687,2.847 -3.139,2.847 -3.942,8.103 l -6.57,-0.438 q 0.876,-7.592 5.84,-12.118 4.964,-4.526 13.359,-4.526 8.03,0 12.483,4.161 4.453,4.161 4.453,10.877 0,3.942 -1.314,6.862 -1.314,2.847 -4.453,5.329 -3.066,2.482 -8.468,5.329 -7.008,3.723 -10.658,7.519 -3.577,3.796 -3.796,6.789 h 28.762 V 3451 Z"
       id="path605"
       style="font-size:73px;font-family:'Geist Mono', 'Geist Mono_MSFontService', sans-serif" /><path
       d="m 2983.5,2705.06 h 27.5 v 6.88 h -27.5 z m 48.12,0 h 27.5 v 6.88 h -27.5 z m 48.13,0 h 27.5 v 6.88 h -27.5 z m 48.13,0 h 27.5 v 6.88 h -27.5 z m 48.12,0 h 27.5 v 6.88 H 3176 Z m 48.12,0 h 27.5 v 6.88 h -27.5 z m 48.13,0 h 27.5 v 6.88 h -27.5 z m 48.13,0 h 27.5 v 6.88 h -27.5 z m 48.12,0 h 27.5 v 6.88 h -27.5 z m 45.62,9.38 v 27.5 h -6.87 v -27.5 z m 0,48.12 v 27.5 h -6.87 v -27.5 z m 0,48.13 v 27.5 h -6.87 v -27.5 z m 0,48.12 v 27.5 h -6.87 v -27.5 z m 7.18,34.08 h 27.5 v 6.87 h -27.5 z m 48.13,0 h 27.5 v 6.87 h -27.5 z m 48.12,0 h 27.5 v 6.87 h -27.5 z m 48.13,0 h 27.5 v 6.87 h -27.5 z m 48.12,0 h 27.5 v 6.87 h -27.5 z m 48.13,0 h 27.5 v 6.87 h -27.5 z m 48.12,0 h 27.5 v 6.87 h -27.5 z m 48.13,0 h 27.5 v 6.87 h -27.5 z m 48.12,0 h 27.5 v 6.87 h -27.5 z m 48.13,0 h 27.5 v 6.87 h -27.5 z m 48.12,0 h 27.5 v 6.87 h -27.5 z m 48.13,0 h 27.5 v 6.87 h -27.5 z m 48.12,0 h 27.5 v 6.87 h -27.5 z m 48.13,0 h 27.5 v 6.87 h -27.5 z m 48.12,0 h 27.5 v 6.87 h -27.5 z m 48.13,0 h 27.5 v 6.87 h -27.5 z m 48.12,0 h 27.5 v 6.87 h -27.5 z m 48.13,0 h 23.5 v 6.87 h -23.5 z m -16.08,-22.49 46.66,25.92 -46.66,25.93 c -1.66,0.92 -3.76,0.32 -4.68,-1.34 -0.92,-1.66 -0.32,-3.75 1.34,-4.67 l 41.25,-22.92 v 6.01 l -41.25,-22.92 c -1.66,-0.92 -2.26,-3.01 -1.34,-4.67 0.92,-1.66 3.02,-2.26 4.68,-1.34 z"
       fill="#aeaeae"
       id="path73" /><path
       d="m 2983.5,2705.06 h 27.5 v 6.88 h -27.5 z m 48.12,0 h 27.5 v 6.88 h -27.5 z m 48.13,0 h 27.5 v 6.88 h -27.5 z m 48.13,0 h 27.5 v 6.88 h -27.5 z m 48.12,0 h 27.5 v 6.88 H 3176 Z m 48.12,0 h 27.5 v 6.88 h -27.5 z m 48.13,0 h 27.5 v 6.88 h -27.5 z m 48.13,0 h 27.5 v 6.88 h -27.5 z m 48.12,0 h 27.5 v 6.88 h -27.5 z m 45.23,9.77 v 27.5 h -6.88 v -27.5 z m 0,48.13 v 27.5 h -6.88 v -27.5 z m 0,48.12 v 27.5 h -6.88 v -27.5 z m 0,48.13 v 27.5 h -6.88 v -27.5 z m 0,48.12 v 27.5 h -6.88 v -27.5 z m 0,48.13 v 27.5 h -6.88 v -27.5 z m 0,48.12 v 27.5 h -6.88 v -27.5 z m 0,48.13 v 27.5 h -6.88 v -27.5 z m 0,48.12 v 27.5 h -6.88 v -27.5 z m 0,48.13 v 27.5 h -6.88 v -27.5 z m 0,48.12 v 27.5 h -6.88 v -27.5 z m 0,48.13 v 27.5 h -6.88 v -27.5 z m 0,48.12 v 27.5 h -6.88 v -27.5 z m 0,48.13 v 27.5 h -6.88 v -27.5 z m 0,48.12 v 27.5 h -6.88 v -27.5 z m 5.61,35.64 h 27.5 v 6.87 h -27.5 z m 48.13,0 h 27.5 v 6.87 h -27.5 z m 48.12,0 h 27.5 v 6.87 h -27.5 z m 48.13,0 h 27.5 v 6.87 h -27.5 z m 48.12,0 h 27.5 v 6.87 h -27.5 z m 48.13,0 h 27.5 v 6.87 h -27.5 z m 48.12,0 h 27.5 v 6.87 h -27.5 z m 48.13,0 h 27.5 v 6.87 h -27.5 z m 48.12,0 h 27.5 v 6.87 h -27.5 z m 48.13,0 h 27.5 v 6.87 h -27.5 z m 48.12,0 h 27.5 v 6.87 h -27.5 z m 48.13,0 h 27.5 v 6.87 h -27.5 z m 48.12,0 h 27.5 v 6.87 h -27.5 z m 48.13,0 h 27.5 v 6.87 h -27.5 z m 48.12,0 h 27.5 v 6.87 h -27.5 z m 48.13,0 h 27.5 v 6.87 h -27.5 z m 48.12,0 h 27.5 v 6.87 h -27.5 z m 48.13,0 h 27.5 v 6.87 h -27.5 z m 48.12,0 h 27.5 v 6.87 h -27.5 z m 48.13,0 h 27.5 v 6.87 h -27.5 z m 48.12,0 h 27.5 v 6.87 h -27.5 z m 48.13,0 h 27.5 v 6.87 h -27.5 z m 48.12,0 h 27.5 v 6.87 h -27.5 z m 48.13,0 h 27.5 v 6.87 h -27.5 z m 48.12,0 h 27.5 v 6.87 h -27.5 z m 1.79,-22.48 46.66,25.92 -46.66,25.92 c -1.66,0.92 -3.75,0.32 -4.67,-1.34 -0.92,-1.66 -0.33,-3.75 1.33,-4.67 l 41.25,-22.92 v 6.01 l -41.25,-22.91 c -1.66,-0.93 -2.25,-3.02 -1.33,-4.68 0.92,-1.66 3.01,-2.26 4.67,-1.33 z"
       fill="#aeaeae"
       id="path75" /><path
       d="m 3490.33,2854 q 0,-4.8 1.472,-8.64 1.536,-3.904 5.312,-7.424 3.84,-3.52 10.624,-7.104 3.136,-1.664 5.056,-3.072 1.92,-1.408 2.816,-3.008 0.896,-1.6 0.896,-3.904 0,-3.52 -2.304,-5.696 -2.24,-2.24 -6.784,-2.24 -4.8,0 -7.616,2.496 -2.752,2.496 -3.456,7.104 l -5.76,-0.384 q 0.768,-6.656 5.12,-10.624 4.352,-3.968 11.712,-3.968 7.04,0 10.944,3.648 3.904,3.648 3.904,9.536 0,3.456 -1.152,6.016 -1.152,2.496 -3.904,4.672 -2.688,2.176 -7.424,4.672 -6.144,3.264 -9.344,6.592 -3.136,3.328 -3.328,5.952 h 25.216 V 2854 Z"
       id="path608"
       style="font-size:64px;font-family:'Geist Mono', 'Geist Mono_MSFontService', sans-serif" /><path
       d="m 3540.762,2854 v -7.808 h 7.936 V 2854 Z"
       id="path610"
       style="font-size:64px;font-family:'Geist Mono', 'Geist Mono_MSFontService', sans-serif" /><path
       d="m 3609.2421,2861.04 19.456,-55.04 h 5.12 l -19.456,55.04 z"
       id="path612"
       style="font-size:64px;font-family:'Geist Mono', 'Geist Mono_MSFontService', sans-serif" /><path
       d="m 3682.9701,2854 v -5.376 h 14.336 v -28.288 h -11.904 v -4.736 h 6.144 q 3.648,0 5.184,-1.6 1.6,-1.6 1.6,-5.44 h 4.48 v 40.064 h 10.88 V 2854 Z"
       id="path614"
       style="font-size:64px;font-family:'Geist Mono', 'Geist Mono_MSFontService', sans-serif" /><path
       d="m 3736.7302,2855.024 q -4.928,0 -8.576,-2.88 -3.584,-2.88 -5.504,-8.192 -1.92,-5.312 -1.92,-12.608 0,-7.36 1.92,-12.672 1.92,-5.312 5.504,-8.192 3.648,-2.944 8.576,-2.944 4.992,0 8.576,2.944 3.584,2.88 5.504,8.192 1.92,5.312 1.92,12.672 0,7.296 -1.92,12.608 -1.92,5.312 -5.504,8.192 -3.584,2.88 -8.576,2.88 z m -10.24,-23.68 q 0,6.4 1.6,10.88 l 14.592,-26.56 q -2.496,-2.752 -5.952,-2.752 -4.736,0 -7.488,4.992 -2.752,4.928 -2.752,13.44 z m 10.24,18.304 q 4.736,0 7.488,-4.928 2.752,-4.992 2.752,-13.376 0,-6.464 -1.6,-10.944 l -14.592,26.496 q 2.496,2.752 5.952,2.752 z"
       id="path616"
       style="font-size:64px;font-family:'Geist Mono', 'Geist Mono_MSFontService', sans-serif" /><path
       d="m 3775.1302,2855.024 q -4.928,0 -8.576,-2.88 -3.584,-2.88 -5.504,-8.192 -1.92,-5.312 -1.92,-12.608 0,-7.36 1.92,-12.672 1.92,-5.312 5.504,-8.192 3.648,-2.944 8.576,-2.944 4.992,0 8.576,2.944 3.584,2.88 5.504,8.192 1.92,5.312 1.92,12.672 0,7.296 -1.92,12.608 -1.92,5.312 -5.504,8.192 -3.584,2.88 -8.576,2.88 z m -10.24,-23.68 q 0,6.4 1.6,10.88 l 14.592,-26.56 q -2.496,-2.752 -5.952,-2.752 -4.736,0 -7.488,4.992 -2.752,4.928 -2.752,13.44 z m 10.24,18.304 q 4.736,0 7.488,-4.928 2.752,-4.992 2.752,-13.376 0,-6.464 -1.6,-10.944 l -14.592,26.496 q 2.496,2.752 5.952,2.752 z"
       id="path618"
       style="font-size:64px;font-family:'Geist Mono', 'Geist Mono_MSFontService', sans-serif" /><path
       d="m 3851.9302,2855.024 q -7.168,0 -11.264,-4.544 -4.096,-4.544 -4.096,-12.352 v -29.568 h 5.504 v 29.568 q 0,5.632 2.496,8.576 2.56,2.944 7.36,2.944 4.8,0 7.296,-2.944 2.56,-2.944 2.56,-8.576 v -29.568 h 5.504 v 29.568 q 0,7.808 -4.096,12.352 -4.096,4.544 -11.264,4.544 z"
       id="path620"
       style="font-size:64px;font-family:'Geist Mono', 'Geist Mono_MSFontService', sans-serif" /><path
       d="m 3891.0342,2855.024 q -4.8,0 -8.512,-1.984 -3.712,-1.984 -5.952,-5.44 -2.24,-3.52 -2.624,-8.128 l 5.76,-0.384 q 0.704,5.056 3.648,7.808 3.008,2.752 7.808,2.752 4.736,0 7.232,-1.792 2.56,-1.856 2.56,-5.184 0,-2.176 -1.024,-3.712 -0.96,-1.6 -3.712,-2.944 -2.688,-1.408 -8,-2.88 -4.736,-1.344 -7.68,-2.944 -2.88,-1.664 -4.224,-3.968 -1.28,-2.368 -1.28,-5.76 0,-3.84 1.792,-6.72 1.856,-2.944 5.248,-4.544 3.392,-1.664 8.064,-1.664 4.672,0 8,1.92 3.328,1.856 5.248,5.12 1.984,3.264 2.496,7.424 l -5.76,0.384 q -0.576,-4.16 -3.072,-6.784 -2.432,-2.688 -7.04,-2.688 -4.224,0 -6.72,2.048 -2.496,1.984 -2.496,5.248 0,2.112 0.896,3.52 0.96,1.344 3.328,2.432 2.368,1.024 6.656,2.24 5.568,1.536 8.832,3.456 3.328,1.92 4.736,4.544 1.472,2.624 1.472,6.4 0,3.584 -1.984,6.4 -1.984,2.752 -5.504,4.288 -3.52,1.536 -8.192,1.536 z"
       id="path622"
       style="font-size:64px;font-family:'Geist Mono', 'Geist Mono_MSFontService', sans-serif" /><path
       d="m 3915.2903,2854 v -45.44 h 10.752 q 5.888,0 10.24,2.688 4.416,2.624 6.784,7.744 2.432,5.056 2.432,12.352 0,7.296 -2.432,12.352 -2.368,5.056 -6.784,7.68 -4.352,2.624 -10.24,2.624 z m 5.504,-5.376 h 4.928 q 6.656,0 10.304,-4.288 3.712,-4.352 3.712,-12.992 0,-8.64 -3.712,-12.992 -3.648,-4.416 -10.304,-4.416 h -4.928 z"
       id="path624"
       style="font-size:64px;font-family:'Geist Mono', 'Geist Mono_MSFontService', sans-serif" /><path
       d="m 3967.2583,2855.024 q -5.44,0 -9.216,-2.88 -3.776,-2.88 -5.76,-8.192 -1.92,-5.312 -1.92,-12.608 0,-7.36 1.92,-12.672 1.984,-5.312 5.76,-8.192 3.776,-2.944 9.216,-2.944 6.016,0 10.24,3.968 4.224,3.904 5.632,10.944 l -5.888,0.384 q -1.088,-4.928 -3.776,-7.424 -2.624,-2.496 -6.208,-2.496 -5.44,0 -8.32,4.8 -2.816,4.8 -2.816,13.632 0,8.768 2.816,13.568 2.88,4.736 8.32,4.736 3.968,0 6.72,-2.752 2.752,-2.752 3.712,-8.192 l 5.824,0.32 q -1.216,7.488 -5.504,11.776 -4.288,4.224 -10.752,4.224 z"
       id="path626"
       style="font-size:64px;font-family:'Geist Mono', 'Geist Mono_MSFontService', sans-serif" /><path
       d="m 3492.246,3383.024 q -7.36,0 -11.328,-3.52 -3.968,-3.584 -4.288,-9.216 l 5.696,-0.384 q 0.384,4.16 3.072,5.952 2.752,1.792 6.848,1.792 2.752,0 5.184,-0.768 2.432,-0.832 3.904,-2.624 1.536,-1.856 1.536,-4.928 0,-4.544 -2.944,-6.656 -2.944,-2.112 -7.36,-2.112 h -3.584 v -5.376 h 3.584 q 2.368,0 4.352,-0.704 1.984,-0.704 3.136,-2.24 1.216,-1.6 1.216,-4.16 0,-3.52 -2.24,-5.312 -2.24,-1.856 -6.464,-1.856 -4.288,0 -6.528,1.728 -2.176,1.728 -2.624,4.736 l -5.76,-0.384 q 0.64,-5.12 4.48,-8.256 3.84,-3.2 10.432,-3.2 6.656,0 10.56,3.328 3.904,3.264 3.904,8.96 0,7.296 -7.872,9.728 4.416,1.216 6.912,4.352 2.56,3.072 2.56,7.424 0,4.352 -2.112,7.424 -2.112,3.072 -5.824,4.672 -3.712,1.6 -8.448,1.6 z"
       id="path629"
       style="font-size:64px;font-family:'Geist Mono', 'Geist Mono_MSFontService', sans-serif" /><path
       d="m 3527.062,3382 v -7.808 h 7.936 V 3382 Z"
       id="path631"
       style="font-size:64px;font-family:'Geist Mono', 'Geist Mono_MSFontService', sans-serif" /><path
       d="m 3595.5421,3389.04 19.456,-55.04 h 5.12 l -19.456,55.04 z"
       id="path633"
       style="font-size:64px;font-family:'Geist Mono', 'Geist Mono_MSFontService', sans-serif" /><path
       d="m 3690.2621,3382 v -9.856 h -22.272 v -4.992 l 21.888,-30.592 h 5.888 v 30.208 h 5.504 v 5.376 h -5.504 V 3382 Z m -16.64,-15.232 h 16.64 v -22.528 z"
       id="path635"
       style="font-size:64px;font-family:'Geist Mono', 'Geist Mono_MSFontService', sans-serif" /><path
       d="m 3723.0302,3383.024 q -4.9281,0 -8.576,-2.88 -3.5841,-2.88 -5.5041,-8.192 -1.9199,-5.312 -1.9199,-12.608 0,-7.36 1.9199,-12.672 1.92,-5.312 5.5041,-8.192 3.6479,-2.944 8.576,-2.944 4.9919,0 8.5759,2.944 3.5841,2.88 5.5041,8.192 1.92,5.312 1.92,12.672 0,7.296 -1.92,12.608 -1.92,5.312 -5.5041,8.192 -3.584,2.88 -8.5759,2.88 z m -10.2401,-23.68 q 0,6.4 1.6,10.88 l 14.592,-26.56 q -2.496,-2.752 -5.9519,-2.752 -4.7361,0 -7.4881,4.992 -2.752,4.928 -2.752,13.44 z m 10.2401,18.304 q 4.736,0 7.4879,-4.928 2.752,-4.992 2.752,-13.376 0,-6.464 -1.5999,-10.944 l -14.5921,26.496 q 2.4961,2.752 5.9521,2.752 z"
       id="path637"
       style="font-size:64px;font-family:'Geist Mono', 'Geist Mono_MSFontService', sans-serif" /><path
       d="m 3761.4302,3383.024 q -4.928,0 -8.576,-2.88 -3.584,-2.88 -5.504,-8.192 -1.92,-5.312 -1.92,-12.608 0,-7.36 1.92,-12.672 1.92,-5.312 5.504,-8.192 3.648,-2.944 8.576,-2.944 4.992,0 8.576,2.944 3.584,2.88 5.504,8.192 1.92,5.312 1.92,12.672 0,7.296 -1.92,12.608 -1.92,5.312 -5.504,8.192 -3.584,2.88 -8.576,2.88 z m -10.24,-23.68 q 0,6.4 1.6,10.88 l 14.592,-26.56 q -2.496,-2.752 -5.952,-2.752 -4.736,0 -7.488,4.992 -2.752,4.928 -2.752,13.44 z m 10.24,18.304 q 4.736,0 7.488,-4.928 2.752,-4.992 2.752,-13.376 0,-6.464 -1.6,-10.944 l -14.592,26.496 q 2.496,2.752 5.952,2.752 z"
       id="path639"
       style="font-size:64px;font-family:'Geist Mono', 'Geist Mono_MSFontService', sans-serif" /><path
       d="m 3824.7902,3382 v -45.44 h 27.648 v 5.376 h -22.144 v 14.656 h 21.376 v 5.248 h -21.376 v 14.784 h 22.656 V 3382 Z"
       id="path641"
       style="font-size:64px;font-family:'Geist Mono', 'Geist Mono_MSFontService', sans-serif" /><path
       d="m 3876.6302,3383.024 q -7.168,0 -11.264,-4.544 -4.096,-4.544 -4.096,-12.352 v -29.568 h 5.504 v 29.568 q 0,5.632 2.496,8.576 2.56,2.944 7.36,2.944 4.8,0 7.296,-2.944 2.56,-2.944 2.56,-8.576 v -29.568 h 5.504 v 29.568 q 0,7.808 -4.096,12.352 -4.096,4.544 -11.264,4.544 z"
       id="path643"
       style="font-size:64px;font-family:'Geist Mono', 'Geist Mono_MSFontService', sans-serif" /><path
       d="m 3900.3103,3382 v -45.44 h 13.824 q 7.168,0 11.328,3.648 4.16,3.584 4.16,9.92 0,4.032 -2.368,6.912 -2.304,2.816 -5.312,3.776 3.264,0.64 4.928,2.56 1.664,1.92 1.984,5.568 l 1.152,13.056 h -5.504 l -1.088,-12.352 q -0.256,-3.2 -1.984,-4.544 -1.728,-1.408 -6.144,-1.408 h -9.472 V 3382 Z m 5.504,-23.68 h 8.32 q 4.736,0 7.232,-2.112 2.496,-2.176 2.496,-6.08 0,-3.968 -2.496,-6.08 -2.496,-2.112 -7.232,-2.112 h -8.32 z"
       id="path645"
       style="font-size:64px;font-family:'Geist Mono', 'Geist Mono_MSFontService', sans-serif" /></g></svg>
