<svg xmlns="http://www.w3.org/2000/svg" version="1.1" xmlns:xlink="http://www.w3.org/1999/xlink" width="1200" height="1200"><svg xmlns="http://www.w3.org/2000/svg" version="1.1" xmlns:xlink="http://www.w3.org/1999/xlink" width="1200" height="1200"><svg width="1200" height="1200" viewBox="0 0 687.91665 687.91665" version="1.1" xml:space="preserve" xmlns="http://www.w3.org/2000/svg" xmlns:svg="http://www.w3.org/2000/svg">
    <path fill="currentColor" d="M 342.60408,-1.477946 C 153.38907,-1.477941 5.9763765e-6,152.51744 0,342.48038 c 0.04935491,67.57179 57.138083,189.93466 57.138083,189.93466 0,0 137.774957,-133.94484 186.274487,-180.39932 54.9507,-47.70531 148.02067,-42.03107 195.7512,-3.99769 65.2119,54.56793 134.97186,117.9557 192.11255,179.27484 32.36302,-50.97269 50.77443,-109.60771 53.37953,-169.99841 -31.52131,0.0199 -74.60348,-0.47547 -94.35304,-0.53381 C 532.84054,301.22201 468.57311,237.71226 415.63804,185.73801 384.40229,154.30462 317.16293,152.5405 273.17167,186.44546 212.86724,242.33622 153.38059,303.35277 98.602652,356.65884 66.118229,356.45826 35.1917,356.89492 2.7085078,356.91154 66.753951,279.94488 179.15908,177.87403 243.41257,116.32985 c 54.9507,-47.70528 148.02067,-42.030539 195.7512,-3.99717 87.51863,73.23375 183.15016,166.30926 245.48871,244.9844 0.19245,-3.62686 0.47774,-11.20554 0.55568,-14.8367 C 685.20815,152.51744 531.81909,-1.47794 342.60408,-1.477946 Z M 583.94899,586.2717 C 528.107,532.20472 466.66595,471.52506 415.63804,421.42337 c -31.23575,-31.43341 -98.47511,-33.19751 -142.46637,0.70745 -58.704,54.4075 -116.59763,113.61695 -170.16243,165.89788 63.97227,62.99885 149.98396,98.32687 239.59484,98.41001 90.46578,-0.0896 177.22443,-36.09758 241.34491,-100.16701 z"></path>
   </svg></svg><style>@media (prefers-color-scheme: light) { :root { filter: contrast(1) brightness(0.1); } }
@media (prefers-color-scheme: dark) { :root { filter: contrast(0.3846153846153846) brightness(4.5); } }
</style></svg>